G04 #@! TF.GenerationSoftware,KiCad,Pcbnew,(6.0.1)*
G04 #@! TF.CreationDate,2022-02-14T21:07:25+01:00*
G04 #@! TF.ProjectId,hotair-soldering-station-main-pcb ,686f7461-6972-42d7-936f-6c646572696e,rev?*
G04 #@! TF.SameCoordinates,Original*
G04 #@! TF.FileFunction,Legend,Top*
G04 #@! TF.FilePolarity,Positive*
%FSLAX46Y46*%
G04 Gerber Fmt 4.6, Leading zero omitted, Abs format (unit mm)*
G04 Created by KiCad (PCBNEW (6.0.1)) date 2022-02-14 21:07:25*
%MOMM*%
%LPD*%
G01*
G04 APERTURE LIST*
G04 Aperture macros list*
%AMRoundRect*
0 Rectangle with rounded corners*
0 $1 Rounding radius*
0 $2 $3 $4 $5 $6 $7 $8 $9 X,Y pos of 4 corners*
0 Add a 4 corners polygon primitive as box body*
4,1,4,$2,$3,$4,$5,$6,$7,$8,$9,$2,$3,0*
0 Add four circle primitives for the rounded corners*
1,1,$1+$1,$2,$3*
1,1,$1+$1,$4,$5*
1,1,$1+$1,$6,$7*
1,1,$1+$1,$8,$9*
0 Add four rect primitives between the rounded corners*
20,1,$1+$1,$2,$3,$4,$5,0*
20,1,$1+$1,$4,$5,$6,$7,0*
20,1,$1+$1,$6,$7,$8,$9,0*
20,1,$1+$1,$8,$9,$2,$3,0*%
G04 Aperture macros list end*
%ADD10C,0.400000*%
%ADD11C,0.500000*%
%ADD12C,0.160000*%
%ADD13C,0.150000*%
%ADD14C,0.120000*%
%ADD15C,0.376228*%
%ADD16C,0.066040*%
%ADD17C,0.280000*%
%ADD18C,0.300000*%
%ADD19C,0.100000*%
%ADD20C,1.500000*%
%ADD21C,2.000000*%
%ADD22RoundRect,0.101600X-0.398780X-0.599440X0.398780X-0.599440X0.398780X0.599440X-0.398780X0.599440X0*%
%ADD23RoundRect,0.101600X0.599440X-0.398780X0.599440X0.398780X-0.599440X0.398780X-0.599440X-0.398780X0*%
%ADD24RoundRect,0.101600X0.398780X0.599440X-0.398780X0.599440X-0.398780X-0.599440X0.398780X-0.599440X0*%
%ADD25RoundRect,0.051000X0.450000X0.400000X-0.450000X0.400000X-0.450000X-0.400000X0.450000X-0.400000X0*%
%ADD26RoundRect,0.051000X-0.400000X0.450000X-0.400000X-0.450000X0.400000X-0.450000X0.400000X0.450000X0*%
%ADD27RoundRect,0.101600X-0.599440X0.398780X-0.599440X-0.398780X0.599440X-0.398780X0.599440X0.398780X0*%
%ADD28RoundRect,0.051000X0.750000X-1.000000X0.750000X1.000000X-0.750000X1.000000X-0.750000X-1.000000X0*%
%ADD29RoundRect,0.051000X1.900000X-1.000000X1.900000X1.000000X-1.900000X1.000000X-1.900000X-1.000000X0*%
%ADD30RoundRect,0.051000X0.650000X0.850000X-0.650000X0.850000X-0.650000X-0.850000X0.650000X-0.850000X0*%
%ADD31RoundRect,0.051000X-0.450000X-0.400000X0.450000X-0.400000X0.450000X0.400000X-0.450000X0.400000X0*%
%ADD32RoundRect,0.201000X-0.150000X0.825000X-0.150000X-0.825000X0.150000X-0.825000X0.150000X0.825000X0*%
%ADD33RoundRect,0.201000X-0.725000X-0.150000X0.725000X-0.150000X0.725000X0.150000X-0.725000X0.150000X0*%
%ADD34RoundRect,0.126000X0.075000X-0.662500X0.075000X0.662500X-0.075000X0.662500X-0.075000X-0.662500X0*%
%ADD35RoundRect,0.126000X0.662500X-0.075000X0.662500X0.075000X-0.662500X0.075000X-0.662500X-0.075000X0*%
%ADD36RoundRect,0.101600X-0.499110X0.549910X-0.499110X-0.549910X0.499110X-0.549910X0.499110X0.549910X0*%
%ADD37RoundRect,0.201000X0.587500X0.150000X-0.587500X0.150000X-0.587500X-0.150000X0.587500X-0.150000X0*%
%ADD38O,3.102000X5.102000*%
%ADD39RoundRect,0.051000X-1.000000X-1.000000X1.000000X-1.000000X1.000000X1.000000X-1.000000X1.000000X0*%
%ADD40RoundRect,0.051000X1.000000X1.000000X-1.000000X1.000000X-1.000000X-1.000000X1.000000X-1.000000X0*%
%ADD41RoundRect,0.051000X0.800000X0.800000X-0.800000X0.800000X-0.800000X-0.800000X0.800000X-0.800000X0*%
%ADD42C,1.702000*%
%ADD43RoundRect,0.051000X-1.100000X-1.100000X1.100000X-1.100000X1.100000X1.100000X-1.100000X1.100000X0*%
%ADD44O,2.302000X2.302000*%
%ADD45RoundRect,0.051000X-0.800000X0.800000X-0.800000X-0.800000X0.800000X-0.800000X0.800000X0.800000X0*%
%ADD46C,1.502000*%
%ADD47O,1.502000X1.502000*%
%ADD48RoundRect,0.051000X0.800000X-1.200000X0.800000X1.200000X-0.800000X1.200000X-0.800000X-1.200000X0*%
%ADD49O,1.702000X2.502000*%
%ADD50O,1.702000X1.702000*%
%ADD51RoundRect,0.051000X-1.500000X1.250000X-1.500000X-1.250000X1.500000X-1.250000X1.500000X1.250000X0*%
%ADD52O,2.602000X4.102000*%
%ADD53O,3.302000X2.602000*%
%ADD54RoundRect,0.051000X-1.500000X-1.000000X1.500000X-1.000000X1.500000X1.000000X-1.500000X1.000000X0*%
%ADD55O,3.402000X1.902000*%
%ADD56RoundRect,0.051000X-1.000000X1.000000X-1.000000X-1.000000X1.000000X-1.000000X1.000000X1.000000X0*%
%ADD57RoundRect,0.051000X1.750000X-0.900000X1.750000X0.900000X-1.750000X0.900000X-1.750000X-0.900000X0*%
%ADD58O,3.602000X1.902000*%
%ADD59RoundRect,0.051000X-2.500000X-1.500000X2.500000X-1.500000X2.500000X1.500000X-2.500000X1.500000X0*%
%ADD60RoundRect,0.051000X2.000000X-1.250000X2.000000X1.250000X-2.000000X1.250000X-2.000000X-1.250000X0*%
%ADD61RoundRect,0.051000X1.000000X1.250000X-1.000000X1.250000X-1.000000X-1.250000X1.000000X-1.250000X0*%
%ADD62C,1.800000*%
%ADD63RoundRect,0.051000X2.500000X-1.250000X2.500000X1.250000X-2.500000X1.250000X-2.500000X-1.250000X0*%
%ADD64C,2.102000*%
%ADD65C,1.852000*%
%ADD66RoundRect,0.051000X-0.950000X0.950000X-0.950000X-0.950000X0.950000X-0.950000X0.950000X0.950000X0*%
%ADD67O,3.102000X4.602000*%
%ADD68O,2.602000X2.602000*%
%ADD69RoundRect,0.051000X1.250000X1.250000X-1.250000X1.250000X-1.250000X-1.250000X1.250000X-1.250000X0*%
%ADD70RoundRect,0.051000X1.250000X-1.250000X1.250000X1.250000X-1.250000X1.250000X-1.250000X-1.250000X0*%
%ADD71O,2.102000X6.102000*%
%ADD72C,2.112000*%
%ADD73RoundRect,0.301000X-0.350000X-0.750000X0.350000X-0.750000X0.350000X0.750000X-0.350000X0.750000X0*%
%ADD74O,1.302000X2.102000*%
G04 APERTURE END LIST*
D10*
X31496000Y-89662000D02*
X55626000Y-89662000D01*
X53086000Y-80518000D02*
X51816000Y-81788000D01*
X17272000Y-89662000D02*
X23876000Y-89662000D01*
X59944000Y-85344000D02*
X59944000Y-18542000D01*
X17526000Y-81788000D02*
X23876000Y-81788000D01*
X53086000Y-33528000D02*
X53086000Y-18491200D01*
X55626000Y-89662000D02*
X59944000Y-85344000D01*
X53086000Y-33528000D02*
X53086000Y-80518000D01*
X31750000Y-81788000D02*
X51816000Y-81788000D01*
D11*
X57407038Y-29850609D02*
X55407038Y-30326800D01*
X56835609Y-30707752D01*
X55407038Y-31088704D01*
X57407038Y-31564895D01*
X55978466Y-32231561D02*
X55978466Y-33183942D01*
X55407038Y-32041085D02*
X57407038Y-32707752D01*
X55407038Y-33374419D01*
X55407038Y-35183942D02*
X56359419Y-34517276D01*
X55407038Y-34041085D02*
X57407038Y-34041085D01*
X57407038Y-34802990D01*
X57311800Y-34993466D01*
X57216561Y-35088704D01*
X57026085Y-35183942D01*
X56740371Y-35183942D01*
X56549895Y-35088704D01*
X56454657Y-34993466D01*
X56359419Y-34802990D01*
X56359419Y-34041085D01*
X55407038Y-36041085D02*
X57407038Y-36041085D01*
X55407038Y-37183942D01*
X57407038Y-37183942D01*
X55407038Y-38136323D02*
X57407038Y-38136323D01*
X55407038Y-39088704D02*
X57407038Y-39088704D01*
X55407038Y-40231561D01*
X57407038Y-40231561D01*
X57311800Y-42231561D02*
X57407038Y-42041085D01*
X57407038Y-41755371D01*
X57311800Y-41469657D01*
X57121323Y-41279180D01*
X56930847Y-41183942D01*
X56549895Y-41088704D01*
X56264180Y-41088704D01*
X55883228Y-41183942D01*
X55692752Y-41279180D01*
X55502276Y-41469657D01*
X55407038Y-41755371D01*
X55407038Y-41945847D01*
X55502276Y-42231561D01*
X55597514Y-42326800D01*
X56264180Y-42326800D01*
X56264180Y-41945847D01*
X55597514Y-43183942D02*
X55502276Y-43279180D01*
X55407038Y-43183942D01*
X55502276Y-43088704D01*
X55597514Y-43183942D01*
X55407038Y-43183942D01*
X56168942Y-43183942D02*
X57311800Y-43088704D01*
X57407038Y-43183942D01*
X57311800Y-43279180D01*
X56168942Y-43183942D01*
X57407038Y-43183942D01*
X55407038Y-45660133D02*
X57407038Y-45660133D01*
X55978466Y-46326800D01*
X57407038Y-46993466D01*
X55407038Y-46993466D01*
X55978466Y-47850609D02*
X55978466Y-48802990D01*
X55407038Y-47660133D02*
X57407038Y-48326800D01*
X55407038Y-48993466D01*
X55407038Y-49660133D02*
X57407038Y-49660133D01*
X55407038Y-50612514D02*
X57407038Y-50612514D01*
X55407038Y-51755371D01*
X57407038Y-51755371D01*
X55502276Y-52612514D02*
X55407038Y-52898228D01*
X55407038Y-53374419D01*
X55502276Y-53564895D01*
X55597514Y-53660133D01*
X55787990Y-53755371D01*
X55978466Y-53755371D01*
X56168942Y-53660133D01*
X56264180Y-53564895D01*
X56359419Y-53374419D01*
X56454657Y-52993466D01*
X56549895Y-52802990D01*
X56645133Y-52707752D01*
X56835609Y-52612514D01*
X57026085Y-52612514D01*
X57216561Y-52707752D01*
X57311800Y-52802990D01*
X57407038Y-52993466D01*
X57407038Y-53469657D01*
X57311800Y-53755371D01*
X57407038Y-55850609D02*
X55407038Y-56517276D01*
X57407038Y-57183942D01*
X57407038Y-58231561D02*
X57407038Y-58612514D01*
X57311800Y-58802990D01*
X57121323Y-58993466D01*
X56740371Y-59088704D01*
X56073704Y-59088704D01*
X55692752Y-58993466D01*
X55502276Y-58802990D01*
X55407038Y-58612514D01*
X55407038Y-58231561D01*
X55502276Y-58041085D01*
X55692752Y-57850609D01*
X56073704Y-57755371D01*
X56740371Y-57755371D01*
X57121323Y-57850609D01*
X57311800Y-58041085D01*
X57407038Y-58231561D01*
X55407038Y-60898228D02*
X55407038Y-59945847D01*
X57407038Y-59945847D01*
X57407038Y-61279180D02*
X57407038Y-62422038D01*
X55407038Y-61850609D02*
X57407038Y-61850609D01*
X55978466Y-62993466D02*
X55978466Y-63945847D01*
X55407038Y-62802990D02*
X57407038Y-63469657D01*
X55407038Y-64136323D01*
X57311800Y-65850609D02*
X57407038Y-65660133D01*
X57407038Y-65374419D01*
X57311800Y-65088704D01*
X57121323Y-64898228D01*
X56930847Y-64802990D01*
X56549895Y-64707752D01*
X56264180Y-64707752D01*
X55883228Y-64802990D01*
X55692752Y-64898228D01*
X55502276Y-65088704D01*
X55407038Y-65374419D01*
X55407038Y-65564895D01*
X55502276Y-65850609D01*
X55597514Y-65945847D01*
X56264180Y-65945847D01*
X56264180Y-65564895D01*
X56454657Y-66802990D02*
X56454657Y-67469657D01*
X55407038Y-67755371D02*
X55407038Y-66802990D01*
X57407038Y-66802990D01*
X57407038Y-67755371D01*
X55597514Y-68612514D02*
X55502276Y-68707752D01*
X55407038Y-68612514D01*
X55502276Y-68517276D01*
X55597514Y-68612514D01*
X55407038Y-68612514D01*
X56168942Y-68612514D02*
X57311800Y-68517276D01*
X57407038Y-68612514D01*
X57311800Y-68707752D01*
X56168942Y-68612514D01*
X57407038Y-68612514D01*
D12*
X44123857Y-95874619D02*
X43757190Y-95350809D01*
X43495285Y-95874619D02*
X43495285Y-94774619D01*
X43914333Y-94774619D01*
X44019095Y-94827000D01*
X44071476Y-94879380D01*
X44123857Y-94984142D01*
X44123857Y-95141285D01*
X44071476Y-95246047D01*
X44019095Y-95298428D01*
X43914333Y-95350809D01*
X43495285Y-95350809D01*
X44490523Y-94774619D02*
X45171476Y-94774619D01*
X44804809Y-95193666D01*
X44961952Y-95193666D01*
X45066714Y-95246047D01*
X45119095Y-95298428D01*
X45171476Y-95403190D01*
X45171476Y-95665095D01*
X45119095Y-95769857D01*
X45066714Y-95822238D01*
X44961952Y-95874619D01*
X44647666Y-95874619D01*
X44542904Y-95822238D01*
X44490523Y-95769857D01*
X46219095Y-95874619D02*
X45590523Y-95874619D01*
X45904809Y-95874619D02*
X45904809Y-94774619D01*
X45800047Y-94931761D01*
X45695285Y-95036523D01*
X45590523Y-95088904D01*
X44430238Y-99176619D02*
X43801666Y-99176619D01*
X44115952Y-99176619D02*
X44115952Y-98076619D01*
X44011190Y-98233761D01*
X43906428Y-98338523D01*
X43801666Y-98390904D01*
X45111190Y-98076619D02*
X45215952Y-98076619D01*
X45320714Y-98129000D01*
X45373095Y-98181380D01*
X45425476Y-98286142D01*
X45477857Y-98495666D01*
X45477857Y-98757571D01*
X45425476Y-98967095D01*
X45373095Y-99071857D01*
X45320714Y-99124238D01*
X45215952Y-99176619D01*
X45111190Y-99176619D01*
X45006428Y-99124238D01*
X44954047Y-99071857D01*
X44901666Y-98967095D01*
X44849285Y-98757571D01*
X44849285Y-98495666D01*
X44901666Y-98286142D01*
X44954047Y-98181380D01*
X45006428Y-98129000D01*
X45111190Y-98076619D01*
X45949285Y-99176619D02*
X45949285Y-98076619D01*
X46054047Y-98757571D02*
X46368333Y-99176619D01*
X46368333Y-98443285D02*
X45949285Y-98862333D01*
X64443857Y-74919619D02*
X64077190Y-74395809D01*
X63815285Y-74919619D02*
X63815285Y-73819619D01*
X64234333Y-73819619D01*
X64339095Y-73872000D01*
X64391476Y-73924380D01*
X64443857Y-74029142D01*
X64443857Y-74186285D01*
X64391476Y-74291047D01*
X64339095Y-74343428D01*
X64234333Y-74395809D01*
X63815285Y-74395809D01*
X65491476Y-74919619D02*
X64862904Y-74919619D01*
X65177190Y-74919619D02*
X65177190Y-73819619D01*
X65072428Y-73976761D01*
X64967666Y-74081523D01*
X64862904Y-74133904D01*
X66120047Y-74291047D02*
X66015285Y-74238666D01*
X65962904Y-74186285D01*
X65910523Y-74081523D01*
X65910523Y-74029142D01*
X65962904Y-73924380D01*
X66015285Y-73872000D01*
X66120047Y-73819619D01*
X66329571Y-73819619D01*
X66434333Y-73872000D01*
X66486714Y-73924380D01*
X66539095Y-74029142D01*
X66539095Y-74081523D01*
X66486714Y-74186285D01*
X66434333Y-74238666D01*
X66329571Y-74291047D01*
X66120047Y-74291047D01*
X66015285Y-74343428D01*
X65962904Y-74395809D01*
X65910523Y-74500571D01*
X65910523Y-74710095D01*
X65962904Y-74814857D01*
X66015285Y-74867238D01*
X66120047Y-74919619D01*
X66329571Y-74919619D01*
X66434333Y-74867238D01*
X66486714Y-74814857D01*
X66539095Y-74710095D01*
X66539095Y-74500571D01*
X66486714Y-74395809D01*
X66434333Y-74343428D01*
X66329571Y-74291047D01*
X64512047Y-76316619D02*
X63883476Y-76316619D01*
X64197761Y-76316619D02*
X64197761Y-75216619D01*
X64093000Y-75373761D01*
X63988238Y-75478523D01*
X63883476Y-75530904D01*
X64983476Y-76316619D02*
X64983476Y-75216619D01*
X65088238Y-75897571D02*
X65402523Y-76316619D01*
X65402523Y-75583285D02*
X64983476Y-76002333D01*
X37281666Y-94223619D02*
X36915000Y-93699809D01*
X36653095Y-94223619D02*
X36653095Y-93123619D01*
X37072142Y-93123619D01*
X37176904Y-93176000D01*
X37229285Y-93228380D01*
X37281666Y-93333142D01*
X37281666Y-93490285D01*
X37229285Y-93595047D01*
X37176904Y-93647428D01*
X37072142Y-93699809D01*
X36653095Y-93699809D01*
X38224523Y-93123619D02*
X38015000Y-93123619D01*
X37910238Y-93176000D01*
X37857857Y-93228380D01*
X37753095Y-93385523D01*
X37700714Y-93595047D01*
X37700714Y-94014095D01*
X37753095Y-94118857D01*
X37805476Y-94171238D01*
X37910238Y-94223619D01*
X38119761Y-94223619D01*
X38224523Y-94171238D01*
X38276904Y-94118857D01*
X38329285Y-94014095D01*
X38329285Y-93752190D01*
X38276904Y-93647428D01*
X38224523Y-93595047D01*
X38119761Y-93542666D01*
X37910238Y-93542666D01*
X37805476Y-93595047D01*
X37753095Y-93647428D01*
X37700714Y-93752190D01*
X34230714Y-89948619D02*
X34911666Y-89948619D01*
X34545000Y-90367666D01*
X34702142Y-90367666D01*
X34806904Y-90420047D01*
X34859285Y-90472428D01*
X34911666Y-90577190D01*
X34911666Y-90839095D01*
X34859285Y-90943857D01*
X34806904Y-90996238D01*
X34702142Y-91048619D01*
X34387857Y-91048619D01*
X34283095Y-90996238D01*
X34230714Y-90943857D01*
X35330714Y-90053380D02*
X35383095Y-90001000D01*
X35487857Y-89948619D01*
X35749761Y-89948619D01*
X35854523Y-90001000D01*
X35906904Y-90053380D01*
X35959285Y-90158142D01*
X35959285Y-90262904D01*
X35906904Y-90420047D01*
X35278333Y-91048619D01*
X35959285Y-91048619D01*
X36640238Y-89948619D02*
X36745000Y-89948619D01*
X36849761Y-90001000D01*
X36902142Y-90053380D01*
X36954523Y-90158142D01*
X37006904Y-90367666D01*
X37006904Y-90629571D01*
X36954523Y-90839095D01*
X36902142Y-90943857D01*
X36849761Y-90996238D01*
X36745000Y-91048619D01*
X36640238Y-91048619D01*
X36535476Y-90996238D01*
X36483095Y-90943857D01*
X36430714Y-90839095D01*
X36378333Y-90629571D01*
X36378333Y-90367666D01*
X36430714Y-90158142D01*
X36483095Y-90053380D01*
X36535476Y-90001000D01*
X36640238Y-89948619D01*
X38106904Y-91048619D02*
X37740238Y-90524809D01*
X37478333Y-91048619D02*
X37478333Y-89948619D01*
X37897380Y-89948619D01*
X38002142Y-90001000D01*
X38054523Y-90053380D01*
X38106904Y-90158142D01*
X38106904Y-90315285D01*
X38054523Y-90420047D01*
X38002142Y-90472428D01*
X37897380Y-90524809D01*
X37478333Y-90524809D01*
X40916238Y-99408380D02*
X40811476Y-99356000D01*
X40706714Y-99251238D01*
X40549571Y-99094095D01*
X40444809Y-99041714D01*
X40340047Y-99041714D01*
X40392428Y-99303619D02*
X40287666Y-99251238D01*
X40182904Y-99146476D01*
X40130523Y-98936952D01*
X40130523Y-98570285D01*
X40182904Y-98360761D01*
X40287666Y-98256000D01*
X40392428Y-98203619D01*
X40601952Y-98203619D01*
X40706714Y-98256000D01*
X40811476Y-98360761D01*
X40863857Y-98570285D01*
X40863857Y-98936952D01*
X40811476Y-99146476D01*
X40706714Y-99251238D01*
X40601952Y-99303619D01*
X40392428Y-99303619D01*
X41387666Y-99303619D02*
X41597190Y-99303619D01*
X41701952Y-99251238D01*
X41754333Y-99198857D01*
X41859095Y-99041714D01*
X41911476Y-98832190D01*
X41911476Y-98413142D01*
X41859095Y-98308380D01*
X41806714Y-98256000D01*
X41701952Y-98203619D01*
X41492428Y-98203619D01*
X41387666Y-98256000D01*
X41335285Y-98308380D01*
X41282904Y-98413142D01*
X41282904Y-98675047D01*
X41335285Y-98779809D01*
X41387666Y-98832190D01*
X41492428Y-98884571D01*
X41701952Y-98884571D01*
X41806714Y-98832190D01*
X41859095Y-98779809D01*
X41911476Y-98675047D01*
X42948238Y-91280380D02*
X42843476Y-91228000D01*
X42738714Y-91123238D01*
X42581571Y-90966095D01*
X42476809Y-90913714D01*
X42372047Y-90913714D01*
X42424428Y-91175619D02*
X42319666Y-91123238D01*
X42214904Y-91018476D01*
X42162523Y-90808952D01*
X42162523Y-90442285D01*
X42214904Y-90232761D01*
X42319666Y-90128000D01*
X42424428Y-90075619D01*
X42633952Y-90075619D01*
X42738714Y-90128000D01*
X42843476Y-90232761D01*
X42895857Y-90442285D01*
X42895857Y-90808952D01*
X42843476Y-91018476D01*
X42738714Y-91123238D01*
X42633952Y-91175619D01*
X42424428Y-91175619D01*
X43943476Y-91175619D02*
X43314904Y-91175619D01*
X43629190Y-91175619D02*
X43629190Y-90075619D01*
X43524428Y-90232761D01*
X43419666Y-90337523D01*
X43314904Y-90389904D01*
X46933666Y-91937619D02*
X46567000Y-91413809D01*
X46305095Y-91937619D02*
X46305095Y-90837619D01*
X46724142Y-90837619D01*
X46828904Y-90890000D01*
X46881285Y-90942380D01*
X46933666Y-91047142D01*
X46933666Y-91204285D01*
X46881285Y-91309047D01*
X46828904Y-91361428D01*
X46724142Y-91413809D01*
X46305095Y-91413809D01*
X47300333Y-90837619D02*
X47981285Y-90837619D01*
X47614619Y-91256666D01*
X47771761Y-91256666D01*
X47876523Y-91309047D01*
X47928904Y-91361428D01*
X47981285Y-91466190D01*
X47981285Y-91728095D01*
X47928904Y-91832857D01*
X47876523Y-91885238D01*
X47771761Y-91937619D01*
X47457476Y-91937619D01*
X47352714Y-91885238D01*
X47300333Y-91832857D01*
X46970238Y-93461619D02*
X46341666Y-93461619D01*
X46655952Y-93461619D02*
X46655952Y-92361619D01*
X46551190Y-92518761D01*
X46446428Y-92623523D01*
X46341666Y-92675904D01*
X47651190Y-92361619D02*
X47755952Y-92361619D01*
X47860714Y-92414000D01*
X47913095Y-92466380D01*
X47965476Y-92571142D01*
X48017857Y-92780666D01*
X48017857Y-93042571D01*
X47965476Y-93252095D01*
X47913095Y-93356857D01*
X47860714Y-93409238D01*
X47755952Y-93461619D01*
X47651190Y-93461619D01*
X47546428Y-93409238D01*
X47494047Y-93356857D01*
X47441666Y-93252095D01*
X47389285Y-93042571D01*
X47389285Y-92780666D01*
X47441666Y-92571142D01*
X47494047Y-92466380D01*
X47546428Y-92414000D01*
X47651190Y-92361619D01*
X48489285Y-93461619D02*
X48489285Y-92361619D01*
X48594047Y-93042571D02*
X48908333Y-93461619D01*
X48908333Y-92728285D02*
X48489285Y-93147333D01*
X73968857Y-72401857D02*
X73916476Y-72454238D01*
X73759333Y-72506619D01*
X73654571Y-72506619D01*
X73497428Y-72454238D01*
X73392666Y-72349476D01*
X73340285Y-72244714D01*
X73287904Y-72035190D01*
X73287904Y-71878047D01*
X73340285Y-71668523D01*
X73392666Y-71563761D01*
X73497428Y-71459000D01*
X73654571Y-71406619D01*
X73759333Y-71406619D01*
X73916476Y-71459000D01*
X73968857Y-71511380D01*
X75016476Y-72506619D02*
X74387904Y-72506619D01*
X74702190Y-72506619D02*
X74702190Y-71406619D01*
X74597428Y-71563761D01*
X74492666Y-71668523D01*
X74387904Y-71720904D01*
X75959333Y-71406619D02*
X75749809Y-71406619D01*
X75645047Y-71459000D01*
X75592666Y-71511380D01*
X75487904Y-71668523D01*
X75435523Y-71878047D01*
X75435523Y-72297095D01*
X75487904Y-72401857D01*
X75540285Y-72454238D01*
X75645047Y-72506619D01*
X75854571Y-72506619D01*
X75959333Y-72454238D01*
X76011714Y-72401857D01*
X76064095Y-72297095D01*
X76064095Y-72035190D01*
X76011714Y-71930428D01*
X75959333Y-71878047D01*
X75854571Y-71825666D01*
X75645047Y-71825666D01*
X75540285Y-71878047D01*
X75487904Y-71930428D01*
X75435523Y-72035190D01*
X73953047Y-74030619D02*
X73324476Y-74030619D01*
X73638761Y-74030619D02*
X73638761Y-72930619D01*
X73534000Y-73087761D01*
X73429238Y-73192523D01*
X73324476Y-73244904D01*
X74634000Y-72930619D02*
X74738761Y-72930619D01*
X74843523Y-72983000D01*
X74895904Y-73035380D01*
X74948285Y-73140142D01*
X75000666Y-73349666D01*
X75000666Y-73611571D01*
X74948285Y-73821095D01*
X74895904Y-73925857D01*
X74843523Y-73978238D01*
X74738761Y-74030619D01*
X74634000Y-74030619D01*
X74529238Y-73978238D01*
X74476857Y-73925857D01*
X74424476Y-73821095D01*
X74372095Y-73611571D01*
X74372095Y-73349666D01*
X74424476Y-73140142D01*
X74476857Y-73035380D01*
X74529238Y-72983000D01*
X74634000Y-72930619D01*
X75681619Y-72930619D02*
X75786380Y-72930619D01*
X75891142Y-72983000D01*
X75943523Y-73035380D01*
X75995904Y-73140142D01*
X76048285Y-73349666D01*
X76048285Y-73611571D01*
X75995904Y-73821095D01*
X75943523Y-73925857D01*
X75891142Y-73978238D01*
X75786380Y-74030619D01*
X75681619Y-74030619D01*
X75576857Y-73978238D01*
X75524476Y-73925857D01*
X75472095Y-73821095D01*
X75419714Y-73611571D01*
X75419714Y-73349666D01*
X75472095Y-73140142D01*
X75524476Y-73035380D01*
X75576857Y-72983000D01*
X75681619Y-72930619D01*
X76519714Y-73297285D02*
X76519714Y-74030619D01*
X76519714Y-73402047D02*
X76572095Y-73349666D01*
X76676857Y-73297285D01*
X76834000Y-73297285D01*
X76938761Y-73349666D01*
X76991142Y-73454428D01*
X76991142Y-74030619D01*
X96701857Y-36057619D02*
X96335190Y-35533809D01*
X96073285Y-36057619D02*
X96073285Y-34957619D01*
X96492333Y-34957619D01*
X96597095Y-35010000D01*
X96649476Y-35062380D01*
X96701857Y-35167142D01*
X96701857Y-35324285D01*
X96649476Y-35429047D01*
X96597095Y-35481428D01*
X96492333Y-35533809D01*
X96073285Y-35533809D01*
X97120904Y-35062380D02*
X97173285Y-35010000D01*
X97278047Y-34957619D01*
X97539952Y-34957619D01*
X97644714Y-35010000D01*
X97697095Y-35062380D01*
X97749476Y-35167142D01*
X97749476Y-35271904D01*
X97697095Y-35429047D01*
X97068523Y-36057619D01*
X97749476Y-36057619D01*
X98168523Y-35062380D02*
X98220904Y-35010000D01*
X98325666Y-34957619D01*
X98587571Y-34957619D01*
X98692333Y-35010000D01*
X98744714Y-35062380D01*
X98797095Y-35167142D01*
X98797095Y-35271904D01*
X98744714Y-35429047D01*
X98116142Y-36057619D01*
X98797095Y-36057619D01*
X96754238Y-37454619D02*
X96125666Y-37454619D01*
X96439952Y-37454619D02*
X96439952Y-36354619D01*
X96335190Y-36511761D01*
X96230428Y-36616523D01*
X96125666Y-36668904D01*
X97435190Y-36354619D02*
X97539952Y-36354619D01*
X97644714Y-36407000D01*
X97697095Y-36459380D01*
X97749476Y-36564142D01*
X97801857Y-36773666D01*
X97801857Y-37035571D01*
X97749476Y-37245095D01*
X97697095Y-37349857D01*
X97644714Y-37402238D01*
X97539952Y-37454619D01*
X97435190Y-37454619D01*
X97330428Y-37402238D01*
X97278047Y-37349857D01*
X97225666Y-37245095D01*
X97173285Y-37035571D01*
X97173285Y-36773666D01*
X97225666Y-36564142D01*
X97278047Y-36459380D01*
X97330428Y-36407000D01*
X97435190Y-36354619D01*
X98273285Y-37454619D02*
X98273285Y-36354619D01*
X98378047Y-37035571D02*
X98692333Y-37454619D01*
X98692333Y-36721285D02*
X98273285Y-37140333D01*
X94383238Y-41750380D02*
X94278476Y-41698000D01*
X94173714Y-41593238D01*
X94016571Y-41436095D01*
X93911809Y-41383714D01*
X93807047Y-41383714D01*
X93859428Y-41645619D02*
X93754666Y-41593238D01*
X93649904Y-41488476D01*
X93597523Y-41278952D01*
X93597523Y-40912285D01*
X93649904Y-40702761D01*
X93754666Y-40598000D01*
X93859428Y-40545619D01*
X94068952Y-40545619D01*
X94173714Y-40598000D01*
X94278476Y-40702761D01*
X94330857Y-40912285D01*
X94330857Y-41278952D01*
X94278476Y-41488476D01*
X94173714Y-41593238D01*
X94068952Y-41645619D01*
X93859428Y-41645619D01*
X94697523Y-40545619D02*
X95430857Y-40545619D01*
X94959428Y-41645619D01*
X94288857Y-44566619D02*
X93922190Y-44042809D01*
X93660285Y-44566619D02*
X93660285Y-43466619D01*
X94079333Y-43466619D01*
X94184095Y-43519000D01*
X94236476Y-43571380D01*
X94288857Y-43676142D01*
X94288857Y-43833285D01*
X94236476Y-43938047D01*
X94184095Y-43990428D01*
X94079333Y-44042809D01*
X93660285Y-44042809D01*
X94707904Y-43571380D02*
X94760285Y-43519000D01*
X94865047Y-43466619D01*
X95126952Y-43466619D01*
X95231714Y-43519000D01*
X95284095Y-43571380D01*
X95336476Y-43676142D01*
X95336476Y-43780904D01*
X95284095Y-43938047D01*
X94655523Y-44566619D01*
X95336476Y-44566619D01*
X96331714Y-43466619D02*
X95807904Y-43466619D01*
X95755523Y-43990428D01*
X95807904Y-43938047D01*
X95912666Y-43885666D01*
X96174571Y-43885666D01*
X96279333Y-43938047D01*
X96331714Y-43990428D01*
X96384095Y-44095190D01*
X96384095Y-44357095D01*
X96331714Y-44461857D01*
X96279333Y-44514238D01*
X96174571Y-44566619D01*
X95912666Y-44566619D01*
X95807904Y-44514238D01*
X95755523Y-44461857D01*
X93204666Y-46090619D02*
X92576095Y-46090619D01*
X92890380Y-46090619D02*
X92890380Y-44990619D01*
X92785619Y-45147761D01*
X92680857Y-45252523D01*
X92576095Y-45304904D01*
X93885619Y-44990619D02*
X93990380Y-44990619D01*
X94095142Y-45043000D01*
X94147523Y-45095380D01*
X94199904Y-45200142D01*
X94252285Y-45409666D01*
X94252285Y-45671571D01*
X94199904Y-45881095D01*
X94147523Y-45985857D01*
X94095142Y-46038238D01*
X93990380Y-46090619D01*
X93885619Y-46090619D01*
X93780857Y-46038238D01*
X93728476Y-45985857D01*
X93676095Y-45881095D01*
X93623714Y-45671571D01*
X93623714Y-45409666D01*
X93676095Y-45200142D01*
X93728476Y-45095380D01*
X93780857Y-45043000D01*
X93885619Y-44990619D01*
X94933238Y-44990619D02*
X95038000Y-44990619D01*
X95142761Y-45043000D01*
X95195142Y-45095380D01*
X95247523Y-45200142D01*
X95299904Y-45409666D01*
X95299904Y-45671571D01*
X95247523Y-45881095D01*
X95195142Y-45985857D01*
X95142761Y-46038238D01*
X95038000Y-46090619D01*
X94933238Y-46090619D01*
X94828476Y-46038238D01*
X94776095Y-45985857D01*
X94723714Y-45881095D01*
X94671333Y-45671571D01*
X94671333Y-45409666D01*
X94723714Y-45200142D01*
X94776095Y-45095380D01*
X94828476Y-45043000D01*
X94933238Y-44990619D01*
X96399904Y-46090619D02*
X96033238Y-45566809D01*
X95771333Y-46090619D02*
X95771333Y-44990619D01*
X96190380Y-44990619D01*
X96295142Y-45043000D01*
X96347523Y-45095380D01*
X96399904Y-45200142D01*
X96399904Y-45357285D01*
X96347523Y-45462047D01*
X96295142Y-45514428D01*
X96190380Y-45566809D01*
X95771333Y-45566809D01*
X103559857Y-39867619D02*
X103193190Y-39343809D01*
X102931285Y-39867619D02*
X102931285Y-38767619D01*
X103350333Y-38767619D01*
X103455095Y-38820000D01*
X103507476Y-38872380D01*
X103559857Y-38977142D01*
X103559857Y-39134285D01*
X103507476Y-39239047D01*
X103455095Y-39291428D01*
X103350333Y-39343809D01*
X102931285Y-39343809D01*
X103978904Y-38872380D02*
X104031285Y-38820000D01*
X104136047Y-38767619D01*
X104397952Y-38767619D01*
X104502714Y-38820000D01*
X104555095Y-38872380D01*
X104607476Y-38977142D01*
X104607476Y-39081904D01*
X104555095Y-39239047D01*
X103926523Y-39867619D01*
X104607476Y-39867619D01*
X105288428Y-38767619D02*
X105393190Y-38767619D01*
X105497952Y-38820000D01*
X105550333Y-38872380D01*
X105602714Y-38977142D01*
X105655095Y-39186666D01*
X105655095Y-39448571D01*
X105602714Y-39658095D01*
X105550333Y-39762857D01*
X105497952Y-39815238D01*
X105393190Y-39867619D01*
X105288428Y-39867619D01*
X105183666Y-39815238D01*
X105131285Y-39762857D01*
X105078904Y-39658095D01*
X105026523Y-39448571D01*
X105026523Y-39186666D01*
X105078904Y-38977142D01*
X105131285Y-38872380D01*
X105183666Y-38820000D01*
X105288428Y-38767619D01*
X103245571Y-40658285D02*
X103245571Y-41391619D01*
X102983666Y-40239238D02*
X102721761Y-41024952D01*
X103402714Y-41024952D01*
X103874142Y-41339238D02*
X103874142Y-41391619D01*
X103821761Y-41496380D01*
X103769380Y-41548761D01*
X104240809Y-40291619D02*
X104974142Y-40291619D01*
X104502714Y-41391619D01*
X105393190Y-41391619D02*
X105393190Y-40291619D01*
X105497952Y-40972571D02*
X105812238Y-41391619D01*
X105812238Y-40658285D02*
X105393190Y-41077333D01*
X91367857Y-38343619D02*
X91001190Y-37819809D01*
X90739285Y-38343619D02*
X90739285Y-37243619D01*
X91158333Y-37243619D01*
X91263095Y-37296000D01*
X91315476Y-37348380D01*
X91367857Y-37453142D01*
X91367857Y-37610285D01*
X91315476Y-37715047D01*
X91263095Y-37767428D01*
X91158333Y-37819809D01*
X90739285Y-37819809D01*
X91786904Y-37348380D02*
X91839285Y-37296000D01*
X91944047Y-37243619D01*
X92205952Y-37243619D01*
X92310714Y-37296000D01*
X92363095Y-37348380D01*
X92415476Y-37453142D01*
X92415476Y-37557904D01*
X92363095Y-37715047D01*
X91734523Y-38343619D01*
X92415476Y-38343619D01*
X93358333Y-37610285D02*
X93358333Y-38343619D01*
X93096428Y-37191238D02*
X92834523Y-37976952D01*
X93515476Y-37976952D01*
X92579047Y-39867619D02*
X91950476Y-39867619D01*
X92264761Y-39867619D02*
X92264761Y-38767619D01*
X92160000Y-38924761D01*
X92055238Y-39029523D01*
X91950476Y-39081904D01*
X93050476Y-39867619D02*
X93050476Y-38767619D01*
X93155238Y-39448571D02*
X93469523Y-39867619D01*
X93469523Y-39134285D02*
X93050476Y-39553333D01*
X66344904Y-54896619D02*
X66344904Y-55787095D01*
X66397285Y-55891857D01*
X66449666Y-55944238D01*
X66554428Y-55996619D01*
X66763952Y-55996619D01*
X66868714Y-55944238D01*
X66921095Y-55891857D01*
X66973476Y-55787095D01*
X66973476Y-54896619D01*
X67968714Y-55263285D02*
X67968714Y-55996619D01*
X67706809Y-54844238D02*
X67444904Y-55629952D01*
X68125857Y-55629952D01*
X61457619Y-64715142D02*
X60933809Y-65081809D01*
X61457619Y-65343714D02*
X60357619Y-65343714D01*
X60357619Y-64924666D01*
X60410000Y-64819904D01*
X60462380Y-64767523D01*
X60567142Y-64715142D01*
X60724285Y-64715142D01*
X60829047Y-64767523D01*
X60881428Y-64819904D01*
X60933809Y-64924666D01*
X60933809Y-65343714D01*
X60357619Y-64348476D02*
X60357619Y-63667523D01*
X60776666Y-64034190D01*
X60776666Y-63877047D01*
X60829047Y-63772285D01*
X60881428Y-63719904D01*
X60986190Y-63667523D01*
X61248095Y-63667523D01*
X61352857Y-63719904D01*
X61405238Y-63772285D01*
X61457619Y-63877047D01*
X61457619Y-64191333D01*
X61405238Y-64296095D01*
X61352857Y-64348476D01*
X60357619Y-63300857D02*
X60357619Y-62619904D01*
X60776666Y-62986571D01*
X60776666Y-62829428D01*
X60829047Y-62724666D01*
X60881428Y-62672285D01*
X60986190Y-62619904D01*
X61248095Y-62619904D01*
X61352857Y-62672285D01*
X61405238Y-62724666D01*
X61457619Y-62829428D01*
X61457619Y-63143714D01*
X61405238Y-63248476D01*
X61352857Y-63300857D01*
X60646714Y-65818619D02*
X61327666Y-65818619D01*
X60961000Y-66237666D01*
X61118142Y-66237666D01*
X61222904Y-66290047D01*
X61275285Y-66342428D01*
X61327666Y-66447190D01*
X61327666Y-66709095D01*
X61275285Y-66813857D01*
X61222904Y-66866238D01*
X61118142Y-66918619D01*
X60803857Y-66918619D01*
X60699095Y-66866238D01*
X60646714Y-66813857D01*
X62270523Y-65818619D02*
X62061000Y-65818619D01*
X61956238Y-65871000D01*
X61903857Y-65923380D01*
X61799095Y-66080523D01*
X61746714Y-66290047D01*
X61746714Y-66709095D01*
X61799095Y-66813857D01*
X61851476Y-66866238D01*
X61956238Y-66918619D01*
X62165761Y-66918619D01*
X62270523Y-66866238D01*
X62322904Y-66813857D01*
X62375285Y-66709095D01*
X62375285Y-66447190D01*
X62322904Y-66342428D01*
X62270523Y-66290047D01*
X62165761Y-66237666D01*
X61956238Y-66237666D01*
X61851476Y-66290047D01*
X61799095Y-66342428D01*
X61746714Y-66447190D01*
X63056238Y-65818619D02*
X63161000Y-65818619D01*
X63265761Y-65871000D01*
X63318142Y-65923380D01*
X63370523Y-66028142D01*
X63422904Y-66237666D01*
X63422904Y-66499571D01*
X63370523Y-66709095D01*
X63318142Y-66813857D01*
X63265761Y-66866238D01*
X63161000Y-66918619D01*
X63056238Y-66918619D01*
X62951476Y-66866238D01*
X62899095Y-66813857D01*
X62846714Y-66709095D01*
X62794333Y-66499571D01*
X62794333Y-66237666D01*
X62846714Y-66028142D01*
X62899095Y-65923380D01*
X62951476Y-65871000D01*
X63056238Y-65818619D01*
X64522904Y-66918619D02*
X64156238Y-66394809D01*
X63894333Y-66918619D02*
X63894333Y-65818619D01*
X64313380Y-65818619D01*
X64418142Y-65871000D01*
X64470523Y-65923380D01*
X64522904Y-66028142D01*
X64522904Y-66185285D01*
X64470523Y-66290047D01*
X64418142Y-66342428D01*
X64313380Y-66394809D01*
X63894333Y-66394809D01*
X61457619Y-61159142D02*
X60933809Y-61525809D01*
X61457619Y-61787714D02*
X60357619Y-61787714D01*
X60357619Y-61368666D01*
X60410000Y-61263904D01*
X60462380Y-61211523D01*
X60567142Y-61159142D01*
X60724285Y-61159142D01*
X60829047Y-61211523D01*
X60881428Y-61263904D01*
X60933809Y-61368666D01*
X60933809Y-61787714D01*
X60357619Y-60792476D02*
X60357619Y-60111523D01*
X60776666Y-60478190D01*
X60776666Y-60321047D01*
X60829047Y-60216285D01*
X60881428Y-60163904D01*
X60986190Y-60111523D01*
X61248095Y-60111523D01*
X61352857Y-60163904D01*
X61405238Y-60216285D01*
X61457619Y-60321047D01*
X61457619Y-60635333D01*
X61405238Y-60740095D01*
X61352857Y-60792476D01*
X60724285Y-59168666D02*
X61457619Y-59168666D01*
X60305238Y-59430571D02*
X61090952Y-59692476D01*
X61090952Y-59011523D01*
X62240380Y-58426904D02*
X62188000Y-58374523D01*
X62135619Y-58269761D01*
X62135619Y-58007857D01*
X62188000Y-57903095D01*
X62240380Y-57850714D01*
X62345142Y-57798333D01*
X62449904Y-57798333D01*
X62607047Y-57850714D01*
X63235619Y-58479285D01*
X63235619Y-57798333D01*
X62240380Y-57379285D02*
X62188000Y-57326904D01*
X62135619Y-57222142D01*
X62135619Y-56960238D01*
X62188000Y-56855476D01*
X62240380Y-56803095D01*
X62345142Y-56750714D01*
X62449904Y-56750714D01*
X62607047Y-56803095D01*
X63235619Y-57431666D01*
X63235619Y-56750714D01*
X62135619Y-56069761D02*
X62135619Y-55965000D01*
X62188000Y-55860238D01*
X62240380Y-55807857D01*
X62345142Y-55755476D01*
X62554666Y-55703095D01*
X62816571Y-55703095D01*
X63026095Y-55755476D01*
X63130857Y-55807857D01*
X63183238Y-55860238D01*
X63235619Y-55965000D01*
X63235619Y-56069761D01*
X63183238Y-56174523D01*
X63130857Y-56226904D01*
X63026095Y-56279285D01*
X62816571Y-56331666D01*
X62554666Y-56331666D01*
X62345142Y-56279285D01*
X62240380Y-56226904D01*
X62188000Y-56174523D01*
X62135619Y-56069761D01*
X63235619Y-54603095D02*
X62711809Y-54969761D01*
X63235619Y-55231666D02*
X62135619Y-55231666D01*
X62135619Y-54812619D01*
X62188000Y-54707857D01*
X62240380Y-54655476D01*
X62345142Y-54603095D01*
X62502285Y-54603095D01*
X62607047Y-54655476D01*
X62659428Y-54707857D01*
X62711809Y-54812619D01*
X62711809Y-55231666D01*
X29541095Y-102319619D02*
X29541095Y-101219619D01*
X29803000Y-101219619D01*
X29960142Y-101272000D01*
X30064904Y-101376761D01*
X30117285Y-101481523D01*
X30169666Y-101691047D01*
X30169666Y-101848190D01*
X30117285Y-102057714D01*
X30064904Y-102162476D01*
X29960142Y-102267238D01*
X29803000Y-102319619D01*
X29541095Y-102319619D01*
X30536333Y-101219619D02*
X31269666Y-101219619D01*
X30798238Y-102319619D01*
X24565857Y-93461619D02*
X24199190Y-92937809D01*
X23937285Y-93461619D02*
X23937285Y-92361619D01*
X24356333Y-92361619D01*
X24461095Y-92414000D01*
X24513476Y-92466380D01*
X24565857Y-92571142D01*
X24565857Y-92728285D01*
X24513476Y-92833047D01*
X24461095Y-92885428D01*
X24356333Y-92937809D01*
X23937285Y-92937809D01*
X25613476Y-93461619D02*
X24984904Y-93461619D01*
X25299190Y-93461619D02*
X25299190Y-92361619D01*
X25194428Y-92518761D01*
X25089666Y-92623523D01*
X24984904Y-92675904D01*
X26661095Y-93461619D02*
X26032523Y-93461619D01*
X26346809Y-93461619D02*
X26346809Y-92361619D01*
X26242047Y-92518761D01*
X26137285Y-92623523D01*
X26032523Y-92675904D01*
X21465476Y-90434380D02*
X21517857Y-90382000D01*
X21622619Y-90329619D01*
X21884523Y-90329619D01*
X21989285Y-90382000D01*
X22041666Y-90434380D01*
X22094047Y-90539142D01*
X22094047Y-90643904D01*
X22041666Y-90801047D01*
X21413095Y-91429619D01*
X22094047Y-91429619D01*
X22565476Y-91429619D02*
X22565476Y-90329619D01*
X22670238Y-91010571D02*
X22984523Y-91429619D01*
X22984523Y-90696285D02*
X22565476Y-91115333D01*
X77413666Y-24649857D02*
X77361285Y-24702238D01*
X77204142Y-24754619D01*
X77099380Y-24754619D01*
X76942238Y-24702238D01*
X76837476Y-24597476D01*
X76785095Y-24492714D01*
X76732714Y-24283190D01*
X76732714Y-24126047D01*
X76785095Y-23916523D01*
X76837476Y-23811761D01*
X76942238Y-23707000D01*
X77099380Y-23654619D01*
X77204142Y-23654619D01*
X77361285Y-23707000D01*
X77413666Y-23759380D01*
X78461285Y-24754619D02*
X77832714Y-24754619D01*
X78147000Y-24754619D02*
X78147000Y-23654619D01*
X78042238Y-23811761D01*
X77937476Y-23916523D01*
X77832714Y-23968904D01*
X75858047Y-26151619D02*
X75229476Y-26151619D01*
X75543761Y-26151619D02*
X75543761Y-25051619D01*
X75439000Y-25208761D01*
X75334238Y-25313523D01*
X75229476Y-25365904D01*
X76539000Y-25051619D02*
X76643761Y-25051619D01*
X76748523Y-25104000D01*
X76800904Y-25156380D01*
X76853285Y-25261142D01*
X76905666Y-25470666D01*
X76905666Y-25732571D01*
X76853285Y-25942095D01*
X76800904Y-26046857D01*
X76748523Y-26099238D01*
X76643761Y-26151619D01*
X76539000Y-26151619D01*
X76434238Y-26099238D01*
X76381857Y-26046857D01*
X76329476Y-25942095D01*
X76277095Y-25732571D01*
X76277095Y-25470666D01*
X76329476Y-25261142D01*
X76381857Y-25156380D01*
X76434238Y-25104000D01*
X76539000Y-25051619D01*
X77586619Y-25051619D02*
X77691380Y-25051619D01*
X77796142Y-25104000D01*
X77848523Y-25156380D01*
X77900904Y-25261142D01*
X77953285Y-25470666D01*
X77953285Y-25732571D01*
X77900904Y-25942095D01*
X77848523Y-26046857D01*
X77796142Y-26099238D01*
X77691380Y-26151619D01*
X77586619Y-26151619D01*
X77481857Y-26099238D01*
X77429476Y-26046857D01*
X77377095Y-25942095D01*
X77324714Y-25732571D01*
X77324714Y-25470666D01*
X77377095Y-25261142D01*
X77429476Y-25156380D01*
X77481857Y-25104000D01*
X77586619Y-25051619D01*
X78424714Y-25418285D02*
X78424714Y-26151619D01*
X78424714Y-25523047D02*
X78477095Y-25470666D01*
X78581857Y-25418285D01*
X78739000Y-25418285D01*
X78843761Y-25470666D01*
X78896142Y-25575428D01*
X78896142Y-26151619D01*
X90367666Y-19569857D02*
X90315285Y-19622238D01*
X90158142Y-19674619D01*
X90053380Y-19674619D01*
X89896238Y-19622238D01*
X89791476Y-19517476D01*
X89739095Y-19412714D01*
X89686714Y-19203190D01*
X89686714Y-19046047D01*
X89739095Y-18836523D01*
X89791476Y-18731761D01*
X89896238Y-18627000D01*
X90053380Y-18574619D01*
X90158142Y-18574619D01*
X90315285Y-18627000D01*
X90367666Y-18679380D01*
X90786714Y-18679380D02*
X90839095Y-18627000D01*
X90943857Y-18574619D01*
X91205761Y-18574619D01*
X91310523Y-18627000D01*
X91362904Y-18679380D01*
X91415285Y-18784142D01*
X91415285Y-18888904D01*
X91362904Y-19046047D01*
X90734333Y-19674619D01*
X91415285Y-19674619D01*
X92699619Y-22693952D02*
X92699619Y-23322523D01*
X92699619Y-23008238D02*
X91599619Y-23008238D01*
X91756761Y-23113000D01*
X91861523Y-23217761D01*
X91913904Y-23322523D01*
X91599619Y-22013000D02*
X91599619Y-21908238D01*
X91652000Y-21803476D01*
X91704380Y-21751095D01*
X91809142Y-21698714D01*
X92018666Y-21646333D01*
X92280571Y-21646333D01*
X92490095Y-21698714D01*
X92594857Y-21751095D01*
X92647238Y-21803476D01*
X92699619Y-21908238D01*
X92699619Y-22013000D01*
X92647238Y-22117761D01*
X92594857Y-22170142D01*
X92490095Y-22222523D01*
X92280571Y-22274904D01*
X92018666Y-22274904D01*
X91809142Y-22222523D01*
X91704380Y-22170142D01*
X91652000Y-22117761D01*
X91599619Y-22013000D01*
X91599619Y-20965380D02*
X91599619Y-20860619D01*
X91652000Y-20755857D01*
X91704380Y-20703476D01*
X91809142Y-20651095D01*
X92018666Y-20598714D01*
X92280571Y-20598714D01*
X92490095Y-20651095D01*
X92594857Y-20703476D01*
X92647238Y-20755857D01*
X92699619Y-20860619D01*
X92699619Y-20965380D01*
X92647238Y-21070142D01*
X92594857Y-21122523D01*
X92490095Y-21174904D01*
X92280571Y-21227285D01*
X92018666Y-21227285D01*
X91809142Y-21174904D01*
X91704380Y-21122523D01*
X91652000Y-21070142D01*
X91599619Y-20965380D01*
X91966285Y-20127285D02*
X92699619Y-20127285D01*
X92071047Y-20127285D02*
X92018666Y-20074904D01*
X91966285Y-19970142D01*
X91966285Y-19813000D01*
X92018666Y-19708238D01*
X92123428Y-19655857D01*
X92699619Y-19655857D01*
X64713666Y-87006857D02*
X64661285Y-87059238D01*
X64504142Y-87111619D01*
X64399380Y-87111619D01*
X64242238Y-87059238D01*
X64137476Y-86954476D01*
X64085095Y-86849714D01*
X64032714Y-86640190D01*
X64032714Y-86483047D01*
X64085095Y-86273523D01*
X64137476Y-86168761D01*
X64242238Y-86064000D01*
X64399380Y-86011619D01*
X64504142Y-86011619D01*
X64661285Y-86064000D01*
X64713666Y-86116380D01*
X65080333Y-86011619D02*
X65761285Y-86011619D01*
X65394619Y-86430666D01*
X65551761Y-86430666D01*
X65656523Y-86483047D01*
X65708904Y-86535428D01*
X65761285Y-86640190D01*
X65761285Y-86902095D01*
X65708904Y-87006857D01*
X65656523Y-87059238D01*
X65551761Y-87111619D01*
X65237476Y-87111619D01*
X65132714Y-87059238D01*
X65080333Y-87006857D01*
X64316857Y-88635619D02*
X63688285Y-88635619D01*
X64002571Y-88635619D02*
X64002571Y-87535619D01*
X63897809Y-87692761D01*
X63793047Y-87797523D01*
X63688285Y-87849904D01*
X64997809Y-87535619D02*
X65102571Y-87535619D01*
X65207333Y-87588000D01*
X65259714Y-87640380D01*
X65312095Y-87745142D01*
X65364476Y-87954666D01*
X65364476Y-88216571D01*
X65312095Y-88426095D01*
X65259714Y-88530857D01*
X65207333Y-88583238D01*
X65102571Y-88635619D01*
X64997809Y-88635619D01*
X64893047Y-88583238D01*
X64840666Y-88530857D01*
X64788285Y-88426095D01*
X64735904Y-88216571D01*
X64735904Y-87954666D01*
X64788285Y-87745142D01*
X64840666Y-87640380D01*
X64893047Y-87588000D01*
X64997809Y-87535619D01*
X65835904Y-87902285D02*
X65835904Y-88635619D01*
X65835904Y-88007047D02*
X65888285Y-87954666D01*
X65993047Y-87902285D01*
X66150190Y-87902285D01*
X66254952Y-87954666D01*
X66307333Y-88059428D01*
X66307333Y-88635619D01*
X68523666Y-87006857D02*
X68471285Y-87059238D01*
X68314142Y-87111619D01*
X68209380Y-87111619D01*
X68052238Y-87059238D01*
X67947476Y-86954476D01*
X67895095Y-86849714D01*
X67842714Y-86640190D01*
X67842714Y-86483047D01*
X67895095Y-86273523D01*
X67947476Y-86168761D01*
X68052238Y-86064000D01*
X68209380Y-86011619D01*
X68314142Y-86011619D01*
X68471285Y-86064000D01*
X68523666Y-86116380D01*
X69466523Y-86378285D02*
X69466523Y-87111619D01*
X69204619Y-85959238D02*
X68942714Y-86744952D01*
X69623666Y-86744952D01*
X68126857Y-88635619D02*
X67498285Y-88635619D01*
X67812571Y-88635619D02*
X67812571Y-87535619D01*
X67707809Y-87692761D01*
X67603047Y-87797523D01*
X67498285Y-87849904D01*
X68807809Y-87535619D02*
X68912571Y-87535619D01*
X69017333Y-87588000D01*
X69069714Y-87640380D01*
X69122095Y-87745142D01*
X69174476Y-87954666D01*
X69174476Y-88216571D01*
X69122095Y-88426095D01*
X69069714Y-88530857D01*
X69017333Y-88583238D01*
X68912571Y-88635619D01*
X68807809Y-88635619D01*
X68703047Y-88583238D01*
X68650666Y-88530857D01*
X68598285Y-88426095D01*
X68545904Y-88216571D01*
X68545904Y-87954666D01*
X68598285Y-87745142D01*
X68650666Y-87640380D01*
X68703047Y-87588000D01*
X68807809Y-87535619D01*
X69645904Y-87902285D02*
X69645904Y-88635619D01*
X69645904Y-88007047D02*
X69698285Y-87954666D01*
X69803047Y-87902285D01*
X69960190Y-87902285D01*
X70064952Y-87954666D01*
X70117333Y-88059428D01*
X70117333Y-88635619D01*
X78889238Y-32860380D02*
X78784476Y-32808000D01*
X78679714Y-32703238D01*
X78522571Y-32546095D01*
X78417809Y-32493714D01*
X78313047Y-32493714D01*
X78365428Y-32755619D02*
X78260666Y-32703238D01*
X78155904Y-32598476D01*
X78103523Y-32388952D01*
X78103523Y-32022285D01*
X78155904Y-31812761D01*
X78260666Y-31708000D01*
X78365428Y-31655619D01*
X78574952Y-31655619D01*
X78679714Y-31708000D01*
X78784476Y-31812761D01*
X78836857Y-32022285D01*
X78836857Y-32388952D01*
X78784476Y-32598476D01*
X78679714Y-32703238D01*
X78574952Y-32755619D01*
X78365428Y-32755619D01*
X79255904Y-31760380D02*
X79308285Y-31708000D01*
X79413047Y-31655619D01*
X79674952Y-31655619D01*
X79779714Y-31708000D01*
X79832095Y-31760380D01*
X79884476Y-31865142D01*
X79884476Y-31969904D01*
X79832095Y-32127047D01*
X79203523Y-32755619D01*
X79884476Y-32755619D01*
X88287238Y-28669380D02*
X88182476Y-28617000D01*
X88077714Y-28512238D01*
X87920571Y-28355095D01*
X87815809Y-28302714D01*
X87711047Y-28302714D01*
X87763428Y-28564619D02*
X87658666Y-28512238D01*
X87553904Y-28407476D01*
X87501523Y-28197952D01*
X87501523Y-27831285D01*
X87553904Y-27621761D01*
X87658666Y-27517000D01*
X87763428Y-27464619D01*
X87972952Y-27464619D01*
X88077714Y-27517000D01*
X88182476Y-27621761D01*
X88234857Y-27831285D01*
X88234857Y-28197952D01*
X88182476Y-28407476D01*
X88077714Y-28512238D01*
X87972952Y-28564619D01*
X87763428Y-28564619D01*
X88601523Y-27464619D02*
X89282476Y-27464619D01*
X88915809Y-27883666D01*
X89072952Y-27883666D01*
X89177714Y-27936047D01*
X89230095Y-27988428D01*
X89282476Y-28093190D01*
X89282476Y-28355095D01*
X89230095Y-28459857D01*
X89177714Y-28512238D01*
X89072952Y-28564619D01*
X88758666Y-28564619D01*
X88653904Y-28512238D01*
X88601523Y-28459857D01*
X99082238Y-55379380D02*
X98977476Y-55327000D01*
X98872714Y-55222238D01*
X98715571Y-55065095D01*
X98610809Y-55012714D01*
X98506047Y-55012714D01*
X98558428Y-55274619D02*
X98453666Y-55222238D01*
X98348904Y-55117476D01*
X98296523Y-54907952D01*
X98296523Y-54541285D01*
X98348904Y-54331761D01*
X98453666Y-54227000D01*
X98558428Y-54174619D01*
X98767952Y-54174619D01*
X98872714Y-54227000D01*
X98977476Y-54331761D01*
X99029857Y-54541285D01*
X99029857Y-54907952D01*
X98977476Y-55117476D01*
X98872714Y-55222238D01*
X98767952Y-55274619D01*
X98558428Y-55274619D01*
X100025095Y-54174619D02*
X99501285Y-54174619D01*
X99448904Y-54698428D01*
X99501285Y-54646047D01*
X99606047Y-54593666D01*
X99867952Y-54593666D01*
X99972714Y-54646047D01*
X100025095Y-54698428D01*
X100077476Y-54803190D01*
X100077476Y-55065095D01*
X100025095Y-55169857D01*
X99972714Y-55222238D01*
X99867952Y-55274619D01*
X99606047Y-55274619D01*
X99501285Y-55222238D01*
X99448904Y-55169857D01*
X94431666Y-67426619D02*
X94065000Y-66902809D01*
X93803095Y-67426619D02*
X93803095Y-66326619D01*
X94222142Y-66326619D01*
X94326904Y-66379000D01*
X94379285Y-66431380D01*
X94431666Y-66536142D01*
X94431666Y-66693285D01*
X94379285Y-66798047D01*
X94326904Y-66850428D01*
X94222142Y-66902809D01*
X93803095Y-66902809D01*
X95479285Y-67426619D02*
X94850714Y-67426619D01*
X95165000Y-67426619D02*
X95165000Y-66326619D01*
X95060238Y-66483761D01*
X94955476Y-66588523D01*
X94850714Y-66640904D01*
X94012619Y-67850619D02*
X94117380Y-67850619D01*
X94222142Y-67903000D01*
X94274523Y-67955380D01*
X94326904Y-68060142D01*
X94379285Y-68269666D01*
X94379285Y-68531571D01*
X94326904Y-68741095D01*
X94274523Y-68845857D01*
X94222142Y-68898238D01*
X94117380Y-68950619D01*
X94012619Y-68950619D01*
X93907857Y-68898238D01*
X93855476Y-68845857D01*
X93803095Y-68741095D01*
X93750714Y-68531571D01*
X93750714Y-68269666D01*
X93803095Y-68060142D01*
X93855476Y-67955380D01*
X93907857Y-67903000D01*
X94012619Y-67850619D01*
X95479285Y-68950619D02*
X95112619Y-68426809D01*
X94850714Y-68950619D02*
X94850714Y-67850619D01*
X95269761Y-67850619D01*
X95374523Y-67903000D01*
X95426904Y-67955380D01*
X95479285Y-68060142D01*
X95479285Y-68217285D01*
X95426904Y-68322047D01*
X95374523Y-68374428D01*
X95269761Y-68426809D01*
X94850714Y-68426809D01*
X73476666Y-28818619D02*
X73110000Y-28294809D01*
X72848095Y-28818619D02*
X72848095Y-27718619D01*
X73267142Y-27718619D01*
X73371904Y-27771000D01*
X73424285Y-27823380D01*
X73476666Y-27928142D01*
X73476666Y-28085285D01*
X73424285Y-28190047D01*
X73371904Y-28242428D01*
X73267142Y-28294809D01*
X72848095Y-28294809D01*
X73895714Y-27823380D02*
X73948095Y-27771000D01*
X74052857Y-27718619D01*
X74314761Y-27718619D01*
X74419523Y-27771000D01*
X74471904Y-27823380D01*
X74524285Y-27928142D01*
X74524285Y-28032904D01*
X74471904Y-28190047D01*
X73843333Y-28818619D01*
X74524285Y-28818619D01*
X71735238Y-32120619D02*
X71106666Y-32120619D01*
X71420952Y-32120619D02*
X71420952Y-31020619D01*
X71316190Y-31177761D01*
X71211428Y-31282523D01*
X71106666Y-31334904D01*
X72416190Y-31020619D02*
X72520952Y-31020619D01*
X72625714Y-31073000D01*
X72678095Y-31125380D01*
X72730476Y-31230142D01*
X72782857Y-31439666D01*
X72782857Y-31701571D01*
X72730476Y-31911095D01*
X72678095Y-32015857D01*
X72625714Y-32068238D01*
X72520952Y-32120619D01*
X72416190Y-32120619D01*
X72311428Y-32068238D01*
X72259047Y-32015857D01*
X72206666Y-31911095D01*
X72154285Y-31701571D01*
X72154285Y-31439666D01*
X72206666Y-31230142D01*
X72259047Y-31125380D01*
X72311428Y-31073000D01*
X72416190Y-31020619D01*
X73254285Y-32120619D02*
X73254285Y-31020619D01*
X73359047Y-31701571D02*
X73673333Y-32120619D01*
X73673333Y-31387285D02*
X73254285Y-31806333D01*
X80969666Y-22087619D02*
X80603000Y-21563809D01*
X80341095Y-22087619D02*
X80341095Y-20987619D01*
X80760142Y-20987619D01*
X80864904Y-21040000D01*
X80917285Y-21092380D01*
X80969666Y-21197142D01*
X80969666Y-21354285D01*
X80917285Y-21459047D01*
X80864904Y-21511428D01*
X80760142Y-21563809D01*
X80341095Y-21563809D01*
X81912523Y-21354285D02*
X81912523Y-22087619D01*
X81650619Y-20935238D02*
X81388714Y-21720952D01*
X82069666Y-21720952D01*
X79720428Y-23611619D02*
X79091857Y-23611619D01*
X79406142Y-23611619D02*
X79406142Y-22511619D01*
X79301380Y-22668761D01*
X79196619Y-22773523D01*
X79091857Y-22825904D01*
X80401380Y-22511619D02*
X80506142Y-22511619D01*
X80610904Y-22564000D01*
X80663285Y-22616380D01*
X80715666Y-22721142D01*
X80768047Y-22930666D01*
X80768047Y-23192571D01*
X80715666Y-23402095D01*
X80663285Y-23506857D01*
X80610904Y-23559238D01*
X80506142Y-23611619D01*
X80401380Y-23611619D01*
X80296619Y-23559238D01*
X80244238Y-23506857D01*
X80191857Y-23402095D01*
X80139476Y-23192571D01*
X80139476Y-22930666D01*
X80191857Y-22721142D01*
X80244238Y-22616380D01*
X80296619Y-22564000D01*
X80401380Y-22511619D01*
X81449000Y-22511619D02*
X81553761Y-22511619D01*
X81658523Y-22564000D01*
X81710904Y-22616380D01*
X81763285Y-22721142D01*
X81815666Y-22930666D01*
X81815666Y-23192571D01*
X81763285Y-23402095D01*
X81710904Y-23506857D01*
X81658523Y-23559238D01*
X81553761Y-23611619D01*
X81449000Y-23611619D01*
X81344238Y-23559238D01*
X81291857Y-23506857D01*
X81239476Y-23402095D01*
X81187095Y-23192571D01*
X81187095Y-22930666D01*
X81239476Y-22721142D01*
X81291857Y-22616380D01*
X81344238Y-22564000D01*
X81449000Y-22511619D01*
X82287095Y-23611619D02*
X82287095Y-22511619D01*
X82391857Y-23192571D02*
X82706142Y-23611619D01*
X82706142Y-22878285D02*
X82287095Y-23297333D01*
X88335666Y-24754619D02*
X87969000Y-24230809D01*
X87707095Y-24754619D02*
X87707095Y-23654619D01*
X88126142Y-23654619D01*
X88230904Y-23707000D01*
X88283285Y-23759380D01*
X88335666Y-23864142D01*
X88335666Y-24021285D01*
X88283285Y-24126047D01*
X88230904Y-24178428D01*
X88126142Y-24230809D01*
X87707095Y-24230809D01*
X89330904Y-23654619D02*
X88807095Y-23654619D01*
X88754714Y-24178428D01*
X88807095Y-24126047D01*
X88911857Y-24073666D01*
X89173761Y-24073666D01*
X89278523Y-24126047D01*
X89330904Y-24178428D01*
X89383285Y-24283190D01*
X89383285Y-24545095D01*
X89330904Y-24649857D01*
X89278523Y-24702238D01*
X89173761Y-24754619D01*
X88911857Y-24754619D01*
X88807095Y-24702238D01*
X88754714Y-24649857D01*
X88229428Y-26151619D02*
X87600857Y-26151619D01*
X87915142Y-26151619D02*
X87915142Y-25051619D01*
X87810380Y-25208761D01*
X87705619Y-25313523D01*
X87600857Y-25365904D01*
X88910380Y-25051619D02*
X89015142Y-25051619D01*
X89119904Y-25104000D01*
X89172285Y-25156380D01*
X89224666Y-25261142D01*
X89277047Y-25470666D01*
X89277047Y-25732571D01*
X89224666Y-25942095D01*
X89172285Y-26046857D01*
X89119904Y-26099238D01*
X89015142Y-26151619D01*
X88910380Y-26151619D01*
X88805619Y-26099238D01*
X88753238Y-26046857D01*
X88700857Y-25942095D01*
X88648476Y-25732571D01*
X88648476Y-25470666D01*
X88700857Y-25261142D01*
X88753238Y-25156380D01*
X88805619Y-25104000D01*
X88910380Y-25051619D01*
X89958000Y-25051619D02*
X90062761Y-25051619D01*
X90167523Y-25104000D01*
X90219904Y-25156380D01*
X90272285Y-25261142D01*
X90324666Y-25470666D01*
X90324666Y-25732571D01*
X90272285Y-25942095D01*
X90219904Y-26046857D01*
X90167523Y-26099238D01*
X90062761Y-26151619D01*
X89958000Y-26151619D01*
X89853238Y-26099238D01*
X89800857Y-26046857D01*
X89748476Y-25942095D01*
X89696095Y-25732571D01*
X89696095Y-25470666D01*
X89748476Y-25261142D01*
X89800857Y-25156380D01*
X89853238Y-25104000D01*
X89958000Y-25051619D01*
X90796095Y-26151619D02*
X90796095Y-25051619D01*
X90900857Y-25732571D02*
X91215142Y-26151619D01*
X91215142Y-25418285D02*
X90796095Y-25837333D01*
X82239666Y-33263619D02*
X81873000Y-32739809D01*
X81611095Y-33263619D02*
X81611095Y-32163619D01*
X82030142Y-32163619D01*
X82134904Y-32216000D01*
X82187285Y-32268380D01*
X82239666Y-32373142D01*
X82239666Y-32530285D01*
X82187285Y-32635047D01*
X82134904Y-32687428D01*
X82030142Y-32739809D01*
X81611095Y-32739809D01*
X82606333Y-32163619D02*
X83339666Y-32163619D01*
X82868238Y-33263619D01*
X81514238Y-34660619D02*
X80885666Y-34660619D01*
X81199952Y-34660619D02*
X81199952Y-33560619D01*
X81095190Y-33717761D01*
X80990428Y-33822523D01*
X80885666Y-33874904D01*
X82195190Y-33560619D02*
X82299952Y-33560619D01*
X82404714Y-33613000D01*
X82457095Y-33665380D01*
X82509476Y-33770142D01*
X82561857Y-33979666D01*
X82561857Y-34241571D01*
X82509476Y-34451095D01*
X82457095Y-34555857D01*
X82404714Y-34608238D01*
X82299952Y-34660619D01*
X82195190Y-34660619D01*
X82090428Y-34608238D01*
X82038047Y-34555857D01*
X81985666Y-34451095D01*
X81933285Y-34241571D01*
X81933285Y-33979666D01*
X81985666Y-33770142D01*
X82038047Y-33665380D01*
X82090428Y-33613000D01*
X82195190Y-33560619D01*
X83033285Y-34660619D02*
X83033285Y-33560619D01*
X83138047Y-34241571D02*
X83452333Y-34660619D01*
X83452333Y-33927285D02*
X83033285Y-34346333D01*
X86668857Y-34533619D02*
X86302190Y-34009809D01*
X86040285Y-34533619D02*
X86040285Y-33433619D01*
X86459333Y-33433619D01*
X86564095Y-33486000D01*
X86616476Y-33538380D01*
X86668857Y-33643142D01*
X86668857Y-33800285D01*
X86616476Y-33905047D01*
X86564095Y-33957428D01*
X86459333Y-34009809D01*
X86040285Y-34009809D01*
X87716476Y-34533619D02*
X87087904Y-34533619D01*
X87402190Y-34533619D02*
X87402190Y-33433619D01*
X87297428Y-33590761D01*
X87192666Y-33695523D01*
X87087904Y-33747904D01*
X88397428Y-33433619D02*
X88502190Y-33433619D01*
X88606952Y-33486000D01*
X88659333Y-33538380D01*
X88711714Y-33643142D01*
X88764095Y-33852666D01*
X88764095Y-34114571D01*
X88711714Y-34324095D01*
X88659333Y-34428857D01*
X88606952Y-34481238D01*
X88502190Y-34533619D01*
X88397428Y-34533619D01*
X88292666Y-34481238D01*
X88240285Y-34428857D01*
X88187904Y-34324095D01*
X88135523Y-34114571D01*
X88135523Y-33852666D01*
X88187904Y-33643142D01*
X88240285Y-33538380D01*
X88292666Y-33486000D01*
X88397428Y-33433619D01*
X85913285Y-34830619D02*
X86594238Y-34830619D01*
X86227571Y-35249666D01*
X86384714Y-35249666D01*
X86489476Y-35302047D01*
X86541857Y-35354428D01*
X86594238Y-35459190D01*
X86594238Y-35721095D01*
X86541857Y-35825857D01*
X86489476Y-35878238D01*
X86384714Y-35930619D01*
X86070428Y-35930619D01*
X85965666Y-35878238D01*
X85913285Y-35825857D01*
X87275190Y-34830619D02*
X87379952Y-34830619D01*
X87484714Y-34883000D01*
X87537095Y-34935380D01*
X87589476Y-35040142D01*
X87641857Y-35249666D01*
X87641857Y-35511571D01*
X87589476Y-35721095D01*
X87537095Y-35825857D01*
X87484714Y-35878238D01*
X87379952Y-35930619D01*
X87275190Y-35930619D01*
X87170428Y-35878238D01*
X87118047Y-35825857D01*
X87065666Y-35721095D01*
X87013285Y-35511571D01*
X87013285Y-35249666D01*
X87065666Y-35040142D01*
X87118047Y-34935380D01*
X87170428Y-34883000D01*
X87275190Y-34830619D01*
X88113285Y-35930619D02*
X88113285Y-34830619D01*
X88218047Y-35511571D02*
X88532333Y-35930619D01*
X88532333Y-35197285D02*
X88113285Y-35616333D01*
X92953619Y-31695142D02*
X92429809Y-32061809D01*
X92953619Y-32323714D02*
X91853619Y-32323714D01*
X91853619Y-31904666D01*
X91906000Y-31799904D01*
X91958380Y-31747523D01*
X92063142Y-31695142D01*
X92220285Y-31695142D01*
X92325047Y-31747523D01*
X92377428Y-31799904D01*
X92429809Y-31904666D01*
X92429809Y-32323714D01*
X92953619Y-30647523D02*
X92953619Y-31276095D01*
X92953619Y-30961809D02*
X91853619Y-30961809D01*
X92010761Y-31066571D01*
X92115523Y-31171333D01*
X92167904Y-31276095D01*
X92220285Y-29704666D02*
X92953619Y-29704666D01*
X91801238Y-29966571D02*
X92586952Y-30228476D01*
X92586952Y-29547523D01*
X85144857Y-21960619D02*
X84778190Y-21436809D01*
X84516285Y-21960619D02*
X84516285Y-20860619D01*
X84935333Y-20860619D01*
X85040095Y-20913000D01*
X85092476Y-20965380D01*
X85144857Y-21070142D01*
X85144857Y-21227285D01*
X85092476Y-21332047D01*
X85040095Y-21384428D01*
X84935333Y-21436809D01*
X84516285Y-21436809D01*
X86192476Y-21960619D02*
X85563904Y-21960619D01*
X85878190Y-21960619D02*
X85878190Y-20860619D01*
X85773428Y-21017761D01*
X85668666Y-21122523D01*
X85563904Y-21174904D01*
X87187714Y-20860619D02*
X86663904Y-20860619D01*
X86611523Y-21384428D01*
X86663904Y-21332047D01*
X86768666Y-21279666D01*
X87030571Y-21279666D01*
X87135333Y-21332047D01*
X87187714Y-21384428D01*
X87240095Y-21489190D01*
X87240095Y-21751095D01*
X87187714Y-21855857D01*
X87135333Y-21908238D01*
X87030571Y-21960619D01*
X86768666Y-21960619D01*
X86663904Y-21908238D01*
X86611523Y-21855857D01*
X61330619Y-81479142D02*
X60806809Y-81845809D01*
X61330619Y-82107714D02*
X60230619Y-82107714D01*
X60230619Y-81688666D01*
X60283000Y-81583904D01*
X60335380Y-81531523D01*
X60440142Y-81479142D01*
X60597285Y-81479142D01*
X60702047Y-81531523D01*
X60754428Y-81583904D01*
X60806809Y-81688666D01*
X60806809Y-82107714D01*
X61330619Y-80431523D02*
X61330619Y-81060095D01*
X61330619Y-80745809D02*
X60230619Y-80745809D01*
X60387761Y-80850571D01*
X60492523Y-80955333D01*
X60544904Y-81060095D01*
X60230619Y-79488666D02*
X60230619Y-79698190D01*
X60283000Y-79802952D01*
X60335380Y-79855333D01*
X60492523Y-79960095D01*
X60702047Y-80012476D01*
X61121095Y-80012476D01*
X61225857Y-79960095D01*
X61278238Y-79907714D01*
X61330619Y-79802952D01*
X61330619Y-79593428D01*
X61278238Y-79488666D01*
X61225857Y-79436285D01*
X61121095Y-79383904D01*
X60859190Y-79383904D01*
X60754428Y-79436285D01*
X60702047Y-79488666D01*
X60649666Y-79593428D01*
X60649666Y-79802952D01*
X60702047Y-79907714D01*
X60754428Y-79960095D01*
X60859190Y-80012476D01*
X60357619Y-78326380D02*
X60357619Y-78221619D01*
X60410000Y-78116857D01*
X60462380Y-78064476D01*
X60567142Y-78012095D01*
X60776666Y-77959714D01*
X61038571Y-77959714D01*
X61248095Y-78012095D01*
X61352857Y-78064476D01*
X61405238Y-78116857D01*
X61457619Y-78221619D01*
X61457619Y-78326380D01*
X61405238Y-78431142D01*
X61352857Y-78483523D01*
X61248095Y-78535904D01*
X61038571Y-78588285D01*
X60776666Y-78588285D01*
X60567142Y-78535904D01*
X60462380Y-78483523D01*
X60410000Y-78431142D01*
X60357619Y-78326380D01*
X61457619Y-76859714D02*
X60933809Y-77226380D01*
X61457619Y-77488285D02*
X60357619Y-77488285D01*
X60357619Y-77069238D01*
X60410000Y-76964476D01*
X60462380Y-76912095D01*
X60567142Y-76859714D01*
X60724285Y-76859714D01*
X60829047Y-76912095D01*
X60881428Y-76964476D01*
X60933809Y-77069238D01*
X60933809Y-77488285D01*
X62030857Y-83809619D02*
X61664190Y-83285809D01*
X61402285Y-83809619D02*
X61402285Y-82709619D01*
X61821333Y-82709619D01*
X61926095Y-82762000D01*
X61978476Y-82814380D01*
X62030857Y-82919142D01*
X62030857Y-83076285D01*
X61978476Y-83181047D01*
X61926095Y-83233428D01*
X61821333Y-83285809D01*
X61402285Y-83285809D01*
X63078476Y-83809619D02*
X62449904Y-83809619D01*
X62764190Y-83809619D02*
X62764190Y-82709619D01*
X62659428Y-82866761D01*
X62554666Y-82971523D01*
X62449904Y-83023904D01*
X63602285Y-83809619D02*
X63811809Y-83809619D01*
X63916571Y-83757238D01*
X63968952Y-83704857D01*
X64073714Y-83547714D01*
X64126095Y-83338190D01*
X64126095Y-82919142D01*
X64073714Y-82814380D01*
X64021333Y-82762000D01*
X63916571Y-82709619D01*
X63707047Y-82709619D01*
X63602285Y-82762000D01*
X63549904Y-82814380D01*
X63497523Y-82919142D01*
X63497523Y-83181047D01*
X63549904Y-83285809D01*
X63602285Y-83338190D01*
X63707047Y-83390571D01*
X63916571Y-83390571D01*
X64021333Y-83338190D01*
X64073714Y-83285809D01*
X64126095Y-83181047D01*
X61194238Y-85206619D02*
X60565666Y-85206619D01*
X60879952Y-85206619D02*
X60879952Y-84106619D01*
X60775190Y-84263761D01*
X60670428Y-84368523D01*
X60565666Y-84420904D01*
X61875190Y-84106619D02*
X61979952Y-84106619D01*
X62084714Y-84159000D01*
X62137095Y-84211380D01*
X62189476Y-84316142D01*
X62241857Y-84525666D01*
X62241857Y-84787571D01*
X62189476Y-84997095D01*
X62137095Y-85101857D01*
X62084714Y-85154238D01*
X61979952Y-85206619D01*
X61875190Y-85206619D01*
X61770428Y-85154238D01*
X61718047Y-85101857D01*
X61665666Y-84997095D01*
X61613285Y-84787571D01*
X61613285Y-84525666D01*
X61665666Y-84316142D01*
X61718047Y-84211380D01*
X61770428Y-84159000D01*
X61875190Y-84106619D01*
X62713285Y-85206619D02*
X62713285Y-84106619D01*
X62818047Y-84787571D02*
X63132333Y-85206619D01*
X63132333Y-84473285D02*
X62713285Y-84892333D01*
X92256857Y-57012619D02*
X91890190Y-56488809D01*
X91628285Y-57012619D02*
X91628285Y-55912619D01*
X92047333Y-55912619D01*
X92152095Y-55965000D01*
X92204476Y-56017380D01*
X92256857Y-56122142D01*
X92256857Y-56279285D01*
X92204476Y-56384047D01*
X92152095Y-56436428D01*
X92047333Y-56488809D01*
X91628285Y-56488809D01*
X92675904Y-56017380D02*
X92728285Y-55965000D01*
X92833047Y-55912619D01*
X93094952Y-55912619D01*
X93199714Y-55965000D01*
X93252095Y-56017380D01*
X93304476Y-56122142D01*
X93304476Y-56226904D01*
X93252095Y-56384047D01*
X92623523Y-57012619D01*
X93304476Y-57012619D01*
X93933047Y-56384047D02*
X93828285Y-56331666D01*
X93775904Y-56279285D01*
X93723523Y-56174523D01*
X93723523Y-56122142D01*
X93775904Y-56017380D01*
X93828285Y-55965000D01*
X93933047Y-55912619D01*
X94142571Y-55912619D01*
X94247333Y-55965000D01*
X94299714Y-56017380D01*
X94352095Y-56122142D01*
X94352095Y-56174523D01*
X94299714Y-56279285D01*
X94247333Y-56331666D01*
X94142571Y-56384047D01*
X93933047Y-56384047D01*
X93828285Y-56436428D01*
X93775904Y-56488809D01*
X93723523Y-56593571D01*
X93723523Y-56803095D01*
X93775904Y-56907857D01*
X93828285Y-56960238D01*
X93933047Y-57012619D01*
X94142571Y-57012619D01*
X94247333Y-56960238D01*
X94299714Y-56907857D01*
X94352095Y-56803095D01*
X94352095Y-56593571D01*
X94299714Y-56488809D01*
X94247333Y-56436428D01*
X94142571Y-56384047D01*
X91815571Y-57930285D02*
X91815571Y-58663619D01*
X91553666Y-57511238D02*
X91291761Y-58296952D01*
X91972714Y-58296952D01*
X92444142Y-58611238D02*
X92444142Y-58663619D01*
X92391761Y-58768380D01*
X92339380Y-58820761D01*
X92810809Y-57563619D02*
X93544142Y-57563619D01*
X93072714Y-58663619D01*
X93963190Y-58663619D02*
X93963190Y-57563619D01*
X94067952Y-58244571D02*
X94382238Y-58663619D01*
X94382238Y-57930285D02*
X93963190Y-58349333D01*
X95939857Y-52567619D02*
X95573190Y-52043809D01*
X95311285Y-52567619D02*
X95311285Y-51467619D01*
X95730333Y-51467619D01*
X95835095Y-51520000D01*
X95887476Y-51572380D01*
X95939857Y-51677142D01*
X95939857Y-51834285D01*
X95887476Y-51939047D01*
X95835095Y-51991428D01*
X95730333Y-52043809D01*
X95311285Y-52043809D01*
X96358904Y-51572380D02*
X96411285Y-51520000D01*
X96516047Y-51467619D01*
X96777952Y-51467619D01*
X96882714Y-51520000D01*
X96935095Y-51572380D01*
X96987476Y-51677142D01*
X96987476Y-51781904D01*
X96935095Y-51939047D01*
X96306523Y-52567619D01*
X96987476Y-52567619D01*
X97511285Y-52567619D02*
X97720809Y-52567619D01*
X97825571Y-52515238D01*
X97877952Y-52462857D01*
X97982714Y-52305714D01*
X98035095Y-52096190D01*
X98035095Y-51677142D01*
X97982714Y-51572380D01*
X97930333Y-51520000D01*
X97825571Y-51467619D01*
X97616047Y-51467619D01*
X97511285Y-51520000D01*
X97458904Y-51572380D01*
X97406523Y-51677142D01*
X97406523Y-51939047D01*
X97458904Y-52043809D01*
X97511285Y-52096190D01*
X97616047Y-52148571D01*
X97825571Y-52148571D01*
X97930333Y-52096190D01*
X97982714Y-52043809D01*
X98035095Y-51939047D01*
X95992238Y-54091619D02*
X95363666Y-54091619D01*
X95677952Y-54091619D02*
X95677952Y-52991619D01*
X95573190Y-53148761D01*
X95468428Y-53253523D01*
X95363666Y-53305904D01*
X96673190Y-52991619D02*
X96777952Y-52991619D01*
X96882714Y-53044000D01*
X96935095Y-53096380D01*
X96987476Y-53201142D01*
X97039857Y-53410666D01*
X97039857Y-53672571D01*
X96987476Y-53882095D01*
X96935095Y-53986857D01*
X96882714Y-54039238D01*
X96777952Y-54091619D01*
X96673190Y-54091619D01*
X96568428Y-54039238D01*
X96516047Y-53986857D01*
X96463666Y-53882095D01*
X96411285Y-53672571D01*
X96411285Y-53410666D01*
X96463666Y-53201142D01*
X96516047Y-53096380D01*
X96568428Y-53044000D01*
X96673190Y-52991619D01*
X97511285Y-54091619D02*
X97511285Y-52991619D01*
X97616047Y-53672571D02*
X97930333Y-54091619D01*
X97930333Y-53358285D02*
X97511285Y-53777333D01*
X103051857Y-53202619D02*
X102685190Y-52678809D01*
X102423285Y-53202619D02*
X102423285Y-52102619D01*
X102842333Y-52102619D01*
X102947095Y-52155000D01*
X102999476Y-52207380D01*
X103051857Y-52312142D01*
X103051857Y-52469285D01*
X102999476Y-52574047D01*
X102947095Y-52626428D01*
X102842333Y-52678809D01*
X102423285Y-52678809D01*
X103418523Y-52102619D02*
X104099476Y-52102619D01*
X103732809Y-52521666D01*
X103889952Y-52521666D01*
X103994714Y-52574047D01*
X104047095Y-52626428D01*
X104099476Y-52731190D01*
X104099476Y-52993095D01*
X104047095Y-53097857D01*
X103994714Y-53150238D01*
X103889952Y-53202619D01*
X103575666Y-53202619D01*
X103470904Y-53150238D01*
X103418523Y-53097857D01*
X104780428Y-52102619D02*
X104885190Y-52102619D01*
X104989952Y-52155000D01*
X105042333Y-52207380D01*
X105094714Y-52312142D01*
X105147095Y-52521666D01*
X105147095Y-52783571D01*
X105094714Y-52993095D01*
X105042333Y-53097857D01*
X104989952Y-53150238D01*
X104885190Y-53202619D01*
X104780428Y-53202619D01*
X104675666Y-53150238D01*
X104623285Y-53097857D01*
X104570904Y-52993095D01*
X104518523Y-52783571D01*
X104518523Y-52521666D01*
X104570904Y-52312142D01*
X104623285Y-52207380D01*
X104675666Y-52155000D01*
X104780428Y-52102619D01*
X104136047Y-54726619D02*
X103507476Y-54726619D01*
X103821761Y-54726619D02*
X103821761Y-53626619D01*
X103717000Y-53783761D01*
X103612238Y-53888523D01*
X103507476Y-53940904D01*
X104607476Y-54726619D02*
X104607476Y-53626619D01*
X104712238Y-54307571D02*
X105026523Y-54726619D01*
X105026523Y-53993285D02*
X104607476Y-54412333D01*
X102696257Y-59654219D02*
X102329590Y-59130409D01*
X102067685Y-59654219D02*
X102067685Y-58554219D01*
X102486733Y-58554219D01*
X102591495Y-58606600D01*
X102643876Y-58658980D01*
X102696257Y-58763742D01*
X102696257Y-58920885D01*
X102643876Y-59025647D01*
X102591495Y-59078028D01*
X102486733Y-59130409D01*
X102067685Y-59130409D01*
X103062923Y-58554219D02*
X103743876Y-58554219D01*
X103377209Y-58973266D01*
X103534352Y-58973266D01*
X103639114Y-59025647D01*
X103691495Y-59078028D01*
X103743876Y-59182790D01*
X103743876Y-59444695D01*
X103691495Y-59549457D01*
X103639114Y-59601838D01*
X103534352Y-59654219D01*
X103220066Y-59654219D01*
X103115304Y-59601838D01*
X103062923Y-59549457D01*
X104162923Y-58658980D02*
X104215304Y-58606600D01*
X104320066Y-58554219D01*
X104581971Y-58554219D01*
X104686733Y-58606600D01*
X104739114Y-58658980D01*
X104791495Y-58763742D01*
X104791495Y-58868504D01*
X104739114Y-59025647D01*
X104110542Y-59654219D01*
X104791495Y-59654219D01*
D13*
X102490733Y-56459380D02*
X101919304Y-56459380D01*
X102205019Y-56459380D02*
X102205019Y-55459380D01*
X102109780Y-55602238D01*
X102014542Y-55697476D01*
X101919304Y-55745095D01*
X103109780Y-55459380D02*
X103205019Y-55459380D01*
X103300257Y-55507000D01*
X103347876Y-55554619D01*
X103395495Y-55649857D01*
X103443114Y-55840333D01*
X103443114Y-56078428D01*
X103395495Y-56268904D01*
X103347876Y-56364142D01*
X103300257Y-56411761D01*
X103205019Y-56459380D01*
X103109780Y-56459380D01*
X103014542Y-56411761D01*
X102966923Y-56364142D01*
X102919304Y-56268904D01*
X102871685Y-56078428D01*
X102871685Y-55840333D01*
X102919304Y-55649857D01*
X102966923Y-55554619D01*
X103014542Y-55507000D01*
X103109780Y-55459380D01*
X104062161Y-55459380D02*
X104157400Y-55459380D01*
X104252638Y-55507000D01*
X104300257Y-55554619D01*
X104347876Y-55649857D01*
X104395495Y-55840333D01*
X104395495Y-56078428D01*
X104347876Y-56268904D01*
X104300257Y-56364142D01*
X104252638Y-56411761D01*
X104157400Y-56459380D01*
X104062161Y-56459380D01*
X103966923Y-56411761D01*
X103919304Y-56364142D01*
X103871685Y-56268904D01*
X103824066Y-56078428D01*
X103824066Y-55840333D01*
X103871685Y-55649857D01*
X103919304Y-55554619D01*
X103966923Y-55507000D01*
X104062161Y-55459380D01*
X105395495Y-56459380D02*
X105062161Y-55983190D01*
X104824066Y-56459380D02*
X104824066Y-55459380D01*
X105205019Y-55459380D01*
X105300257Y-55507000D01*
X105347876Y-55554619D01*
X105395495Y-55649857D01*
X105395495Y-55792714D01*
X105347876Y-55887952D01*
X105300257Y-55935571D01*
X105205019Y-55983190D01*
X104824066Y-55983190D01*
D12*
X72444857Y-83174619D02*
X72078190Y-82650809D01*
X71816285Y-83174619D02*
X71816285Y-82074619D01*
X72235333Y-82074619D01*
X72340095Y-82127000D01*
X72392476Y-82179380D01*
X72444857Y-82284142D01*
X72444857Y-82441285D01*
X72392476Y-82546047D01*
X72340095Y-82598428D01*
X72235333Y-82650809D01*
X71816285Y-82650809D01*
X72811523Y-82074619D02*
X73492476Y-82074619D01*
X73125809Y-82493666D01*
X73282952Y-82493666D01*
X73387714Y-82546047D01*
X73440095Y-82598428D01*
X73492476Y-82703190D01*
X73492476Y-82965095D01*
X73440095Y-83069857D01*
X73387714Y-83122238D01*
X73282952Y-83174619D01*
X72968666Y-83174619D01*
X72863904Y-83122238D01*
X72811523Y-83069857D01*
X74487714Y-82074619D02*
X73963904Y-82074619D01*
X73911523Y-82598428D01*
X73963904Y-82546047D01*
X74068666Y-82493666D01*
X74330571Y-82493666D01*
X74435333Y-82546047D01*
X74487714Y-82598428D01*
X74540095Y-82703190D01*
X74540095Y-82965095D01*
X74487714Y-83069857D01*
X74435333Y-83122238D01*
X74330571Y-83174619D01*
X74068666Y-83174619D01*
X73963904Y-83122238D01*
X73911523Y-83069857D01*
X72370238Y-84571619D02*
X71741666Y-84571619D01*
X72055952Y-84571619D02*
X72055952Y-83471619D01*
X71951190Y-83628761D01*
X71846428Y-83733523D01*
X71741666Y-83785904D01*
X73051190Y-83471619D02*
X73155952Y-83471619D01*
X73260714Y-83524000D01*
X73313095Y-83576380D01*
X73365476Y-83681142D01*
X73417857Y-83890666D01*
X73417857Y-84152571D01*
X73365476Y-84362095D01*
X73313095Y-84466857D01*
X73260714Y-84519238D01*
X73155952Y-84571619D01*
X73051190Y-84571619D01*
X72946428Y-84519238D01*
X72894047Y-84466857D01*
X72841666Y-84362095D01*
X72789285Y-84152571D01*
X72789285Y-83890666D01*
X72841666Y-83681142D01*
X72894047Y-83576380D01*
X72946428Y-83524000D01*
X73051190Y-83471619D01*
X73889285Y-84571619D02*
X73889285Y-83471619D01*
X73994047Y-84152571D02*
X74308333Y-84571619D01*
X74308333Y-83838285D02*
X73889285Y-84257333D01*
X75873857Y-79745619D02*
X75507190Y-79221809D01*
X75245285Y-79745619D02*
X75245285Y-78645619D01*
X75664333Y-78645619D01*
X75769095Y-78698000D01*
X75821476Y-78750380D01*
X75873857Y-78855142D01*
X75873857Y-79012285D01*
X75821476Y-79117047D01*
X75769095Y-79169428D01*
X75664333Y-79221809D01*
X75245285Y-79221809D01*
X76240523Y-78645619D02*
X76921476Y-78645619D01*
X76554809Y-79064666D01*
X76711952Y-79064666D01*
X76816714Y-79117047D01*
X76869095Y-79169428D01*
X76921476Y-79274190D01*
X76921476Y-79536095D01*
X76869095Y-79640857D01*
X76816714Y-79693238D01*
X76711952Y-79745619D01*
X76397666Y-79745619D01*
X76292904Y-79693238D01*
X76240523Y-79640857D01*
X77864333Y-78645619D02*
X77654809Y-78645619D01*
X77550047Y-78698000D01*
X77497666Y-78750380D01*
X77392904Y-78907523D01*
X77340523Y-79117047D01*
X77340523Y-79536095D01*
X77392904Y-79640857D01*
X77445285Y-79693238D01*
X77550047Y-79745619D01*
X77759571Y-79745619D01*
X77864333Y-79693238D01*
X77916714Y-79640857D01*
X77969095Y-79536095D01*
X77969095Y-79274190D01*
X77916714Y-79169428D01*
X77864333Y-79117047D01*
X77759571Y-79064666D01*
X77550047Y-79064666D01*
X77445285Y-79117047D01*
X77392904Y-79169428D01*
X77340523Y-79274190D01*
X75815047Y-81269619D02*
X75186476Y-81269619D01*
X75500761Y-81269619D02*
X75500761Y-80169619D01*
X75396000Y-80326761D01*
X75291238Y-80431523D01*
X75186476Y-80483904D01*
X76286476Y-81269619D02*
X76286476Y-80169619D01*
X76391238Y-80850571D02*
X76705523Y-81269619D01*
X76705523Y-80536285D02*
X76286476Y-80955333D01*
X94919904Y-69628619D02*
X94919904Y-70519095D01*
X94972285Y-70623857D01*
X95024666Y-70676238D01*
X95129428Y-70728619D01*
X95338952Y-70728619D01*
X95443714Y-70676238D01*
X95496095Y-70623857D01*
X95548476Y-70519095D01*
X95548476Y-69628619D01*
X96019904Y-69733380D02*
X96072285Y-69681000D01*
X96177047Y-69628619D01*
X96438952Y-69628619D01*
X96543714Y-69681000D01*
X96596095Y-69733380D01*
X96648476Y-69838142D01*
X96648476Y-69942904D01*
X96596095Y-70100047D01*
X95967523Y-70728619D01*
X96648476Y-70728619D01*
X101015904Y-69755619D02*
X101015904Y-70646095D01*
X101068285Y-70750857D01*
X101120666Y-70803238D01*
X101225428Y-70855619D01*
X101434952Y-70855619D01*
X101539714Y-70803238D01*
X101592095Y-70750857D01*
X101644476Y-70646095D01*
X101644476Y-69755619D01*
X102063523Y-69755619D02*
X102796857Y-69755619D01*
X102325428Y-70855619D01*
X67487904Y-75216619D02*
X67487904Y-76107095D01*
X67540285Y-76211857D01*
X67592666Y-76264238D01*
X67697428Y-76316619D01*
X67906952Y-76316619D01*
X68011714Y-76264238D01*
X68064095Y-76211857D01*
X68116476Y-76107095D01*
X68116476Y-75216619D01*
X69111714Y-75216619D02*
X68902190Y-75216619D01*
X68797428Y-75269000D01*
X68745047Y-75321380D01*
X68640285Y-75478523D01*
X68587904Y-75688047D01*
X68587904Y-76107095D01*
X68640285Y-76211857D01*
X68692666Y-76264238D01*
X68797428Y-76316619D01*
X69006952Y-76316619D01*
X69111714Y-76264238D01*
X69164095Y-76211857D01*
X69216476Y-76107095D01*
X69216476Y-75845190D01*
X69164095Y-75740428D01*
X69111714Y-75688047D01*
X69006952Y-75635666D01*
X68797428Y-75635666D01*
X68692666Y-75688047D01*
X68640285Y-75740428D01*
X68587904Y-75845190D01*
X81965904Y-81058619D02*
X81965904Y-81949095D01*
X82018285Y-82053857D01*
X82070666Y-82106238D01*
X82175428Y-82158619D01*
X82384952Y-82158619D01*
X82489714Y-82106238D01*
X82542095Y-82053857D01*
X82594476Y-81949095D01*
X82594476Y-81058619D01*
X83275428Y-81530047D02*
X83170666Y-81477666D01*
X83118285Y-81425285D01*
X83065904Y-81320523D01*
X83065904Y-81268142D01*
X83118285Y-81163380D01*
X83170666Y-81111000D01*
X83275428Y-81058619D01*
X83484952Y-81058619D01*
X83589714Y-81111000D01*
X83642095Y-81163380D01*
X83694476Y-81268142D01*
X83694476Y-81320523D01*
X83642095Y-81425285D01*
X83589714Y-81477666D01*
X83484952Y-81530047D01*
X83275428Y-81530047D01*
X83170666Y-81582428D01*
X83118285Y-81634809D01*
X83065904Y-81739571D01*
X83065904Y-81949095D01*
X83118285Y-82053857D01*
X83170666Y-82106238D01*
X83275428Y-82158619D01*
X83484952Y-82158619D01*
X83589714Y-82106238D01*
X83642095Y-82053857D01*
X83694476Y-81949095D01*
X83694476Y-81739571D01*
X83642095Y-81634809D01*
X83589714Y-81582428D01*
X83484952Y-81530047D01*
X92002857Y-83704857D02*
X91950476Y-83757238D01*
X91793333Y-83809619D01*
X91688571Y-83809619D01*
X91531428Y-83757238D01*
X91426666Y-83652476D01*
X91374285Y-83547714D01*
X91321904Y-83338190D01*
X91321904Y-83181047D01*
X91374285Y-82971523D01*
X91426666Y-82866761D01*
X91531428Y-82762000D01*
X91688571Y-82709619D01*
X91793333Y-82709619D01*
X91950476Y-82762000D01*
X92002857Y-82814380D01*
X93050476Y-83809619D02*
X92421904Y-83809619D01*
X92736190Y-83809619D02*
X92736190Y-82709619D01*
X92631428Y-82866761D01*
X92526666Y-82971523D01*
X92421904Y-83023904D01*
X93679047Y-83181047D02*
X93574285Y-83128666D01*
X93521904Y-83076285D01*
X93469523Y-82971523D01*
X93469523Y-82919142D01*
X93521904Y-82814380D01*
X93574285Y-82762000D01*
X93679047Y-82709619D01*
X93888571Y-82709619D01*
X93993333Y-82762000D01*
X94045714Y-82814380D01*
X94098095Y-82919142D01*
X94098095Y-82971523D01*
X94045714Y-83076285D01*
X93993333Y-83128666D01*
X93888571Y-83181047D01*
X93679047Y-83181047D01*
X93574285Y-83233428D01*
X93521904Y-83285809D01*
X93469523Y-83390571D01*
X93469523Y-83600095D01*
X93521904Y-83704857D01*
X93574285Y-83757238D01*
X93679047Y-83809619D01*
X93888571Y-83809619D01*
X93993333Y-83757238D01*
X94045714Y-83704857D01*
X94098095Y-83600095D01*
X94098095Y-83390571D01*
X94045714Y-83285809D01*
X93993333Y-83233428D01*
X93888571Y-83181047D01*
X92002857Y-85333619D02*
X91374285Y-85333619D01*
X91688571Y-85333619D02*
X91688571Y-84233619D01*
X91583809Y-84390761D01*
X91479047Y-84495523D01*
X91374285Y-84547904D01*
X92683809Y-84233619D02*
X92788571Y-84233619D01*
X92893333Y-84286000D01*
X92945714Y-84338380D01*
X92998095Y-84443142D01*
X93050476Y-84652666D01*
X93050476Y-84914571D01*
X92998095Y-85124095D01*
X92945714Y-85228857D01*
X92893333Y-85281238D01*
X92788571Y-85333619D01*
X92683809Y-85333619D01*
X92579047Y-85281238D01*
X92526666Y-85228857D01*
X92474285Y-85124095D01*
X92421904Y-84914571D01*
X92421904Y-84652666D01*
X92474285Y-84443142D01*
X92526666Y-84338380D01*
X92579047Y-84286000D01*
X92683809Y-84233619D01*
X93993333Y-84600285D02*
X93993333Y-85333619D01*
X93521904Y-84600285D02*
X93521904Y-85176476D01*
X93574285Y-85281238D01*
X93679047Y-85333619D01*
X93836190Y-85333619D01*
X93940952Y-85281238D01*
X93993333Y-85228857D01*
X49330857Y-106923619D02*
X48964190Y-106399809D01*
X48702285Y-106923619D02*
X48702285Y-105823619D01*
X49121333Y-105823619D01*
X49226095Y-105876000D01*
X49278476Y-105928380D01*
X49330857Y-106033142D01*
X49330857Y-106190285D01*
X49278476Y-106295047D01*
X49226095Y-106347428D01*
X49121333Y-106399809D01*
X48702285Y-106399809D01*
X49697523Y-105823619D02*
X50378476Y-105823619D01*
X50011809Y-106242666D01*
X50168952Y-106242666D01*
X50273714Y-106295047D01*
X50326095Y-106347428D01*
X50378476Y-106452190D01*
X50378476Y-106714095D01*
X50326095Y-106818857D01*
X50273714Y-106871238D01*
X50168952Y-106923619D01*
X49854666Y-106923619D01*
X49749904Y-106871238D01*
X49697523Y-106818857D01*
X51007047Y-106295047D02*
X50902285Y-106242666D01*
X50849904Y-106190285D01*
X50797523Y-106085523D01*
X50797523Y-106033142D01*
X50849904Y-105928380D01*
X50902285Y-105876000D01*
X51007047Y-105823619D01*
X51216571Y-105823619D01*
X51321333Y-105876000D01*
X51373714Y-105928380D01*
X51426095Y-106033142D01*
X51426095Y-106085523D01*
X51373714Y-106190285D01*
X51321333Y-106242666D01*
X51216571Y-106295047D01*
X51007047Y-106295047D01*
X50902285Y-106347428D01*
X50849904Y-106399809D01*
X50797523Y-106504571D01*
X50797523Y-106714095D01*
X50849904Y-106818857D01*
X50902285Y-106871238D01*
X51007047Y-106923619D01*
X51216571Y-106923619D01*
X51321333Y-106871238D01*
X51373714Y-106818857D01*
X51426095Y-106714095D01*
X51426095Y-106504571D01*
X51373714Y-106399809D01*
X51321333Y-106347428D01*
X51216571Y-106295047D01*
X47692714Y-107220619D02*
X48373666Y-107220619D01*
X48007000Y-107639666D01*
X48164142Y-107639666D01*
X48268904Y-107692047D01*
X48321285Y-107744428D01*
X48373666Y-107849190D01*
X48373666Y-108111095D01*
X48321285Y-108215857D01*
X48268904Y-108268238D01*
X48164142Y-108320619D01*
X47849857Y-108320619D01*
X47745095Y-108268238D01*
X47692714Y-108215857D01*
X49054619Y-107220619D02*
X49159380Y-107220619D01*
X49264142Y-107273000D01*
X49316523Y-107325380D01*
X49368904Y-107430142D01*
X49421285Y-107639666D01*
X49421285Y-107901571D01*
X49368904Y-108111095D01*
X49316523Y-108215857D01*
X49264142Y-108268238D01*
X49159380Y-108320619D01*
X49054619Y-108320619D01*
X48949857Y-108268238D01*
X48897476Y-108215857D01*
X48845095Y-108111095D01*
X48792714Y-107901571D01*
X48792714Y-107639666D01*
X48845095Y-107430142D01*
X48897476Y-107325380D01*
X48949857Y-107273000D01*
X49054619Y-107220619D01*
X50102238Y-107220619D02*
X50207000Y-107220619D01*
X50311761Y-107273000D01*
X50364142Y-107325380D01*
X50416523Y-107430142D01*
X50468904Y-107639666D01*
X50468904Y-107901571D01*
X50416523Y-108111095D01*
X50364142Y-108215857D01*
X50311761Y-108268238D01*
X50207000Y-108320619D01*
X50102238Y-108320619D01*
X49997476Y-108268238D01*
X49945095Y-108215857D01*
X49892714Y-108111095D01*
X49840333Y-107901571D01*
X49840333Y-107639666D01*
X49892714Y-107430142D01*
X49945095Y-107325380D01*
X49997476Y-107273000D01*
X50102238Y-107220619D01*
X51568904Y-108320619D02*
X51202238Y-107796809D01*
X50940333Y-108320619D02*
X50940333Y-107220619D01*
X51359380Y-107220619D01*
X51464142Y-107273000D01*
X51516523Y-107325380D01*
X51568904Y-107430142D01*
X51568904Y-107587285D01*
X51516523Y-107692047D01*
X51464142Y-107744428D01*
X51359380Y-107796809D01*
X50940333Y-107796809D01*
X49711857Y-100700619D02*
X49345190Y-100176809D01*
X49083285Y-100700619D02*
X49083285Y-99600619D01*
X49502333Y-99600619D01*
X49607095Y-99653000D01*
X49659476Y-99705380D01*
X49711857Y-99810142D01*
X49711857Y-99967285D01*
X49659476Y-100072047D01*
X49607095Y-100124428D01*
X49502333Y-100176809D01*
X49083285Y-100176809D01*
X50078523Y-99600619D02*
X50759476Y-99600619D01*
X50392809Y-100019666D01*
X50549952Y-100019666D01*
X50654714Y-100072047D01*
X50707095Y-100124428D01*
X50759476Y-100229190D01*
X50759476Y-100491095D01*
X50707095Y-100595857D01*
X50654714Y-100648238D01*
X50549952Y-100700619D01*
X50235666Y-100700619D01*
X50130904Y-100648238D01*
X50078523Y-100595857D01*
X51283285Y-100700619D02*
X51492809Y-100700619D01*
X51597571Y-100648238D01*
X51649952Y-100595857D01*
X51754714Y-100438714D01*
X51807095Y-100229190D01*
X51807095Y-99810142D01*
X51754714Y-99705380D01*
X51702333Y-99653000D01*
X51597571Y-99600619D01*
X51388047Y-99600619D01*
X51283285Y-99653000D01*
X51230904Y-99705380D01*
X51178523Y-99810142D01*
X51178523Y-100072047D01*
X51230904Y-100176809D01*
X51283285Y-100229190D01*
X51388047Y-100281571D01*
X51597571Y-100281571D01*
X51702333Y-100229190D01*
X51754714Y-100176809D01*
X51807095Y-100072047D01*
X47946714Y-101251619D02*
X48627666Y-101251619D01*
X48261000Y-101670666D01*
X48418142Y-101670666D01*
X48522904Y-101723047D01*
X48575285Y-101775428D01*
X48627666Y-101880190D01*
X48627666Y-102142095D01*
X48575285Y-102246857D01*
X48522904Y-102299238D01*
X48418142Y-102351619D01*
X48103857Y-102351619D01*
X47999095Y-102299238D01*
X47946714Y-102246857D01*
X49308619Y-101251619D02*
X49413380Y-101251619D01*
X49518142Y-101304000D01*
X49570523Y-101356380D01*
X49622904Y-101461142D01*
X49675285Y-101670666D01*
X49675285Y-101932571D01*
X49622904Y-102142095D01*
X49570523Y-102246857D01*
X49518142Y-102299238D01*
X49413380Y-102351619D01*
X49308619Y-102351619D01*
X49203857Y-102299238D01*
X49151476Y-102246857D01*
X49099095Y-102142095D01*
X49046714Y-101932571D01*
X49046714Y-101670666D01*
X49099095Y-101461142D01*
X49151476Y-101356380D01*
X49203857Y-101304000D01*
X49308619Y-101251619D01*
X50356238Y-101251619D02*
X50461000Y-101251619D01*
X50565761Y-101304000D01*
X50618142Y-101356380D01*
X50670523Y-101461142D01*
X50722904Y-101670666D01*
X50722904Y-101932571D01*
X50670523Y-102142095D01*
X50618142Y-102246857D01*
X50565761Y-102299238D01*
X50461000Y-102351619D01*
X50356238Y-102351619D01*
X50251476Y-102299238D01*
X50199095Y-102246857D01*
X50146714Y-102142095D01*
X50094333Y-101932571D01*
X50094333Y-101670666D01*
X50146714Y-101461142D01*
X50199095Y-101356380D01*
X50251476Y-101304000D01*
X50356238Y-101251619D01*
X51822904Y-102351619D02*
X51456238Y-101827809D01*
X51194333Y-102351619D02*
X51194333Y-101251619D01*
X51613380Y-101251619D01*
X51718142Y-101304000D01*
X51770523Y-101356380D01*
X51822904Y-101461142D01*
X51822904Y-101618285D01*
X51770523Y-101723047D01*
X51718142Y-101775428D01*
X51613380Y-101827809D01*
X51194333Y-101827809D01*
X59109857Y-106923619D02*
X58743190Y-106399809D01*
X58481285Y-106923619D02*
X58481285Y-105823619D01*
X58900333Y-105823619D01*
X59005095Y-105876000D01*
X59057476Y-105928380D01*
X59109857Y-106033142D01*
X59109857Y-106190285D01*
X59057476Y-106295047D01*
X59005095Y-106347428D01*
X58900333Y-106399809D01*
X58481285Y-106399809D01*
X60052714Y-106190285D02*
X60052714Y-106923619D01*
X59790809Y-105771238D02*
X59528904Y-106556952D01*
X60209857Y-106556952D01*
X60838428Y-105823619D02*
X60943190Y-105823619D01*
X61047952Y-105876000D01*
X61100333Y-105928380D01*
X61152714Y-106033142D01*
X61205095Y-106242666D01*
X61205095Y-106504571D01*
X61152714Y-106714095D01*
X61100333Y-106818857D01*
X61047952Y-106871238D01*
X60943190Y-106923619D01*
X60838428Y-106923619D01*
X60733666Y-106871238D01*
X60681285Y-106818857D01*
X60628904Y-106714095D01*
X60576523Y-106504571D01*
X60576523Y-106242666D01*
X60628904Y-106033142D01*
X60681285Y-105928380D01*
X60733666Y-105876000D01*
X60838428Y-105823619D01*
X58360714Y-107220619D02*
X59041666Y-107220619D01*
X58675000Y-107639666D01*
X58832142Y-107639666D01*
X58936904Y-107692047D01*
X58989285Y-107744428D01*
X59041666Y-107849190D01*
X59041666Y-108111095D01*
X58989285Y-108215857D01*
X58936904Y-108268238D01*
X58832142Y-108320619D01*
X58517857Y-108320619D01*
X58413095Y-108268238D01*
X58360714Y-108215857D01*
X59722619Y-107220619D02*
X59827380Y-107220619D01*
X59932142Y-107273000D01*
X59984523Y-107325380D01*
X60036904Y-107430142D01*
X60089285Y-107639666D01*
X60089285Y-107901571D01*
X60036904Y-108111095D01*
X59984523Y-108215857D01*
X59932142Y-108268238D01*
X59827380Y-108320619D01*
X59722619Y-108320619D01*
X59617857Y-108268238D01*
X59565476Y-108215857D01*
X59513095Y-108111095D01*
X59460714Y-107901571D01*
X59460714Y-107639666D01*
X59513095Y-107430142D01*
X59565476Y-107325380D01*
X59617857Y-107273000D01*
X59722619Y-107220619D01*
X60770238Y-107220619D02*
X60875000Y-107220619D01*
X60979761Y-107273000D01*
X61032142Y-107325380D01*
X61084523Y-107430142D01*
X61136904Y-107639666D01*
X61136904Y-107901571D01*
X61084523Y-108111095D01*
X61032142Y-108215857D01*
X60979761Y-108268238D01*
X60875000Y-108320619D01*
X60770238Y-108320619D01*
X60665476Y-108268238D01*
X60613095Y-108215857D01*
X60560714Y-108111095D01*
X60508333Y-107901571D01*
X60508333Y-107639666D01*
X60560714Y-107430142D01*
X60613095Y-107325380D01*
X60665476Y-107273000D01*
X60770238Y-107220619D01*
X62236904Y-108320619D02*
X61870238Y-107796809D01*
X61608333Y-108320619D02*
X61608333Y-107220619D01*
X62027380Y-107220619D01*
X62132142Y-107273000D01*
X62184523Y-107325380D01*
X62236904Y-107430142D01*
X62236904Y-107587285D01*
X62184523Y-107692047D01*
X62132142Y-107744428D01*
X62027380Y-107796809D01*
X61608333Y-107796809D01*
X61649857Y-98668619D02*
X61283190Y-98144809D01*
X61021285Y-98668619D02*
X61021285Y-97568619D01*
X61440333Y-97568619D01*
X61545095Y-97621000D01*
X61597476Y-97673380D01*
X61649857Y-97778142D01*
X61649857Y-97935285D01*
X61597476Y-98040047D01*
X61545095Y-98092428D01*
X61440333Y-98144809D01*
X61021285Y-98144809D01*
X62016523Y-97568619D02*
X62697476Y-97568619D01*
X62330809Y-97987666D01*
X62487952Y-97987666D01*
X62592714Y-98040047D01*
X62645095Y-98092428D01*
X62697476Y-98197190D01*
X62697476Y-98459095D01*
X62645095Y-98563857D01*
X62592714Y-98616238D01*
X62487952Y-98668619D01*
X62173666Y-98668619D01*
X62068904Y-98616238D01*
X62016523Y-98563857D01*
X63064142Y-97568619D02*
X63797476Y-97568619D01*
X63326047Y-98668619D01*
X61462571Y-99586285D02*
X61462571Y-100319619D01*
X61200666Y-99167238D02*
X60938761Y-99952952D01*
X61619714Y-99952952D01*
X62091142Y-100267238D02*
X62091142Y-100319619D01*
X62038761Y-100424380D01*
X61986380Y-100476761D01*
X62457809Y-99219619D02*
X63191142Y-99219619D01*
X62719714Y-100319619D01*
X63610190Y-100319619D02*
X63610190Y-99219619D01*
X63714952Y-99900571D02*
X64029238Y-100319619D01*
X64029238Y-99586285D02*
X63610190Y-100005333D01*
X54997428Y-96741380D02*
X54892666Y-96689000D01*
X54787904Y-96584238D01*
X54630761Y-96427095D01*
X54526000Y-96374714D01*
X54421238Y-96374714D01*
X54473619Y-96636619D02*
X54368857Y-96584238D01*
X54264095Y-96479476D01*
X54211714Y-96269952D01*
X54211714Y-95903285D01*
X54264095Y-95693761D01*
X54368857Y-95589000D01*
X54473619Y-95536619D01*
X54683142Y-95536619D01*
X54787904Y-95589000D01*
X54892666Y-95693761D01*
X54945047Y-95903285D01*
X54945047Y-96269952D01*
X54892666Y-96479476D01*
X54787904Y-96584238D01*
X54683142Y-96636619D01*
X54473619Y-96636619D01*
X55992666Y-96636619D02*
X55364095Y-96636619D01*
X55678380Y-96636619D02*
X55678380Y-95536619D01*
X55573619Y-95693761D01*
X55468857Y-95798523D01*
X55364095Y-95850904D01*
X57040285Y-96636619D02*
X56411714Y-96636619D01*
X56726000Y-96636619D02*
X56726000Y-95536619D01*
X56621238Y-95693761D01*
X56516476Y-95798523D01*
X56411714Y-95850904D01*
X88843666Y-80529857D02*
X88791285Y-80582238D01*
X88634142Y-80634619D01*
X88529380Y-80634619D01*
X88372238Y-80582238D01*
X88267476Y-80477476D01*
X88215095Y-80372714D01*
X88162714Y-80163190D01*
X88162714Y-80006047D01*
X88215095Y-79796523D01*
X88267476Y-79691761D01*
X88372238Y-79587000D01*
X88529380Y-79534619D01*
X88634142Y-79534619D01*
X88791285Y-79587000D01*
X88843666Y-79639380D01*
X89786523Y-79534619D02*
X89577000Y-79534619D01*
X89472238Y-79587000D01*
X89419857Y-79639380D01*
X89315095Y-79796523D01*
X89262714Y-80006047D01*
X89262714Y-80425095D01*
X89315095Y-80529857D01*
X89367476Y-80582238D01*
X89472238Y-80634619D01*
X89681761Y-80634619D01*
X89786523Y-80582238D01*
X89838904Y-80529857D01*
X89891285Y-80425095D01*
X89891285Y-80163190D01*
X89838904Y-80058428D01*
X89786523Y-80006047D01*
X89681761Y-79953666D01*
X89472238Y-79953666D01*
X89367476Y-80006047D01*
X89315095Y-80058428D01*
X89262714Y-80163190D01*
X88812047Y-82031619D02*
X88183476Y-82031619D01*
X88497761Y-82031619D02*
X88497761Y-80931619D01*
X88393000Y-81088761D01*
X88288238Y-81193523D01*
X88183476Y-81245904D01*
X89493000Y-80931619D02*
X89597761Y-80931619D01*
X89702523Y-80984000D01*
X89754904Y-81036380D01*
X89807285Y-81141142D01*
X89859666Y-81350666D01*
X89859666Y-81612571D01*
X89807285Y-81822095D01*
X89754904Y-81926857D01*
X89702523Y-81979238D01*
X89597761Y-82031619D01*
X89493000Y-82031619D01*
X89388238Y-81979238D01*
X89335857Y-81926857D01*
X89283476Y-81822095D01*
X89231095Y-81612571D01*
X89231095Y-81350666D01*
X89283476Y-81141142D01*
X89335857Y-81036380D01*
X89388238Y-80984000D01*
X89493000Y-80931619D01*
X90540619Y-80931619D02*
X90645380Y-80931619D01*
X90750142Y-80984000D01*
X90802523Y-81036380D01*
X90854904Y-81141142D01*
X90907285Y-81350666D01*
X90907285Y-81612571D01*
X90854904Y-81822095D01*
X90802523Y-81926857D01*
X90750142Y-81979238D01*
X90645380Y-82031619D01*
X90540619Y-82031619D01*
X90435857Y-81979238D01*
X90383476Y-81926857D01*
X90331095Y-81822095D01*
X90278714Y-81612571D01*
X90278714Y-81350666D01*
X90331095Y-81141142D01*
X90383476Y-81036380D01*
X90435857Y-80984000D01*
X90540619Y-80931619D01*
X91378714Y-81298285D02*
X91378714Y-82031619D01*
X91378714Y-81403047D02*
X91431095Y-81350666D01*
X91535857Y-81298285D01*
X91693000Y-81298285D01*
X91797761Y-81350666D01*
X91850142Y-81455428D01*
X91850142Y-82031619D01*
D14*
X40388000Y-94559000D02*
X40388000Y-95489000D01*
X40388000Y-94559000D02*
X41848000Y-94559000D01*
X40388000Y-97719000D02*
X42548000Y-97719000D01*
X40388000Y-97719000D02*
X40388000Y-96789000D01*
X39499000Y-93655000D02*
X39499000Y-92725000D01*
X39499000Y-90495000D02*
X39499000Y-91425000D01*
X39499000Y-90495000D02*
X40959000Y-90495000D01*
X39499000Y-93655000D02*
X41659000Y-93655000D01*
X95702000Y-41654000D02*
X95702000Y-40194000D01*
X98862000Y-41654000D02*
X97932000Y-41654000D01*
X95702000Y-41654000D02*
X96632000Y-41654000D01*
X98862000Y-41654000D02*
X98862000Y-39494000D01*
X64281000Y-58796000D02*
X65541000Y-58796000D01*
X71101000Y-62556000D02*
X71101000Y-58796000D01*
X71101000Y-58796000D02*
X69841000Y-58796000D01*
X64281000Y-64806000D02*
X64281000Y-58796000D01*
X32903000Y-98822000D02*
X28603000Y-98822000D01*
X32903000Y-100822000D02*
X32903000Y-98822000D01*
X28603000Y-100822000D02*
X32903000Y-100822000D01*
X80770000Y-31298000D02*
X80770000Y-30368000D01*
X80770000Y-28138000D02*
X80770000Y-29068000D01*
X80770000Y-31298000D02*
X79310000Y-31298000D01*
X80770000Y-28138000D02*
X78610000Y-28138000D01*
X86358000Y-30536000D02*
X86358000Y-29606000D01*
X86358000Y-27376000D02*
X84198000Y-27376000D01*
X86358000Y-27376000D02*
X86358000Y-28306000D01*
X86358000Y-30536000D02*
X84898000Y-30536000D01*
X100709000Y-55697000D02*
X98549000Y-55697000D01*
X100709000Y-58857000D02*
X100709000Y-57927000D01*
X100709000Y-55697000D02*
X100709000Y-56627000D01*
X100709000Y-58857000D02*
X99249000Y-58857000D01*
X91166000Y-74676000D02*
X91166000Y-76626000D01*
X96286000Y-74676000D02*
X96286000Y-76626000D01*
X96286000Y-74676000D02*
X96286000Y-71226000D01*
X91166000Y-74676000D02*
X91166000Y-72726000D01*
X97008000Y-74676000D02*
X97008000Y-72726000D01*
X102128000Y-74676000D02*
X102128000Y-76626000D01*
X102128000Y-74676000D02*
X102128000Y-71226000D01*
X97008000Y-74676000D02*
X97008000Y-76626000D01*
X67691000Y-81935000D02*
X65741000Y-81935000D01*
X67691000Y-76815000D02*
X69641000Y-76815000D01*
X67691000Y-81935000D02*
X69641000Y-81935000D01*
X67691000Y-76815000D02*
X64241000Y-76815000D01*
D15*
X80292114Y-93530000D02*
G75*
G03*
X80292114Y-93530000I-188114J0D01*
G01*
D16*
X90124280Y-83875880D02*
X90723720Y-83875880D01*
X90723720Y-83875880D02*
X90723720Y-84272120D01*
X90124280Y-83875880D02*
X90124280Y-84272120D01*
X90124280Y-84272120D02*
X90723720Y-84272120D01*
G36*
X55887370Y-25479925D02*
G01*
X55901490Y-25483734D01*
X55924237Y-25490036D01*
X55955025Y-25498662D01*
X55993264Y-25509443D01*
X56038366Y-25522210D01*
X56089744Y-25536795D01*
X56146808Y-25553028D01*
X56208970Y-25570742D01*
X56275644Y-25589766D01*
X56346239Y-25609932D01*
X56420168Y-25631071D01*
X56496842Y-25653015D01*
X56575675Y-25675594D01*
X56656076Y-25698639D01*
X56737458Y-25721983D01*
X56819233Y-25745455D01*
X56900812Y-25768887D01*
X56981607Y-25792110D01*
X57061031Y-25814956D01*
X57138494Y-25837255D01*
X57213408Y-25858839D01*
X57285186Y-25879538D01*
X57353239Y-25899184D01*
X57416979Y-25917609D01*
X57475817Y-25934642D01*
X57529165Y-25950116D01*
X57576436Y-25963861D01*
X57617040Y-25975709D01*
X57650390Y-25985490D01*
X57675897Y-25993037D01*
X57692974Y-25998179D01*
X57701031Y-26000749D01*
X57701539Y-26000954D01*
X57701431Y-26005974D01*
X57700564Y-26019825D01*
X57699044Y-26041172D01*
X57696981Y-26068679D01*
X57694484Y-26101009D01*
X57691661Y-26136827D01*
X57688620Y-26174796D01*
X57685471Y-26213581D01*
X57682322Y-26251845D01*
X57679281Y-26288253D01*
X57676458Y-26321467D01*
X57673960Y-26350153D01*
X57671897Y-26372974D01*
X57670377Y-26388594D01*
X57669508Y-26395677D01*
X57669424Y-26395949D01*
X57664515Y-26394500D01*
X57650538Y-26389823D01*
X57628041Y-26382110D01*
X57597569Y-26371554D01*
X57559671Y-26358346D01*
X57514894Y-26342679D01*
X57463784Y-26324745D01*
X57406889Y-26304735D01*
X57344755Y-26282843D01*
X57277929Y-26259259D01*
X57206960Y-26234177D01*
X57132393Y-26207789D01*
X57054776Y-26180286D01*
X56998102Y-26160183D01*
X56918660Y-26132000D01*
X56841888Y-26104784D01*
X56768333Y-26078728D01*
X56698542Y-26054023D01*
X56633061Y-26030863D01*
X56572435Y-26009441D01*
X56517212Y-25989949D01*
X56467939Y-25972581D01*
X56425160Y-25957528D01*
X56389424Y-25944984D01*
X56361276Y-25935141D01*
X56341262Y-25928193D01*
X56329929Y-25924332D01*
X56327452Y-25923570D01*
X56329865Y-25928002D01*
X56337138Y-25940519D01*
X56348878Y-25960457D01*
X56364688Y-25987154D01*
X56384175Y-26019947D01*
X56406945Y-26058171D01*
X56432601Y-26101165D01*
X56460750Y-26148265D01*
X56490996Y-26198809D01*
X56522946Y-26252132D01*
X56532787Y-26268544D01*
X56565182Y-26322633D01*
X56595977Y-26374199D01*
X56624780Y-26422574D01*
X56651194Y-26467087D01*
X56674826Y-26507071D01*
X56695282Y-26541855D01*
X56712167Y-26570770D01*
X56725087Y-26593147D01*
X56733648Y-26608316D01*
X56737455Y-26615609D01*
X56737612Y-26616158D01*
X56732645Y-26615175D01*
X56718511Y-26611391D01*
X56695803Y-26604984D01*
X56665116Y-26596129D01*
X56627044Y-26585002D01*
X56582180Y-26571779D01*
X56531120Y-26556636D01*
X56474455Y-26539749D01*
X56412782Y-26521295D01*
X56346693Y-26501450D01*
X56276783Y-26480389D01*
X56203646Y-26458288D01*
X56141736Y-26439530D01*
X56066279Y-26416655D01*
X55993494Y-26394616D01*
X55923980Y-26373596D01*
X55858338Y-26353773D01*
X55797169Y-26335329D01*
X55741074Y-26318445D01*
X55690654Y-26303300D01*
X55646510Y-26290075D01*
X55609241Y-26278951D01*
X55579450Y-26270108D01*
X55557737Y-26263728D01*
X55544702Y-26259989D01*
X55540922Y-26259021D01*
X55538932Y-26261183D01*
X55537371Y-26268400D01*
X55536199Y-26281577D01*
X55535373Y-26301619D01*
X55534851Y-26329431D01*
X55534592Y-26365918D01*
X55534544Y-26396601D01*
X55534389Y-26432899D01*
X55533950Y-26465614D01*
X55533270Y-26493432D01*
X55532391Y-26515039D01*
X55531355Y-26529120D01*
X55530202Y-26534360D01*
X55530158Y-26534367D01*
X55525178Y-26531499D01*
X55512714Y-26523278D01*
X55493579Y-26510279D01*
X55468586Y-26493075D01*
X55438547Y-26472241D01*
X55404276Y-26448350D01*
X55366586Y-26421978D01*
X55326289Y-26393698D01*
X55284198Y-26364085D01*
X55241127Y-26333712D01*
X55197889Y-26303155D01*
X55155295Y-26272986D01*
X55114160Y-26243781D01*
X55075297Y-26216114D01*
X55039517Y-26190559D01*
X55007635Y-26167689D01*
X54980462Y-26148080D01*
X54958813Y-26132305D01*
X54943500Y-26120939D01*
X54935335Y-26114556D01*
X54934188Y-26113415D01*
X54938467Y-26110526D01*
X54951319Y-26103922D01*
X54971962Y-26093962D01*
X54999614Y-26081006D01*
X55033492Y-26065412D01*
X55072814Y-26047541D01*
X55116797Y-26027752D01*
X55164659Y-26006405D01*
X55215617Y-25983859D01*
X55228343Y-25978256D01*
X55280123Y-25955487D01*
X55329181Y-25933932D01*
X55374714Y-25913943D01*
X55415917Y-25895871D01*
X55451985Y-25880070D01*
X55482114Y-25866892D01*
X55505500Y-25856689D01*
X55521337Y-25849814D01*
X55528822Y-25846619D01*
X55529274Y-25846442D01*
X55531241Y-25850747D01*
X55532749Y-25865144D01*
X55533800Y-25889659D01*
X55534395Y-25924320D01*
X55534544Y-25959819D01*
X55534544Y-26074952D01*
X55546025Y-26077593D01*
X55552881Y-26078799D01*
X55568638Y-26081360D01*
X55592307Y-26085123D01*
X55622898Y-26089937D01*
X55659422Y-26095648D01*
X55700891Y-26102105D01*
X55746316Y-26109156D01*
X55794706Y-26116648D01*
X55845073Y-26124428D01*
X55896428Y-26132345D01*
X55947782Y-26140246D01*
X55998145Y-26147979D01*
X56046528Y-26155392D01*
X56091943Y-26162331D01*
X56133400Y-26168646D01*
X56169910Y-26174183D01*
X56200484Y-26178791D01*
X56224133Y-26182316D01*
X56239867Y-26184608D01*
X56246698Y-26185512D01*
X56246908Y-26185514D01*
X56244697Y-26181000D01*
X56238116Y-26168130D01*
X56227524Y-26147594D01*
X56213278Y-26120080D01*
X56195737Y-26086277D01*
X56175258Y-26046874D01*
X56152198Y-26002560D01*
X56126917Y-25954023D01*
X56099771Y-25901953D01*
X56071118Y-25847038D01*
X56064176Y-25833740D01*
X56035214Y-25778178D01*
X56007700Y-25725227D01*
X55981992Y-25675582D01*
X55958446Y-25629940D01*
X55937418Y-25588998D01*
X55919265Y-25553452D01*
X55904343Y-25523998D01*
X55893009Y-25501333D01*
X55885620Y-25486154D01*
X55882531Y-25479156D01*
X55882466Y-25478777D01*
X55887370Y-25479925D01*
G37*
G36*
X55027390Y-23810380D02*
G01*
X55079753Y-23840333D01*
X55138518Y-23873987D01*
X55203336Y-23911140D01*
X55273859Y-23951592D01*
X55349739Y-23995143D01*
X55430628Y-24041591D01*
X55516178Y-24090738D01*
X55606041Y-24142381D01*
X55699870Y-24196320D01*
X55797315Y-24252356D01*
X55898030Y-24310287D01*
X56001666Y-24369913D01*
X56107876Y-24431033D01*
X56216310Y-24493447D01*
X56326622Y-24556955D01*
X56438463Y-24621355D01*
X56551485Y-24686448D01*
X56665340Y-24752033D01*
X56779681Y-24817908D01*
X56894159Y-24883875D01*
X57008427Y-24949732D01*
X57122135Y-25015278D01*
X57234938Y-25080314D01*
X57346485Y-25144638D01*
X57456430Y-25208051D01*
X57564424Y-25270351D01*
X57670120Y-25331338D01*
X57773169Y-25390812D01*
X57873223Y-25448572D01*
X57969935Y-25504418D01*
X58062956Y-25558148D01*
X58151939Y-25609564D01*
X58236536Y-25658463D01*
X58316397Y-25704645D01*
X58391177Y-25747911D01*
X58460526Y-25788059D01*
X58524096Y-25824889D01*
X58581540Y-25858201D01*
X58632509Y-25887793D01*
X58676657Y-25913466D01*
X58713633Y-25935018D01*
X58743092Y-25952250D01*
X58764683Y-25964961D01*
X58778061Y-25972950D01*
X58782613Y-25975806D01*
X58822560Y-26008979D01*
X58857407Y-26047446D01*
X58884894Y-26088618D01*
X58890392Y-26099114D01*
X58899304Y-26117720D01*
X58904969Y-26132174D01*
X58908119Y-26145910D01*
X58909488Y-26162361D01*
X58909812Y-26184962D01*
X58909815Y-26189974D01*
X58909599Y-26214088D01*
X58908472Y-26231393D01*
X58905720Y-26245282D01*
X58900624Y-26259149D01*
X58892471Y-26276387D01*
X58890919Y-26279514D01*
X58864751Y-26323017D01*
X58831630Y-26361365D01*
X58791260Y-26395461D01*
X58784516Y-26399717D01*
X58769270Y-26408851D01*
X58745868Y-26422660D01*
X58714661Y-26440946D01*
X58675997Y-26463506D01*
X58630224Y-26490140D01*
X58577692Y-26520648D01*
X58518748Y-26554830D01*
X58453743Y-26592483D01*
X58383023Y-26633409D01*
X58306939Y-26677405D01*
X58225839Y-26724272D01*
X58140072Y-26773809D01*
X58049986Y-26825815D01*
X57955931Y-26880090D01*
X57858254Y-26936433D01*
X57757305Y-26994644D01*
X57653432Y-27054521D01*
X57546985Y-27115864D01*
X57438311Y-27178473D01*
X57327760Y-27242146D01*
X57215680Y-27306684D01*
X57102420Y-27371886D01*
X56988329Y-27437550D01*
X56873755Y-27503477D01*
X56759048Y-27569466D01*
X56644556Y-27635315D01*
X56530627Y-27700826D01*
X56417611Y-27765796D01*
X56305856Y-27830025D01*
X56195711Y-27893313D01*
X56087525Y-27955459D01*
X55981646Y-28016262D01*
X55878423Y-28075522D01*
X55778205Y-28133038D01*
X55681340Y-28188610D01*
X55588178Y-28242036D01*
X55499067Y-28293117D01*
X55414355Y-28341651D01*
X55334393Y-28387438D01*
X55259527Y-28430278D01*
X55190107Y-28469969D01*
X55126482Y-28506311D01*
X55069001Y-28539104D01*
X55018012Y-28568147D01*
X54973864Y-28593238D01*
X54936905Y-28614179D01*
X54907485Y-28630767D01*
X54885951Y-28642802D01*
X54872654Y-28650085D01*
X54868674Y-28652136D01*
X54824531Y-28670337D01*
X54783160Y-28681579D01*
X54740706Y-28686664D01*
X54701966Y-28686785D01*
X54676117Y-28685438D01*
X54657012Y-28683225D01*
X54641187Y-28679423D01*
X54625182Y-28673312D01*
X54614875Y-28668623D01*
X54576658Y-28645710D01*
X54544804Y-28615576D01*
X54518544Y-28577424D01*
X54508730Y-28558246D01*
X54505905Y-28552551D01*
X54503233Y-28547664D01*
X54500709Y-28543304D01*
X54498330Y-28539187D01*
X54496092Y-28535029D01*
X54493989Y-28530548D01*
X54492019Y-28525460D01*
X54490176Y-28519483D01*
X54488457Y-28512333D01*
X54486857Y-28503727D01*
X54485373Y-28493383D01*
X54484000Y-28481016D01*
X54482734Y-28466343D01*
X54481570Y-28449082D01*
X54480505Y-28428950D01*
X54479534Y-28405663D01*
X54478654Y-28378938D01*
X54477860Y-28348493D01*
X54477147Y-28314043D01*
X54476512Y-28275306D01*
X54475951Y-28231999D01*
X54475459Y-28183838D01*
X54475032Y-28130540D01*
X54474666Y-28071823D01*
X54474357Y-28007403D01*
X54474101Y-27936997D01*
X54473893Y-27860322D01*
X54473729Y-27777095D01*
X54473606Y-27687032D01*
X54473518Y-27589851D01*
X54473462Y-27485268D01*
X54473434Y-27373001D01*
X54473429Y-27252765D01*
X54473443Y-27124279D01*
X54473472Y-26987258D01*
X54473513Y-26841420D01*
X54473559Y-26686482D01*
X54473609Y-26522160D01*
X54473657Y-26348171D01*
X54473695Y-26182905D01*
X54473738Y-25996884D01*
X54473789Y-25820813D01*
X54473848Y-25654442D01*
X54473918Y-25497515D01*
X54473997Y-25349779D01*
X54474080Y-25222470D01*
X54816303Y-25222470D01*
X54816315Y-25334465D01*
X54816347Y-25454810D01*
X54816396Y-25583813D01*
X54816459Y-25721784D01*
X54816532Y-25869030D01*
X54816612Y-26025859D01*
X54816697Y-26192580D01*
X54816698Y-26195415D01*
X54817650Y-28109195D01*
X54833021Y-28139251D01*
X54852308Y-28168336D01*
X54870453Y-28184812D01*
X54883555Y-28193181D01*
X54895419Y-28197856D01*
X54909955Y-28199868D01*
X54929068Y-28200251D01*
X54954047Y-28199036D01*
X54974256Y-28194779D01*
X54993684Y-28186997D01*
X55001593Y-28182815D01*
X55017881Y-28173789D01*
X55042172Y-28160137D01*
X55074089Y-28142077D01*
X55113254Y-28119826D01*
X55159289Y-28093600D01*
X55211817Y-28063618D01*
X55270462Y-28030098D01*
X55334844Y-27993255D01*
X55404588Y-27953308D01*
X55479316Y-27910474D01*
X55558650Y-27864970D01*
X55642213Y-27817014D01*
X55729628Y-27766824D01*
X55820516Y-27714615D01*
X55914502Y-27660607D01*
X56011207Y-27605016D01*
X56110254Y-27548059D01*
X56211266Y-27489955D01*
X56313866Y-27430919D01*
X56417675Y-27371171D01*
X56522317Y-27310926D01*
X56627414Y-27250403D01*
X56732589Y-27189819D01*
X56837464Y-27129391D01*
X56941663Y-27069337D01*
X57044807Y-27009873D01*
X57146520Y-26951218D01*
X57246423Y-26893589D01*
X57344140Y-26837202D01*
X57439293Y-26782276D01*
X57531506Y-26729028D01*
X57620399Y-26677675D01*
X57705597Y-26628434D01*
X57786721Y-26581524D01*
X57863395Y-26537160D01*
X57935240Y-26495562D01*
X58001881Y-26456945D01*
X58062938Y-26421528D01*
X58118035Y-26389527D01*
X58166795Y-26361161D01*
X58208840Y-26336646D01*
X58243792Y-26316200D01*
X58271275Y-26300040D01*
X58290911Y-26288384D01*
X58302322Y-26281449D01*
X58305161Y-26279567D01*
X58329197Y-26253954D01*
X58344911Y-26225335D01*
X58351898Y-26195223D01*
X58349754Y-26165129D01*
X58341682Y-26143027D01*
X58331816Y-26128040D01*
X58317537Y-26111271D01*
X58306652Y-26100647D01*
X58300494Y-26096555D01*
X58285864Y-26087601D01*
X58263137Y-26074002D01*
X58232693Y-26055977D01*
X58194908Y-26033742D01*
X58150160Y-26007516D01*
X58098826Y-25977516D01*
X58041284Y-25943960D01*
X57977912Y-25907065D01*
X57909086Y-25867049D01*
X57835185Y-25824130D01*
X57756586Y-25778526D01*
X57673666Y-25730454D01*
X57586803Y-25680132D01*
X57496375Y-25627778D01*
X57402759Y-25573609D01*
X57306332Y-25517843D01*
X57207472Y-25460698D01*
X57106557Y-25402391D01*
X57003963Y-25343140D01*
X56900069Y-25283162D01*
X56795253Y-25222677D01*
X56689890Y-25161900D01*
X56584360Y-25101050D01*
X56479039Y-25040344D01*
X56374305Y-24980001D01*
X56270536Y-24920237D01*
X56168109Y-24861271D01*
X56067402Y-24803321D01*
X55968791Y-24746603D01*
X55872655Y-24691335D01*
X55779372Y-24637736D01*
X55689317Y-24586023D01*
X55602870Y-24536413D01*
X55520408Y-24489125D01*
X55442307Y-24444376D01*
X55368947Y-24402383D01*
X55300703Y-24363365D01*
X55237954Y-24327539D01*
X55181077Y-24295122D01*
X55130450Y-24266333D01*
X55086450Y-24241390D01*
X55049455Y-24220508D01*
X55019842Y-24203908D01*
X54997989Y-24191805D01*
X54984272Y-24184419D01*
X54979461Y-24182069D01*
X54944974Y-24173444D01*
X54912286Y-24173542D01*
X54882758Y-24181950D01*
X54857749Y-24198254D01*
X54838621Y-24222040D01*
X54836717Y-24225508D01*
X54834903Y-24228830D01*
X54833196Y-24231872D01*
X54831594Y-24234942D01*
X54830093Y-24238349D01*
X54828690Y-24242400D01*
X54827382Y-24247405D01*
X54826166Y-24253671D01*
X54825039Y-24261506D01*
X54823997Y-24271219D01*
X54823038Y-24283118D01*
X54822158Y-24297511D01*
X54821354Y-24314706D01*
X54820624Y-24335012D01*
X54819963Y-24358737D01*
X54819369Y-24386189D01*
X54818839Y-24417677D01*
X54818369Y-24453507D01*
X54817957Y-24493990D01*
X54817599Y-24539432D01*
X54817292Y-24590143D01*
X54817033Y-24646430D01*
X54816819Y-24708602D01*
X54816647Y-24776966D01*
X54816513Y-24851832D01*
X54816415Y-24933507D01*
X54816350Y-25022299D01*
X54816313Y-25118518D01*
X54816303Y-25222470D01*
X54474080Y-25222470D01*
X54474088Y-25210982D01*
X54474190Y-25080870D01*
X54474306Y-24959189D01*
X54474435Y-24845687D01*
X54474578Y-24740109D01*
X54474736Y-24642204D01*
X54474910Y-24551716D01*
X54475100Y-24468393D01*
X54475308Y-24391982D01*
X54475535Y-24322230D01*
X54475780Y-24258882D01*
X54476045Y-24201686D01*
X54476331Y-24150388D01*
X54476638Y-24104735D01*
X54476967Y-24064473D01*
X54477319Y-24029350D01*
X54477695Y-23999112D01*
X54478095Y-23973506D01*
X54478521Y-23952278D01*
X54478973Y-23935174D01*
X54479452Y-23921943D01*
X54479958Y-23912330D01*
X54480493Y-23906081D01*
X54480787Y-23904054D01*
X54494433Y-23851992D01*
X54514665Y-23805644D01*
X54540873Y-23765801D01*
X54572445Y-23733252D01*
X54608768Y-23708787D01*
X54642609Y-23695031D01*
X54680628Y-23687914D01*
X54724074Y-23686835D01*
X54770361Y-23691507D01*
X54816902Y-23701650D01*
X54861112Y-23716980D01*
X54867117Y-23719591D01*
X54873767Y-23723133D01*
X54888906Y-23731578D01*
X54912185Y-23744726D01*
X54943258Y-23762376D01*
X54944974Y-23763354D01*
X54981775Y-23784327D01*
X55027390Y-23810380D01*
G37*
D14*
X55626000Y-100620000D02*
X54976000Y-100620000D01*
X55626000Y-97500000D02*
X54976000Y-97500000D01*
X55626000Y-100620000D02*
X57301000Y-100620000D01*
X55626000Y-97500000D02*
X56276000Y-97500000D01*
D16*
X89326720Y-83875880D02*
X89326720Y-84272120D01*
X88727280Y-84272120D02*
X89326720Y-84272120D01*
X88727280Y-83875880D02*
X89326720Y-83875880D01*
X88727280Y-83875880D02*
X88727280Y-84272120D01*
G36*
X55785770Y-72165125D02*
G01*
X55799890Y-72168934D01*
X55822637Y-72175236D01*
X55853425Y-72183862D01*
X55891664Y-72194643D01*
X55936766Y-72207410D01*
X55988144Y-72221995D01*
X56045208Y-72238228D01*
X56107370Y-72255942D01*
X56174044Y-72274966D01*
X56244639Y-72295132D01*
X56318568Y-72316271D01*
X56395242Y-72338215D01*
X56474075Y-72360794D01*
X56554476Y-72383839D01*
X56635858Y-72407183D01*
X56717633Y-72430655D01*
X56799212Y-72454087D01*
X56880007Y-72477310D01*
X56959431Y-72500156D01*
X57036894Y-72522455D01*
X57111808Y-72544039D01*
X57183586Y-72564738D01*
X57251639Y-72584384D01*
X57315379Y-72602809D01*
X57374217Y-72619842D01*
X57427565Y-72635316D01*
X57474836Y-72649061D01*
X57515440Y-72660909D01*
X57548790Y-72670690D01*
X57574297Y-72678237D01*
X57591374Y-72683379D01*
X57599431Y-72685949D01*
X57599939Y-72686154D01*
X57599831Y-72691174D01*
X57598964Y-72705025D01*
X57597444Y-72726372D01*
X57595381Y-72753879D01*
X57592884Y-72786209D01*
X57590061Y-72822027D01*
X57587020Y-72859996D01*
X57583871Y-72898781D01*
X57580722Y-72937045D01*
X57577681Y-72973453D01*
X57574858Y-73006667D01*
X57572360Y-73035353D01*
X57570297Y-73058174D01*
X57568777Y-73073794D01*
X57567908Y-73080877D01*
X57567824Y-73081149D01*
X57562915Y-73079700D01*
X57548938Y-73075023D01*
X57526441Y-73067310D01*
X57495969Y-73056754D01*
X57458071Y-73043546D01*
X57413294Y-73027879D01*
X57362184Y-73009945D01*
X57305289Y-72989935D01*
X57243155Y-72968043D01*
X57176329Y-72944459D01*
X57105360Y-72919377D01*
X57030793Y-72892989D01*
X56953176Y-72865486D01*
X56896502Y-72845383D01*
X56817060Y-72817200D01*
X56740288Y-72789984D01*
X56666733Y-72763928D01*
X56596942Y-72739223D01*
X56531461Y-72716063D01*
X56470835Y-72694641D01*
X56415612Y-72675149D01*
X56366339Y-72657781D01*
X56323560Y-72642728D01*
X56287824Y-72630184D01*
X56259676Y-72620341D01*
X56239662Y-72613393D01*
X56228329Y-72609532D01*
X56225852Y-72608770D01*
X56228265Y-72613202D01*
X56235538Y-72625719D01*
X56247278Y-72645657D01*
X56263088Y-72672354D01*
X56282575Y-72705147D01*
X56305345Y-72743371D01*
X56331001Y-72786365D01*
X56359150Y-72833465D01*
X56389396Y-72884009D01*
X56421346Y-72937332D01*
X56431187Y-72953744D01*
X56463582Y-73007833D01*
X56494377Y-73059399D01*
X56523180Y-73107774D01*
X56549594Y-73152287D01*
X56573226Y-73192271D01*
X56593682Y-73227055D01*
X56610567Y-73255970D01*
X56623487Y-73278347D01*
X56632048Y-73293516D01*
X56635855Y-73300809D01*
X56636012Y-73301358D01*
X56631045Y-73300375D01*
X56616911Y-73296591D01*
X56594203Y-73290184D01*
X56563516Y-73281329D01*
X56525444Y-73270202D01*
X56480580Y-73256979D01*
X56429520Y-73241836D01*
X56372855Y-73224949D01*
X56311182Y-73206495D01*
X56245093Y-73186650D01*
X56175183Y-73165589D01*
X56102046Y-73143488D01*
X56040136Y-73124730D01*
X55964679Y-73101855D01*
X55891894Y-73079816D01*
X55822380Y-73058796D01*
X55756738Y-73038973D01*
X55695569Y-73020529D01*
X55639474Y-73003645D01*
X55589054Y-72988500D01*
X55544910Y-72975275D01*
X55507641Y-72964151D01*
X55477850Y-72955308D01*
X55456137Y-72948928D01*
X55443102Y-72945189D01*
X55439322Y-72944221D01*
X55437332Y-72946383D01*
X55435771Y-72953600D01*
X55434599Y-72966777D01*
X55433773Y-72986819D01*
X55433251Y-73014631D01*
X55432992Y-73051118D01*
X55432944Y-73081801D01*
X55432789Y-73118099D01*
X55432350Y-73150814D01*
X55431670Y-73178632D01*
X55430791Y-73200239D01*
X55429755Y-73214320D01*
X55428602Y-73219560D01*
X55428558Y-73219567D01*
X55423578Y-73216699D01*
X55411114Y-73208478D01*
X55391979Y-73195479D01*
X55366986Y-73178275D01*
X55336947Y-73157441D01*
X55302676Y-73133550D01*
X55264986Y-73107178D01*
X55224689Y-73078898D01*
X55182598Y-73049285D01*
X55139527Y-73018912D01*
X55096289Y-72988355D01*
X55053695Y-72958186D01*
X55012560Y-72928981D01*
X54973697Y-72901314D01*
X54937917Y-72875759D01*
X54906035Y-72852889D01*
X54878862Y-72833280D01*
X54857213Y-72817505D01*
X54841900Y-72806139D01*
X54833735Y-72799756D01*
X54832588Y-72798615D01*
X54836867Y-72795726D01*
X54849719Y-72789122D01*
X54870362Y-72779162D01*
X54898014Y-72766206D01*
X54931892Y-72750612D01*
X54971214Y-72732741D01*
X55015197Y-72712952D01*
X55063059Y-72691605D01*
X55114017Y-72669059D01*
X55126743Y-72663456D01*
X55178523Y-72640687D01*
X55227581Y-72619132D01*
X55273114Y-72599143D01*
X55314317Y-72581071D01*
X55350385Y-72565270D01*
X55380514Y-72552092D01*
X55403900Y-72541889D01*
X55419737Y-72535014D01*
X55427222Y-72531819D01*
X55427674Y-72531642D01*
X55429641Y-72535947D01*
X55431149Y-72550344D01*
X55432200Y-72574859D01*
X55432795Y-72609520D01*
X55432944Y-72645019D01*
X55432944Y-72760152D01*
X55444425Y-72762793D01*
X55451281Y-72763999D01*
X55467038Y-72766560D01*
X55490707Y-72770323D01*
X55521298Y-72775137D01*
X55557822Y-72780848D01*
X55599291Y-72787305D01*
X55644716Y-72794356D01*
X55693106Y-72801848D01*
X55743473Y-72809628D01*
X55794828Y-72817545D01*
X55846182Y-72825446D01*
X55896545Y-72833179D01*
X55944928Y-72840592D01*
X55990343Y-72847531D01*
X56031800Y-72853846D01*
X56068310Y-72859383D01*
X56098884Y-72863991D01*
X56122533Y-72867516D01*
X56138267Y-72869808D01*
X56145098Y-72870712D01*
X56145308Y-72870714D01*
X56143097Y-72866200D01*
X56136516Y-72853330D01*
X56125924Y-72832794D01*
X56111678Y-72805280D01*
X56094137Y-72771477D01*
X56073658Y-72732074D01*
X56050598Y-72687760D01*
X56025317Y-72639223D01*
X55998171Y-72587153D01*
X55969518Y-72532238D01*
X55962576Y-72518940D01*
X55933614Y-72463378D01*
X55906100Y-72410427D01*
X55880392Y-72360782D01*
X55856846Y-72315140D01*
X55835818Y-72274198D01*
X55817665Y-72238652D01*
X55802743Y-72209198D01*
X55791409Y-72186533D01*
X55784020Y-72171354D01*
X55780931Y-72164356D01*
X55780866Y-72163977D01*
X55785770Y-72165125D01*
G37*
G36*
X54925790Y-70495580D02*
G01*
X54978153Y-70525533D01*
X55036918Y-70559187D01*
X55101736Y-70596340D01*
X55172259Y-70636792D01*
X55248139Y-70680343D01*
X55329028Y-70726791D01*
X55414578Y-70775938D01*
X55504441Y-70827581D01*
X55598270Y-70881520D01*
X55695715Y-70937556D01*
X55796430Y-70995487D01*
X55900066Y-71055113D01*
X56006276Y-71116233D01*
X56114710Y-71178647D01*
X56225022Y-71242155D01*
X56336863Y-71306555D01*
X56449885Y-71371648D01*
X56563740Y-71437233D01*
X56678081Y-71503108D01*
X56792559Y-71569075D01*
X56906827Y-71634932D01*
X57020535Y-71700478D01*
X57133338Y-71765514D01*
X57244885Y-71829838D01*
X57354830Y-71893251D01*
X57462824Y-71955551D01*
X57568520Y-72016538D01*
X57671569Y-72076012D01*
X57771623Y-72133772D01*
X57868335Y-72189618D01*
X57961356Y-72243348D01*
X58050339Y-72294764D01*
X58134936Y-72343663D01*
X58214797Y-72389845D01*
X58289577Y-72433111D01*
X58358926Y-72473259D01*
X58422496Y-72510089D01*
X58479940Y-72543401D01*
X58530909Y-72572993D01*
X58575057Y-72598666D01*
X58612033Y-72620218D01*
X58641492Y-72637450D01*
X58663083Y-72650161D01*
X58676461Y-72658150D01*
X58681013Y-72661006D01*
X58720960Y-72694179D01*
X58755807Y-72732646D01*
X58783294Y-72773818D01*
X58788792Y-72784314D01*
X58797704Y-72802920D01*
X58803369Y-72817374D01*
X58806519Y-72831110D01*
X58807888Y-72847561D01*
X58808212Y-72870162D01*
X58808215Y-72875174D01*
X58807999Y-72899288D01*
X58806872Y-72916593D01*
X58804120Y-72930482D01*
X58799024Y-72944349D01*
X58790871Y-72961587D01*
X58789319Y-72964714D01*
X58763151Y-73008217D01*
X58730030Y-73046565D01*
X58689660Y-73080661D01*
X58682916Y-73084917D01*
X58667670Y-73094051D01*
X58644268Y-73107860D01*
X58613061Y-73126146D01*
X58574397Y-73148706D01*
X58528624Y-73175340D01*
X58476092Y-73205848D01*
X58417148Y-73240030D01*
X58352143Y-73277683D01*
X58281423Y-73318609D01*
X58205339Y-73362605D01*
X58124239Y-73409472D01*
X58038472Y-73459009D01*
X57948386Y-73511015D01*
X57854331Y-73565290D01*
X57756654Y-73621633D01*
X57655705Y-73679844D01*
X57551832Y-73739721D01*
X57445385Y-73801064D01*
X57336711Y-73863673D01*
X57226160Y-73927346D01*
X57114080Y-73991884D01*
X57000820Y-74057086D01*
X56886729Y-74122750D01*
X56772155Y-74188677D01*
X56657448Y-74254666D01*
X56542956Y-74320515D01*
X56429027Y-74386026D01*
X56316011Y-74450996D01*
X56204256Y-74515225D01*
X56094111Y-74578513D01*
X55985925Y-74640659D01*
X55880046Y-74701462D01*
X55776823Y-74760722D01*
X55676605Y-74818238D01*
X55579740Y-74873810D01*
X55486578Y-74927236D01*
X55397467Y-74978317D01*
X55312755Y-75026851D01*
X55232793Y-75072638D01*
X55157927Y-75115478D01*
X55088507Y-75155169D01*
X55024882Y-75191511D01*
X54967401Y-75224304D01*
X54916412Y-75253347D01*
X54872264Y-75278438D01*
X54835305Y-75299379D01*
X54805885Y-75315967D01*
X54784351Y-75328002D01*
X54771054Y-75335285D01*
X54767074Y-75337336D01*
X54722931Y-75355537D01*
X54681560Y-75366779D01*
X54639106Y-75371864D01*
X54600366Y-75371985D01*
X54574517Y-75370638D01*
X54555412Y-75368425D01*
X54539587Y-75364623D01*
X54523582Y-75358512D01*
X54513275Y-75353823D01*
X54475058Y-75330910D01*
X54443204Y-75300776D01*
X54416944Y-75262624D01*
X54407130Y-75243446D01*
X54404305Y-75237751D01*
X54401633Y-75232864D01*
X54399109Y-75228504D01*
X54396730Y-75224387D01*
X54394492Y-75220229D01*
X54392389Y-75215748D01*
X54390419Y-75210660D01*
X54388576Y-75204683D01*
X54386857Y-75197533D01*
X54385257Y-75188927D01*
X54383773Y-75178583D01*
X54382400Y-75166216D01*
X54381134Y-75151543D01*
X54379970Y-75134282D01*
X54378905Y-75114150D01*
X54377934Y-75090863D01*
X54377054Y-75064138D01*
X54376260Y-75033693D01*
X54375547Y-74999243D01*
X54374912Y-74960506D01*
X54374351Y-74917199D01*
X54373859Y-74869038D01*
X54373432Y-74815740D01*
X54373066Y-74757023D01*
X54372757Y-74692603D01*
X54372501Y-74622197D01*
X54372293Y-74545522D01*
X54372129Y-74462295D01*
X54372006Y-74372232D01*
X54371918Y-74275051D01*
X54371862Y-74170468D01*
X54371834Y-74058201D01*
X54371829Y-73937965D01*
X54371843Y-73809479D01*
X54371872Y-73672458D01*
X54371913Y-73526620D01*
X54371959Y-73371682D01*
X54372009Y-73207360D01*
X54372057Y-73033371D01*
X54372095Y-72868105D01*
X54372138Y-72682084D01*
X54372189Y-72506013D01*
X54372248Y-72339642D01*
X54372318Y-72182715D01*
X54372397Y-72034979D01*
X54372480Y-71907670D01*
X54714703Y-71907670D01*
X54714715Y-72019665D01*
X54714747Y-72140010D01*
X54714796Y-72269013D01*
X54714859Y-72406984D01*
X54714932Y-72554230D01*
X54715012Y-72711059D01*
X54715097Y-72877780D01*
X54715098Y-72880615D01*
X54716050Y-74794395D01*
X54731421Y-74824451D01*
X54750708Y-74853536D01*
X54768853Y-74870012D01*
X54781955Y-74878381D01*
X54793819Y-74883056D01*
X54808355Y-74885068D01*
X54827468Y-74885451D01*
X54852447Y-74884236D01*
X54872656Y-74879979D01*
X54892084Y-74872197D01*
X54899993Y-74868015D01*
X54916281Y-74858989D01*
X54940572Y-74845337D01*
X54972489Y-74827277D01*
X55011654Y-74805026D01*
X55057689Y-74778800D01*
X55110217Y-74748818D01*
X55168862Y-74715298D01*
X55233244Y-74678455D01*
X55302988Y-74638508D01*
X55377716Y-74595674D01*
X55457050Y-74550170D01*
X55540613Y-74502214D01*
X55628028Y-74452024D01*
X55718916Y-74399815D01*
X55812902Y-74345807D01*
X55909607Y-74290216D01*
X56008654Y-74233259D01*
X56109666Y-74175155D01*
X56212266Y-74116119D01*
X56316075Y-74056371D01*
X56420717Y-73996126D01*
X56525814Y-73935603D01*
X56630989Y-73875019D01*
X56735864Y-73814591D01*
X56840063Y-73754537D01*
X56943207Y-73695073D01*
X57044920Y-73636418D01*
X57144823Y-73578789D01*
X57242540Y-73522402D01*
X57337693Y-73467476D01*
X57429906Y-73414228D01*
X57518799Y-73362875D01*
X57603997Y-73313634D01*
X57685121Y-73266724D01*
X57761795Y-73222360D01*
X57833640Y-73180762D01*
X57900281Y-73142145D01*
X57961338Y-73106728D01*
X58016435Y-73074727D01*
X58065195Y-73046361D01*
X58107240Y-73021846D01*
X58142192Y-73001400D01*
X58169675Y-72985240D01*
X58189311Y-72973584D01*
X58200722Y-72966649D01*
X58203561Y-72964767D01*
X58227597Y-72939154D01*
X58243311Y-72910535D01*
X58250298Y-72880423D01*
X58248154Y-72850329D01*
X58240082Y-72828227D01*
X58230216Y-72813240D01*
X58215937Y-72796471D01*
X58205052Y-72785847D01*
X58198894Y-72781755D01*
X58184264Y-72772801D01*
X58161537Y-72759202D01*
X58131093Y-72741177D01*
X58093308Y-72718942D01*
X58048560Y-72692716D01*
X57997226Y-72662716D01*
X57939684Y-72629160D01*
X57876312Y-72592265D01*
X57807486Y-72552249D01*
X57733585Y-72509330D01*
X57654986Y-72463726D01*
X57572066Y-72415654D01*
X57485203Y-72365332D01*
X57394775Y-72312978D01*
X57301159Y-72258809D01*
X57204732Y-72203043D01*
X57105872Y-72145898D01*
X57004957Y-72087591D01*
X56902363Y-72028340D01*
X56798469Y-71968362D01*
X56693653Y-71907877D01*
X56588290Y-71847100D01*
X56482760Y-71786250D01*
X56377439Y-71725544D01*
X56272705Y-71665201D01*
X56168936Y-71605437D01*
X56066509Y-71546471D01*
X55965802Y-71488521D01*
X55867191Y-71431803D01*
X55771055Y-71376535D01*
X55677772Y-71322936D01*
X55587717Y-71271223D01*
X55501270Y-71221613D01*
X55418808Y-71174325D01*
X55340707Y-71129576D01*
X55267347Y-71087583D01*
X55199103Y-71048565D01*
X55136354Y-71012739D01*
X55079477Y-70980322D01*
X55028850Y-70951533D01*
X54984850Y-70926590D01*
X54947855Y-70905708D01*
X54918242Y-70889108D01*
X54896389Y-70877005D01*
X54882672Y-70869619D01*
X54877861Y-70867269D01*
X54843374Y-70858644D01*
X54810686Y-70858742D01*
X54781158Y-70867150D01*
X54756149Y-70883454D01*
X54737021Y-70907240D01*
X54735117Y-70910708D01*
X54733303Y-70914030D01*
X54731596Y-70917072D01*
X54729994Y-70920142D01*
X54728493Y-70923549D01*
X54727090Y-70927600D01*
X54725782Y-70932605D01*
X54724566Y-70938871D01*
X54723439Y-70946706D01*
X54722397Y-70956419D01*
X54721438Y-70968318D01*
X54720558Y-70982711D01*
X54719754Y-70999906D01*
X54719024Y-71020212D01*
X54718363Y-71043937D01*
X54717769Y-71071389D01*
X54717239Y-71102877D01*
X54716769Y-71138707D01*
X54716357Y-71179190D01*
X54715999Y-71224632D01*
X54715692Y-71275343D01*
X54715433Y-71331630D01*
X54715219Y-71393802D01*
X54715047Y-71462166D01*
X54714913Y-71537032D01*
X54714815Y-71618707D01*
X54714750Y-71707499D01*
X54714713Y-71803718D01*
X54714703Y-71907670D01*
X54372480Y-71907670D01*
X54372488Y-71896182D01*
X54372590Y-71766070D01*
X54372706Y-71644389D01*
X54372835Y-71530887D01*
X54372978Y-71425309D01*
X54373136Y-71327404D01*
X54373310Y-71236916D01*
X54373500Y-71153593D01*
X54373708Y-71077182D01*
X54373935Y-71007430D01*
X54374180Y-70944082D01*
X54374445Y-70886886D01*
X54374731Y-70835588D01*
X54375038Y-70789935D01*
X54375367Y-70749673D01*
X54375719Y-70714550D01*
X54376095Y-70684312D01*
X54376495Y-70658706D01*
X54376921Y-70637478D01*
X54377373Y-70620374D01*
X54377852Y-70607143D01*
X54378358Y-70597530D01*
X54378893Y-70591281D01*
X54379187Y-70589254D01*
X54392833Y-70537192D01*
X54413065Y-70490844D01*
X54439273Y-70451001D01*
X54470845Y-70418452D01*
X54507168Y-70393987D01*
X54541009Y-70380231D01*
X54579028Y-70373114D01*
X54622474Y-70372035D01*
X54668761Y-70376707D01*
X54715302Y-70386850D01*
X54759512Y-70402180D01*
X54765517Y-70404791D01*
X54772167Y-70408333D01*
X54787306Y-70416778D01*
X54810585Y-70429926D01*
X54841658Y-70447576D01*
X54843374Y-70448554D01*
X54880175Y-70469527D01*
X54925790Y-70495580D01*
G37*
%LPC*%
D17*
X64710000Y-58720000D02*
X70980000Y-58720000D01*
X70980000Y-58720000D02*
X70980000Y-55590000D01*
X70980000Y-55590000D02*
X64710000Y-55590000D01*
X64710000Y-55590000D02*
X64710000Y-58720000D01*
G36*
X64710000Y-58720000D02*
G01*
X70980000Y-58720000D01*
X70980000Y-55590000D01*
X64710000Y-55590000D01*
X64710000Y-58720000D01*
G37*
D18*
X79820000Y-83440600D02*
X79820000Y-84120000D01*
X79830000Y-82830600D02*
X79830000Y-83389400D01*
X80560000Y-82120600D02*
X80560000Y-82679400D01*
X81050000Y-82120600D02*
X81050000Y-82679400D01*
X81550000Y-82130600D02*
X81550000Y-82689400D01*
X82050000Y-82150600D02*
X82050000Y-82709400D01*
X82560000Y-82160600D02*
X82560000Y-82719400D01*
X83050000Y-82170600D02*
X83050000Y-82729400D01*
X83550000Y-82170600D02*
X83550000Y-82729400D01*
X84050000Y-82180600D02*
X84050000Y-82739400D01*
X84560000Y-82180600D02*
X84560000Y-82739400D01*
X85050000Y-82180600D02*
X85050000Y-82739400D01*
X78099400Y-85880000D02*
X77540600Y-85880000D01*
X88138000Y-89880000D02*
X87579200Y-89880000D01*
X87934800Y-86880000D02*
X87426800Y-86880000D01*
D19*
X80187800Y-91084400D02*
X80187800Y-92583000D01*
X80187800Y-92583000D02*
X77876400Y-92583000D01*
X77876400Y-92583000D02*
X77901800Y-90246200D01*
X77901800Y-90246200D02*
X79349600Y-90246200D01*
X79349600Y-90246200D02*
X80187800Y-91084400D01*
G36*
X80187800Y-91084400D02*
G01*
X80187800Y-92583000D01*
X77876400Y-92583000D01*
X77901800Y-90246200D01*
X79349600Y-90246200D01*
X80187800Y-91084400D01*
G37*
X80187800Y-91084400D02*
X80187800Y-92583000D01*
X77876400Y-92583000D01*
X77901800Y-90246200D01*
X79349600Y-90246200D01*
X80187800Y-91084400D01*
D18*
X87985600Y-86380000D02*
X87376000Y-86380000D01*
X88220000Y-87880000D02*
X87452200Y-87880000D01*
X85060000Y-92964000D02*
X85060000Y-92456000D01*
X83058000Y-92964000D02*
X83058000Y-92405200D01*
X77927200Y-84880000D02*
X77571600Y-84880000D01*
X77520800Y-88880000D02*
X78130400Y-88880000D01*
D17*
X84074000Y-92964000D02*
X84074000Y-92405200D01*
D18*
X83560000Y-92960000D02*
X83560000Y-92452000D01*
X77470000Y-87880000D02*
X78130400Y-87880000D01*
X77571600Y-88380000D02*
X78079600Y-88380000D01*
D20*
X64160400Y-48818800D02*
X64211200Y-32207200D01*
D18*
X88138000Y-89380000D02*
X87579200Y-89380000D01*
D21*
X69189600Y-48742600D02*
X69189600Y-37515800D01*
D18*
X81560000Y-92964000D02*
X81560000Y-92405200D01*
D19*
X86233000Y-84228000D02*
X87812400Y-84228000D01*
X87812400Y-84228000D02*
X87812400Y-85013800D01*
X87812400Y-85013800D02*
X86233000Y-85013800D01*
X86233000Y-85013800D02*
X86233000Y-84228000D01*
G36*
X86233000Y-84228000D02*
G01*
X87812400Y-84228000D01*
X87812400Y-85013800D01*
X86233000Y-85013800D01*
X86233000Y-84228000D01*
G37*
D18*
X77520800Y-87376000D02*
X78079600Y-87376000D01*
X85638800Y-91820000D02*
X86350000Y-91820000D01*
X87960200Y-87380000D02*
X87401400Y-87380000D01*
X77469800Y-89380000D02*
X78130200Y-89380000D01*
X80550000Y-92506800D02*
X80550000Y-92964000D01*
X88138000Y-88880000D02*
X87579200Y-88880000D01*
X87985600Y-85877400D02*
X87477600Y-85877400D01*
X78079600Y-86880000D02*
X77571600Y-86880000D01*
X77419200Y-89880000D02*
X78079600Y-89880000D01*
X87985600Y-85380000D02*
X87528400Y-85380000D01*
X81050000Y-92964000D02*
X81050000Y-92456000D01*
D20*
X64211200Y-32207200D02*
X65278000Y-31089600D01*
D18*
X77978000Y-85380000D02*
X77571600Y-85380000D01*
X82050000Y-92964000D02*
X82050000Y-92354400D01*
X84560000Y-92964000D02*
X84560000Y-92405200D01*
X78129400Y-86380000D02*
X77570600Y-86380000D01*
X88138000Y-88380000D02*
X87528400Y-88380000D01*
X87020400Y-90380000D02*
X88138000Y-90380000D01*
X82550000Y-92964000D02*
X82550000Y-92456000D01*
D22*
X43931840Y-97028000D03*
X45730160Y-97028000D03*
D23*
X62611000Y-77617320D03*
X62611000Y-75819000D03*
D24*
X37729160Y-92075000D03*
X35930840Y-92075000D03*
D25*
X42148000Y-97089000D03*
X42148000Y-95189000D03*
X40148000Y-96139000D03*
X41259000Y-93025000D03*
X41259000Y-91125000D03*
X39259000Y-92075000D03*
D24*
X45476160Y-92964000D03*
X43677840Y-92964000D03*
D23*
X72390000Y-77353160D03*
X72390000Y-75554840D03*
D22*
X96382840Y-38354000D03*
X98181160Y-38354000D03*
D26*
X98232000Y-39894000D03*
X96332000Y-39894000D03*
X97282000Y-41894000D03*
D23*
X97282000Y-45095160D03*
X97282000Y-43296840D03*
D22*
X100065840Y-40005000D03*
X101864160Y-40005000D03*
D27*
X94488000Y-37708840D03*
X94488000Y-39507160D03*
D28*
X65391000Y-63856000D03*
D29*
X67691000Y-57556000D03*
D28*
X67691000Y-63856000D03*
X69991000Y-63856000D03*
D27*
X62611000Y-62981840D03*
X62611000Y-64780160D03*
X62611000Y-59679840D03*
X62611000Y-61478160D03*
D30*
X32103000Y-99822000D03*
X28603000Y-99822000D03*
D24*
X22997160Y-92583000D03*
X21198840Y-92583000D03*
D23*
X76581000Y-28839160D03*
X76581000Y-27040840D03*
X90424000Y-22489160D03*
X90424000Y-20690840D03*
D22*
X63997840Y-84912200D03*
X65796160Y-84912200D03*
D24*
X68894960Y-84912200D03*
X67096640Y-84912200D03*
D31*
X79010000Y-28768000D03*
X79010000Y-30668000D03*
X81010000Y-29718000D03*
X84598000Y-28006000D03*
X84598000Y-29906000D03*
X86598000Y-28956000D03*
X98949000Y-56327000D03*
X98949000Y-58227000D03*
X100949000Y-57277000D03*
D27*
X92710000Y-67426840D03*
X92710000Y-69225160D03*
D22*
X72735440Y-29997400D03*
X74533760Y-29997400D03*
D27*
X81026000Y-24500840D03*
X81026000Y-26299160D03*
X86614000Y-24500840D03*
X86614000Y-26299160D03*
X84455000Y-32247840D03*
X84455000Y-34046160D03*
D24*
X87767160Y-32258000D03*
X85968840Y-32258000D03*
D27*
X90805000Y-30088840D03*
X90805000Y-31887160D03*
X88265000Y-20690840D03*
X88265000Y-22489160D03*
D23*
X62357000Y-81798160D03*
X62357000Y-79999840D03*
D24*
X66812160Y-83185000D03*
X65013840Y-83185000D03*
D27*
X95504000Y-56377840D03*
X95504000Y-58176160D03*
D23*
X97282000Y-58176160D03*
X97282000Y-56377840D03*
D24*
X102753160Y-54483000D03*
X100954840Y-54483000D03*
X104175560Y-57404000D03*
X102377240Y-57404000D03*
D22*
X68442840Y-83185000D03*
X70241160Y-83185000D03*
X72506840Y-78994000D03*
X74305160Y-78994000D03*
D32*
X95631000Y-72201000D03*
X94361000Y-72201000D03*
X93091000Y-72201000D03*
X91821000Y-72201000D03*
X91821000Y-77151000D03*
X93091000Y-77151000D03*
X94361000Y-77151000D03*
X95631000Y-77151000D03*
X101473000Y-72201000D03*
X100203000Y-72201000D03*
X98933000Y-72201000D03*
X97663000Y-72201000D03*
X97663000Y-77151000D03*
X98933000Y-77151000D03*
X100203000Y-77151000D03*
X101473000Y-77151000D03*
D33*
X65116000Y-77470000D03*
X65116000Y-78740000D03*
X65116000Y-80010000D03*
X65116000Y-81280000D03*
X70266000Y-81280000D03*
X70266000Y-80010000D03*
X70266000Y-78740000D03*
X70266000Y-77470000D03*
D34*
X80054000Y-91792500D03*
X80554000Y-91792500D03*
X81054000Y-91792500D03*
X81554000Y-91792500D03*
X82054000Y-91792500D03*
X82554000Y-91792500D03*
X83054000Y-91792500D03*
X83554000Y-91792500D03*
X84054000Y-91792500D03*
X84554000Y-91792500D03*
X85054000Y-91792500D03*
X85554000Y-91792500D03*
D35*
X86966500Y-90380000D03*
X86966500Y-89880000D03*
X86966500Y-89380000D03*
X86966500Y-88880000D03*
X86966500Y-88380000D03*
X86966500Y-87880000D03*
X86966500Y-87380000D03*
X86966500Y-86880000D03*
X86966500Y-86380000D03*
X86966500Y-85880000D03*
X86966500Y-85380000D03*
X86966500Y-84880000D03*
D34*
X85554000Y-83467500D03*
X85054000Y-83467500D03*
X84554000Y-83467500D03*
X84054000Y-83467500D03*
X83554000Y-83467500D03*
X83054000Y-83467500D03*
X82554000Y-83467500D03*
X82054000Y-83467500D03*
X81554000Y-83467500D03*
X81054000Y-83467500D03*
X80554000Y-83467500D03*
X80054000Y-83467500D03*
D35*
X78641500Y-84880000D03*
X78641500Y-85380000D03*
X78641500Y-85880000D03*
X78641500Y-86380000D03*
X78641500Y-86880000D03*
X78641500Y-87380000D03*
X78641500Y-87880000D03*
X78641500Y-88380000D03*
X78641500Y-88880000D03*
X78641500Y-89380000D03*
X78641500Y-89880000D03*
X78641500Y-90380000D03*
D36*
X90424000Y-83225640D03*
X90424000Y-84922360D03*
D22*
X52567840Y-107188000D03*
X54366160Y-107188000D03*
D23*
X52832000Y-102118160D03*
X52832000Y-100319840D03*
D22*
X55742840Y-107188000D03*
X57541160Y-107188000D03*
X58282840Y-99949000D03*
X60081160Y-99949000D03*
D37*
X56563500Y-100010000D03*
X56563500Y-98110000D03*
X54688500Y-99060000D03*
D36*
X89027000Y-83225640D03*
X89027000Y-84922360D03*
D38*
X45220000Y-23473400D03*
X50220000Y-23473400D03*
D39*
X75361800Y-23571200D03*
X75361800Y-21031200D03*
X75361800Y-32461200D03*
X75361800Y-35001200D03*
X94411800Y-23571200D03*
X94411800Y-21031200D03*
X94411800Y-35001200D03*
X94411800Y-32461200D03*
D40*
X70766000Y-21742000D03*
X68226000Y-21742000D03*
X65686000Y-21742000D03*
X63146000Y-21742000D03*
D41*
X65379600Y-68376800D03*
D42*
X63379600Y-68376800D03*
D43*
X61849000Y-72948800D03*
D44*
X72009000Y-72948800D03*
D45*
X70231000Y-67391500D03*
D42*
X70231000Y-69391500D03*
D46*
X65262000Y-31115000D03*
D47*
X67162000Y-31115000D03*
D48*
X30305000Y-89914000D03*
D49*
X27765000Y-89914000D03*
X25225000Y-89914000D03*
X25225000Y-82294000D03*
X27765000Y-82294000D03*
X30305000Y-82294000D03*
D42*
X30861000Y-75057000D03*
D50*
X30861000Y-64897000D03*
D51*
X21004200Y-66827400D03*
D52*
X26492200Y-69367400D03*
D53*
X21004200Y-71907400D03*
D54*
X102235000Y-97028000D03*
D55*
X102235000Y-94488000D03*
X102235000Y-91948000D03*
X102235000Y-89408000D03*
X102235000Y-86868000D03*
X102235000Y-84328000D03*
D56*
X88456000Y-50103000D03*
X88456000Y-52643000D03*
X88456000Y-55183000D03*
X88456000Y-57723000D03*
X88456000Y-60263000D03*
X88456000Y-62803000D03*
D57*
X100909000Y-50038000D03*
D58*
X100909000Y-47498000D03*
X100909000Y-44958000D03*
D59*
X21153000Y-95687000D03*
X33653000Y-95687000D03*
D60*
X48260000Y-51689000D03*
X48260000Y-47729000D03*
D61*
X90638000Y-40369000D03*
X88138000Y-40369000D03*
X85638000Y-40369000D03*
D62*
X48133000Y-37188000D03*
D63*
X48133000Y-41148000D03*
X48133000Y-33228000D03*
D40*
X69175000Y-37719000D03*
D64*
X64175000Y-37719000D03*
D61*
X78974000Y-40369000D03*
D65*
X76474000Y-40369000D03*
D66*
X78949500Y-102367500D03*
X81489500Y-102367500D03*
X84029500Y-102367500D03*
X86569500Y-102367500D03*
X89109500Y-102367500D03*
X91649500Y-102367500D03*
X94189500Y-102367500D03*
X94189500Y-104907500D03*
X91649500Y-104907500D03*
X89109500Y-104907500D03*
X86569500Y-104907500D03*
X84029500Y-104907500D03*
X81489500Y-104907500D03*
X78949500Y-104907500D03*
D67*
X24536000Y-54180000D03*
X24536000Y-32180000D03*
D68*
X34798000Y-60756800D03*
D69*
X19798000Y-60756800D03*
D70*
X48945800Y-79197200D03*
X48945800Y-69197200D03*
D71*
X39957000Y-23463000D03*
X34957000Y-23463000D03*
X29957000Y-23463000D03*
D72*
X69596000Y-26543000D03*
X64496000Y-27743000D03*
D57*
X101475500Y-66751200D03*
D58*
X101475500Y-64211200D03*
X101475500Y-61671200D03*
D42*
X44069000Y-69900800D03*
D50*
X44069000Y-80060800D03*
D42*
X35413000Y-65659000D03*
D50*
X45573000Y-65659000D03*
D42*
X49550000Y-56896000D03*
D50*
X39390000Y-56896000D03*
D42*
X49423000Y-60706000D03*
D50*
X39263000Y-60706000D03*
D42*
X40690800Y-69900800D03*
D50*
X40690800Y-80060800D03*
D42*
X37261800Y-80111600D03*
D50*
X37261800Y-69951600D03*
D40*
X69175000Y-48768000D03*
D64*
X64175000Y-48768000D03*
D57*
X101092000Y-34696400D03*
D58*
X101092000Y-32156400D03*
X101092000Y-29616400D03*
D56*
X78754000Y-61282000D03*
X78754000Y-63822000D03*
X78754000Y-66362000D03*
D73*
X61722000Y-104267000D03*
D74*
X63722000Y-104267000D03*
X65722000Y-104267000D03*
X67722000Y-104267000D03*
X69722000Y-104267000D03*
X71722000Y-104267000D03*
D73*
X48705000Y-104225000D03*
D74*
X50705000Y-104225000D03*
X52705000Y-104225000D03*
X54705000Y-104225000D03*
X56705000Y-104225000D03*
D56*
X78754000Y-47693000D03*
X78754000Y-50233000D03*
X78754000Y-52773000D03*
X78754000Y-55313000D03*
X78754000Y-57853000D03*
M02*
