%FSLAX45Y45*%
G04 Gerber Fmt 4.5, Leading zero omitted, Abs format (unit mm)*
G04 Created by KiCad (PCBNEW (6.0.1)) date 2022-02-14 21:09:22*
%MOMM*%
%LPD*%
G01*
G04 APERTURE LIST*
%TA.AperFunction,Profile*%
%ADD10C,0.050000*%
%TD*%
%ADD11C,0.200000*%
%ADD12C,0.040000*%
%ADD13C,0.050000*%
%ADD14C,0.060000*%
%ADD15C,0.070000*%
%ADD16C,0.075000*%
%ADD17C,0.080000*%
%ADD18C,0.090000*%
%ADD19C,0.100000*%
%ADD20C,0.101000*%
%ADD21C,0.105000*%
%ADD22C,0.110000*%
%ADD23C,0.120000*%
%ADD24C,0.130000*%
%ADD25C,0.150000*%
%ADD26C,0.180000*%
%ADD27C,0.330000*%
G04 APERTURE END LIST*
D10*
X1700000Y-10900000D02*
X1700000Y-9000000D01*
X10700000Y-10900000D02*
X1700000Y-10900000D01*
X1700000Y-9000000D02*
X1700000Y-1800000D01*
X1700000Y-1800000D02*
X10700000Y-1800000D01*
X10700000Y-1800000D02*
X10700000Y-10900000D01*
D11*
D12*
X6380800Y-8158800D02*
X6420800Y-8198800D01*
X6420800Y-8158800D02*
X6380800Y-8198800D01*
X6672900Y-7574600D02*
X6712900Y-7614600D01*
X6712900Y-7574600D02*
X6672900Y-7614600D01*
X6723700Y-7828600D02*
X6763700Y-7868600D01*
X6763700Y-7828600D02*
X6723700Y-7868600D01*
X6977700Y-7612700D02*
X7017700Y-7652700D01*
X7017700Y-7612700D02*
X6977700Y-7652700D01*
X7384100Y-6215700D02*
X7424100Y-6255700D01*
X7424100Y-6215700D02*
X7384100Y-6255700D01*
X7422200Y-7727000D02*
X7462200Y-7767000D01*
X7462200Y-7727000D02*
X7422200Y-7767000D01*
X7485700Y-7612700D02*
X7525700Y-7652700D01*
X7525700Y-7612700D02*
X7485700Y-7652700D01*
X7523800Y-8412800D02*
X7563800Y-8452800D01*
X7563800Y-8412800D02*
X7523800Y-8452800D01*
X7536500Y-7473000D02*
X7576500Y-7513000D01*
X7576500Y-7473000D02*
X7536500Y-7513000D01*
X7600000Y-6914200D02*
X7640000Y-6954200D01*
X7640000Y-6914200D02*
X7600000Y-6954200D01*
X7638100Y-7765100D02*
X7678100Y-7805100D01*
X7678100Y-7765100D02*
X7638100Y-7805100D01*
X7650800Y-8438200D02*
X7690800Y-8478200D01*
X7690800Y-8438200D02*
X7650800Y-8478200D01*
X7650800Y-9013764D02*
X7690800Y-9053764D01*
X7690800Y-9013764D02*
X7650800Y-9053764D01*
X7676200Y-9342440D02*
X7716200Y-9382440D01*
X7716200Y-9342440D02*
X7676200Y-9382440D01*
X7739700Y-7473000D02*
X7779700Y-7513000D01*
X7779700Y-7473000D02*
X7739700Y-7513000D01*
X7777800Y-9187500D02*
X7817800Y-9227500D01*
X7817800Y-9187500D02*
X7777800Y-9227500D01*
X7930200Y-8222300D02*
X7970200Y-8262300D01*
X7970200Y-8222300D02*
X7930200Y-8262300D01*
X7955600Y-7409500D02*
X7995600Y-7449500D01*
X7995600Y-7409500D02*
X7955600Y-7449500D01*
X7968300Y-7600000D02*
X8008300Y-7640000D01*
X8008300Y-7600000D02*
X7968300Y-7640000D01*
X7993700Y-8831900D02*
X8033700Y-8871900D01*
X8033700Y-8831900D02*
X7993700Y-8871900D01*
X8006400Y-8717600D02*
X8046400Y-8757600D01*
X8046400Y-8717600D02*
X8006400Y-8757600D01*
X8006400Y-9911400D02*
X8046400Y-9951400D01*
X8046400Y-9911400D02*
X8006400Y-9951400D01*
X8007700Y-8133400D02*
X8047700Y-8173400D01*
X8047700Y-8133400D02*
X8007700Y-8173400D01*
X8044500Y-7828600D02*
X8084500Y-7868600D01*
X8084500Y-7828600D02*
X8044500Y-7868600D01*
X8108000Y-7752400D02*
X8148000Y-7792400D01*
X8148000Y-7752400D02*
X8108000Y-7792400D01*
X8158800Y-7206300D02*
X8198800Y-7246300D01*
X8198800Y-7206300D02*
X8158800Y-7246300D01*
X8196900Y-4729800D02*
X8236900Y-4769800D01*
X8236900Y-4729800D02*
X8196900Y-4769800D01*
X8235000Y-8958900D02*
X8275000Y-8998900D01*
X8275000Y-8958900D02*
X8235000Y-8998900D01*
X8273100Y-7930200D02*
X8313100Y-7970200D01*
X8313100Y-7930200D02*
X8273100Y-7970200D01*
X8285800Y-6495100D02*
X8325800Y-6535100D01*
X8325800Y-6495100D02*
X8285800Y-6535100D01*
X8298500Y-7282500D02*
X8338500Y-7322500D01*
X8338500Y-7282500D02*
X8298500Y-7322500D01*
X8336600Y-9365300D02*
X8376600Y-9405300D01*
X8376600Y-9365300D02*
X8336600Y-9405300D01*
X8370636Y-8857300D02*
X8410636Y-8897300D01*
X8410636Y-8857300D02*
X8370636Y-8897300D01*
X8463600Y-5377500D02*
X8503600Y-5417500D01*
X8503600Y-5377500D02*
X8463600Y-5417500D01*
X8463600Y-8730300D02*
X8503600Y-8770300D01*
X8503600Y-8730300D02*
X8463600Y-8770300D01*
X8514400Y-8908100D02*
X8554400Y-8948100D01*
X8554400Y-8908100D02*
X8514400Y-8948100D01*
X8527100Y-8552500D02*
X8567100Y-8592500D01*
X8567100Y-8552500D02*
X8527100Y-8592500D01*
X8539800Y-7968300D02*
X8579800Y-8008300D01*
X8579800Y-7968300D02*
X8539800Y-8008300D01*
X8577900Y-9365300D02*
X8617900Y-9405300D01*
X8617900Y-9365300D02*
X8577900Y-9405300D01*
X8656640Y-8235000D02*
X8696640Y-8275000D01*
X8696640Y-8235000D02*
X8656640Y-8275000D01*
X8671880Y-8092760D02*
X8711880Y-8132760D01*
X8711880Y-8092760D02*
X8671880Y-8132760D01*
X8730300Y-9314500D02*
X8770300Y-9354500D01*
X8770300Y-9314500D02*
X8730300Y-9354500D01*
X8854760Y-8679500D02*
X8894760Y-8719500D01*
X8894760Y-8679500D02*
X8854760Y-8719500D01*
X8882700Y-8472236D02*
X8922700Y-8512236D01*
X8922700Y-8472236D02*
X8882700Y-8512236D01*
X8920800Y-8603300D02*
X8960800Y-8643300D01*
X8960800Y-8603300D02*
X8920800Y-8643300D01*
X8946200Y-6584000D02*
X8986200Y-6624000D01*
X8986200Y-6584000D02*
X8946200Y-6624000D01*
X8946200Y-7104700D02*
X8986200Y-7144700D01*
X8986200Y-7104700D02*
X8946200Y-7144700D01*
X8946200Y-7587300D02*
X8986200Y-7627300D01*
X8986200Y-7587300D02*
X8946200Y-7627300D01*
X9060500Y-2316800D02*
X9100500Y-2356800D01*
X9100500Y-2316800D02*
X9060500Y-2356800D01*
X9060500Y-2647000D02*
X9100500Y-2687000D01*
X9100500Y-2647000D02*
X9060500Y-2687000D01*
X9079400Y-6260300D02*
X9119400Y-6300300D01*
X9119400Y-6260300D02*
X9079400Y-6300300D01*
X9149400Y-6495100D02*
X9189400Y-6535100D01*
X9189400Y-6495100D02*
X9149400Y-6535100D01*
X9149400Y-7879400D02*
X9189400Y-7919400D01*
X9189400Y-7879400D02*
X9149400Y-7919400D01*
X9200200Y-9314500D02*
X9240200Y-9354500D01*
X9240200Y-9314500D02*
X9200200Y-9354500D01*
X9416100Y-6990400D02*
X9456100Y-7030400D01*
X9456100Y-6990400D02*
X9416100Y-7030400D01*
X9428800Y-4247200D02*
X9468800Y-4287200D01*
X9468800Y-4247200D02*
X9428800Y-4287200D01*
X9428800Y-6253800D02*
X9468800Y-6293800D01*
X9468800Y-6253800D02*
X9428800Y-6293800D01*
X9492300Y-7879400D02*
X9532300Y-7919400D01*
X9532300Y-7879400D02*
X9492300Y-7919400D01*
X9593900Y-6380800D02*
X9633900Y-6420800D01*
X9633900Y-6380800D02*
X9593900Y-6420800D01*
X9644700Y-5441000D02*
X9684700Y-5481000D01*
X9684700Y-5441000D02*
X9644700Y-5481000D01*
X9695500Y-9847900D02*
X9735500Y-9887900D01*
X9735500Y-9847900D02*
X9695500Y-9887900D01*
X9733600Y-9759000D02*
X9773600Y-9799000D01*
X9773600Y-9759000D02*
X9733600Y-9799000D01*
X9759000Y-5060000D02*
X9799000Y-5100000D01*
X9799000Y-5060000D02*
X9759000Y-5100000D01*
X9822500Y-9682800D02*
X9862500Y-9722800D01*
X9862500Y-9682800D02*
X9822500Y-9722800D01*
X9886000Y-10063800D02*
X9926000Y-10103800D01*
X9926000Y-10063800D02*
X9886000Y-10103800D01*
X9936800Y-9644700D02*
X9976800Y-9684700D01*
X9976800Y-9644700D02*
X9936800Y-9684700D01*
X9987600Y-6990400D02*
X10027600Y-7030400D01*
X10027600Y-6990400D02*
X9987600Y-7030400D01*
X10165400Y-3840800D02*
X10205400Y-3880800D01*
X10205400Y-3840800D02*
X10165400Y-3880800D01*
X10419400Y-9962200D02*
X10459400Y-10002200D01*
X10459400Y-9962200D02*
X10419400Y-10002200D01*
X10495600Y-6749100D02*
X10535600Y-6789100D01*
X10535600Y-6749100D02*
X10495600Y-6789100D01*
D13*
X3415900Y-9220200D02*
G75*
G03*
X3415900Y-9220200I-25000J0D01*
G01*
X5930500Y-8953500D02*
G75*
G03*
X5930500Y-8953500I-25000J0D01*
G01*
X7416400Y-7467600D02*
G75*
G03*
X7416400Y-7467600I-25000J0D01*
G01*
X7530700Y-7035800D02*
G75*
G03*
X7530700Y-7035800I-25000J0D01*
G01*
X7619600Y-5461000D02*
G75*
G03*
X7619600Y-5461000I-25000J0D01*
G01*
X7683100Y-7188200D02*
G75*
G03*
X7683100Y-7188200I-25000J0D01*
G01*
X8368900Y-6146800D02*
G75*
G03*
X8368900Y-6146800I-25000J0D01*
G01*
X8572100Y-7480300D02*
G75*
G03*
X8572100Y-7480300I-25000J0D01*
G01*
X8826100Y-7607300D02*
G75*
G03*
X8826100Y-7607300I-25000J0D01*
G01*
X8902300Y-2984500D02*
G75*
G03*
X8902300Y-2984500I-25000J0D01*
G01*
X9105500Y-3365500D02*
G75*
G03*
X9105500Y-3365500I-25000J0D01*
G01*
X9689700Y-6019800D02*
G75*
G03*
X9689700Y-6019800I-25000J0D01*
G01*
X9931000Y-8801100D02*
G75*
G03*
X9931000Y-8801100I-25000J0D01*
G01*
X10312000Y-7404100D02*
G75*
G03*
X10312000Y-7404100I-25000J0D01*
G01*
D14*
X6417500Y-4461800D02*
X6417500Y-4521800D01*
X6387500Y-4491800D02*
X6447500Y-4491800D01*
D15*
X6550949Y-3136249D02*
X6550949Y-3086751D01*
X6501451Y-3086751D01*
X6501451Y-3136249D01*
X6550949Y-3136249D01*
X6740949Y-3136249D02*
X6740949Y-3086751D01*
X6691451Y-3086751D01*
X6691451Y-3136249D01*
X6740949Y-3136249D01*
D16*
X4870500Y-10460000D02*
X4908000Y-10422500D01*
X4870500Y-10385000D01*
X4833000Y-10422500D01*
X4870500Y-10460000D01*
X5070500Y-10460000D02*
X5108000Y-10422500D01*
X5070500Y-10385000D01*
X5033000Y-10422500D01*
X5070500Y-10460000D01*
X5270500Y-10460000D02*
X5308000Y-10422500D01*
X5270500Y-10385000D01*
X5233000Y-10422500D01*
X5270500Y-10460000D01*
X5470500Y-10460000D02*
X5508000Y-10422500D01*
X5470500Y-10385000D01*
X5433000Y-10422500D01*
X5470500Y-10460000D01*
X5670500Y-10460000D02*
X5708000Y-10422500D01*
X5670500Y-10385000D01*
X5633000Y-10422500D01*
X5670500Y-10460000D01*
X6172200Y-10464200D02*
X6209700Y-10426700D01*
X6172200Y-10389200D01*
X6134700Y-10426700D01*
X6172200Y-10464200D01*
X6372200Y-10464200D02*
X6409700Y-10426700D01*
X6372200Y-10389200D01*
X6334700Y-10426700D01*
X6372200Y-10464200D01*
X6572200Y-10464200D02*
X6609700Y-10426700D01*
X6572200Y-10389200D01*
X6534700Y-10426700D01*
X6572200Y-10464200D01*
X6772200Y-10464200D02*
X6809700Y-10426700D01*
X6772200Y-10389200D01*
X6734700Y-10426700D01*
X6772200Y-10464200D01*
X6972200Y-10464200D02*
X7009700Y-10426700D01*
X6972200Y-10389200D01*
X6934700Y-10426700D01*
X6972200Y-10464200D01*
X7172200Y-10464200D02*
X7209700Y-10426700D01*
X7172200Y-10389200D01*
X7134700Y-10426700D01*
X7172200Y-10464200D01*
D17*
X2482500Y-8189400D02*
X2562500Y-8269400D01*
X2562500Y-8189400D02*
X2482500Y-8269400D01*
X2562500Y-8229400D02*
G75*
G03*
X2562500Y-8229400I-40000J0D01*
G01*
X2482500Y-8951400D02*
X2562500Y-9031400D01*
X2562500Y-8951400D02*
X2482500Y-9031400D01*
X2562500Y-8991400D02*
G75*
G03*
X2562500Y-8991400I-40000J0D01*
G01*
X2736500Y-8189400D02*
X2816500Y-8269400D01*
X2816500Y-8189400D02*
X2736500Y-8269400D01*
X2816500Y-8229400D02*
G75*
G03*
X2816500Y-8229400I-40000J0D01*
G01*
X2736500Y-8951400D02*
X2816500Y-9031400D01*
X2816500Y-8951400D02*
X2736500Y-9031400D01*
X2816500Y-8991400D02*
G75*
G03*
X2816500Y-8991400I-40000J0D01*
G01*
X2990500Y-8189400D02*
X3070500Y-8269400D01*
X3070500Y-8189400D02*
X2990500Y-8269400D01*
X3070500Y-8229400D02*
G75*
G03*
X3070500Y-8229400I-40000J0D01*
G01*
X2990500Y-8951400D02*
X3070500Y-9031400D01*
X3070500Y-8951400D02*
X2990500Y-9031400D01*
X3070500Y-8991400D02*
G75*
G03*
X3070500Y-8991400I-40000J0D01*
G01*
X3046100Y-6449700D02*
X3126100Y-6529700D01*
X3126100Y-6449700D02*
X3046100Y-6529700D01*
X3126100Y-6489700D02*
G75*
G03*
X3126100Y-6489700I-40000J0D01*
G01*
X3046100Y-7465700D02*
X3126100Y-7545700D01*
X3126100Y-7465700D02*
X3046100Y-7545700D01*
X3126100Y-7505700D02*
G75*
G03*
X3126100Y-7505700I-40000J0D01*
G01*
X3501300Y-6525900D02*
X3581300Y-6605900D01*
X3581300Y-6525900D02*
X3501300Y-6605900D01*
X3581300Y-6565900D02*
G75*
G03*
X3581300Y-6565900I-40000J0D01*
G01*
X3686180Y-6955160D02*
X3766180Y-7035160D01*
X3766180Y-6955160D02*
X3686180Y-7035160D01*
X3766180Y-6995160D02*
G75*
G03*
X3766180Y-6995160I-40000J0D01*
G01*
X3686180Y-7971160D02*
X3766180Y-8051160D01*
X3766180Y-7971160D02*
X3686180Y-8051160D01*
X3766180Y-8011160D02*
G75*
G03*
X3766180Y-8011160I-40000J0D01*
G01*
X3886300Y-6030600D02*
X3966300Y-6110600D01*
X3966300Y-6030600D02*
X3886300Y-6110600D01*
X3966300Y-6070600D02*
G75*
G03*
X3966300Y-6070600I-40000J0D01*
G01*
X3899000Y-5649600D02*
X3979000Y-5729600D01*
X3979000Y-5649600D02*
X3899000Y-5729600D01*
X3979000Y-5689600D02*
G75*
G03*
X3979000Y-5689600I-40000J0D01*
G01*
X4029080Y-6950080D02*
X4109080Y-7030080D01*
X4109080Y-6950080D02*
X4029080Y-7030080D01*
X4109080Y-6990080D02*
G75*
G03*
X4109080Y-6990080I-40000J0D01*
G01*
X4029080Y-7966080D02*
X4109080Y-8046080D01*
X4109080Y-7966080D02*
X4029080Y-8046080D01*
X4109080Y-8006080D02*
G75*
G03*
X4109080Y-8006080I-40000J0D01*
G01*
X4366900Y-6950080D02*
X4446900Y-7030080D01*
X4446900Y-6950080D02*
X4366900Y-7030080D01*
X4446900Y-6990080D02*
G75*
G03*
X4446900Y-6990080I-40000J0D01*
G01*
X4366900Y-7966080D02*
X4446900Y-8046080D01*
X4446900Y-7966080D02*
X4366900Y-8046080D01*
X4446900Y-8006080D02*
G75*
G03*
X4446900Y-8006080I-40000J0D01*
G01*
X4517300Y-6525900D02*
X4597300Y-6605900D01*
X4597300Y-6525900D02*
X4517300Y-6605900D01*
X4597300Y-6565900D02*
G75*
G03*
X4597300Y-6565900I-40000J0D01*
G01*
X4902300Y-6030600D02*
X4982300Y-6110600D01*
X4982300Y-6030600D02*
X4902300Y-6110600D01*
X4982300Y-6070600D02*
G75*
G03*
X4982300Y-6070600I-40000J0D01*
G01*
X4915000Y-5649600D02*
X4995000Y-5729600D01*
X4995000Y-5649600D02*
X4915000Y-5729600D01*
X4995000Y-5689600D02*
G75*
G03*
X4995000Y-5689600I-40000J0D01*
G01*
X6297960Y-6797680D02*
X6377960Y-6877680D01*
X6377960Y-6797680D02*
X6297960Y-6877680D01*
X6377960Y-6837680D02*
G75*
G03*
X6377960Y-6837680I-40000J0D01*
G01*
X6497960Y-6797680D02*
X6577960Y-6877680D01*
X6577960Y-6797680D02*
X6497960Y-6877680D01*
X6577960Y-6837680D02*
G75*
G03*
X6577960Y-6837680I-40000J0D01*
G01*
X6983100Y-6699150D02*
X7063100Y-6779150D01*
X7063100Y-6699150D02*
X6983100Y-6779150D01*
X7063100Y-6739150D02*
G75*
G03*
X7063100Y-6739150I-40000J0D01*
G01*
X6983100Y-6899150D02*
X7063100Y-6979150D01*
X7063100Y-6899150D02*
X6983100Y-6979150D01*
X7063100Y-6939150D02*
G75*
G03*
X7063100Y-6939150I-40000J0D01*
G01*
D18*
X7830400Y-4724300D02*
X7920400Y-4814300D01*
X7920400Y-4724300D02*
X7830400Y-4814300D01*
X7875400Y-4724300D02*
X7875400Y-4814300D01*
X7830400Y-4769300D02*
X7920400Y-4769300D01*
X7830400Y-4978300D02*
X7920400Y-5068300D01*
X7920400Y-4978300D02*
X7830400Y-5068300D01*
X7875400Y-4978300D02*
X7875400Y-5068300D01*
X7830400Y-5023300D02*
X7920400Y-5023300D01*
X7830400Y-5232300D02*
X7920400Y-5322300D01*
X7920400Y-5232300D02*
X7830400Y-5322300D01*
X7875400Y-5232300D02*
X7875400Y-5322300D01*
X7830400Y-5277300D02*
X7920400Y-5277300D01*
X7830400Y-5486300D02*
X7920400Y-5576300D01*
X7920400Y-5486300D02*
X7830400Y-5576300D01*
X7875400Y-5486300D02*
X7875400Y-5576300D01*
X7830400Y-5531300D02*
X7920400Y-5531300D01*
X7830400Y-5740300D02*
X7920400Y-5830300D01*
X7920400Y-5740300D02*
X7830400Y-5830300D01*
X7875400Y-5740300D02*
X7875400Y-5830300D01*
X7830400Y-5785300D02*
X7920400Y-5785300D01*
X7830400Y-6083200D02*
X7920400Y-6173200D01*
X7920400Y-6083200D02*
X7830400Y-6173200D01*
X7875400Y-6083200D02*
X7875400Y-6173200D01*
X7830400Y-6128200D02*
X7920400Y-6128200D01*
X7830400Y-6337200D02*
X7920400Y-6427200D01*
X7920400Y-6337200D02*
X7830400Y-6427200D01*
X7875400Y-6337200D02*
X7875400Y-6427200D01*
X7830400Y-6382200D02*
X7920400Y-6382200D01*
X7830400Y-6591200D02*
X7920400Y-6681200D01*
X7920400Y-6591200D02*
X7830400Y-6681200D01*
X7875400Y-6591200D02*
X7875400Y-6681200D01*
X7830400Y-6636200D02*
X7920400Y-6636200D01*
X8800600Y-4965300D02*
X8890600Y-5055300D01*
X8890600Y-4965300D02*
X8800600Y-5055300D01*
X8845600Y-4965300D02*
X8845600Y-5055300D01*
X8800600Y-5010300D02*
X8890600Y-5010300D01*
X8800600Y-5219300D02*
X8890600Y-5309300D01*
X8890600Y-5219300D02*
X8800600Y-5309300D01*
X8845600Y-5219300D02*
X8845600Y-5309300D01*
X8800600Y-5264300D02*
X8890600Y-5264300D01*
X8800600Y-5473300D02*
X8890600Y-5563300D01*
X8890600Y-5473300D02*
X8800600Y-5563300D01*
X8845600Y-5473300D02*
X8845600Y-5563300D01*
X8800600Y-5518300D02*
X8890600Y-5518300D01*
X8800600Y-5727300D02*
X8890600Y-5817300D01*
X8890600Y-5727300D02*
X8800600Y-5817300D01*
X8845600Y-5727300D02*
X8845600Y-5817300D01*
X8800600Y-5772300D02*
X8890600Y-5772300D01*
X8800600Y-5981300D02*
X8890600Y-6071300D01*
X8890600Y-5981300D02*
X8800600Y-6071300D01*
X8845600Y-5981300D02*
X8845600Y-6071300D01*
X8800600Y-6026300D02*
X8890600Y-6026300D01*
X8800600Y-6235300D02*
X8890600Y-6325300D01*
X8890600Y-6235300D02*
X8800600Y-6325300D01*
X8845600Y-6235300D02*
X8845600Y-6325300D01*
X8800600Y-6280300D02*
X8890600Y-6280300D01*
D19*
X4844580Y-6869720D02*
X4944580Y-6969720D01*
X4944580Y-6869720D02*
X4844580Y-6969720D01*
X4929936Y-6955076D02*
X4929936Y-6884364D01*
X4859224Y-6884364D01*
X4859224Y-6955076D01*
X4929936Y-6955076D01*
X4844580Y-7869720D02*
X4944580Y-7969720D01*
X4944580Y-7869720D02*
X4844580Y-7969720D01*
X4929936Y-7955076D02*
X4929936Y-7884364D01*
X4859224Y-7884364D01*
X4859224Y-7955076D01*
X4929936Y-7955076D01*
X6367500Y-3721900D02*
X6467500Y-3821900D01*
X6467500Y-3721900D02*
X6367500Y-3821900D01*
X6452856Y-3807256D02*
X6452856Y-3736544D01*
X6382144Y-3736544D01*
X6382144Y-3807256D01*
X6452856Y-3807256D01*
X6367500Y-4826800D02*
X6467500Y-4926800D01*
X6467500Y-4826800D02*
X6367500Y-4926800D01*
X6452856Y-4912156D02*
X6452856Y-4841444D01*
X6382144Y-4841444D01*
X6382144Y-4912156D01*
X6452856Y-4912156D01*
X6867500Y-3721900D02*
X6967500Y-3821900D01*
X6967500Y-3721900D02*
X6867500Y-3821900D01*
X6952856Y-3807256D02*
X6952856Y-3736544D01*
X6882144Y-3736544D01*
X6882144Y-3807256D01*
X6952856Y-3807256D01*
X6867500Y-4826800D02*
X6967500Y-4926800D01*
X6967500Y-4826800D02*
X6867500Y-4926800D01*
X6952856Y-4912156D02*
X6952856Y-4841444D01*
X6882144Y-4841444D01*
X6882144Y-4912156D01*
X6952856Y-4912156D01*
X7486180Y-2053120D02*
X7586180Y-2153120D01*
X7586180Y-2053120D02*
X7486180Y-2153120D01*
X7571536Y-2138476D02*
X7571536Y-2067764D01*
X7500824Y-2067764D01*
X7500824Y-2138476D01*
X7571536Y-2138476D01*
X7486180Y-2307120D02*
X7586180Y-2407120D01*
X7586180Y-2307120D02*
X7486180Y-2407120D01*
X7571536Y-2392476D02*
X7571536Y-2321764D01*
X7500824Y-2321764D01*
X7500824Y-2392476D01*
X7571536Y-2392476D01*
X7486180Y-3196120D02*
X7586180Y-3296120D01*
X7586180Y-3196120D02*
X7486180Y-3296120D01*
X7571536Y-3281476D02*
X7571536Y-3210764D01*
X7500824Y-3210764D01*
X7500824Y-3281476D01*
X7571536Y-3281476D01*
X7486180Y-3450120D02*
X7586180Y-3550120D01*
X7586180Y-3450120D02*
X7486180Y-3550120D01*
X7571536Y-3535476D02*
X7571536Y-3464764D01*
X7500824Y-3464764D01*
X7500824Y-3535476D01*
X7571536Y-3535476D01*
X8513800Y-3986900D02*
X8613800Y-4086900D01*
X8613800Y-3986900D02*
X8513800Y-4086900D01*
X8599156Y-4072256D02*
X8599156Y-4001544D01*
X8528444Y-4001544D01*
X8528444Y-4072256D01*
X8599156Y-4072256D01*
X8763800Y-3986900D02*
X8863800Y-4086900D01*
X8863800Y-3986900D02*
X8763800Y-4086900D01*
X8849156Y-4072256D02*
X8849156Y-4001544D01*
X8778444Y-4001544D01*
X8778444Y-4072256D01*
X8849156Y-4072256D01*
X9013800Y-3986900D02*
X9113800Y-4086900D01*
X9113800Y-3986900D02*
X9013800Y-4086900D01*
X9099156Y-4072256D02*
X9099156Y-4001544D01*
X9028444Y-4001544D01*
X9028444Y-4072256D01*
X9099156Y-4072256D01*
X9391180Y-2053120D02*
X9491180Y-2153120D01*
X9491180Y-2053120D02*
X9391180Y-2153120D01*
X9476536Y-2138476D02*
X9476536Y-2067764D01*
X9405824Y-2067764D01*
X9405824Y-2138476D01*
X9476536Y-2138476D01*
X9391180Y-2307120D02*
X9491180Y-2407120D01*
X9491180Y-2307120D02*
X9391180Y-2407120D01*
X9476536Y-2392476D02*
X9476536Y-2321764D01*
X9405824Y-2321764D01*
X9405824Y-2392476D01*
X9476536Y-2392476D01*
X9391180Y-3196120D02*
X9491180Y-3296120D01*
X9491180Y-3196120D02*
X9391180Y-3296120D01*
X9476536Y-3281476D02*
X9476536Y-3210764D01*
X9405824Y-3210764D01*
X9405824Y-3281476D01*
X9476536Y-3281476D01*
X9391180Y-3450120D02*
X9491180Y-3550120D01*
X9491180Y-3450120D02*
X9391180Y-3550120D01*
X9476536Y-3535476D02*
X9476536Y-3464764D01*
X9405824Y-3464764D01*
X9405824Y-3535476D01*
X9476536Y-3535476D01*
D20*
X6399100Y-2723800D02*
X6500100Y-2824800D01*
X6500100Y-2723800D02*
X6399100Y-2824800D01*
X6449600Y-2824800D02*
X6500100Y-2774300D01*
X6449600Y-2723800D01*
X6399100Y-2774300D01*
X6449600Y-2824800D01*
X6909100Y-2603800D02*
X7010100Y-2704800D01*
X7010100Y-2603800D02*
X6909100Y-2704800D01*
X6959600Y-2704800D02*
X7010100Y-2654300D01*
X6959600Y-2603800D01*
X6909100Y-2654300D01*
X6959600Y-2704800D01*
D21*
X7647400Y-3984400D02*
X7647400Y-4089400D01*
X7594900Y-4036900D02*
X7699900Y-4036900D01*
X7699900Y-4036900D02*
G75*
G03*
X7699900Y-4036900I-52500J0D01*
G01*
X7897400Y-3984400D02*
X7897400Y-4089400D01*
X7844900Y-4036900D02*
X7949900Y-4036900D01*
X7949900Y-4036900D02*
G75*
G03*
X7949900Y-4036900I-52500J0D01*
G01*
D22*
X6223791Y-7333771D02*
X6223791Y-7255989D01*
X6146009Y-7255989D01*
X6146009Y-7333771D01*
X6223791Y-7333771D01*
X6239900Y-7294880D02*
G75*
G03*
X6239900Y-7294880I-55000J0D01*
G01*
X6353491Y-2213091D02*
X6353491Y-2135309D01*
X6275709Y-2135309D01*
X6275709Y-2213091D01*
X6353491Y-2213091D01*
X6369600Y-2174200D02*
G75*
G03*
X6369600Y-2174200I-55000J0D01*
G01*
X6607491Y-2213091D02*
X6607491Y-2135309D01*
X6529709Y-2135309D01*
X6529709Y-2213091D01*
X6607491Y-2213091D01*
X6623600Y-2174200D02*
G75*
G03*
X6623600Y-2174200I-55000J0D01*
G01*
X6861491Y-2213091D02*
X6861491Y-2135309D01*
X6783709Y-2135309D01*
X6783709Y-2213091D01*
X6861491Y-2213091D01*
X6877600Y-2174200D02*
G75*
G03*
X6877600Y-2174200I-55000J0D01*
G01*
X7115491Y-2213091D02*
X7115491Y-2135309D01*
X7037709Y-2135309D01*
X7037709Y-2213091D01*
X7115491Y-2213091D01*
X7131600Y-2174200D02*
G75*
G03*
X7131600Y-2174200I-55000J0D01*
G01*
X7239791Y-7333771D02*
X7239791Y-7255989D01*
X7162009Y-7255989D01*
X7162009Y-7333771D01*
X7239791Y-7333771D01*
X7255900Y-7294880D02*
G75*
G03*
X7255900Y-7294880I-55000J0D01*
G01*
X10262391Y-8471691D02*
X10262391Y-8393909D01*
X10184609Y-8393909D01*
X10184609Y-8471691D01*
X10262391Y-8471691D01*
X10278500Y-8432800D02*
G75*
G03*
X10278500Y-8432800I-55000J0D01*
G01*
X10262391Y-8725691D02*
X10262391Y-8647909D01*
X10184609Y-8647909D01*
X10184609Y-8725691D01*
X10262391Y-8725691D01*
X10278500Y-8686800D02*
G75*
G03*
X10278500Y-8686800I-55000J0D01*
G01*
X10262391Y-8979691D02*
X10262391Y-8901909D01*
X10184609Y-8901909D01*
X10184609Y-8979691D01*
X10262391Y-8979691D01*
X10278500Y-8940800D02*
G75*
G03*
X10278500Y-8940800I-55000J0D01*
G01*
X10262391Y-9233691D02*
X10262391Y-9155909D01*
X10184609Y-9155909D01*
X10184609Y-9233691D01*
X10262391Y-9233691D01*
X10278500Y-9194800D02*
G75*
G03*
X10278500Y-9194800I-55000J0D01*
G01*
X10262391Y-9487691D02*
X10262391Y-9409909D01*
X10184609Y-9409909D01*
X10184609Y-9487691D01*
X10262391Y-9487691D01*
X10278500Y-9448800D02*
G75*
G03*
X10278500Y-9448800I-55000J0D01*
G01*
X10262391Y-9741691D02*
X10262391Y-9663909D01*
X10184609Y-9663909D01*
X10184609Y-9741691D01*
X10262391Y-9741691D01*
X10278500Y-9702800D02*
G75*
G03*
X10278500Y-9702800I-55000J0D01*
G01*
D23*
X1979800Y-6135680D02*
X2039800Y-6075680D01*
X1979800Y-6015680D01*
X1919800Y-6075680D01*
X1979800Y-6135680D01*
X2039800Y-6075680D02*
G75*
G03*
X2039800Y-6075680I-60000J0D01*
G01*
X3479800Y-6135680D02*
X3539800Y-6075680D01*
X3479800Y-6015680D01*
X3419800Y-6075680D01*
X3479800Y-6135680D01*
X3539800Y-6075680D02*
G75*
G03*
X3539800Y-6075680I-60000J0D01*
G01*
X7894950Y-10296750D02*
X7954950Y-10236750D01*
X7894950Y-10176750D01*
X7834950Y-10236750D01*
X7894950Y-10296750D01*
X7954950Y-10236750D02*
G75*
G03*
X7954950Y-10236750I-60000J0D01*
G01*
X7894950Y-10550750D02*
X7954950Y-10490750D01*
X7894950Y-10430750D01*
X7834950Y-10490750D01*
X7894950Y-10550750D01*
X7954950Y-10490750D02*
G75*
G03*
X7954950Y-10490750I-60000J0D01*
G01*
X8148950Y-10296750D02*
X8208950Y-10236750D01*
X8148950Y-10176750D01*
X8088950Y-10236750D01*
X8148950Y-10296750D01*
X8208950Y-10236750D02*
G75*
G03*
X8208950Y-10236750I-60000J0D01*
G01*
X8148950Y-10550750D02*
X8208950Y-10490750D01*
X8148950Y-10430750D01*
X8088950Y-10490750D01*
X8148950Y-10550750D01*
X8208950Y-10490750D02*
G75*
G03*
X8208950Y-10490750I-60000J0D01*
G01*
X8402950Y-10296750D02*
X8462950Y-10236750D01*
X8402950Y-10176750D01*
X8342950Y-10236750D01*
X8402950Y-10296750D01*
X8462950Y-10236750D02*
G75*
G03*
X8462950Y-10236750I-60000J0D01*
G01*
X8402950Y-10550750D02*
X8462950Y-10490750D01*
X8402950Y-10430750D01*
X8342950Y-10490750D01*
X8402950Y-10550750D01*
X8462950Y-10490750D02*
G75*
G03*
X8462950Y-10490750I-60000J0D01*
G01*
X8656950Y-10296750D02*
X8716950Y-10236750D01*
X8656950Y-10176750D01*
X8596950Y-10236750D01*
X8656950Y-10296750D01*
X8716950Y-10236750D02*
G75*
G03*
X8716950Y-10236750I-60000J0D01*
G01*
X8656950Y-10550750D02*
X8716950Y-10490750D01*
X8656950Y-10430750D01*
X8596950Y-10490750D01*
X8656950Y-10550750D01*
X8716950Y-10490750D02*
G75*
G03*
X8716950Y-10490750I-60000J0D01*
G01*
X8910950Y-10296750D02*
X8970950Y-10236750D01*
X8910950Y-10176750D01*
X8850950Y-10236750D01*
X8910950Y-10296750D01*
X8970950Y-10236750D02*
G75*
G03*
X8970950Y-10236750I-60000J0D01*
G01*
X8910950Y-10550750D02*
X8970950Y-10490750D01*
X8910950Y-10430750D01*
X8850950Y-10490750D01*
X8910950Y-10550750D01*
X8970950Y-10490750D02*
G75*
G03*
X8970950Y-10490750I-60000J0D01*
G01*
X9164950Y-10296750D02*
X9224950Y-10236750D01*
X9164950Y-10176750D01*
X9104950Y-10236750D01*
X9164950Y-10296750D01*
X9224950Y-10236750D02*
G75*
G03*
X9224950Y-10236750I-60000J0D01*
G01*
X9164950Y-10550750D02*
X9224950Y-10490750D01*
X9164950Y-10430750D01*
X9104950Y-10490750D01*
X9164950Y-10550750D01*
X9224950Y-10490750D02*
G75*
G03*
X9224950Y-10490750I-60000J0D01*
G01*
X9418950Y-10296750D02*
X9478950Y-10236750D01*
X9418950Y-10176750D01*
X9358950Y-10236750D01*
X9418950Y-10296750D01*
X9478950Y-10236750D02*
G75*
G03*
X9478950Y-10236750I-60000J0D01*
G01*
X9418950Y-10550750D02*
X9478950Y-10490750D01*
X9418950Y-10430750D01*
X9358950Y-10490750D01*
X9418950Y-10550750D01*
X9478950Y-10490750D02*
G75*
G03*
X9478950Y-10490750I-60000J0D01*
G01*
D24*
X2100420Y-6617740D02*
X2100420Y-6747740D01*
X2035420Y-6682740D02*
X2165420Y-6682740D01*
X2146382Y-6728702D02*
X2146382Y-6636778D01*
X2054458Y-6636778D01*
X2054458Y-6728702D01*
X2146382Y-6728702D01*
X2100420Y-7125740D02*
X2100420Y-7255740D01*
X2035420Y-7190740D02*
X2165420Y-7190740D01*
X2146382Y-7236702D02*
X2146382Y-7144778D01*
X2054458Y-7144778D01*
X2054458Y-7236702D01*
X2146382Y-7236702D01*
X2649220Y-6871740D02*
X2649220Y-7001740D01*
X2584220Y-6936740D02*
X2714220Y-6936740D01*
X2695182Y-6982702D02*
X2695182Y-6890778D01*
X2603258Y-6890778D01*
X2603258Y-6982702D01*
X2695182Y-6982702D01*
X10090900Y-4430800D02*
X10090900Y-4560800D01*
X10025900Y-4495800D02*
X10155900Y-4495800D01*
X10136862Y-4541762D02*
X10136862Y-4449838D01*
X10044938Y-4449838D01*
X10044938Y-4541762D01*
X10136862Y-4541762D01*
X10090900Y-4684800D02*
X10090900Y-4814800D01*
X10025900Y-4749800D02*
X10155900Y-4749800D01*
X10136862Y-4795762D02*
X10136862Y-4703838D01*
X10044938Y-4703838D01*
X10044938Y-4795762D01*
X10136862Y-4795762D01*
X10090900Y-4938800D02*
X10090900Y-5068800D01*
X10025900Y-5003800D02*
X10155900Y-5003800D01*
X10136862Y-5049762D02*
X10136862Y-4957838D01*
X10044938Y-4957838D01*
X10044938Y-5049762D01*
X10136862Y-5049762D01*
X10109200Y-2896640D02*
X10109200Y-3026640D01*
X10044200Y-2961640D02*
X10174200Y-2961640D01*
X10155162Y-3007602D02*
X10155162Y-2915678D01*
X10063238Y-2915678D01*
X10063238Y-3007602D01*
X10155162Y-3007602D01*
X10109200Y-3150640D02*
X10109200Y-3280640D01*
X10044200Y-3215640D02*
X10174200Y-3215640D01*
X10155162Y-3261602D02*
X10155162Y-3169678D01*
X10063238Y-3169678D01*
X10063238Y-3261602D01*
X10155162Y-3261602D01*
X10109200Y-3404640D02*
X10109200Y-3534640D01*
X10044200Y-3469640D02*
X10174200Y-3469640D01*
X10155162Y-3515602D02*
X10155162Y-3423678D01*
X10063238Y-3423678D01*
X10063238Y-3515602D01*
X10155162Y-3515602D01*
X10147550Y-6102120D02*
X10147550Y-6232120D01*
X10082550Y-6167120D02*
X10212550Y-6167120D01*
X10193512Y-6213082D02*
X10193512Y-6121158D01*
X10101588Y-6121158D01*
X10101588Y-6213082D01*
X10193512Y-6213082D01*
X10147550Y-6356120D02*
X10147550Y-6486120D01*
X10082550Y-6421120D02*
X10212550Y-6421120D01*
X10193512Y-6467082D02*
X10193512Y-6375158D01*
X10101588Y-6375158D01*
X10101588Y-6467082D01*
X10193512Y-6467082D01*
X10147550Y-6610120D02*
X10147550Y-6740120D01*
X10082550Y-6675120D02*
X10212550Y-6675120D01*
X10193512Y-6721082D02*
X10193512Y-6629158D01*
X10101588Y-6629158D01*
X10101588Y-6721082D01*
X10193512Y-6721082D01*
D25*
X2115300Y-9493700D02*
X2115300Y-9643700D01*
X2040300Y-9568700D02*
X2190300Y-9568700D01*
X2115300Y-9643700D02*
X2190300Y-9568700D01*
X2115300Y-9493700D01*
X2040300Y-9568700D01*
X2115300Y-9643700D01*
D11*
X2040300Y-9633700D02*
X2190300Y-9633700D01*
X2040300Y-9503700D02*
X2190300Y-9503700D01*
X2190300Y-9633700D02*
G75*
G03*
X2190300Y-9503700I0J65000D01*
G01*
X2040300Y-9503700D02*
G75*
G03*
X2040300Y-9633700I0J-65000D01*
G01*
D25*
X3365300Y-9493700D02*
X3365300Y-9643700D01*
X3290300Y-9568700D02*
X3440300Y-9568700D01*
X3365300Y-9643700D02*
X3440300Y-9568700D01*
X3365300Y-9493700D01*
X3290300Y-9568700D01*
X3365300Y-9643700D01*
D11*
X3290300Y-9633700D02*
X3440300Y-9633700D01*
X3290300Y-9503700D02*
X3440300Y-9503700D01*
X3440300Y-9633700D02*
G75*
G03*
X3440300Y-9503700I0J65000D01*
G01*
X3290300Y-9503700D02*
G75*
G03*
X3290300Y-9633700I0J-65000D01*
G01*
D26*
X2453600Y-3308000D02*
X2543600Y-3218000D01*
X2453600Y-3128000D01*
X2363600Y-3218000D01*
X2453600Y-3308000D01*
X2517240Y-3281640D02*
X2517240Y-3154360D01*
X2389960Y-3154360D01*
X2389960Y-3281640D01*
X2517240Y-3281640D01*
X2453600Y-5508000D02*
X2543600Y-5418000D01*
X2453600Y-5328000D01*
X2363600Y-5418000D01*
X2453600Y-5508000D01*
X2517240Y-5481640D02*
X2517240Y-5354360D01*
X2389960Y-5354360D01*
X2389960Y-5481640D01*
X2517240Y-5481640D01*
X2995700Y-2436300D02*
X3085700Y-2346300D01*
X2995700Y-2256300D01*
X2905700Y-2346300D01*
X2995700Y-2436300D01*
X3059340Y-2409940D02*
X3059340Y-2282660D01*
X2932060Y-2282660D01*
X2932060Y-2409940D01*
X3059340Y-2409940D01*
X3495700Y-2436300D02*
X3585700Y-2346300D01*
X3495700Y-2256300D01*
X3405700Y-2346300D01*
X3495700Y-2436300D01*
X3559340Y-2409940D02*
X3559340Y-2282660D01*
X3432060Y-2282660D01*
X3432060Y-2409940D01*
X3559340Y-2409940D01*
X3995700Y-2436300D02*
X4085700Y-2346300D01*
X3995700Y-2256300D01*
X3905700Y-2346300D01*
X3995700Y-2436300D01*
X4059340Y-2409940D02*
X4059340Y-2282660D01*
X3932060Y-2282660D01*
X3932060Y-2409940D01*
X4059340Y-2409940D01*
X4522000Y-2437340D02*
X4612000Y-2347340D01*
X4522000Y-2257340D01*
X4432000Y-2347340D01*
X4522000Y-2437340D01*
X4585640Y-2410980D02*
X4585640Y-2283700D01*
X4458360Y-2283700D01*
X4458360Y-2410980D01*
X4585640Y-2410980D01*
X4826000Y-4862900D02*
X4916000Y-4772900D01*
X4826000Y-4682900D01*
X4736000Y-4772900D01*
X4826000Y-4862900D01*
X4889640Y-4836540D02*
X4889640Y-4709260D01*
X4762360Y-4709260D01*
X4762360Y-4836540D01*
X4889640Y-4836540D01*
X4826000Y-5258900D02*
X4916000Y-5168900D01*
X4826000Y-5078900D01*
X4736000Y-5168900D01*
X4826000Y-5258900D01*
X4889640Y-5232540D02*
X4889640Y-5105260D01*
X4762360Y-5105260D01*
X4762360Y-5232540D01*
X4889640Y-5232540D01*
X5022000Y-2437340D02*
X5112000Y-2347340D01*
X5022000Y-2257340D01*
X4932000Y-2347340D01*
X5022000Y-2437340D01*
X5085640Y-2410980D02*
X5085640Y-2283700D01*
X4958360Y-2283700D01*
X4958360Y-2410980D01*
X5085640Y-2410980D01*
D11*
X4713300Y-3222800D02*
X4913300Y-3422800D01*
X4913300Y-3222800D02*
X4713300Y-3422800D01*
X4813300Y-3222800D02*
X4813300Y-3422800D01*
X4713300Y-3322800D02*
X4913300Y-3322800D01*
X4913300Y-3322800D02*
G75*
G03*
X4913300Y-3322800I-100000J0D01*
G01*
X4713300Y-4014800D02*
X4913300Y-4214800D01*
X4913300Y-4014800D02*
X4713300Y-4214800D01*
X4813300Y-4014800D02*
X4813300Y-4214800D01*
X4713300Y-4114800D02*
X4913300Y-4114800D01*
X4913300Y-4114800D02*
G75*
G03*
X4913300Y-4114800I-100000J0D01*
G01*
D27*
X2035000Y-2085000D02*
X2365000Y-2415000D01*
X2365000Y-2085000D02*
X2035000Y-2415000D01*
X2316674Y-2366674D02*
X2316674Y-2133326D01*
X2083326Y-2133326D01*
X2083326Y-2366674D01*
X2316674Y-2366674D01*
X2365000Y-2250000D02*
G75*
G03*
X2365000Y-2250000I-165000J0D01*
G01*
X2035000Y-10235000D02*
X2365000Y-10565000D01*
X2365000Y-10235000D02*
X2035000Y-10565000D01*
X2316674Y-10516674D02*
X2316674Y-10283326D01*
X2083326Y-10283326D01*
X2083326Y-10516674D01*
X2316674Y-10516674D01*
X2365000Y-10400000D02*
G75*
G03*
X2365000Y-10400000I-165000J0D01*
G01*
X10035000Y-2085000D02*
X10365000Y-2415000D01*
X10365000Y-2085000D02*
X10035000Y-2415000D01*
X10316674Y-2366674D02*
X10316674Y-2133326D01*
X10083326Y-2133326D01*
X10083326Y-2366674D01*
X10316674Y-2366674D01*
X10365000Y-2250000D02*
G75*
G03*
X10365000Y-2250000I-165000J0D01*
G01*
X10035000Y-10235000D02*
X10365000Y-10565000D01*
X10365000Y-10235000D02*
X10035000Y-10565000D01*
X10316674Y-10516674D02*
X10316674Y-10283326D01*
X10083326Y-10283326D01*
X10083326Y-10516674D01*
X10316674Y-10516674D01*
X10365000Y-10400000D02*
G75*
G03*
X10365000Y-10400000I-165000J0D01*
G01*
D11*
X1955119Y-11212976D02*
X1955119Y-11012976D01*
X2002738Y-11012976D01*
X2031309Y-11022500D01*
X2050357Y-11041548D01*
X2059881Y-11060595D01*
X2069405Y-11098690D01*
X2069405Y-11127262D01*
X2059881Y-11165357D01*
X2050357Y-11184405D01*
X2031309Y-11203452D01*
X2002738Y-11212976D01*
X1955119Y-11212976D01*
X2155119Y-11212976D02*
X2155119Y-11079643D01*
X2155119Y-11117738D02*
X2164643Y-11098690D01*
X2174167Y-11089167D01*
X2193214Y-11079643D01*
X2212262Y-11079643D01*
X2278929Y-11212976D02*
X2278929Y-11079643D01*
X2278929Y-11012976D02*
X2269405Y-11022500D01*
X2278929Y-11032024D01*
X2288452Y-11022500D01*
X2278929Y-11012976D01*
X2278929Y-11032024D01*
X2402738Y-11212976D02*
X2383690Y-11203452D01*
X2374167Y-11184405D01*
X2374167Y-11012976D01*
X2507500Y-11212976D02*
X2488452Y-11203452D01*
X2478929Y-11184405D01*
X2478929Y-11012976D01*
X2736071Y-11212976D02*
X2736071Y-11012976D01*
X2802738Y-11155833D01*
X2869405Y-11012976D01*
X2869405Y-11212976D01*
X3050357Y-11212976D02*
X3050357Y-11108214D01*
X3040833Y-11089167D01*
X3021786Y-11079643D01*
X2983690Y-11079643D01*
X2964643Y-11089167D01*
X3050357Y-11203452D02*
X3031309Y-11212976D01*
X2983690Y-11212976D01*
X2964643Y-11203452D01*
X2955119Y-11184405D01*
X2955119Y-11165357D01*
X2964643Y-11146310D01*
X2983690Y-11136786D01*
X3031309Y-11136786D01*
X3050357Y-11127262D01*
X3145595Y-11079643D02*
X3145595Y-11279643D01*
X3145595Y-11089167D02*
X3164643Y-11079643D01*
X3202738Y-11079643D01*
X3221786Y-11089167D01*
X3231309Y-11098690D01*
X3240833Y-11117738D01*
X3240833Y-11174881D01*
X3231309Y-11193928D01*
X3221786Y-11203452D01*
X3202738Y-11212976D01*
X3164643Y-11212976D01*
X3145595Y-11203452D01*
X3326548Y-11193928D02*
X3336071Y-11203452D01*
X3326548Y-11212976D01*
X3317024Y-11203452D01*
X3326548Y-11193928D01*
X3326548Y-11212976D01*
X3326548Y-11089167D02*
X3336071Y-11098690D01*
X3326548Y-11108214D01*
X3317024Y-11098690D01*
X3326548Y-11089167D01*
X3326548Y-11108214D01*
D12*
X1657500Y-11522500D02*
X1697500Y-11562500D01*
X1697500Y-11522500D02*
X1657500Y-11562500D01*
D11*
X1993214Y-11432976D02*
X2012262Y-11432976D01*
X2031309Y-11442500D01*
X2040833Y-11452024D01*
X2050357Y-11471071D01*
X2059881Y-11509167D01*
X2059881Y-11556786D01*
X2050357Y-11594881D01*
X2040833Y-11613928D01*
X2031309Y-11623452D01*
X2012262Y-11632976D01*
X1993214Y-11632976D01*
X1974167Y-11623452D01*
X1964643Y-11613928D01*
X1955119Y-11594881D01*
X1945595Y-11556786D01*
X1945595Y-11509167D01*
X1955119Y-11471071D01*
X1964643Y-11452024D01*
X1974167Y-11442500D01*
X1993214Y-11432976D01*
X2145595Y-11613928D02*
X2155119Y-11623452D01*
X2145595Y-11632976D01*
X2136071Y-11623452D01*
X2145595Y-11613928D01*
X2145595Y-11632976D01*
X2326548Y-11499643D02*
X2326548Y-11632976D01*
X2278929Y-11423452D02*
X2231310Y-11566309D01*
X2355119Y-11566309D01*
X2469405Y-11432976D02*
X2488452Y-11432976D01*
X2507500Y-11442500D01*
X2517024Y-11452024D01*
X2526548Y-11471071D01*
X2536071Y-11509167D01*
X2536071Y-11556786D01*
X2526548Y-11594881D01*
X2517024Y-11613928D01*
X2507500Y-11623452D01*
X2488452Y-11632976D01*
X2469405Y-11632976D01*
X2450357Y-11623452D01*
X2440833Y-11613928D01*
X2431310Y-11594881D01*
X2421786Y-11556786D01*
X2421786Y-11509167D01*
X2431310Y-11471071D01*
X2440833Y-11452024D01*
X2450357Y-11442500D01*
X2469405Y-11432976D01*
X2659881Y-11432976D02*
X2678929Y-11432976D01*
X2697976Y-11442500D01*
X2707500Y-11452024D01*
X2717024Y-11471071D01*
X2726548Y-11509167D01*
X2726548Y-11556786D01*
X2717024Y-11594881D01*
X2707500Y-11613928D01*
X2697976Y-11623452D01*
X2678929Y-11632976D01*
X2659881Y-11632976D01*
X2640833Y-11623452D01*
X2631310Y-11613928D01*
X2621786Y-11594881D01*
X2612262Y-11556786D01*
X2612262Y-11509167D01*
X2621786Y-11471071D01*
X2631310Y-11452024D01*
X2640833Y-11442500D01*
X2659881Y-11432976D01*
X2812262Y-11632976D02*
X2812262Y-11499643D01*
X2812262Y-11518690D02*
X2821786Y-11509167D01*
X2840833Y-11499643D01*
X2869405Y-11499643D01*
X2888452Y-11509167D01*
X2897976Y-11528214D01*
X2897976Y-11632976D01*
X2897976Y-11528214D02*
X2907500Y-11509167D01*
X2926548Y-11499643D01*
X2955119Y-11499643D01*
X2974167Y-11509167D01*
X2983690Y-11528214D01*
X2983690Y-11632976D01*
X3078928Y-11632976D02*
X3078928Y-11499643D01*
X3078928Y-11518690D02*
X3088452Y-11509167D01*
X3107500Y-11499643D01*
X3136071Y-11499643D01*
X3155119Y-11509167D01*
X3164643Y-11528214D01*
X3164643Y-11632976D01*
X3164643Y-11528214D02*
X3174167Y-11509167D01*
X3193214Y-11499643D01*
X3221786Y-11499643D01*
X3240833Y-11509167D01*
X3250357Y-11528214D01*
X3250357Y-11632976D01*
X3640833Y-11423452D02*
X3469405Y-11680595D01*
X3897976Y-11432976D02*
X3917024Y-11432976D01*
X3936071Y-11442500D01*
X3945595Y-11452024D01*
X3955119Y-11471071D01*
X3964643Y-11509167D01*
X3964643Y-11556786D01*
X3955119Y-11594881D01*
X3945595Y-11613928D01*
X3936071Y-11623452D01*
X3917024Y-11632976D01*
X3897976Y-11632976D01*
X3878928Y-11623452D01*
X3869405Y-11613928D01*
X3859881Y-11594881D01*
X3850357Y-11556786D01*
X3850357Y-11509167D01*
X3859881Y-11471071D01*
X3869405Y-11452024D01*
X3878928Y-11442500D01*
X3897976Y-11432976D01*
X4050357Y-11613928D02*
X4059881Y-11623452D01*
X4050357Y-11632976D01*
X4040833Y-11623452D01*
X4050357Y-11613928D01*
X4050357Y-11632976D01*
X4183690Y-11432976D02*
X4202738Y-11432976D01*
X4221786Y-11442500D01*
X4231310Y-11452024D01*
X4240833Y-11471071D01*
X4250357Y-11509167D01*
X4250357Y-11556786D01*
X4240833Y-11594881D01*
X4231310Y-11613928D01*
X4221786Y-11623452D01*
X4202738Y-11632976D01*
X4183690Y-11632976D01*
X4164643Y-11623452D01*
X4155119Y-11613928D01*
X4145595Y-11594881D01*
X4136071Y-11556786D01*
X4136071Y-11509167D01*
X4145595Y-11471071D01*
X4155119Y-11452024D01*
X4164643Y-11442500D01*
X4183690Y-11432976D01*
X4440833Y-11632976D02*
X4326548Y-11632976D01*
X4383690Y-11632976D02*
X4383690Y-11432976D01*
X4364643Y-11461548D01*
X4345595Y-11480595D01*
X4326548Y-11490119D01*
X4621786Y-11432976D02*
X4526548Y-11432976D01*
X4517024Y-11528214D01*
X4526548Y-11518690D01*
X4545595Y-11509167D01*
X4593214Y-11509167D01*
X4612262Y-11518690D01*
X4621786Y-11528214D01*
X4631310Y-11547262D01*
X4631310Y-11594881D01*
X4621786Y-11613928D01*
X4612262Y-11623452D01*
X4593214Y-11632976D01*
X4545595Y-11632976D01*
X4526548Y-11623452D01*
X4517024Y-11613928D01*
X4697976Y-11432976D02*
X4831310Y-11432976D01*
X4745595Y-11632976D01*
X4897976Y-11432976D02*
X4897976Y-11471071D01*
X4974167Y-11432976D02*
X4974167Y-11471071D01*
X5269405Y-11709167D02*
X5259881Y-11699643D01*
X5240833Y-11671071D01*
X5231310Y-11652024D01*
X5221786Y-11623452D01*
X5212262Y-11575833D01*
X5212262Y-11537738D01*
X5221786Y-11490119D01*
X5231310Y-11461548D01*
X5240833Y-11442500D01*
X5259881Y-11413928D01*
X5269405Y-11404405D01*
X5326548Y-11432976D02*
X5459881Y-11432976D01*
X5374167Y-11632976D01*
X5574167Y-11432976D02*
X5593214Y-11432976D01*
X5612262Y-11442500D01*
X5621786Y-11452024D01*
X5631309Y-11471071D01*
X5640833Y-11509167D01*
X5640833Y-11556786D01*
X5631309Y-11594881D01*
X5621786Y-11613928D01*
X5612262Y-11623452D01*
X5593214Y-11632976D01*
X5574167Y-11632976D01*
X5555119Y-11623452D01*
X5545595Y-11613928D01*
X5536071Y-11594881D01*
X5526548Y-11556786D01*
X5526548Y-11509167D01*
X5536071Y-11471071D01*
X5545595Y-11452024D01*
X5555119Y-11442500D01*
X5574167Y-11432976D01*
X5878928Y-11632976D02*
X5878928Y-11432976D01*
X5964643Y-11632976D02*
X5964643Y-11528214D01*
X5955119Y-11509167D01*
X5936071Y-11499643D01*
X5907500Y-11499643D01*
X5888452Y-11509167D01*
X5878928Y-11518690D01*
X6088452Y-11632976D02*
X6069405Y-11623452D01*
X6059881Y-11613928D01*
X6050357Y-11594881D01*
X6050357Y-11537738D01*
X6059881Y-11518690D01*
X6069405Y-11509167D01*
X6088452Y-11499643D01*
X6117024Y-11499643D01*
X6136071Y-11509167D01*
X6145595Y-11518690D01*
X6155119Y-11537738D01*
X6155119Y-11594881D01*
X6145595Y-11613928D01*
X6136071Y-11623452D01*
X6117024Y-11632976D01*
X6088452Y-11632976D01*
X6269405Y-11632976D02*
X6250357Y-11623452D01*
X6240833Y-11604405D01*
X6240833Y-11432976D01*
X6421786Y-11623452D02*
X6402738Y-11632976D01*
X6364643Y-11632976D01*
X6345595Y-11623452D01*
X6336071Y-11604405D01*
X6336071Y-11528214D01*
X6345595Y-11509167D01*
X6364643Y-11499643D01*
X6402738Y-11499643D01*
X6421786Y-11509167D01*
X6431309Y-11528214D01*
X6431309Y-11547262D01*
X6336071Y-11566309D01*
X6507500Y-11623452D02*
X6526548Y-11632976D01*
X6564643Y-11632976D01*
X6583690Y-11623452D01*
X6593214Y-11604405D01*
X6593214Y-11594881D01*
X6583690Y-11575833D01*
X6564643Y-11566309D01*
X6536071Y-11566309D01*
X6517024Y-11556786D01*
X6507500Y-11537738D01*
X6507500Y-11528214D01*
X6517024Y-11509167D01*
X6536071Y-11499643D01*
X6564643Y-11499643D01*
X6583690Y-11509167D01*
X6659881Y-11709167D02*
X6669405Y-11699643D01*
X6688452Y-11671071D01*
X6697976Y-11652024D01*
X6707500Y-11623452D01*
X6717024Y-11575833D01*
X6717024Y-11537738D01*
X6707500Y-11490119D01*
X6697976Y-11461548D01*
X6688452Y-11442500D01*
X6669405Y-11413928D01*
X6659881Y-11404405D01*
D13*
X1697500Y-11806500D02*
G75*
G03*
X1697500Y-11806500I-25000J0D01*
G01*
D11*
X1993214Y-11696976D02*
X2012262Y-11696976D01*
X2031309Y-11706500D01*
X2040833Y-11716024D01*
X2050357Y-11735071D01*
X2059881Y-11773167D01*
X2059881Y-11820786D01*
X2050357Y-11858881D01*
X2040833Y-11877928D01*
X2031309Y-11887452D01*
X2012262Y-11896976D01*
X1993214Y-11896976D01*
X1974167Y-11887452D01*
X1964643Y-11877928D01*
X1955119Y-11858881D01*
X1945595Y-11820786D01*
X1945595Y-11773167D01*
X1955119Y-11735071D01*
X1964643Y-11716024D01*
X1974167Y-11706500D01*
X1993214Y-11696976D01*
X2145595Y-11877928D02*
X2155119Y-11887452D01*
X2145595Y-11896976D01*
X2136071Y-11887452D01*
X2145595Y-11877928D01*
X2145595Y-11896976D01*
X2336071Y-11696976D02*
X2240833Y-11696976D01*
X2231310Y-11792214D01*
X2240833Y-11782690D01*
X2259881Y-11773167D01*
X2307500Y-11773167D01*
X2326548Y-11782690D01*
X2336071Y-11792214D01*
X2345595Y-11811262D01*
X2345595Y-11858881D01*
X2336071Y-11877928D01*
X2326548Y-11887452D01*
X2307500Y-11896976D01*
X2259881Y-11896976D01*
X2240833Y-11887452D01*
X2231310Y-11877928D01*
X2469405Y-11696976D02*
X2488452Y-11696976D01*
X2507500Y-11706500D01*
X2517024Y-11716024D01*
X2526548Y-11735071D01*
X2536071Y-11773167D01*
X2536071Y-11820786D01*
X2526548Y-11858881D01*
X2517024Y-11877928D01*
X2507500Y-11887452D01*
X2488452Y-11896976D01*
X2469405Y-11896976D01*
X2450357Y-11887452D01*
X2440833Y-11877928D01*
X2431310Y-11858881D01*
X2421786Y-11820786D01*
X2421786Y-11773167D01*
X2431310Y-11735071D01*
X2440833Y-11716024D01*
X2450357Y-11706500D01*
X2469405Y-11696976D01*
X2659881Y-11696976D02*
X2678929Y-11696976D01*
X2697976Y-11706500D01*
X2707500Y-11716024D01*
X2717024Y-11735071D01*
X2726548Y-11773167D01*
X2726548Y-11820786D01*
X2717024Y-11858881D01*
X2707500Y-11877928D01*
X2697976Y-11887452D01*
X2678929Y-11896976D01*
X2659881Y-11896976D01*
X2640833Y-11887452D01*
X2631310Y-11877928D01*
X2621786Y-11858881D01*
X2612262Y-11820786D01*
X2612262Y-11773167D01*
X2621786Y-11735071D01*
X2631310Y-11716024D01*
X2640833Y-11706500D01*
X2659881Y-11696976D01*
X2812262Y-11896976D02*
X2812262Y-11763643D01*
X2812262Y-11782690D02*
X2821786Y-11773167D01*
X2840833Y-11763643D01*
X2869405Y-11763643D01*
X2888452Y-11773167D01*
X2897976Y-11792214D01*
X2897976Y-11896976D01*
X2897976Y-11792214D02*
X2907500Y-11773167D01*
X2926548Y-11763643D01*
X2955119Y-11763643D01*
X2974167Y-11773167D01*
X2983690Y-11792214D01*
X2983690Y-11896976D01*
X3078928Y-11896976D02*
X3078928Y-11763643D01*
X3078928Y-11782690D02*
X3088452Y-11773167D01*
X3107500Y-11763643D01*
X3136071Y-11763643D01*
X3155119Y-11773167D01*
X3164643Y-11792214D01*
X3164643Y-11896976D01*
X3164643Y-11792214D02*
X3174167Y-11773167D01*
X3193214Y-11763643D01*
X3221786Y-11763643D01*
X3240833Y-11773167D01*
X3250357Y-11792214D01*
X3250357Y-11896976D01*
X3640833Y-11687452D02*
X3469405Y-11944595D01*
X3897976Y-11696976D02*
X3917024Y-11696976D01*
X3936071Y-11706500D01*
X3945595Y-11716024D01*
X3955119Y-11735071D01*
X3964643Y-11773167D01*
X3964643Y-11820786D01*
X3955119Y-11858881D01*
X3945595Y-11877928D01*
X3936071Y-11887452D01*
X3917024Y-11896976D01*
X3897976Y-11896976D01*
X3878928Y-11887452D01*
X3869405Y-11877928D01*
X3859881Y-11858881D01*
X3850357Y-11820786D01*
X3850357Y-11773167D01*
X3859881Y-11735071D01*
X3869405Y-11716024D01*
X3878928Y-11706500D01*
X3897976Y-11696976D01*
X4050357Y-11877928D02*
X4059881Y-11887452D01*
X4050357Y-11896976D01*
X4040833Y-11887452D01*
X4050357Y-11877928D01*
X4050357Y-11896976D01*
X4183690Y-11696976D02*
X4202738Y-11696976D01*
X4221786Y-11706500D01*
X4231310Y-11716024D01*
X4240833Y-11735071D01*
X4250357Y-11773167D01*
X4250357Y-11820786D01*
X4240833Y-11858881D01*
X4231310Y-11877928D01*
X4221786Y-11887452D01*
X4202738Y-11896976D01*
X4183690Y-11896976D01*
X4164643Y-11887452D01*
X4155119Y-11877928D01*
X4145595Y-11858881D01*
X4136071Y-11820786D01*
X4136071Y-11773167D01*
X4145595Y-11735071D01*
X4155119Y-11716024D01*
X4164643Y-11706500D01*
X4183690Y-11696976D01*
X4440833Y-11896976D02*
X4326548Y-11896976D01*
X4383690Y-11896976D02*
X4383690Y-11696976D01*
X4364643Y-11725548D01*
X4345595Y-11744595D01*
X4326548Y-11754119D01*
X4536071Y-11896976D02*
X4574167Y-11896976D01*
X4593214Y-11887452D01*
X4602738Y-11877928D01*
X4621786Y-11849357D01*
X4631310Y-11811262D01*
X4631310Y-11735071D01*
X4621786Y-11716024D01*
X4612262Y-11706500D01*
X4593214Y-11696976D01*
X4555119Y-11696976D01*
X4536071Y-11706500D01*
X4526548Y-11716024D01*
X4517024Y-11735071D01*
X4517024Y-11782690D01*
X4526548Y-11801738D01*
X4536071Y-11811262D01*
X4555119Y-11820786D01*
X4593214Y-11820786D01*
X4612262Y-11811262D01*
X4621786Y-11801738D01*
X4631310Y-11782690D01*
X4697976Y-11696976D02*
X4831310Y-11696976D01*
X4745595Y-11896976D01*
X4897976Y-11696976D02*
X4897976Y-11735071D01*
X4974167Y-11696976D02*
X4974167Y-11735071D01*
X5269405Y-11973167D02*
X5259881Y-11963643D01*
X5240833Y-11935071D01*
X5231310Y-11916024D01*
X5221786Y-11887452D01*
X5212262Y-11839833D01*
X5212262Y-11801738D01*
X5221786Y-11754119D01*
X5231310Y-11725548D01*
X5240833Y-11706500D01*
X5259881Y-11677928D01*
X5269405Y-11668405D01*
X5450357Y-11896976D02*
X5336071Y-11896976D01*
X5393214Y-11896976D02*
X5393214Y-11696976D01*
X5374167Y-11725548D01*
X5355119Y-11744595D01*
X5336071Y-11754119D01*
X5621786Y-11763643D02*
X5621786Y-11896976D01*
X5574167Y-11687452D02*
X5526548Y-11830309D01*
X5650357Y-11830309D01*
X5878928Y-11896976D02*
X5878928Y-11696976D01*
X5964643Y-11896976D02*
X5964643Y-11792214D01*
X5955119Y-11773167D01*
X5936071Y-11763643D01*
X5907500Y-11763643D01*
X5888452Y-11773167D01*
X5878928Y-11782690D01*
X6088452Y-11896976D02*
X6069405Y-11887452D01*
X6059881Y-11877928D01*
X6050357Y-11858881D01*
X6050357Y-11801738D01*
X6059881Y-11782690D01*
X6069405Y-11773167D01*
X6088452Y-11763643D01*
X6117024Y-11763643D01*
X6136071Y-11773167D01*
X6145595Y-11782690D01*
X6155119Y-11801738D01*
X6155119Y-11858881D01*
X6145595Y-11877928D01*
X6136071Y-11887452D01*
X6117024Y-11896976D01*
X6088452Y-11896976D01*
X6269405Y-11896976D02*
X6250357Y-11887452D01*
X6240833Y-11868405D01*
X6240833Y-11696976D01*
X6421786Y-11887452D02*
X6402738Y-11896976D01*
X6364643Y-11896976D01*
X6345595Y-11887452D01*
X6336071Y-11868405D01*
X6336071Y-11792214D01*
X6345595Y-11773167D01*
X6364643Y-11763643D01*
X6402738Y-11763643D01*
X6421786Y-11773167D01*
X6431309Y-11792214D01*
X6431309Y-11811262D01*
X6336071Y-11830309D01*
X6507500Y-11887452D02*
X6526548Y-11896976D01*
X6564643Y-11896976D01*
X6583690Y-11887452D01*
X6593214Y-11868405D01*
X6593214Y-11858881D01*
X6583690Y-11839833D01*
X6564643Y-11830309D01*
X6536071Y-11830309D01*
X6517024Y-11820786D01*
X6507500Y-11801738D01*
X6507500Y-11792214D01*
X6517024Y-11773167D01*
X6536071Y-11763643D01*
X6564643Y-11763643D01*
X6583690Y-11773167D01*
X6659881Y-11973167D02*
X6669405Y-11963643D01*
X6688452Y-11935071D01*
X6697976Y-11916024D01*
X6707500Y-11887452D01*
X6717024Y-11839833D01*
X6717024Y-11801738D01*
X6707500Y-11754119D01*
X6697976Y-11725548D01*
X6688452Y-11706500D01*
X6669405Y-11677928D01*
X6659881Y-11668405D01*
D14*
X1667500Y-12040500D02*
X1667500Y-12100500D01*
X1637500Y-12070500D02*
X1697500Y-12070500D01*
D11*
X1993214Y-11960976D02*
X2012262Y-11960976D01*
X2031309Y-11970500D01*
X2040833Y-11980024D01*
X2050357Y-11999071D01*
X2059881Y-12037167D01*
X2059881Y-12084786D01*
X2050357Y-12122881D01*
X2040833Y-12141928D01*
X2031309Y-12151452D01*
X2012262Y-12160976D01*
X1993214Y-12160976D01*
X1974167Y-12151452D01*
X1964643Y-12141928D01*
X1955119Y-12122881D01*
X1945595Y-12084786D01*
X1945595Y-12037167D01*
X1955119Y-11999071D01*
X1964643Y-11980024D01*
X1974167Y-11970500D01*
X1993214Y-11960976D01*
X2145595Y-12141928D02*
X2155119Y-12151452D01*
X2145595Y-12160976D01*
X2136071Y-12151452D01*
X2145595Y-12141928D01*
X2145595Y-12160976D01*
X2326548Y-11960976D02*
X2288452Y-11960976D01*
X2269405Y-11970500D01*
X2259881Y-11980024D01*
X2240833Y-12008595D01*
X2231310Y-12046690D01*
X2231310Y-12122881D01*
X2240833Y-12141928D01*
X2250357Y-12151452D01*
X2269405Y-12160976D01*
X2307500Y-12160976D01*
X2326548Y-12151452D01*
X2336071Y-12141928D01*
X2345595Y-12122881D01*
X2345595Y-12075262D01*
X2336071Y-12056214D01*
X2326548Y-12046690D01*
X2307500Y-12037167D01*
X2269405Y-12037167D01*
X2250357Y-12046690D01*
X2240833Y-12056214D01*
X2231310Y-12075262D01*
X2469405Y-11960976D02*
X2488452Y-11960976D01*
X2507500Y-11970500D01*
X2517024Y-11980024D01*
X2526548Y-11999071D01*
X2536071Y-12037167D01*
X2536071Y-12084786D01*
X2526548Y-12122881D01*
X2517024Y-12141928D01*
X2507500Y-12151452D01*
X2488452Y-12160976D01*
X2469405Y-12160976D01*
X2450357Y-12151452D01*
X2440833Y-12141928D01*
X2431310Y-12122881D01*
X2421786Y-12084786D01*
X2421786Y-12037167D01*
X2431310Y-11999071D01*
X2440833Y-11980024D01*
X2450357Y-11970500D01*
X2469405Y-11960976D01*
X2659881Y-11960976D02*
X2678929Y-11960976D01*
X2697976Y-11970500D01*
X2707500Y-11980024D01*
X2717024Y-11999071D01*
X2726548Y-12037167D01*
X2726548Y-12084786D01*
X2717024Y-12122881D01*
X2707500Y-12141928D01*
X2697976Y-12151452D01*
X2678929Y-12160976D01*
X2659881Y-12160976D01*
X2640833Y-12151452D01*
X2631310Y-12141928D01*
X2621786Y-12122881D01*
X2612262Y-12084786D01*
X2612262Y-12037167D01*
X2621786Y-11999071D01*
X2631310Y-11980024D01*
X2640833Y-11970500D01*
X2659881Y-11960976D01*
X2812262Y-12160976D02*
X2812262Y-12027643D01*
X2812262Y-12046690D02*
X2821786Y-12037167D01*
X2840833Y-12027643D01*
X2869405Y-12027643D01*
X2888452Y-12037167D01*
X2897976Y-12056214D01*
X2897976Y-12160976D01*
X2897976Y-12056214D02*
X2907500Y-12037167D01*
X2926548Y-12027643D01*
X2955119Y-12027643D01*
X2974167Y-12037167D01*
X2983690Y-12056214D01*
X2983690Y-12160976D01*
X3078928Y-12160976D02*
X3078928Y-12027643D01*
X3078928Y-12046690D02*
X3088452Y-12037167D01*
X3107500Y-12027643D01*
X3136071Y-12027643D01*
X3155119Y-12037167D01*
X3164643Y-12056214D01*
X3164643Y-12160976D01*
X3164643Y-12056214D02*
X3174167Y-12037167D01*
X3193214Y-12027643D01*
X3221786Y-12027643D01*
X3240833Y-12037167D01*
X3250357Y-12056214D01*
X3250357Y-12160976D01*
X3640833Y-11951452D02*
X3469405Y-12208595D01*
X3897976Y-11960976D02*
X3917024Y-11960976D01*
X3936071Y-11970500D01*
X3945595Y-11980024D01*
X3955119Y-11999071D01*
X3964643Y-12037167D01*
X3964643Y-12084786D01*
X3955119Y-12122881D01*
X3945595Y-12141928D01*
X3936071Y-12151452D01*
X3917024Y-12160976D01*
X3897976Y-12160976D01*
X3878928Y-12151452D01*
X3869405Y-12141928D01*
X3859881Y-12122881D01*
X3850357Y-12084786D01*
X3850357Y-12037167D01*
X3859881Y-11999071D01*
X3869405Y-11980024D01*
X3878928Y-11970500D01*
X3897976Y-11960976D01*
X4050357Y-12141928D02*
X4059881Y-12151452D01*
X4050357Y-12160976D01*
X4040833Y-12151452D01*
X4050357Y-12141928D01*
X4050357Y-12160976D01*
X4183690Y-11960976D02*
X4202738Y-11960976D01*
X4221786Y-11970500D01*
X4231310Y-11980024D01*
X4240833Y-11999071D01*
X4250357Y-12037167D01*
X4250357Y-12084786D01*
X4240833Y-12122881D01*
X4231310Y-12141928D01*
X4221786Y-12151452D01*
X4202738Y-12160976D01*
X4183690Y-12160976D01*
X4164643Y-12151452D01*
X4155119Y-12141928D01*
X4145595Y-12122881D01*
X4136071Y-12084786D01*
X4136071Y-12037167D01*
X4145595Y-11999071D01*
X4155119Y-11980024D01*
X4164643Y-11970500D01*
X4183690Y-11960976D01*
X4326548Y-11980024D02*
X4336071Y-11970500D01*
X4355119Y-11960976D01*
X4402738Y-11960976D01*
X4421786Y-11970500D01*
X4431310Y-11980024D01*
X4440833Y-11999071D01*
X4440833Y-12018119D01*
X4431310Y-12046690D01*
X4317024Y-12160976D01*
X4440833Y-12160976D01*
X4507500Y-11960976D02*
X4631310Y-11960976D01*
X4564643Y-12037167D01*
X4593214Y-12037167D01*
X4612262Y-12046690D01*
X4621786Y-12056214D01*
X4631310Y-12075262D01*
X4631310Y-12122881D01*
X4621786Y-12141928D01*
X4612262Y-12151452D01*
X4593214Y-12160976D01*
X4536071Y-12160976D01*
X4517024Y-12151452D01*
X4507500Y-12141928D01*
X4802738Y-11960976D02*
X4764643Y-11960976D01*
X4745595Y-11970500D01*
X4736071Y-11980024D01*
X4717024Y-12008595D01*
X4707500Y-12046690D01*
X4707500Y-12122881D01*
X4717024Y-12141928D01*
X4726548Y-12151452D01*
X4745595Y-12160976D01*
X4783690Y-12160976D01*
X4802738Y-12151452D01*
X4812262Y-12141928D01*
X4821786Y-12122881D01*
X4821786Y-12075262D01*
X4812262Y-12056214D01*
X4802738Y-12046690D01*
X4783690Y-12037167D01*
X4745595Y-12037167D01*
X4726548Y-12046690D01*
X4717024Y-12056214D01*
X4707500Y-12075262D01*
X4897976Y-11960976D02*
X4897976Y-11999071D01*
X4974167Y-11960976D02*
X4974167Y-11999071D01*
X5269405Y-12237167D02*
X5259881Y-12227643D01*
X5240833Y-12199071D01*
X5231310Y-12180024D01*
X5221786Y-12151452D01*
X5212262Y-12103833D01*
X5212262Y-12065738D01*
X5221786Y-12018119D01*
X5231310Y-11989548D01*
X5240833Y-11970500D01*
X5259881Y-11941928D01*
X5269405Y-11932405D01*
X5450357Y-12160976D02*
X5336071Y-12160976D01*
X5393214Y-12160976D02*
X5393214Y-11960976D01*
X5374167Y-11989548D01*
X5355119Y-12008595D01*
X5336071Y-12018119D01*
X5688452Y-12160976D02*
X5688452Y-11960976D01*
X5774167Y-12160976D02*
X5774167Y-12056214D01*
X5764643Y-12037167D01*
X5745595Y-12027643D01*
X5717024Y-12027643D01*
X5697976Y-12037167D01*
X5688452Y-12046690D01*
X5897976Y-12160976D02*
X5878928Y-12151452D01*
X5869405Y-12141928D01*
X5859881Y-12122881D01*
X5859881Y-12065738D01*
X5869405Y-12046690D01*
X5878928Y-12037167D01*
X5897976Y-12027643D01*
X5926548Y-12027643D01*
X5945595Y-12037167D01*
X5955119Y-12046690D01*
X5964643Y-12065738D01*
X5964643Y-12122881D01*
X5955119Y-12141928D01*
X5945595Y-12151452D01*
X5926548Y-12160976D01*
X5897976Y-12160976D01*
X6078928Y-12160976D02*
X6059881Y-12151452D01*
X6050357Y-12132405D01*
X6050357Y-11960976D01*
X6231309Y-12151452D02*
X6212262Y-12160976D01*
X6174167Y-12160976D01*
X6155119Y-12151452D01*
X6145595Y-12132405D01*
X6145595Y-12056214D01*
X6155119Y-12037167D01*
X6174167Y-12027643D01*
X6212262Y-12027643D01*
X6231309Y-12037167D01*
X6240833Y-12056214D01*
X6240833Y-12075262D01*
X6145595Y-12094309D01*
X6307500Y-12237167D02*
X6317024Y-12227643D01*
X6336071Y-12199071D01*
X6345595Y-12180024D01*
X6355119Y-12151452D01*
X6364643Y-12103833D01*
X6364643Y-12065738D01*
X6355119Y-12018119D01*
X6345595Y-11989548D01*
X6336071Y-11970500D01*
X6317024Y-11941928D01*
X6307500Y-11932405D01*
D15*
X1687249Y-12359249D02*
X1687249Y-12309751D01*
X1637751Y-12309751D01*
X1637751Y-12359249D01*
X1687249Y-12359249D01*
D11*
X1993214Y-12224976D02*
X2012262Y-12224976D01*
X2031309Y-12234500D01*
X2040833Y-12244024D01*
X2050357Y-12263071D01*
X2059881Y-12301167D01*
X2059881Y-12348786D01*
X2050357Y-12386881D01*
X2040833Y-12405928D01*
X2031309Y-12415452D01*
X2012262Y-12424976D01*
X1993214Y-12424976D01*
X1974167Y-12415452D01*
X1964643Y-12405928D01*
X1955119Y-12386881D01*
X1945595Y-12348786D01*
X1945595Y-12301167D01*
X1955119Y-12263071D01*
X1964643Y-12244024D01*
X1974167Y-12234500D01*
X1993214Y-12224976D01*
X2145595Y-12405928D02*
X2155119Y-12415452D01*
X2145595Y-12424976D01*
X2136071Y-12415452D01*
X2145595Y-12405928D01*
X2145595Y-12424976D01*
X2221786Y-12224976D02*
X2355119Y-12224976D01*
X2269405Y-12424976D01*
X2469405Y-12224976D02*
X2488452Y-12224976D01*
X2507500Y-12234500D01*
X2517024Y-12244024D01*
X2526548Y-12263071D01*
X2536071Y-12301167D01*
X2536071Y-12348786D01*
X2526548Y-12386881D01*
X2517024Y-12405928D01*
X2507500Y-12415452D01*
X2488452Y-12424976D01*
X2469405Y-12424976D01*
X2450357Y-12415452D01*
X2440833Y-12405928D01*
X2431310Y-12386881D01*
X2421786Y-12348786D01*
X2421786Y-12301167D01*
X2431310Y-12263071D01*
X2440833Y-12244024D01*
X2450357Y-12234500D01*
X2469405Y-12224976D01*
X2659881Y-12224976D02*
X2678929Y-12224976D01*
X2697976Y-12234500D01*
X2707500Y-12244024D01*
X2717024Y-12263071D01*
X2726548Y-12301167D01*
X2726548Y-12348786D01*
X2717024Y-12386881D01*
X2707500Y-12405928D01*
X2697976Y-12415452D01*
X2678929Y-12424976D01*
X2659881Y-12424976D01*
X2640833Y-12415452D01*
X2631310Y-12405928D01*
X2621786Y-12386881D01*
X2612262Y-12348786D01*
X2612262Y-12301167D01*
X2621786Y-12263071D01*
X2631310Y-12244024D01*
X2640833Y-12234500D01*
X2659881Y-12224976D01*
X2812262Y-12424976D02*
X2812262Y-12291643D01*
X2812262Y-12310690D02*
X2821786Y-12301167D01*
X2840833Y-12291643D01*
X2869405Y-12291643D01*
X2888452Y-12301167D01*
X2897976Y-12320214D01*
X2897976Y-12424976D01*
X2897976Y-12320214D02*
X2907500Y-12301167D01*
X2926548Y-12291643D01*
X2955119Y-12291643D01*
X2974167Y-12301167D01*
X2983690Y-12320214D01*
X2983690Y-12424976D01*
X3078928Y-12424976D02*
X3078928Y-12291643D01*
X3078928Y-12310690D02*
X3088452Y-12301167D01*
X3107500Y-12291643D01*
X3136071Y-12291643D01*
X3155119Y-12301167D01*
X3164643Y-12320214D01*
X3164643Y-12424976D01*
X3164643Y-12320214D02*
X3174167Y-12301167D01*
X3193214Y-12291643D01*
X3221786Y-12291643D01*
X3240833Y-12301167D01*
X3250357Y-12320214D01*
X3250357Y-12424976D01*
X3640833Y-12215452D02*
X3469405Y-12472595D01*
X3897976Y-12224976D02*
X3917024Y-12224976D01*
X3936071Y-12234500D01*
X3945595Y-12244024D01*
X3955119Y-12263071D01*
X3964643Y-12301167D01*
X3964643Y-12348786D01*
X3955119Y-12386881D01*
X3945595Y-12405928D01*
X3936071Y-12415452D01*
X3917024Y-12424976D01*
X3897976Y-12424976D01*
X3878928Y-12415452D01*
X3869405Y-12405928D01*
X3859881Y-12386881D01*
X3850357Y-12348786D01*
X3850357Y-12301167D01*
X3859881Y-12263071D01*
X3869405Y-12244024D01*
X3878928Y-12234500D01*
X3897976Y-12224976D01*
X4050357Y-12405928D02*
X4059881Y-12415452D01*
X4050357Y-12424976D01*
X4040833Y-12415452D01*
X4050357Y-12405928D01*
X4050357Y-12424976D01*
X4183690Y-12224976D02*
X4202738Y-12224976D01*
X4221786Y-12234500D01*
X4231310Y-12244024D01*
X4240833Y-12263071D01*
X4250357Y-12301167D01*
X4250357Y-12348786D01*
X4240833Y-12386881D01*
X4231310Y-12405928D01*
X4221786Y-12415452D01*
X4202738Y-12424976D01*
X4183690Y-12424976D01*
X4164643Y-12415452D01*
X4155119Y-12405928D01*
X4145595Y-12386881D01*
X4136071Y-12348786D01*
X4136071Y-12301167D01*
X4145595Y-12263071D01*
X4155119Y-12244024D01*
X4164643Y-12234500D01*
X4183690Y-12224976D01*
X4326548Y-12244024D02*
X4336071Y-12234500D01*
X4355119Y-12224976D01*
X4402738Y-12224976D01*
X4421786Y-12234500D01*
X4431310Y-12244024D01*
X4440833Y-12263071D01*
X4440833Y-12282119D01*
X4431310Y-12310690D01*
X4317024Y-12424976D01*
X4440833Y-12424976D01*
X4507500Y-12224976D02*
X4640833Y-12224976D01*
X4555119Y-12424976D01*
X4802738Y-12224976D02*
X4764643Y-12224976D01*
X4745595Y-12234500D01*
X4736071Y-12244024D01*
X4717024Y-12272595D01*
X4707500Y-12310690D01*
X4707500Y-12386881D01*
X4717024Y-12405928D01*
X4726548Y-12415452D01*
X4745595Y-12424976D01*
X4783690Y-12424976D01*
X4802738Y-12415452D01*
X4812262Y-12405928D01*
X4821786Y-12386881D01*
X4821786Y-12339262D01*
X4812262Y-12320214D01*
X4802738Y-12310690D01*
X4783690Y-12301167D01*
X4745595Y-12301167D01*
X4726548Y-12310690D01*
X4717024Y-12320214D01*
X4707500Y-12339262D01*
X4897976Y-12224976D02*
X4897976Y-12263071D01*
X4974167Y-12224976D02*
X4974167Y-12263071D01*
X5269405Y-12501167D02*
X5259881Y-12491643D01*
X5240833Y-12463071D01*
X5231310Y-12444024D01*
X5221786Y-12415452D01*
X5212262Y-12367833D01*
X5212262Y-12329738D01*
X5221786Y-12282119D01*
X5231310Y-12253548D01*
X5240833Y-12234500D01*
X5259881Y-12205928D01*
X5269405Y-12196405D01*
X5336071Y-12244024D02*
X5345595Y-12234500D01*
X5364643Y-12224976D01*
X5412262Y-12224976D01*
X5431310Y-12234500D01*
X5440833Y-12244024D01*
X5450357Y-12263071D01*
X5450357Y-12282119D01*
X5440833Y-12310690D01*
X5326548Y-12424976D01*
X5450357Y-12424976D01*
X5688452Y-12424976D02*
X5688452Y-12224976D01*
X5774167Y-12424976D02*
X5774167Y-12320214D01*
X5764643Y-12301167D01*
X5745595Y-12291643D01*
X5717024Y-12291643D01*
X5697976Y-12301167D01*
X5688452Y-12310690D01*
X5897976Y-12424976D02*
X5878928Y-12415452D01*
X5869405Y-12405928D01*
X5859881Y-12386881D01*
X5859881Y-12329738D01*
X5869405Y-12310690D01*
X5878928Y-12301167D01*
X5897976Y-12291643D01*
X5926548Y-12291643D01*
X5945595Y-12301167D01*
X5955119Y-12310690D01*
X5964643Y-12329738D01*
X5964643Y-12386881D01*
X5955119Y-12405928D01*
X5945595Y-12415452D01*
X5926548Y-12424976D01*
X5897976Y-12424976D01*
X6078928Y-12424976D02*
X6059881Y-12415452D01*
X6050357Y-12396405D01*
X6050357Y-12224976D01*
X6231309Y-12415452D02*
X6212262Y-12424976D01*
X6174167Y-12424976D01*
X6155119Y-12415452D01*
X6145595Y-12396405D01*
X6145595Y-12320214D01*
X6155119Y-12301167D01*
X6174167Y-12291643D01*
X6212262Y-12291643D01*
X6231309Y-12301167D01*
X6240833Y-12320214D01*
X6240833Y-12339262D01*
X6145595Y-12358309D01*
X6317024Y-12415452D02*
X6336071Y-12424976D01*
X6374167Y-12424976D01*
X6393214Y-12415452D01*
X6402738Y-12396405D01*
X6402738Y-12386881D01*
X6393214Y-12367833D01*
X6374167Y-12358309D01*
X6345595Y-12358309D01*
X6326548Y-12348786D01*
X6317024Y-12329738D01*
X6317024Y-12320214D01*
X6326548Y-12301167D01*
X6345595Y-12291643D01*
X6374167Y-12291643D01*
X6393214Y-12301167D01*
X6469405Y-12501167D02*
X6478928Y-12491643D01*
X6497976Y-12463071D01*
X6507500Y-12444024D01*
X6517024Y-12415452D01*
X6526548Y-12367833D01*
X6526548Y-12329738D01*
X6517024Y-12282119D01*
X6507500Y-12253548D01*
X6497976Y-12234500D01*
X6478928Y-12205928D01*
X6469405Y-12196405D01*
D16*
X1660000Y-12636000D02*
X1697500Y-12598500D01*
X1660000Y-12561000D01*
X1622500Y-12598500D01*
X1660000Y-12636000D01*
D11*
X1993214Y-12488976D02*
X2012262Y-12488976D01*
X2031309Y-12498500D01*
X2040833Y-12508024D01*
X2050357Y-12527071D01*
X2059881Y-12565167D01*
X2059881Y-12612786D01*
X2050357Y-12650881D01*
X2040833Y-12669928D01*
X2031309Y-12679452D01*
X2012262Y-12688976D01*
X1993214Y-12688976D01*
X1974167Y-12679452D01*
X1964643Y-12669928D01*
X1955119Y-12650881D01*
X1945595Y-12612786D01*
X1945595Y-12565167D01*
X1955119Y-12527071D01*
X1964643Y-12508024D01*
X1974167Y-12498500D01*
X1993214Y-12488976D01*
X2145595Y-12669928D02*
X2155119Y-12679452D01*
X2145595Y-12688976D01*
X2136071Y-12679452D01*
X2145595Y-12669928D01*
X2145595Y-12688976D01*
X2221786Y-12488976D02*
X2355119Y-12488976D01*
X2269405Y-12688976D01*
X2526548Y-12488976D02*
X2431310Y-12488976D01*
X2421786Y-12584214D01*
X2431310Y-12574690D01*
X2450357Y-12565167D01*
X2497976Y-12565167D01*
X2517024Y-12574690D01*
X2526548Y-12584214D01*
X2536071Y-12603262D01*
X2536071Y-12650881D01*
X2526548Y-12669928D01*
X2517024Y-12679452D01*
X2497976Y-12688976D01*
X2450357Y-12688976D01*
X2431310Y-12679452D01*
X2421786Y-12669928D01*
X2659881Y-12488976D02*
X2678929Y-12488976D01*
X2697976Y-12498500D01*
X2707500Y-12508024D01*
X2717024Y-12527071D01*
X2726548Y-12565167D01*
X2726548Y-12612786D01*
X2717024Y-12650881D01*
X2707500Y-12669928D01*
X2697976Y-12679452D01*
X2678929Y-12688976D01*
X2659881Y-12688976D01*
X2640833Y-12679452D01*
X2631310Y-12669928D01*
X2621786Y-12650881D01*
X2612262Y-12612786D01*
X2612262Y-12565167D01*
X2621786Y-12527071D01*
X2631310Y-12508024D01*
X2640833Y-12498500D01*
X2659881Y-12488976D01*
X2812262Y-12688976D02*
X2812262Y-12555643D01*
X2812262Y-12574690D02*
X2821786Y-12565167D01*
X2840833Y-12555643D01*
X2869405Y-12555643D01*
X2888452Y-12565167D01*
X2897976Y-12584214D01*
X2897976Y-12688976D01*
X2897976Y-12584214D02*
X2907500Y-12565167D01*
X2926548Y-12555643D01*
X2955119Y-12555643D01*
X2974167Y-12565167D01*
X2983690Y-12584214D01*
X2983690Y-12688976D01*
X3078928Y-12688976D02*
X3078928Y-12555643D01*
X3078928Y-12574690D02*
X3088452Y-12565167D01*
X3107500Y-12555643D01*
X3136071Y-12555643D01*
X3155119Y-12565167D01*
X3164643Y-12584214D01*
X3164643Y-12688976D01*
X3164643Y-12584214D02*
X3174167Y-12565167D01*
X3193214Y-12555643D01*
X3221786Y-12555643D01*
X3240833Y-12565167D01*
X3250357Y-12584214D01*
X3250357Y-12688976D01*
X3640833Y-12479452D02*
X3469405Y-12736595D01*
X3897976Y-12488976D02*
X3917024Y-12488976D01*
X3936071Y-12498500D01*
X3945595Y-12508024D01*
X3955119Y-12527071D01*
X3964643Y-12565167D01*
X3964643Y-12612786D01*
X3955119Y-12650881D01*
X3945595Y-12669928D01*
X3936071Y-12679452D01*
X3917024Y-12688976D01*
X3897976Y-12688976D01*
X3878928Y-12679452D01*
X3869405Y-12669928D01*
X3859881Y-12650881D01*
X3850357Y-12612786D01*
X3850357Y-12565167D01*
X3859881Y-12527071D01*
X3869405Y-12508024D01*
X3878928Y-12498500D01*
X3897976Y-12488976D01*
X4050357Y-12669928D02*
X4059881Y-12679452D01*
X4050357Y-12688976D01*
X4040833Y-12679452D01*
X4050357Y-12669928D01*
X4050357Y-12688976D01*
X4183690Y-12488976D02*
X4202738Y-12488976D01*
X4221786Y-12498500D01*
X4231310Y-12508024D01*
X4240833Y-12527071D01*
X4250357Y-12565167D01*
X4250357Y-12612786D01*
X4240833Y-12650881D01*
X4231310Y-12669928D01*
X4221786Y-12679452D01*
X4202738Y-12688976D01*
X4183690Y-12688976D01*
X4164643Y-12679452D01*
X4155119Y-12669928D01*
X4145595Y-12650881D01*
X4136071Y-12612786D01*
X4136071Y-12565167D01*
X4145595Y-12527071D01*
X4155119Y-12508024D01*
X4164643Y-12498500D01*
X4183690Y-12488976D01*
X4326548Y-12508024D02*
X4336071Y-12498500D01*
X4355119Y-12488976D01*
X4402738Y-12488976D01*
X4421786Y-12498500D01*
X4431310Y-12508024D01*
X4440833Y-12527071D01*
X4440833Y-12546119D01*
X4431310Y-12574690D01*
X4317024Y-12688976D01*
X4440833Y-12688976D01*
X4536071Y-12688976D02*
X4574167Y-12688976D01*
X4593214Y-12679452D01*
X4602738Y-12669928D01*
X4621786Y-12641357D01*
X4631310Y-12603262D01*
X4631310Y-12527071D01*
X4621786Y-12508024D01*
X4612262Y-12498500D01*
X4593214Y-12488976D01*
X4555119Y-12488976D01*
X4536071Y-12498500D01*
X4526548Y-12508024D01*
X4517024Y-12527071D01*
X4517024Y-12574690D01*
X4526548Y-12593738D01*
X4536071Y-12603262D01*
X4555119Y-12612786D01*
X4593214Y-12612786D01*
X4612262Y-12603262D01*
X4621786Y-12593738D01*
X4631310Y-12574690D01*
X4812262Y-12488976D02*
X4717024Y-12488976D01*
X4707500Y-12584214D01*
X4717024Y-12574690D01*
X4736071Y-12565167D01*
X4783690Y-12565167D01*
X4802738Y-12574690D01*
X4812262Y-12584214D01*
X4821786Y-12603262D01*
X4821786Y-12650881D01*
X4812262Y-12669928D01*
X4802738Y-12679452D01*
X4783690Y-12688976D01*
X4736071Y-12688976D01*
X4717024Y-12679452D01*
X4707500Y-12669928D01*
X4897976Y-12488976D02*
X4897976Y-12527071D01*
X4974167Y-12488976D02*
X4974167Y-12527071D01*
X5269405Y-12765167D02*
X5259881Y-12755643D01*
X5240833Y-12727071D01*
X5231310Y-12708024D01*
X5221786Y-12679452D01*
X5212262Y-12631833D01*
X5212262Y-12593738D01*
X5221786Y-12546119D01*
X5231310Y-12517548D01*
X5240833Y-12498500D01*
X5259881Y-12469928D01*
X5269405Y-12460405D01*
X5450357Y-12688976D02*
X5336071Y-12688976D01*
X5393214Y-12688976D02*
X5393214Y-12488976D01*
X5374167Y-12517548D01*
X5355119Y-12536595D01*
X5336071Y-12546119D01*
X5640833Y-12688976D02*
X5526548Y-12688976D01*
X5583690Y-12688976D02*
X5583690Y-12488976D01*
X5564643Y-12517548D01*
X5545595Y-12536595D01*
X5526548Y-12546119D01*
X5878928Y-12688976D02*
X5878928Y-12488976D01*
X5964643Y-12688976D02*
X5964643Y-12584214D01*
X5955119Y-12565167D01*
X5936071Y-12555643D01*
X5907500Y-12555643D01*
X5888452Y-12565167D01*
X5878928Y-12574690D01*
X6088452Y-12688976D02*
X6069405Y-12679452D01*
X6059881Y-12669928D01*
X6050357Y-12650881D01*
X6050357Y-12593738D01*
X6059881Y-12574690D01*
X6069405Y-12565167D01*
X6088452Y-12555643D01*
X6117024Y-12555643D01*
X6136071Y-12565167D01*
X6145595Y-12574690D01*
X6155119Y-12593738D01*
X6155119Y-12650881D01*
X6145595Y-12669928D01*
X6136071Y-12679452D01*
X6117024Y-12688976D01*
X6088452Y-12688976D01*
X6269405Y-12688976D02*
X6250357Y-12679452D01*
X6240833Y-12660405D01*
X6240833Y-12488976D01*
X6421786Y-12679452D02*
X6402738Y-12688976D01*
X6364643Y-12688976D01*
X6345595Y-12679452D01*
X6336071Y-12660405D01*
X6336071Y-12584214D01*
X6345595Y-12565167D01*
X6364643Y-12555643D01*
X6402738Y-12555643D01*
X6421786Y-12565167D01*
X6431309Y-12584214D01*
X6431309Y-12603262D01*
X6336071Y-12622309D01*
X6507500Y-12679452D02*
X6526548Y-12688976D01*
X6564643Y-12688976D01*
X6583690Y-12679452D01*
X6593214Y-12660405D01*
X6593214Y-12650881D01*
X6583690Y-12631833D01*
X6564643Y-12622309D01*
X6536071Y-12622309D01*
X6517024Y-12612786D01*
X6507500Y-12593738D01*
X6507500Y-12584214D01*
X6517024Y-12565167D01*
X6536071Y-12555643D01*
X6564643Y-12555643D01*
X6583690Y-12565167D01*
X6659881Y-12765167D02*
X6669405Y-12755643D01*
X6688452Y-12727071D01*
X6697976Y-12708024D01*
X6707500Y-12679452D01*
X6717024Y-12631833D01*
X6717024Y-12593738D01*
X6707500Y-12546119D01*
X6697976Y-12517548D01*
X6688452Y-12498500D01*
X6669405Y-12469928D01*
X6659881Y-12460405D01*
D17*
X1617500Y-12822500D02*
X1697500Y-12902500D01*
X1697500Y-12822500D02*
X1617500Y-12902500D01*
X1697500Y-12862500D02*
G75*
G03*
X1697500Y-12862500I-40000J0D01*
G01*
D11*
X1993214Y-12752976D02*
X2012262Y-12752976D01*
X2031309Y-12762500D01*
X2040833Y-12772024D01*
X2050357Y-12791071D01*
X2059881Y-12829167D01*
X2059881Y-12876786D01*
X2050357Y-12914881D01*
X2040833Y-12933928D01*
X2031309Y-12943452D01*
X2012262Y-12952976D01*
X1993214Y-12952976D01*
X1974167Y-12943452D01*
X1964643Y-12933928D01*
X1955119Y-12914881D01*
X1945595Y-12876786D01*
X1945595Y-12829167D01*
X1955119Y-12791071D01*
X1964643Y-12772024D01*
X1974167Y-12762500D01*
X1993214Y-12752976D01*
X2145595Y-12933928D02*
X2155119Y-12943452D01*
X2145595Y-12952976D01*
X2136071Y-12943452D01*
X2145595Y-12933928D01*
X2145595Y-12952976D01*
X2269405Y-12838690D02*
X2250357Y-12829167D01*
X2240833Y-12819643D01*
X2231310Y-12800595D01*
X2231310Y-12791071D01*
X2240833Y-12772024D01*
X2250357Y-12762500D01*
X2269405Y-12752976D01*
X2307500Y-12752976D01*
X2326548Y-12762500D01*
X2336071Y-12772024D01*
X2345595Y-12791071D01*
X2345595Y-12800595D01*
X2336071Y-12819643D01*
X2326548Y-12829167D01*
X2307500Y-12838690D01*
X2269405Y-12838690D01*
X2250357Y-12848214D01*
X2240833Y-12857738D01*
X2231310Y-12876786D01*
X2231310Y-12914881D01*
X2240833Y-12933928D01*
X2250357Y-12943452D01*
X2269405Y-12952976D01*
X2307500Y-12952976D01*
X2326548Y-12943452D01*
X2336071Y-12933928D01*
X2345595Y-12914881D01*
X2345595Y-12876786D01*
X2336071Y-12857738D01*
X2326548Y-12848214D01*
X2307500Y-12838690D01*
X2469405Y-12752976D02*
X2488452Y-12752976D01*
X2507500Y-12762500D01*
X2517024Y-12772024D01*
X2526548Y-12791071D01*
X2536071Y-12829167D01*
X2536071Y-12876786D01*
X2526548Y-12914881D01*
X2517024Y-12933928D01*
X2507500Y-12943452D01*
X2488452Y-12952976D01*
X2469405Y-12952976D01*
X2450357Y-12943452D01*
X2440833Y-12933928D01*
X2431310Y-12914881D01*
X2421786Y-12876786D01*
X2421786Y-12829167D01*
X2431310Y-12791071D01*
X2440833Y-12772024D01*
X2450357Y-12762500D01*
X2469405Y-12752976D01*
X2659881Y-12752976D02*
X2678929Y-12752976D01*
X2697976Y-12762500D01*
X2707500Y-12772024D01*
X2717024Y-12791071D01*
X2726548Y-12829167D01*
X2726548Y-12876786D01*
X2717024Y-12914881D01*
X2707500Y-12933928D01*
X2697976Y-12943452D01*
X2678929Y-12952976D01*
X2659881Y-12952976D01*
X2640833Y-12943452D01*
X2631310Y-12933928D01*
X2621786Y-12914881D01*
X2612262Y-12876786D01*
X2612262Y-12829167D01*
X2621786Y-12791071D01*
X2631310Y-12772024D01*
X2640833Y-12762500D01*
X2659881Y-12752976D01*
X2812262Y-12952976D02*
X2812262Y-12819643D01*
X2812262Y-12838690D02*
X2821786Y-12829167D01*
X2840833Y-12819643D01*
X2869405Y-12819643D01*
X2888452Y-12829167D01*
X2897976Y-12848214D01*
X2897976Y-12952976D01*
X2897976Y-12848214D02*
X2907500Y-12829167D01*
X2926548Y-12819643D01*
X2955119Y-12819643D01*
X2974167Y-12829167D01*
X2983690Y-12848214D01*
X2983690Y-12952976D01*
X3078928Y-12952976D02*
X3078928Y-12819643D01*
X3078928Y-12838690D02*
X3088452Y-12829167D01*
X3107500Y-12819643D01*
X3136071Y-12819643D01*
X3155119Y-12829167D01*
X3164643Y-12848214D01*
X3164643Y-12952976D01*
X3164643Y-12848214D02*
X3174167Y-12829167D01*
X3193214Y-12819643D01*
X3221786Y-12819643D01*
X3240833Y-12829167D01*
X3250357Y-12848214D01*
X3250357Y-12952976D01*
X3640833Y-12743452D02*
X3469405Y-13000595D01*
X3897976Y-12752976D02*
X3917024Y-12752976D01*
X3936071Y-12762500D01*
X3945595Y-12772024D01*
X3955119Y-12791071D01*
X3964643Y-12829167D01*
X3964643Y-12876786D01*
X3955119Y-12914881D01*
X3945595Y-12933928D01*
X3936071Y-12943452D01*
X3917024Y-12952976D01*
X3897976Y-12952976D01*
X3878928Y-12943452D01*
X3869405Y-12933928D01*
X3859881Y-12914881D01*
X3850357Y-12876786D01*
X3850357Y-12829167D01*
X3859881Y-12791071D01*
X3869405Y-12772024D01*
X3878928Y-12762500D01*
X3897976Y-12752976D01*
X4050357Y-12933928D02*
X4059881Y-12943452D01*
X4050357Y-12952976D01*
X4040833Y-12943452D01*
X4050357Y-12933928D01*
X4050357Y-12952976D01*
X4183690Y-12752976D02*
X4202738Y-12752976D01*
X4221786Y-12762500D01*
X4231310Y-12772024D01*
X4240833Y-12791071D01*
X4250357Y-12829167D01*
X4250357Y-12876786D01*
X4240833Y-12914881D01*
X4231310Y-12933928D01*
X4221786Y-12943452D01*
X4202738Y-12952976D01*
X4183690Y-12952976D01*
X4164643Y-12943452D01*
X4155119Y-12933928D01*
X4145595Y-12914881D01*
X4136071Y-12876786D01*
X4136071Y-12829167D01*
X4145595Y-12791071D01*
X4155119Y-12772024D01*
X4164643Y-12762500D01*
X4183690Y-12752976D01*
X4317024Y-12752976D02*
X4440833Y-12752976D01*
X4374167Y-12829167D01*
X4402738Y-12829167D01*
X4421786Y-12838690D01*
X4431310Y-12848214D01*
X4440833Y-12867262D01*
X4440833Y-12914881D01*
X4431310Y-12933928D01*
X4421786Y-12943452D01*
X4402738Y-12952976D01*
X4345595Y-12952976D01*
X4326548Y-12943452D01*
X4317024Y-12933928D01*
X4631310Y-12952976D02*
X4517024Y-12952976D01*
X4574167Y-12952976D02*
X4574167Y-12752976D01*
X4555119Y-12781548D01*
X4536071Y-12800595D01*
X4517024Y-12810119D01*
X4812262Y-12752976D02*
X4717024Y-12752976D01*
X4707500Y-12848214D01*
X4717024Y-12838690D01*
X4736071Y-12829167D01*
X4783690Y-12829167D01*
X4802738Y-12838690D01*
X4812262Y-12848214D01*
X4821786Y-12867262D01*
X4821786Y-12914881D01*
X4812262Y-12933928D01*
X4802738Y-12943452D01*
X4783690Y-12952976D01*
X4736071Y-12952976D01*
X4717024Y-12943452D01*
X4707500Y-12933928D01*
X4897976Y-12752976D02*
X4897976Y-12791071D01*
X4974167Y-12752976D02*
X4974167Y-12791071D01*
X5269405Y-13029167D02*
X5259881Y-13019643D01*
X5240833Y-12991071D01*
X5231310Y-12972024D01*
X5221786Y-12943452D01*
X5212262Y-12895833D01*
X5212262Y-12857738D01*
X5221786Y-12810119D01*
X5231310Y-12781548D01*
X5240833Y-12762500D01*
X5259881Y-12733928D01*
X5269405Y-12724405D01*
X5336071Y-12772024D02*
X5345595Y-12762500D01*
X5364643Y-12752976D01*
X5412262Y-12752976D01*
X5431310Y-12762500D01*
X5440833Y-12772024D01*
X5450357Y-12791071D01*
X5450357Y-12810119D01*
X5440833Y-12838690D01*
X5326548Y-12952976D01*
X5450357Y-12952976D01*
X5621786Y-12819643D02*
X5621786Y-12952976D01*
X5574167Y-12743452D02*
X5526548Y-12886309D01*
X5650357Y-12886309D01*
X5878928Y-12952976D02*
X5878928Y-12752976D01*
X5964643Y-12952976D02*
X5964643Y-12848214D01*
X5955119Y-12829167D01*
X5936071Y-12819643D01*
X5907500Y-12819643D01*
X5888452Y-12829167D01*
X5878928Y-12838690D01*
X6088452Y-12952976D02*
X6069405Y-12943452D01*
X6059881Y-12933928D01*
X6050357Y-12914881D01*
X6050357Y-12857738D01*
X6059881Y-12838690D01*
X6069405Y-12829167D01*
X6088452Y-12819643D01*
X6117024Y-12819643D01*
X6136071Y-12829167D01*
X6145595Y-12838690D01*
X6155119Y-12857738D01*
X6155119Y-12914881D01*
X6145595Y-12933928D01*
X6136071Y-12943452D01*
X6117024Y-12952976D01*
X6088452Y-12952976D01*
X6269405Y-12952976D02*
X6250357Y-12943452D01*
X6240833Y-12924405D01*
X6240833Y-12752976D01*
X6421786Y-12943452D02*
X6402738Y-12952976D01*
X6364643Y-12952976D01*
X6345595Y-12943452D01*
X6336071Y-12924405D01*
X6336071Y-12848214D01*
X6345595Y-12829167D01*
X6364643Y-12819643D01*
X6402738Y-12819643D01*
X6421786Y-12829167D01*
X6431309Y-12848214D01*
X6431309Y-12867262D01*
X6336071Y-12886309D01*
X6507500Y-12943452D02*
X6526548Y-12952976D01*
X6564643Y-12952976D01*
X6583690Y-12943452D01*
X6593214Y-12924405D01*
X6593214Y-12914881D01*
X6583690Y-12895833D01*
X6564643Y-12886309D01*
X6536071Y-12886309D01*
X6517024Y-12876786D01*
X6507500Y-12857738D01*
X6507500Y-12848214D01*
X6517024Y-12829167D01*
X6536071Y-12819643D01*
X6564643Y-12819643D01*
X6583690Y-12829167D01*
X6659881Y-13029167D02*
X6669405Y-13019643D01*
X6688452Y-12991071D01*
X6697976Y-12972024D01*
X6707500Y-12943452D01*
X6717024Y-12895833D01*
X6717024Y-12857738D01*
X6707500Y-12810119D01*
X6697976Y-12781548D01*
X6688452Y-12762500D01*
X6669405Y-12733928D01*
X6659881Y-12724405D01*
D18*
X1607500Y-13081500D02*
X1697500Y-13171500D01*
X1697500Y-13081500D02*
X1607500Y-13171500D01*
X1652500Y-13081500D02*
X1652500Y-13171500D01*
X1607500Y-13126500D02*
X1697500Y-13126500D01*
D11*
X1993214Y-13016976D02*
X2012262Y-13016976D01*
X2031309Y-13026500D01*
X2040833Y-13036024D01*
X2050357Y-13055071D01*
X2059881Y-13093167D01*
X2059881Y-13140786D01*
X2050357Y-13178881D01*
X2040833Y-13197928D01*
X2031309Y-13207452D01*
X2012262Y-13216976D01*
X1993214Y-13216976D01*
X1974167Y-13207452D01*
X1964643Y-13197928D01*
X1955119Y-13178881D01*
X1945595Y-13140786D01*
X1945595Y-13093167D01*
X1955119Y-13055071D01*
X1964643Y-13036024D01*
X1974167Y-13026500D01*
X1993214Y-13016976D01*
X2145595Y-13197928D02*
X2155119Y-13207452D01*
X2145595Y-13216976D01*
X2136071Y-13207452D01*
X2145595Y-13197928D01*
X2145595Y-13216976D01*
X2250357Y-13216976D02*
X2288452Y-13216976D01*
X2307500Y-13207452D01*
X2317024Y-13197928D01*
X2336071Y-13169357D01*
X2345595Y-13131262D01*
X2345595Y-13055071D01*
X2336071Y-13036024D01*
X2326548Y-13026500D01*
X2307500Y-13016976D01*
X2269405Y-13016976D01*
X2250357Y-13026500D01*
X2240833Y-13036024D01*
X2231310Y-13055071D01*
X2231310Y-13102690D01*
X2240833Y-13121738D01*
X2250357Y-13131262D01*
X2269405Y-13140786D01*
X2307500Y-13140786D01*
X2326548Y-13131262D01*
X2336071Y-13121738D01*
X2345595Y-13102690D01*
X2469405Y-13016976D02*
X2488452Y-13016976D01*
X2507500Y-13026500D01*
X2517024Y-13036024D01*
X2526548Y-13055071D01*
X2536071Y-13093167D01*
X2536071Y-13140786D01*
X2526548Y-13178881D01*
X2517024Y-13197928D01*
X2507500Y-13207452D01*
X2488452Y-13216976D01*
X2469405Y-13216976D01*
X2450357Y-13207452D01*
X2440833Y-13197928D01*
X2431310Y-13178881D01*
X2421786Y-13140786D01*
X2421786Y-13093167D01*
X2431310Y-13055071D01*
X2440833Y-13036024D01*
X2450357Y-13026500D01*
X2469405Y-13016976D01*
X2659881Y-13016976D02*
X2678929Y-13016976D01*
X2697976Y-13026500D01*
X2707500Y-13036024D01*
X2717024Y-13055071D01*
X2726548Y-13093167D01*
X2726548Y-13140786D01*
X2717024Y-13178881D01*
X2707500Y-13197928D01*
X2697976Y-13207452D01*
X2678929Y-13216976D01*
X2659881Y-13216976D01*
X2640833Y-13207452D01*
X2631310Y-13197928D01*
X2621786Y-13178881D01*
X2612262Y-13140786D01*
X2612262Y-13093167D01*
X2621786Y-13055071D01*
X2631310Y-13036024D01*
X2640833Y-13026500D01*
X2659881Y-13016976D01*
X2812262Y-13216976D02*
X2812262Y-13083643D01*
X2812262Y-13102690D02*
X2821786Y-13093167D01*
X2840833Y-13083643D01*
X2869405Y-13083643D01*
X2888452Y-13093167D01*
X2897976Y-13112214D01*
X2897976Y-13216976D01*
X2897976Y-13112214D02*
X2907500Y-13093167D01*
X2926548Y-13083643D01*
X2955119Y-13083643D01*
X2974167Y-13093167D01*
X2983690Y-13112214D01*
X2983690Y-13216976D01*
X3078928Y-13216976D02*
X3078928Y-13083643D01*
X3078928Y-13102690D02*
X3088452Y-13093167D01*
X3107500Y-13083643D01*
X3136071Y-13083643D01*
X3155119Y-13093167D01*
X3164643Y-13112214D01*
X3164643Y-13216976D01*
X3164643Y-13112214D02*
X3174167Y-13093167D01*
X3193214Y-13083643D01*
X3221786Y-13083643D01*
X3240833Y-13093167D01*
X3250357Y-13112214D01*
X3250357Y-13216976D01*
X3640833Y-13007452D02*
X3469405Y-13264595D01*
X3897976Y-13016976D02*
X3917024Y-13016976D01*
X3936071Y-13026500D01*
X3945595Y-13036024D01*
X3955119Y-13055071D01*
X3964643Y-13093167D01*
X3964643Y-13140786D01*
X3955119Y-13178881D01*
X3945595Y-13197928D01*
X3936071Y-13207452D01*
X3917024Y-13216976D01*
X3897976Y-13216976D01*
X3878928Y-13207452D01*
X3869405Y-13197928D01*
X3859881Y-13178881D01*
X3850357Y-13140786D01*
X3850357Y-13093167D01*
X3859881Y-13055071D01*
X3869405Y-13036024D01*
X3878928Y-13026500D01*
X3897976Y-13016976D01*
X4050357Y-13197928D02*
X4059881Y-13207452D01*
X4050357Y-13216976D01*
X4040833Y-13207452D01*
X4050357Y-13197928D01*
X4050357Y-13216976D01*
X4183690Y-13016976D02*
X4202738Y-13016976D01*
X4221786Y-13026500D01*
X4231310Y-13036024D01*
X4240833Y-13055071D01*
X4250357Y-13093167D01*
X4250357Y-13140786D01*
X4240833Y-13178881D01*
X4231310Y-13197928D01*
X4221786Y-13207452D01*
X4202738Y-13216976D01*
X4183690Y-13216976D01*
X4164643Y-13207452D01*
X4155119Y-13197928D01*
X4145595Y-13178881D01*
X4136071Y-13140786D01*
X4136071Y-13093167D01*
X4145595Y-13055071D01*
X4155119Y-13036024D01*
X4164643Y-13026500D01*
X4183690Y-13016976D01*
X4317024Y-13016976D02*
X4440833Y-13016976D01*
X4374167Y-13093167D01*
X4402738Y-13093167D01*
X4421786Y-13102690D01*
X4431310Y-13112214D01*
X4440833Y-13131262D01*
X4440833Y-13178881D01*
X4431310Y-13197928D01*
X4421786Y-13207452D01*
X4402738Y-13216976D01*
X4345595Y-13216976D01*
X4326548Y-13207452D01*
X4317024Y-13197928D01*
X4621786Y-13016976D02*
X4526548Y-13016976D01*
X4517024Y-13112214D01*
X4526548Y-13102690D01*
X4545595Y-13093167D01*
X4593214Y-13093167D01*
X4612262Y-13102690D01*
X4621786Y-13112214D01*
X4631310Y-13131262D01*
X4631310Y-13178881D01*
X4621786Y-13197928D01*
X4612262Y-13207452D01*
X4593214Y-13216976D01*
X4545595Y-13216976D01*
X4526548Y-13207452D01*
X4517024Y-13197928D01*
X4802738Y-13083643D02*
X4802738Y-13216976D01*
X4755119Y-13007452D02*
X4707500Y-13150309D01*
X4831310Y-13150309D01*
X4897976Y-13016976D02*
X4897976Y-13055071D01*
X4974167Y-13016976D02*
X4974167Y-13055071D01*
X5269405Y-13293167D02*
X5259881Y-13283643D01*
X5240833Y-13255071D01*
X5231310Y-13236024D01*
X5221786Y-13207452D01*
X5212262Y-13159833D01*
X5212262Y-13121738D01*
X5221786Y-13074119D01*
X5231310Y-13045548D01*
X5240833Y-13026500D01*
X5259881Y-12997928D01*
X5269405Y-12988405D01*
X5450357Y-13216976D02*
X5336071Y-13216976D01*
X5393214Y-13216976D02*
X5393214Y-13016976D01*
X5374167Y-13045548D01*
X5355119Y-13064595D01*
X5336071Y-13074119D01*
X5621786Y-13083643D02*
X5621786Y-13216976D01*
X5574167Y-13007452D02*
X5526548Y-13150309D01*
X5650357Y-13150309D01*
X5878928Y-13216976D02*
X5878928Y-13016976D01*
X5964643Y-13216976D02*
X5964643Y-13112214D01*
X5955119Y-13093167D01*
X5936071Y-13083643D01*
X5907500Y-13083643D01*
X5888452Y-13093167D01*
X5878928Y-13102690D01*
X6088452Y-13216976D02*
X6069405Y-13207452D01*
X6059881Y-13197928D01*
X6050357Y-13178881D01*
X6050357Y-13121738D01*
X6059881Y-13102690D01*
X6069405Y-13093167D01*
X6088452Y-13083643D01*
X6117024Y-13083643D01*
X6136071Y-13093167D01*
X6145595Y-13102690D01*
X6155119Y-13121738D01*
X6155119Y-13178881D01*
X6145595Y-13197928D01*
X6136071Y-13207452D01*
X6117024Y-13216976D01*
X6088452Y-13216976D01*
X6269405Y-13216976D02*
X6250357Y-13207452D01*
X6240833Y-13188405D01*
X6240833Y-13016976D01*
X6421786Y-13207452D02*
X6402738Y-13216976D01*
X6364643Y-13216976D01*
X6345595Y-13207452D01*
X6336071Y-13188405D01*
X6336071Y-13112214D01*
X6345595Y-13093167D01*
X6364643Y-13083643D01*
X6402738Y-13083643D01*
X6421786Y-13093167D01*
X6431309Y-13112214D01*
X6431309Y-13131262D01*
X6336071Y-13150309D01*
X6507500Y-13207452D02*
X6526548Y-13216976D01*
X6564643Y-13216976D01*
X6583690Y-13207452D01*
X6593214Y-13188405D01*
X6593214Y-13178881D01*
X6583690Y-13159833D01*
X6564643Y-13150309D01*
X6536071Y-13150309D01*
X6517024Y-13140786D01*
X6507500Y-13121738D01*
X6507500Y-13112214D01*
X6517024Y-13093167D01*
X6536071Y-13083643D01*
X6564643Y-13083643D01*
X6583690Y-13093167D01*
X6659881Y-13293167D02*
X6669405Y-13283643D01*
X6688452Y-13255071D01*
X6697976Y-13236024D01*
X6707500Y-13207452D01*
X6717024Y-13159833D01*
X6717024Y-13121738D01*
X6707500Y-13074119D01*
X6697976Y-13045548D01*
X6688452Y-13026500D01*
X6669405Y-12997928D01*
X6659881Y-12988405D01*
D19*
X1597500Y-13340500D02*
X1697500Y-13440500D01*
X1697500Y-13340500D02*
X1597500Y-13440500D01*
X1682856Y-13425856D02*
X1682856Y-13355144D01*
X1612144Y-13355144D01*
X1612144Y-13425856D01*
X1682856Y-13425856D01*
D11*
X2059881Y-13480976D02*
X1945595Y-13480976D01*
X2002738Y-13480976D02*
X2002738Y-13280976D01*
X1983690Y-13309548D01*
X1964643Y-13328595D01*
X1945595Y-13338119D01*
X2145595Y-13461928D02*
X2155119Y-13471452D01*
X2145595Y-13480976D01*
X2136071Y-13471452D01*
X2145595Y-13461928D01*
X2145595Y-13480976D01*
X2278929Y-13280976D02*
X2297976Y-13280976D01*
X2317024Y-13290500D01*
X2326548Y-13300024D01*
X2336071Y-13319071D01*
X2345595Y-13357167D01*
X2345595Y-13404786D01*
X2336071Y-13442881D01*
X2326548Y-13461928D01*
X2317024Y-13471452D01*
X2297976Y-13480976D01*
X2278929Y-13480976D01*
X2259881Y-13471452D01*
X2250357Y-13461928D01*
X2240833Y-13442881D01*
X2231310Y-13404786D01*
X2231310Y-13357167D01*
X2240833Y-13319071D01*
X2250357Y-13300024D01*
X2259881Y-13290500D01*
X2278929Y-13280976D01*
X2469405Y-13280976D02*
X2488452Y-13280976D01*
X2507500Y-13290500D01*
X2517024Y-13300024D01*
X2526548Y-13319071D01*
X2536071Y-13357167D01*
X2536071Y-13404786D01*
X2526548Y-13442881D01*
X2517024Y-13461928D01*
X2507500Y-13471452D01*
X2488452Y-13480976D01*
X2469405Y-13480976D01*
X2450357Y-13471452D01*
X2440833Y-13461928D01*
X2431310Y-13442881D01*
X2421786Y-13404786D01*
X2421786Y-13357167D01*
X2431310Y-13319071D01*
X2440833Y-13300024D01*
X2450357Y-13290500D01*
X2469405Y-13280976D01*
X2659881Y-13280976D02*
X2678929Y-13280976D01*
X2697976Y-13290500D01*
X2707500Y-13300024D01*
X2717024Y-13319071D01*
X2726548Y-13357167D01*
X2726548Y-13404786D01*
X2717024Y-13442881D01*
X2707500Y-13461928D01*
X2697976Y-13471452D01*
X2678929Y-13480976D01*
X2659881Y-13480976D01*
X2640833Y-13471452D01*
X2631310Y-13461928D01*
X2621786Y-13442881D01*
X2612262Y-13404786D01*
X2612262Y-13357167D01*
X2621786Y-13319071D01*
X2631310Y-13300024D01*
X2640833Y-13290500D01*
X2659881Y-13280976D01*
X2812262Y-13480976D02*
X2812262Y-13347643D01*
X2812262Y-13366690D02*
X2821786Y-13357167D01*
X2840833Y-13347643D01*
X2869405Y-13347643D01*
X2888452Y-13357167D01*
X2897976Y-13376214D01*
X2897976Y-13480976D01*
X2897976Y-13376214D02*
X2907500Y-13357167D01*
X2926548Y-13347643D01*
X2955119Y-13347643D01*
X2974167Y-13357167D01*
X2983690Y-13376214D01*
X2983690Y-13480976D01*
X3078928Y-13480976D02*
X3078928Y-13347643D01*
X3078928Y-13366690D02*
X3088452Y-13357167D01*
X3107500Y-13347643D01*
X3136071Y-13347643D01*
X3155119Y-13357167D01*
X3164643Y-13376214D01*
X3164643Y-13480976D01*
X3164643Y-13376214D02*
X3174167Y-13357167D01*
X3193214Y-13347643D01*
X3221786Y-13347643D01*
X3240833Y-13357167D01*
X3250357Y-13376214D01*
X3250357Y-13480976D01*
X3640833Y-13271452D02*
X3469405Y-13528595D01*
X3897976Y-13280976D02*
X3917024Y-13280976D01*
X3936071Y-13290500D01*
X3945595Y-13300024D01*
X3955119Y-13319071D01*
X3964643Y-13357167D01*
X3964643Y-13404786D01*
X3955119Y-13442881D01*
X3945595Y-13461928D01*
X3936071Y-13471452D01*
X3917024Y-13480976D01*
X3897976Y-13480976D01*
X3878928Y-13471452D01*
X3869405Y-13461928D01*
X3859881Y-13442881D01*
X3850357Y-13404786D01*
X3850357Y-13357167D01*
X3859881Y-13319071D01*
X3869405Y-13300024D01*
X3878928Y-13290500D01*
X3897976Y-13280976D01*
X4050357Y-13461928D02*
X4059881Y-13471452D01*
X4050357Y-13480976D01*
X4040833Y-13471452D01*
X4050357Y-13461928D01*
X4050357Y-13480976D01*
X4183690Y-13280976D02*
X4202738Y-13280976D01*
X4221786Y-13290500D01*
X4231310Y-13300024D01*
X4240833Y-13319071D01*
X4250357Y-13357167D01*
X4250357Y-13404786D01*
X4240833Y-13442881D01*
X4231310Y-13461928D01*
X4221786Y-13471452D01*
X4202738Y-13480976D01*
X4183690Y-13480976D01*
X4164643Y-13471452D01*
X4155119Y-13461928D01*
X4145595Y-13442881D01*
X4136071Y-13404786D01*
X4136071Y-13357167D01*
X4145595Y-13319071D01*
X4155119Y-13300024D01*
X4164643Y-13290500D01*
X4183690Y-13280976D01*
X4317024Y-13280976D02*
X4440833Y-13280976D01*
X4374167Y-13357167D01*
X4402738Y-13357167D01*
X4421786Y-13366690D01*
X4431310Y-13376214D01*
X4440833Y-13395262D01*
X4440833Y-13442881D01*
X4431310Y-13461928D01*
X4421786Y-13471452D01*
X4402738Y-13480976D01*
X4345595Y-13480976D01*
X4326548Y-13471452D01*
X4317024Y-13461928D01*
X4536071Y-13480976D02*
X4574167Y-13480976D01*
X4593214Y-13471452D01*
X4602738Y-13461928D01*
X4621786Y-13433357D01*
X4631310Y-13395262D01*
X4631310Y-13319071D01*
X4621786Y-13300024D01*
X4612262Y-13290500D01*
X4593214Y-13280976D01*
X4555119Y-13280976D01*
X4536071Y-13290500D01*
X4526548Y-13300024D01*
X4517024Y-13319071D01*
X4517024Y-13366690D01*
X4526548Y-13385738D01*
X4536071Y-13395262D01*
X4555119Y-13404786D01*
X4593214Y-13404786D01*
X4612262Y-13395262D01*
X4621786Y-13385738D01*
X4631310Y-13366690D01*
X4802738Y-13347643D02*
X4802738Y-13480976D01*
X4755119Y-13271452D02*
X4707500Y-13414309D01*
X4831310Y-13414309D01*
X4897976Y-13280976D02*
X4897976Y-13319071D01*
X4974167Y-13280976D02*
X4974167Y-13319071D01*
X5269405Y-13557167D02*
X5259881Y-13547643D01*
X5240833Y-13519071D01*
X5231310Y-13500024D01*
X5221786Y-13471452D01*
X5212262Y-13423833D01*
X5212262Y-13385738D01*
X5221786Y-13338119D01*
X5231310Y-13309548D01*
X5240833Y-13290500D01*
X5259881Y-13261928D01*
X5269405Y-13252405D01*
X5450357Y-13480976D02*
X5336071Y-13480976D01*
X5393214Y-13480976D02*
X5393214Y-13280976D01*
X5374167Y-13309548D01*
X5355119Y-13328595D01*
X5336071Y-13338119D01*
X5517024Y-13280976D02*
X5650357Y-13280976D01*
X5564643Y-13480976D01*
X5878928Y-13480976D02*
X5878928Y-13280976D01*
X5964643Y-13480976D02*
X5964643Y-13376214D01*
X5955119Y-13357167D01*
X5936071Y-13347643D01*
X5907500Y-13347643D01*
X5888452Y-13357167D01*
X5878928Y-13366690D01*
X6088452Y-13480976D02*
X6069405Y-13471452D01*
X6059881Y-13461928D01*
X6050357Y-13442881D01*
X6050357Y-13385738D01*
X6059881Y-13366690D01*
X6069405Y-13357167D01*
X6088452Y-13347643D01*
X6117024Y-13347643D01*
X6136071Y-13357167D01*
X6145595Y-13366690D01*
X6155119Y-13385738D01*
X6155119Y-13442881D01*
X6145595Y-13461928D01*
X6136071Y-13471452D01*
X6117024Y-13480976D01*
X6088452Y-13480976D01*
X6269405Y-13480976D02*
X6250357Y-13471452D01*
X6240833Y-13452405D01*
X6240833Y-13280976D01*
X6421786Y-13471452D02*
X6402738Y-13480976D01*
X6364643Y-13480976D01*
X6345595Y-13471452D01*
X6336071Y-13452405D01*
X6336071Y-13376214D01*
X6345595Y-13357167D01*
X6364643Y-13347643D01*
X6402738Y-13347643D01*
X6421786Y-13357167D01*
X6431309Y-13376214D01*
X6431309Y-13395262D01*
X6336071Y-13414309D01*
X6507500Y-13471452D02*
X6526548Y-13480976D01*
X6564643Y-13480976D01*
X6583690Y-13471452D01*
X6593214Y-13452405D01*
X6593214Y-13442881D01*
X6583690Y-13423833D01*
X6564643Y-13414309D01*
X6536071Y-13414309D01*
X6517024Y-13404786D01*
X6507500Y-13385738D01*
X6507500Y-13376214D01*
X6517024Y-13357167D01*
X6536071Y-13347643D01*
X6564643Y-13347643D01*
X6583690Y-13357167D01*
X6659881Y-13557167D02*
X6669405Y-13547643D01*
X6688452Y-13519071D01*
X6697976Y-13500024D01*
X6707500Y-13471452D01*
X6717024Y-13423833D01*
X6717024Y-13385738D01*
X6707500Y-13338119D01*
X6697976Y-13309548D01*
X6688452Y-13290500D01*
X6669405Y-13261928D01*
X6659881Y-13252405D01*
D20*
X1596500Y-13604000D02*
X1697500Y-13705000D01*
X1697500Y-13604000D02*
X1596500Y-13705000D01*
X1647000Y-13705000D02*
X1697500Y-13654500D01*
X1647000Y-13604000D01*
X1596500Y-13654500D01*
X1647000Y-13705000D01*
D11*
X2059881Y-13744976D02*
X1945595Y-13744976D01*
X2002738Y-13744976D02*
X2002738Y-13544976D01*
X1983690Y-13573548D01*
X1964643Y-13592595D01*
X1945595Y-13602119D01*
X2145595Y-13725928D02*
X2155119Y-13735452D01*
X2145595Y-13744976D01*
X2136071Y-13735452D01*
X2145595Y-13725928D01*
X2145595Y-13744976D01*
X2278929Y-13544976D02*
X2297976Y-13544976D01*
X2317024Y-13554500D01*
X2326548Y-13564024D01*
X2336071Y-13583071D01*
X2345595Y-13621167D01*
X2345595Y-13668786D01*
X2336071Y-13706881D01*
X2326548Y-13725928D01*
X2317024Y-13735452D01*
X2297976Y-13744976D01*
X2278929Y-13744976D01*
X2259881Y-13735452D01*
X2250357Y-13725928D01*
X2240833Y-13706881D01*
X2231310Y-13668786D01*
X2231310Y-13621167D01*
X2240833Y-13583071D01*
X2250357Y-13564024D01*
X2259881Y-13554500D01*
X2278929Y-13544976D01*
X2536071Y-13744976D02*
X2421786Y-13744976D01*
X2478929Y-13744976D02*
X2478929Y-13544976D01*
X2459881Y-13573548D01*
X2440833Y-13592595D01*
X2421786Y-13602119D01*
X2659881Y-13544976D02*
X2678929Y-13544976D01*
X2697976Y-13554500D01*
X2707500Y-13564024D01*
X2717024Y-13583071D01*
X2726548Y-13621167D01*
X2726548Y-13668786D01*
X2717024Y-13706881D01*
X2707500Y-13725928D01*
X2697976Y-13735452D01*
X2678929Y-13744976D01*
X2659881Y-13744976D01*
X2640833Y-13735452D01*
X2631310Y-13725928D01*
X2621786Y-13706881D01*
X2612262Y-13668786D01*
X2612262Y-13621167D01*
X2621786Y-13583071D01*
X2631310Y-13564024D01*
X2640833Y-13554500D01*
X2659881Y-13544976D01*
X2812262Y-13744976D02*
X2812262Y-13611643D01*
X2812262Y-13630690D02*
X2821786Y-13621167D01*
X2840833Y-13611643D01*
X2869405Y-13611643D01*
X2888452Y-13621167D01*
X2897976Y-13640214D01*
X2897976Y-13744976D01*
X2897976Y-13640214D02*
X2907500Y-13621167D01*
X2926548Y-13611643D01*
X2955119Y-13611643D01*
X2974167Y-13621167D01*
X2983690Y-13640214D01*
X2983690Y-13744976D01*
X3078928Y-13744976D02*
X3078928Y-13611643D01*
X3078928Y-13630690D02*
X3088452Y-13621167D01*
X3107500Y-13611643D01*
X3136071Y-13611643D01*
X3155119Y-13621167D01*
X3164643Y-13640214D01*
X3164643Y-13744976D01*
X3164643Y-13640214D02*
X3174167Y-13621167D01*
X3193214Y-13611643D01*
X3221786Y-13611643D01*
X3240833Y-13621167D01*
X3250357Y-13640214D01*
X3250357Y-13744976D01*
X3640833Y-13535452D02*
X3469405Y-13792595D01*
X3897976Y-13544976D02*
X3917024Y-13544976D01*
X3936071Y-13554500D01*
X3945595Y-13564024D01*
X3955119Y-13583071D01*
X3964643Y-13621167D01*
X3964643Y-13668786D01*
X3955119Y-13706881D01*
X3945595Y-13725928D01*
X3936071Y-13735452D01*
X3917024Y-13744976D01*
X3897976Y-13744976D01*
X3878928Y-13735452D01*
X3869405Y-13725928D01*
X3859881Y-13706881D01*
X3850357Y-13668786D01*
X3850357Y-13621167D01*
X3859881Y-13583071D01*
X3869405Y-13564024D01*
X3878928Y-13554500D01*
X3897976Y-13544976D01*
X4050357Y-13725928D02*
X4059881Y-13735452D01*
X4050357Y-13744976D01*
X4040833Y-13735452D01*
X4050357Y-13725928D01*
X4050357Y-13744976D01*
X4183690Y-13544976D02*
X4202738Y-13544976D01*
X4221786Y-13554500D01*
X4231310Y-13564024D01*
X4240833Y-13583071D01*
X4250357Y-13621167D01*
X4250357Y-13668786D01*
X4240833Y-13706881D01*
X4231310Y-13725928D01*
X4221786Y-13735452D01*
X4202738Y-13744976D01*
X4183690Y-13744976D01*
X4164643Y-13735452D01*
X4155119Y-13725928D01*
X4145595Y-13706881D01*
X4136071Y-13668786D01*
X4136071Y-13621167D01*
X4145595Y-13583071D01*
X4155119Y-13564024D01*
X4164643Y-13554500D01*
X4183690Y-13544976D01*
X4317024Y-13544976D02*
X4440833Y-13544976D01*
X4374167Y-13621167D01*
X4402738Y-13621167D01*
X4421786Y-13630690D01*
X4431310Y-13640214D01*
X4440833Y-13659262D01*
X4440833Y-13706881D01*
X4431310Y-13725928D01*
X4421786Y-13735452D01*
X4402738Y-13744976D01*
X4345595Y-13744976D01*
X4326548Y-13735452D01*
X4317024Y-13725928D01*
X4536071Y-13744976D02*
X4574167Y-13744976D01*
X4593214Y-13735452D01*
X4602738Y-13725928D01*
X4621786Y-13697357D01*
X4631310Y-13659262D01*
X4631310Y-13583071D01*
X4621786Y-13564024D01*
X4612262Y-13554500D01*
X4593214Y-13544976D01*
X4555119Y-13544976D01*
X4536071Y-13554500D01*
X4526548Y-13564024D01*
X4517024Y-13583071D01*
X4517024Y-13630690D01*
X4526548Y-13649738D01*
X4536071Y-13659262D01*
X4555119Y-13668786D01*
X4593214Y-13668786D01*
X4612262Y-13659262D01*
X4621786Y-13649738D01*
X4631310Y-13630690D01*
X4745595Y-13630690D02*
X4726548Y-13621167D01*
X4717024Y-13611643D01*
X4707500Y-13592595D01*
X4707500Y-13583071D01*
X4717024Y-13564024D01*
X4726548Y-13554500D01*
X4745595Y-13544976D01*
X4783690Y-13544976D01*
X4802738Y-13554500D01*
X4812262Y-13564024D01*
X4821786Y-13583071D01*
X4821786Y-13592595D01*
X4812262Y-13611643D01*
X4802738Y-13621167D01*
X4783690Y-13630690D01*
X4745595Y-13630690D01*
X4726548Y-13640214D01*
X4717024Y-13649738D01*
X4707500Y-13668786D01*
X4707500Y-13706881D01*
X4717024Y-13725928D01*
X4726548Y-13735452D01*
X4745595Y-13744976D01*
X4783690Y-13744976D01*
X4802738Y-13735452D01*
X4812262Y-13725928D01*
X4821786Y-13706881D01*
X4821786Y-13668786D01*
X4812262Y-13649738D01*
X4802738Y-13640214D01*
X4783690Y-13630690D01*
X4897976Y-13544976D02*
X4897976Y-13583071D01*
X4974167Y-13544976D02*
X4974167Y-13583071D01*
X5269405Y-13821167D02*
X5259881Y-13811643D01*
X5240833Y-13783071D01*
X5231310Y-13764024D01*
X5221786Y-13735452D01*
X5212262Y-13687833D01*
X5212262Y-13649738D01*
X5221786Y-13602119D01*
X5231310Y-13573548D01*
X5240833Y-13554500D01*
X5259881Y-13525928D01*
X5269405Y-13516405D01*
X5336071Y-13564024D02*
X5345595Y-13554500D01*
X5364643Y-13544976D01*
X5412262Y-13544976D01*
X5431310Y-13554500D01*
X5440833Y-13564024D01*
X5450357Y-13583071D01*
X5450357Y-13602119D01*
X5440833Y-13630690D01*
X5326548Y-13744976D01*
X5450357Y-13744976D01*
X5688452Y-13744976D02*
X5688452Y-13544976D01*
X5774167Y-13744976D02*
X5774167Y-13640214D01*
X5764643Y-13621167D01*
X5745595Y-13611643D01*
X5717024Y-13611643D01*
X5697976Y-13621167D01*
X5688452Y-13630690D01*
X5897976Y-13744976D02*
X5878928Y-13735452D01*
X5869405Y-13725928D01*
X5859881Y-13706881D01*
X5859881Y-13649738D01*
X5869405Y-13630690D01*
X5878928Y-13621167D01*
X5897976Y-13611643D01*
X5926548Y-13611643D01*
X5945595Y-13621167D01*
X5955119Y-13630690D01*
X5964643Y-13649738D01*
X5964643Y-13706881D01*
X5955119Y-13725928D01*
X5945595Y-13735452D01*
X5926548Y-13744976D01*
X5897976Y-13744976D01*
X6078928Y-13744976D02*
X6059881Y-13735452D01*
X6050357Y-13716405D01*
X6050357Y-13544976D01*
X6231309Y-13735452D02*
X6212262Y-13744976D01*
X6174167Y-13744976D01*
X6155119Y-13735452D01*
X6145595Y-13716405D01*
X6145595Y-13640214D01*
X6155119Y-13621167D01*
X6174167Y-13611643D01*
X6212262Y-13611643D01*
X6231309Y-13621167D01*
X6240833Y-13640214D01*
X6240833Y-13659262D01*
X6145595Y-13678309D01*
X6317024Y-13735452D02*
X6336071Y-13744976D01*
X6374167Y-13744976D01*
X6393214Y-13735452D01*
X6402738Y-13716405D01*
X6402738Y-13706881D01*
X6393214Y-13687833D01*
X6374167Y-13678309D01*
X6345595Y-13678309D01*
X6326548Y-13668786D01*
X6317024Y-13649738D01*
X6317024Y-13640214D01*
X6326548Y-13621167D01*
X6345595Y-13611643D01*
X6374167Y-13611643D01*
X6393214Y-13621167D01*
X6469405Y-13821167D02*
X6478928Y-13811643D01*
X6497976Y-13783071D01*
X6507500Y-13764024D01*
X6517024Y-13735452D01*
X6526548Y-13687833D01*
X6526548Y-13649738D01*
X6517024Y-13602119D01*
X6507500Y-13573548D01*
X6497976Y-13554500D01*
X6478928Y-13525928D01*
X6469405Y-13516405D01*
D21*
X1645000Y-13866000D02*
X1645000Y-13971000D01*
X1592500Y-13918500D02*
X1697500Y-13918500D01*
X1697500Y-13918500D02*
G75*
G03*
X1697500Y-13918500I-52500J0D01*
G01*
D11*
X2059881Y-14008976D02*
X1945595Y-14008976D01*
X2002738Y-14008976D02*
X2002738Y-13808976D01*
X1983690Y-13837548D01*
X1964643Y-13856595D01*
X1945595Y-13866119D01*
X2145595Y-13989928D02*
X2155119Y-13999452D01*
X2145595Y-14008976D01*
X2136071Y-13999452D01*
X2145595Y-13989928D01*
X2145595Y-14008976D01*
X2278929Y-13808976D02*
X2297976Y-13808976D01*
X2317024Y-13818500D01*
X2326548Y-13828024D01*
X2336071Y-13847071D01*
X2345595Y-13885167D01*
X2345595Y-13932786D01*
X2336071Y-13970881D01*
X2326548Y-13989928D01*
X2317024Y-13999452D01*
X2297976Y-14008976D01*
X2278929Y-14008976D01*
X2259881Y-13999452D01*
X2250357Y-13989928D01*
X2240833Y-13970881D01*
X2231310Y-13932786D01*
X2231310Y-13885167D01*
X2240833Y-13847071D01*
X2250357Y-13828024D01*
X2259881Y-13818500D01*
X2278929Y-13808976D01*
X2526548Y-13808976D02*
X2431310Y-13808976D01*
X2421786Y-13904214D01*
X2431310Y-13894690D01*
X2450357Y-13885167D01*
X2497976Y-13885167D01*
X2517024Y-13894690D01*
X2526548Y-13904214D01*
X2536071Y-13923262D01*
X2536071Y-13970881D01*
X2526548Y-13989928D01*
X2517024Y-13999452D01*
X2497976Y-14008976D01*
X2450357Y-14008976D01*
X2431310Y-13999452D01*
X2421786Y-13989928D01*
X2659881Y-13808976D02*
X2678929Y-13808976D01*
X2697976Y-13818500D01*
X2707500Y-13828024D01*
X2717024Y-13847071D01*
X2726548Y-13885167D01*
X2726548Y-13932786D01*
X2717024Y-13970881D01*
X2707500Y-13989928D01*
X2697976Y-13999452D01*
X2678929Y-14008976D01*
X2659881Y-14008976D01*
X2640833Y-13999452D01*
X2631310Y-13989928D01*
X2621786Y-13970881D01*
X2612262Y-13932786D01*
X2612262Y-13885167D01*
X2621786Y-13847071D01*
X2631310Y-13828024D01*
X2640833Y-13818500D01*
X2659881Y-13808976D01*
X2812262Y-14008976D02*
X2812262Y-13875643D01*
X2812262Y-13894690D02*
X2821786Y-13885167D01*
X2840833Y-13875643D01*
X2869405Y-13875643D01*
X2888452Y-13885167D01*
X2897976Y-13904214D01*
X2897976Y-14008976D01*
X2897976Y-13904214D02*
X2907500Y-13885167D01*
X2926548Y-13875643D01*
X2955119Y-13875643D01*
X2974167Y-13885167D01*
X2983690Y-13904214D01*
X2983690Y-14008976D01*
X3078928Y-14008976D02*
X3078928Y-13875643D01*
X3078928Y-13894690D02*
X3088452Y-13885167D01*
X3107500Y-13875643D01*
X3136071Y-13875643D01*
X3155119Y-13885167D01*
X3164643Y-13904214D01*
X3164643Y-14008976D01*
X3164643Y-13904214D02*
X3174167Y-13885167D01*
X3193214Y-13875643D01*
X3221786Y-13875643D01*
X3240833Y-13885167D01*
X3250357Y-13904214D01*
X3250357Y-14008976D01*
X3640833Y-13799452D02*
X3469405Y-14056595D01*
X3897976Y-13808976D02*
X3917024Y-13808976D01*
X3936071Y-13818500D01*
X3945595Y-13828024D01*
X3955119Y-13847071D01*
X3964643Y-13885167D01*
X3964643Y-13932786D01*
X3955119Y-13970881D01*
X3945595Y-13989928D01*
X3936071Y-13999452D01*
X3917024Y-14008976D01*
X3897976Y-14008976D01*
X3878928Y-13999452D01*
X3869405Y-13989928D01*
X3859881Y-13970881D01*
X3850357Y-13932786D01*
X3850357Y-13885167D01*
X3859881Y-13847071D01*
X3869405Y-13828024D01*
X3878928Y-13818500D01*
X3897976Y-13808976D01*
X4050357Y-13989928D02*
X4059881Y-13999452D01*
X4050357Y-14008976D01*
X4040833Y-13999452D01*
X4050357Y-13989928D01*
X4050357Y-14008976D01*
X4183690Y-13808976D02*
X4202738Y-13808976D01*
X4221786Y-13818500D01*
X4231310Y-13828024D01*
X4240833Y-13847071D01*
X4250357Y-13885167D01*
X4250357Y-13932786D01*
X4240833Y-13970881D01*
X4231310Y-13989928D01*
X4221786Y-13999452D01*
X4202738Y-14008976D01*
X4183690Y-14008976D01*
X4164643Y-13999452D01*
X4155119Y-13989928D01*
X4145595Y-13970881D01*
X4136071Y-13932786D01*
X4136071Y-13885167D01*
X4145595Y-13847071D01*
X4155119Y-13828024D01*
X4164643Y-13818500D01*
X4183690Y-13808976D01*
X4421786Y-13875643D02*
X4421786Y-14008976D01*
X4374167Y-13799452D02*
X4326548Y-13942309D01*
X4450357Y-13942309D01*
X4631310Y-14008976D02*
X4517024Y-14008976D01*
X4574167Y-14008976D02*
X4574167Y-13808976D01*
X4555119Y-13837548D01*
X4536071Y-13856595D01*
X4517024Y-13866119D01*
X4697976Y-13808976D02*
X4821786Y-13808976D01*
X4755119Y-13885167D01*
X4783690Y-13885167D01*
X4802738Y-13894690D01*
X4812262Y-13904214D01*
X4821786Y-13923262D01*
X4821786Y-13970881D01*
X4812262Y-13989928D01*
X4802738Y-13999452D01*
X4783690Y-14008976D01*
X4726548Y-14008976D01*
X4707500Y-13999452D01*
X4697976Y-13989928D01*
X4897976Y-13808976D02*
X4897976Y-13847071D01*
X4974167Y-13808976D02*
X4974167Y-13847071D01*
X5269405Y-14085167D02*
X5259881Y-14075643D01*
X5240833Y-14047071D01*
X5231310Y-14028024D01*
X5221786Y-13999452D01*
X5212262Y-13951833D01*
X5212262Y-13913738D01*
X5221786Y-13866119D01*
X5231310Y-13837548D01*
X5240833Y-13818500D01*
X5259881Y-13789928D01*
X5269405Y-13780405D01*
X5336071Y-13828024D02*
X5345595Y-13818500D01*
X5364643Y-13808976D01*
X5412262Y-13808976D01*
X5431310Y-13818500D01*
X5440833Y-13828024D01*
X5450357Y-13847071D01*
X5450357Y-13866119D01*
X5440833Y-13894690D01*
X5326548Y-14008976D01*
X5450357Y-14008976D01*
X5688452Y-14008976D02*
X5688452Y-13808976D01*
X5774167Y-14008976D02*
X5774167Y-13904214D01*
X5764643Y-13885167D01*
X5745595Y-13875643D01*
X5717024Y-13875643D01*
X5697976Y-13885167D01*
X5688452Y-13894690D01*
X5897976Y-14008976D02*
X5878928Y-13999452D01*
X5869405Y-13989928D01*
X5859881Y-13970881D01*
X5859881Y-13913738D01*
X5869405Y-13894690D01*
X5878928Y-13885167D01*
X5897976Y-13875643D01*
X5926548Y-13875643D01*
X5945595Y-13885167D01*
X5955119Y-13894690D01*
X5964643Y-13913738D01*
X5964643Y-13970881D01*
X5955119Y-13989928D01*
X5945595Y-13999452D01*
X5926548Y-14008976D01*
X5897976Y-14008976D01*
X6078928Y-14008976D02*
X6059881Y-13999452D01*
X6050357Y-13980405D01*
X6050357Y-13808976D01*
X6231309Y-13999452D02*
X6212262Y-14008976D01*
X6174167Y-14008976D01*
X6155119Y-13999452D01*
X6145595Y-13980405D01*
X6145595Y-13904214D01*
X6155119Y-13885167D01*
X6174167Y-13875643D01*
X6212262Y-13875643D01*
X6231309Y-13885167D01*
X6240833Y-13904214D01*
X6240833Y-13923262D01*
X6145595Y-13942309D01*
X6317024Y-13999452D02*
X6336071Y-14008976D01*
X6374167Y-14008976D01*
X6393214Y-13999452D01*
X6402738Y-13980405D01*
X6402738Y-13970881D01*
X6393214Y-13951833D01*
X6374167Y-13942309D01*
X6345595Y-13942309D01*
X6326548Y-13932786D01*
X6317024Y-13913738D01*
X6317024Y-13904214D01*
X6326548Y-13885167D01*
X6345595Y-13875643D01*
X6374167Y-13875643D01*
X6393214Y-13885167D01*
X6469405Y-14085167D02*
X6478928Y-14075643D01*
X6497976Y-14047071D01*
X6507500Y-14028024D01*
X6517024Y-13999452D01*
X6526548Y-13951833D01*
X6526548Y-13913738D01*
X6517024Y-13866119D01*
X6507500Y-13837548D01*
X6497976Y-13818500D01*
X6478928Y-13789928D01*
X6469405Y-13780405D01*
D22*
X1681391Y-14221391D02*
X1681391Y-14143609D01*
X1603609Y-14143609D01*
X1603609Y-14221391D01*
X1681391Y-14221391D01*
X1697500Y-14182500D02*
G75*
G03*
X1697500Y-14182500I-55000J0D01*
G01*
D11*
X2059881Y-14272976D02*
X1945595Y-14272976D01*
X2002738Y-14272976D02*
X2002738Y-14072976D01*
X1983690Y-14101548D01*
X1964643Y-14120595D01*
X1945595Y-14130119D01*
X2145595Y-14253928D02*
X2155119Y-14263452D01*
X2145595Y-14272976D01*
X2136071Y-14263452D01*
X2145595Y-14253928D01*
X2145595Y-14272976D01*
X2345595Y-14272976D02*
X2231310Y-14272976D01*
X2288452Y-14272976D02*
X2288452Y-14072976D01*
X2269405Y-14101548D01*
X2250357Y-14120595D01*
X2231310Y-14130119D01*
X2469405Y-14072976D02*
X2488452Y-14072976D01*
X2507500Y-14082500D01*
X2517024Y-14092024D01*
X2526548Y-14111071D01*
X2536071Y-14149167D01*
X2536071Y-14196786D01*
X2526548Y-14234881D01*
X2517024Y-14253928D01*
X2507500Y-14263452D01*
X2488452Y-14272976D01*
X2469405Y-14272976D01*
X2450357Y-14263452D01*
X2440833Y-14253928D01*
X2431310Y-14234881D01*
X2421786Y-14196786D01*
X2421786Y-14149167D01*
X2431310Y-14111071D01*
X2440833Y-14092024D01*
X2450357Y-14082500D01*
X2469405Y-14072976D01*
X2659881Y-14072976D02*
X2678929Y-14072976D01*
X2697976Y-14082500D01*
X2707500Y-14092024D01*
X2717024Y-14111071D01*
X2726548Y-14149167D01*
X2726548Y-14196786D01*
X2717024Y-14234881D01*
X2707500Y-14253928D01*
X2697976Y-14263452D01*
X2678929Y-14272976D01*
X2659881Y-14272976D01*
X2640833Y-14263452D01*
X2631310Y-14253928D01*
X2621786Y-14234881D01*
X2612262Y-14196786D01*
X2612262Y-14149167D01*
X2621786Y-14111071D01*
X2631310Y-14092024D01*
X2640833Y-14082500D01*
X2659881Y-14072976D01*
X2812262Y-14272976D02*
X2812262Y-14139643D01*
X2812262Y-14158690D02*
X2821786Y-14149167D01*
X2840833Y-14139643D01*
X2869405Y-14139643D01*
X2888452Y-14149167D01*
X2897976Y-14168214D01*
X2897976Y-14272976D01*
X2897976Y-14168214D02*
X2907500Y-14149167D01*
X2926548Y-14139643D01*
X2955119Y-14139643D01*
X2974167Y-14149167D01*
X2983690Y-14168214D01*
X2983690Y-14272976D01*
X3078928Y-14272976D02*
X3078928Y-14139643D01*
X3078928Y-14158690D02*
X3088452Y-14149167D01*
X3107500Y-14139643D01*
X3136071Y-14139643D01*
X3155119Y-14149167D01*
X3164643Y-14168214D01*
X3164643Y-14272976D01*
X3164643Y-14168214D02*
X3174167Y-14149167D01*
X3193214Y-14139643D01*
X3221786Y-14139643D01*
X3240833Y-14149167D01*
X3250357Y-14168214D01*
X3250357Y-14272976D01*
X3640833Y-14063452D02*
X3469405Y-14320595D01*
X3897976Y-14072976D02*
X3917024Y-14072976D01*
X3936071Y-14082500D01*
X3945595Y-14092024D01*
X3955119Y-14111071D01*
X3964643Y-14149167D01*
X3964643Y-14196786D01*
X3955119Y-14234881D01*
X3945595Y-14253928D01*
X3936071Y-14263452D01*
X3917024Y-14272976D01*
X3897976Y-14272976D01*
X3878928Y-14263452D01*
X3869405Y-14253928D01*
X3859881Y-14234881D01*
X3850357Y-14196786D01*
X3850357Y-14149167D01*
X3859881Y-14111071D01*
X3869405Y-14092024D01*
X3878928Y-14082500D01*
X3897976Y-14072976D01*
X4050357Y-14253928D02*
X4059881Y-14263452D01*
X4050357Y-14272976D01*
X4040833Y-14263452D01*
X4050357Y-14253928D01*
X4050357Y-14272976D01*
X4183690Y-14072976D02*
X4202738Y-14072976D01*
X4221786Y-14082500D01*
X4231310Y-14092024D01*
X4240833Y-14111071D01*
X4250357Y-14149167D01*
X4250357Y-14196786D01*
X4240833Y-14234881D01*
X4231310Y-14253928D01*
X4221786Y-14263452D01*
X4202738Y-14272976D01*
X4183690Y-14272976D01*
X4164643Y-14263452D01*
X4155119Y-14253928D01*
X4145595Y-14234881D01*
X4136071Y-14196786D01*
X4136071Y-14149167D01*
X4145595Y-14111071D01*
X4155119Y-14092024D01*
X4164643Y-14082500D01*
X4183690Y-14072976D01*
X4421786Y-14139643D02*
X4421786Y-14272976D01*
X4374167Y-14063452D02*
X4326548Y-14206309D01*
X4450357Y-14206309D01*
X4507500Y-14072976D02*
X4631310Y-14072976D01*
X4564643Y-14149167D01*
X4593214Y-14149167D01*
X4612262Y-14158690D01*
X4621786Y-14168214D01*
X4631310Y-14187262D01*
X4631310Y-14234881D01*
X4621786Y-14253928D01*
X4612262Y-14263452D01*
X4593214Y-14272976D01*
X4536071Y-14272976D01*
X4517024Y-14263452D01*
X4507500Y-14253928D01*
X4697976Y-14072976D02*
X4821786Y-14072976D01*
X4755119Y-14149167D01*
X4783690Y-14149167D01*
X4802738Y-14158690D01*
X4812262Y-14168214D01*
X4821786Y-14187262D01*
X4821786Y-14234881D01*
X4812262Y-14253928D01*
X4802738Y-14263452D01*
X4783690Y-14272976D01*
X4726548Y-14272976D01*
X4707500Y-14263452D01*
X4697976Y-14253928D01*
X4897976Y-14072976D02*
X4897976Y-14111071D01*
X4974167Y-14072976D02*
X4974167Y-14111071D01*
X5269405Y-14349167D02*
X5259881Y-14339643D01*
X5240833Y-14311071D01*
X5231310Y-14292024D01*
X5221786Y-14263452D01*
X5212262Y-14215833D01*
X5212262Y-14177738D01*
X5221786Y-14130119D01*
X5231310Y-14101548D01*
X5240833Y-14082500D01*
X5259881Y-14053928D01*
X5269405Y-14044405D01*
X5450357Y-14272976D02*
X5336071Y-14272976D01*
X5393214Y-14272976D02*
X5393214Y-14072976D01*
X5374167Y-14101548D01*
X5355119Y-14120595D01*
X5336071Y-14130119D01*
X5526548Y-14092024D02*
X5536071Y-14082500D01*
X5555119Y-14072976D01*
X5602738Y-14072976D01*
X5621786Y-14082500D01*
X5631309Y-14092024D01*
X5640833Y-14111071D01*
X5640833Y-14130119D01*
X5631309Y-14158690D01*
X5517024Y-14272976D01*
X5640833Y-14272976D01*
X5878928Y-14272976D02*
X5878928Y-14072976D01*
X5964643Y-14272976D02*
X5964643Y-14168214D01*
X5955119Y-14149167D01*
X5936071Y-14139643D01*
X5907500Y-14139643D01*
X5888452Y-14149167D01*
X5878928Y-14158690D01*
X6088452Y-14272976D02*
X6069405Y-14263452D01*
X6059881Y-14253928D01*
X6050357Y-14234881D01*
X6050357Y-14177738D01*
X6059881Y-14158690D01*
X6069405Y-14149167D01*
X6088452Y-14139643D01*
X6117024Y-14139643D01*
X6136071Y-14149167D01*
X6145595Y-14158690D01*
X6155119Y-14177738D01*
X6155119Y-14234881D01*
X6145595Y-14253928D01*
X6136071Y-14263452D01*
X6117024Y-14272976D01*
X6088452Y-14272976D01*
X6269405Y-14272976D02*
X6250357Y-14263452D01*
X6240833Y-14244405D01*
X6240833Y-14072976D01*
X6421786Y-14263452D02*
X6402738Y-14272976D01*
X6364643Y-14272976D01*
X6345595Y-14263452D01*
X6336071Y-14244405D01*
X6336071Y-14168214D01*
X6345595Y-14149167D01*
X6364643Y-14139643D01*
X6402738Y-14139643D01*
X6421786Y-14149167D01*
X6431309Y-14168214D01*
X6431309Y-14187262D01*
X6336071Y-14206309D01*
X6507500Y-14263452D02*
X6526548Y-14272976D01*
X6564643Y-14272976D01*
X6583690Y-14263452D01*
X6593214Y-14244405D01*
X6593214Y-14234881D01*
X6583690Y-14215833D01*
X6564643Y-14206309D01*
X6536071Y-14206309D01*
X6517024Y-14196786D01*
X6507500Y-14177738D01*
X6507500Y-14168214D01*
X6517024Y-14149167D01*
X6536071Y-14139643D01*
X6564643Y-14139643D01*
X6583690Y-14149167D01*
X6659881Y-14349167D02*
X6669405Y-14339643D01*
X6688452Y-14311071D01*
X6697976Y-14292024D01*
X6707500Y-14263452D01*
X6717024Y-14215833D01*
X6717024Y-14177738D01*
X6707500Y-14130119D01*
X6697976Y-14101548D01*
X6688452Y-14082500D01*
X6669405Y-14053928D01*
X6659881Y-14044405D01*
D23*
X1637500Y-14506500D02*
X1697500Y-14446500D01*
X1637500Y-14386500D01*
X1577500Y-14446500D01*
X1637500Y-14506500D01*
X1697500Y-14446500D02*
G75*
G03*
X1697500Y-14446500I-60000J0D01*
G01*
D11*
X2059881Y-14536976D02*
X1945595Y-14536976D01*
X2002738Y-14536976D02*
X2002738Y-14336976D01*
X1983690Y-14365548D01*
X1964643Y-14384595D01*
X1945595Y-14394119D01*
X2145595Y-14517928D02*
X2155119Y-14527452D01*
X2145595Y-14536976D01*
X2136071Y-14527452D01*
X2145595Y-14517928D01*
X2145595Y-14536976D01*
X2231310Y-14356024D02*
X2240833Y-14346500D01*
X2259881Y-14336976D01*
X2307500Y-14336976D01*
X2326548Y-14346500D01*
X2336071Y-14356024D01*
X2345595Y-14375071D01*
X2345595Y-14394119D01*
X2336071Y-14422690D01*
X2221786Y-14536976D01*
X2345595Y-14536976D01*
X2469405Y-14336976D02*
X2488452Y-14336976D01*
X2507500Y-14346500D01*
X2517024Y-14356024D01*
X2526548Y-14375071D01*
X2536071Y-14413167D01*
X2536071Y-14460786D01*
X2526548Y-14498881D01*
X2517024Y-14517928D01*
X2507500Y-14527452D01*
X2488452Y-14536976D01*
X2469405Y-14536976D01*
X2450357Y-14527452D01*
X2440833Y-14517928D01*
X2431310Y-14498881D01*
X2421786Y-14460786D01*
X2421786Y-14413167D01*
X2431310Y-14375071D01*
X2440833Y-14356024D01*
X2450357Y-14346500D01*
X2469405Y-14336976D01*
X2659881Y-14336976D02*
X2678929Y-14336976D01*
X2697976Y-14346500D01*
X2707500Y-14356024D01*
X2717024Y-14375071D01*
X2726548Y-14413167D01*
X2726548Y-14460786D01*
X2717024Y-14498881D01*
X2707500Y-14517928D01*
X2697976Y-14527452D01*
X2678929Y-14536976D01*
X2659881Y-14536976D01*
X2640833Y-14527452D01*
X2631310Y-14517928D01*
X2621786Y-14498881D01*
X2612262Y-14460786D01*
X2612262Y-14413167D01*
X2621786Y-14375071D01*
X2631310Y-14356024D01*
X2640833Y-14346500D01*
X2659881Y-14336976D01*
X2812262Y-14536976D02*
X2812262Y-14403643D01*
X2812262Y-14422690D02*
X2821786Y-14413167D01*
X2840833Y-14403643D01*
X2869405Y-14403643D01*
X2888452Y-14413167D01*
X2897976Y-14432214D01*
X2897976Y-14536976D01*
X2897976Y-14432214D02*
X2907500Y-14413167D01*
X2926548Y-14403643D01*
X2955119Y-14403643D01*
X2974167Y-14413167D01*
X2983690Y-14432214D01*
X2983690Y-14536976D01*
X3078928Y-14536976D02*
X3078928Y-14403643D01*
X3078928Y-14422690D02*
X3088452Y-14413167D01*
X3107500Y-14403643D01*
X3136071Y-14403643D01*
X3155119Y-14413167D01*
X3164643Y-14432214D01*
X3164643Y-14536976D01*
X3164643Y-14432214D02*
X3174167Y-14413167D01*
X3193214Y-14403643D01*
X3221786Y-14403643D01*
X3240833Y-14413167D01*
X3250357Y-14432214D01*
X3250357Y-14536976D01*
X3640833Y-14327452D02*
X3469405Y-14584595D01*
X3897976Y-14336976D02*
X3917024Y-14336976D01*
X3936071Y-14346500D01*
X3945595Y-14356024D01*
X3955119Y-14375071D01*
X3964643Y-14413167D01*
X3964643Y-14460786D01*
X3955119Y-14498881D01*
X3945595Y-14517928D01*
X3936071Y-14527452D01*
X3917024Y-14536976D01*
X3897976Y-14536976D01*
X3878928Y-14527452D01*
X3869405Y-14517928D01*
X3859881Y-14498881D01*
X3850357Y-14460786D01*
X3850357Y-14413167D01*
X3859881Y-14375071D01*
X3869405Y-14356024D01*
X3878928Y-14346500D01*
X3897976Y-14336976D01*
X4050357Y-14517928D02*
X4059881Y-14527452D01*
X4050357Y-14536976D01*
X4040833Y-14527452D01*
X4050357Y-14517928D01*
X4050357Y-14536976D01*
X4183690Y-14336976D02*
X4202738Y-14336976D01*
X4221786Y-14346500D01*
X4231310Y-14356024D01*
X4240833Y-14375071D01*
X4250357Y-14413167D01*
X4250357Y-14460786D01*
X4240833Y-14498881D01*
X4231310Y-14517928D01*
X4221786Y-14527452D01*
X4202738Y-14536976D01*
X4183690Y-14536976D01*
X4164643Y-14527452D01*
X4155119Y-14517928D01*
X4145595Y-14498881D01*
X4136071Y-14460786D01*
X4136071Y-14413167D01*
X4145595Y-14375071D01*
X4155119Y-14356024D01*
X4164643Y-14346500D01*
X4183690Y-14336976D01*
X4421786Y-14403643D02*
X4421786Y-14536976D01*
X4374167Y-14327452D02*
X4326548Y-14470309D01*
X4450357Y-14470309D01*
X4507500Y-14336976D02*
X4640833Y-14336976D01*
X4555119Y-14536976D01*
X4707500Y-14356024D02*
X4717024Y-14346500D01*
X4736071Y-14336976D01*
X4783690Y-14336976D01*
X4802738Y-14346500D01*
X4812262Y-14356024D01*
X4821786Y-14375071D01*
X4821786Y-14394119D01*
X4812262Y-14422690D01*
X4697976Y-14536976D01*
X4821786Y-14536976D01*
X4897976Y-14336976D02*
X4897976Y-14375071D01*
X4974167Y-14336976D02*
X4974167Y-14375071D01*
X5269405Y-14613167D02*
X5259881Y-14603643D01*
X5240833Y-14575071D01*
X5231310Y-14556024D01*
X5221786Y-14527452D01*
X5212262Y-14479833D01*
X5212262Y-14441738D01*
X5221786Y-14394119D01*
X5231310Y-14365548D01*
X5240833Y-14346500D01*
X5259881Y-14317928D01*
X5269405Y-14308405D01*
X5450357Y-14536976D02*
X5336071Y-14536976D01*
X5393214Y-14536976D02*
X5393214Y-14336976D01*
X5374167Y-14365548D01*
X5355119Y-14384595D01*
X5336071Y-14394119D01*
X5621786Y-14336976D02*
X5583690Y-14336976D01*
X5564643Y-14346500D01*
X5555119Y-14356024D01*
X5536071Y-14384595D01*
X5526548Y-14422690D01*
X5526548Y-14498881D01*
X5536071Y-14517928D01*
X5545595Y-14527452D01*
X5564643Y-14536976D01*
X5602738Y-14536976D01*
X5621786Y-14527452D01*
X5631309Y-14517928D01*
X5640833Y-14498881D01*
X5640833Y-14451262D01*
X5631309Y-14432214D01*
X5621786Y-14422690D01*
X5602738Y-14413167D01*
X5564643Y-14413167D01*
X5545595Y-14422690D01*
X5536071Y-14432214D01*
X5526548Y-14451262D01*
X5878928Y-14536976D02*
X5878928Y-14336976D01*
X5964643Y-14536976D02*
X5964643Y-14432214D01*
X5955119Y-14413167D01*
X5936071Y-14403643D01*
X5907500Y-14403643D01*
X5888452Y-14413167D01*
X5878928Y-14422690D01*
X6088452Y-14536976D02*
X6069405Y-14527452D01*
X6059881Y-14517928D01*
X6050357Y-14498881D01*
X6050357Y-14441738D01*
X6059881Y-14422690D01*
X6069405Y-14413167D01*
X6088452Y-14403643D01*
X6117024Y-14403643D01*
X6136071Y-14413167D01*
X6145595Y-14422690D01*
X6155119Y-14441738D01*
X6155119Y-14498881D01*
X6145595Y-14517928D01*
X6136071Y-14527452D01*
X6117024Y-14536976D01*
X6088452Y-14536976D01*
X6269405Y-14536976D02*
X6250357Y-14527452D01*
X6240833Y-14508405D01*
X6240833Y-14336976D01*
X6421786Y-14527452D02*
X6402738Y-14536976D01*
X6364643Y-14536976D01*
X6345595Y-14527452D01*
X6336071Y-14508405D01*
X6336071Y-14432214D01*
X6345595Y-14413167D01*
X6364643Y-14403643D01*
X6402738Y-14403643D01*
X6421786Y-14413167D01*
X6431309Y-14432214D01*
X6431309Y-14451262D01*
X6336071Y-14470309D01*
X6507500Y-14527452D02*
X6526548Y-14536976D01*
X6564643Y-14536976D01*
X6583690Y-14527452D01*
X6593214Y-14508405D01*
X6593214Y-14498881D01*
X6583690Y-14479833D01*
X6564643Y-14470309D01*
X6536071Y-14470309D01*
X6517024Y-14460786D01*
X6507500Y-14441738D01*
X6507500Y-14432214D01*
X6517024Y-14413167D01*
X6536071Y-14403643D01*
X6564643Y-14403643D01*
X6583690Y-14413167D01*
X6659881Y-14613167D02*
X6669405Y-14603643D01*
X6688452Y-14575071D01*
X6697976Y-14556024D01*
X6707500Y-14527452D01*
X6717024Y-14479833D01*
X6717024Y-14441738D01*
X6707500Y-14394119D01*
X6697976Y-14365548D01*
X6688452Y-14346500D01*
X6669405Y-14317928D01*
X6659881Y-14308405D01*
D24*
X1632500Y-14645500D02*
X1632500Y-14775500D01*
X1567500Y-14710500D02*
X1697500Y-14710500D01*
X1678462Y-14756462D02*
X1678462Y-14664538D01*
X1586538Y-14664538D01*
X1586538Y-14756462D01*
X1678462Y-14756462D01*
D11*
X2059881Y-14800976D02*
X1945595Y-14800976D01*
X2002738Y-14800976D02*
X2002738Y-14600976D01*
X1983690Y-14629548D01*
X1964643Y-14648595D01*
X1945595Y-14658119D01*
X2145595Y-14781928D02*
X2155119Y-14791452D01*
X2145595Y-14800976D01*
X2136071Y-14791452D01*
X2145595Y-14781928D01*
X2145595Y-14800976D01*
X2221786Y-14600976D02*
X2345595Y-14600976D01*
X2278929Y-14677167D01*
X2307500Y-14677167D01*
X2326548Y-14686690D01*
X2336071Y-14696214D01*
X2345595Y-14715262D01*
X2345595Y-14762881D01*
X2336071Y-14781928D01*
X2326548Y-14791452D01*
X2307500Y-14800976D01*
X2250357Y-14800976D01*
X2231310Y-14791452D01*
X2221786Y-14781928D01*
X2469405Y-14600976D02*
X2488452Y-14600976D01*
X2507500Y-14610500D01*
X2517024Y-14620024D01*
X2526548Y-14639071D01*
X2536071Y-14677167D01*
X2536071Y-14724786D01*
X2526548Y-14762881D01*
X2517024Y-14781928D01*
X2507500Y-14791452D01*
X2488452Y-14800976D01*
X2469405Y-14800976D01*
X2450357Y-14791452D01*
X2440833Y-14781928D01*
X2431310Y-14762881D01*
X2421786Y-14724786D01*
X2421786Y-14677167D01*
X2431310Y-14639071D01*
X2440833Y-14620024D01*
X2450357Y-14610500D01*
X2469405Y-14600976D01*
X2659881Y-14600976D02*
X2678929Y-14600976D01*
X2697976Y-14610500D01*
X2707500Y-14620024D01*
X2717024Y-14639071D01*
X2726548Y-14677167D01*
X2726548Y-14724786D01*
X2717024Y-14762881D01*
X2707500Y-14781928D01*
X2697976Y-14791452D01*
X2678929Y-14800976D01*
X2659881Y-14800976D01*
X2640833Y-14791452D01*
X2631310Y-14781928D01*
X2621786Y-14762881D01*
X2612262Y-14724786D01*
X2612262Y-14677167D01*
X2621786Y-14639071D01*
X2631310Y-14620024D01*
X2640833Y-14610500D01*
X2659881Y-14600976D01*
X2812262Y-14800976D02*
X2812262Y-14667643D01*
X2812262Y-14686690D02*
X2821786Y-14677167D01*
X2840833Y-14667643D01*
X2869405Y-14667643D01*
X2888452Y-14677167D01*
X2897976Y-14696214D01*
X2897976Y-14800976D01*
X2897976Y-14696214D02*
X2907500Y-14677167D01*
X2926548Y-14667643D01*
X2955119Y-14667643D01*
X2974167Y-14677167D01*
X2983690Y-14696214D01*
X2983690Y-14800976D01*
X3078928Y-14800976D02*
X3078928Y-14667643D01*
X3078928Y-14686690D02*
X3088452Y-14677167D01*
X3107500Y-14667643D01*
X3136071Y-14667643D01*
X3155119Y-14677167D01*
X3164643Y-14696214D01*
X3164643Y-14800976D01*
X3164643Y-14696214D02*
X3174167Y-14677167D01*
X3193214Y-14667643D01*
X3221786Y-14667643D01*
X3240833Y-14677167D01*
X3250357Y-14696214D01*
X3250357Y-14800976D01*
X3640833Y-14591452D02*
X3469405Y-14848595D01*
X3897976Y-14600976D02*
X3917024Y-14600976D01*
X3936071Y-14610500D01*
X3945595Y-14620024D01*
X3955119Y-14639071D01*
X3964643Y-14677167D01*
X3964643Y-14724786D01*
X3955119Y-14762881D01*
X3945595Y-14781928D01*
X3936071Y-14791452D01*
X3917024Y-14800976D01*
X3897976Y-14800976D01*
X3878928Y-14791452D01*
X3869405Y-14781928D01*
X3859881Y-14762881D01*
X3850357Y-14724786D01*
X3850357Y-14677167D01*
X3859881Y-14639071D01*
X3869405Y-14620024D01*
X3878928Y-14610500D01*
X3897976Y-14600976D01*
X4050357Y-14781928D02*
X4059881Y-14791452D01*
X4050357Y-14800976D01*
X4040833Y-14791452D01*
X4050357Y-14781928D01*
X4050357Y-14800976D01*
X4183690Y-14600976D02*
X4202738Y-14600976D01*
X4221786Y-14610500D01*
X4231310Y-14620024D01*
X4240833Y-14639071D01*
X4250357Y-14677167D01*
X4250357Y-14724786D01*
X4240833Y-14762881D01*
X4231310Y-14781928D01*
X4221786Y-14791452D01*
X4202738Y-14800976D01*
X4183690Y-14800976D01*
X4164643Y-14791452D01*
X4155119Y-14781928D01*
X4145595Y-14762881D01*
X4136071Y-14724786D01*
X4136071Y-14677167D01*
X4145595Y-14639071D01*
X4155119Y-14620024D01*
X4164643Y-14610500D01*
X4183690Y-14600976D01*
X4431310Y-14600976D02*
X4336071Y-14600976D01*
X4326548Y-14696214D01*
X4336071Y-14686690D01*
X4355119Y-14677167D01*
X4402738Y-14677167D01*
X4421786Y-14686690D01*
X4431310Y-14696214D01*
X4440833Y-14715262D01*
X4440833Y-14762881D01*
X4431310Y-14781928D01*
X4421786Y-14791452D01*
X4402738Y-14800976D01*
X4355119Y-14800976D01*
X4336071Y-14791452D01*
X4326548Y-14781928D01*
X4631310Y-14800976D02*
X4517024Y-14800976D01*
X4574167Y-14800976D02*
X4574167Y-14600976D01*
X4555119Y-14629548D01*
X4536071Y-14648595D01*
X4517024Y-14658119D01*
X4707500Y-14620024D02*
X4717024Y-14610500D01*
X4736071Y-14600976D01*
X4783690Y-14600976D01*
X4802738Y-14610500D01*
X4812262Y-14620024D01*
X4821786Y-14639071D01*
X4821786Y-14658119D01*
X4812262Y-14686690D01*
X4697976Y-14800976D01*
X4821786Y-14800976D01*
X4897976Y-14600976D02*
X4897976Y-14639071D01*
X4974167Y-14600976D02*
X4974167Y-14639071D01*
X5269405Y-14877167D02*
X5259881Y-14867643D01*
X5240833Y-14839071D01*
X5231310Y-14820024D01*
X5221786Y-14791452D01*
X5212262Y-14743833D01*
X5212262Y-14705738D01*
X5221786Y-14658119D01*
X5231310Y-14629548D01*
X5240833Y-14610500D01*
X5259881Y-14581928D01*
X5269405Y-14572405D01*
X5450357Y-14800976D02*
X5336071Y-14800976D01*
X5393214Y-14800976D02*
X5393214Y-14600976D01*
X5374167Y-14629548D01*
X5355119Y-14648595D01*
X5336071Y-14658119D01*
X5526548Y-14620024D02*
X5536071Y-14610500D01*
X5555119Y-14600976D01*
X5602738Y-14600976D01*
X5621786Y-14610500D01*
X5631309Y-14620024D01*
X5640833Y-14639071D01*
X5640833Y-14658119D01*
X5631309Y-14686690D01*
X5517024Y-14800976D01*
X5640833Y-14800976D01*
X5878928Y-14800976D02*
X5878928Y-14600976D01*
X5964643Y-14800976D02*
X5964643Y-14696214D01*
X5955119Y-14677167D01*
X5936071Y-14667643D01*
X5907500Y-14667643D01*
X5888452Y-14677167D01*
X5878928Y-14686690D01*
X6088452Y-14800976D02*
X6069405Y-14791452D01*
X6059881Y-14781928D01*
X6050357Y-14762881D01*
X6050357Y-14705738D01*
X6059881Y-14686690D01*
X6069405Y-14677167D01*
X6088452Y-14667643D01*
X6117024Y-14667643D01*
X6136071Y-14677167D01*
X6145595Y-14686690D01*
X6155119Y-14705738D01*
X6155119Y-14762881D01*
X6145595Y-14781928D01*
X6136071Y-14791452D01*
X6117024Y-14800976D01*
X6088452Y-14800976D01*
X6269405Y-14800976D02*
X6250357Y-14791452D01*
X6240833Y-14772405D01*
X6240833Y-14600976D01*
X6421786Y-14791452D02*
X6402738Y-14800976D01*
X6364643Y-14800976D01*
X6345595Y-14791452D01*
X6336071Y-14772405D01*
X6336071Y-14696214D01*
X6345595Y-14677167D01*
X6364643Y-14667643D01*
X6402738Y-14667643D01*
X6421786Y-14677167D01*
X6431309Y-14696214D01*
X6431309Y-14715262D01*
X6336071Y-14734309D01*
X6507500Y-14791452D02*
X6526548Y-14800976D01*
X6564643Y-14800976D01*
X6583690Y-14791452D01*
X6593214Y-14772405D01*
X6593214Y-14762881D01*
X6583690Y-14743833D01*
X6564643Y-14734309D01*
X6536071Y-14734309D01*
X6517024Y-14724786D01*
X6507500Y-14705738D01*
X6507500Y-14696214D01*
X6517024Y-14677167D01*
X6536071Y-14667643D01*
X6564643Y-14667643D01*
X6583690Y-14677167D01*
X6659881Y-14877167D02*
X6669405Y-14867643D01*
X6688452Y-14839071D01*
X6697976Y-14820024D01*
X6707500Y-14791452D01*
X6717024Y-14743833D01*
X6717024Y-14705738D01*
X6707500Y-14658119D01*
X6697976Y-14629548D01*
X6688452Y-14610500D01*
X6669405Y-14581928D01*
X6659881Y-14572405D01*
D25*
X1622500Y-14899500D02*
X1622500Y-15049500D01*
X1547500Y-14974500D02*
X1697500Y-14974500D01*
X1622500Y-15049500D02*
X1697500Y-14974500D01*
X1622500Y-14899500D01*
X1547500Y-14974500D01*
X1622500Y-15049500D01*
D11*
X2059881Y-15064976D02*
X1945595Y-15064976D01*
X2002738Y-15064976D02*
X2002738Y-14864976D01*
X1983690Y-14893548D01*
X1964643Y-14912595D01*
X1945595Y-14922119D01*
X2145595Y-15045928D02*
X2155119Y-15055452D01*
X2145595Y-15064976D01*
X2136071Y-15055452D01*
X2145595Y-15045928D01*
X2145595Y-15064976D01*
X2336071Y-14864976D02*
X2240833Y-14864976D01*
X2231310Y-14960214D01*
X2240833Y-14950690D01*
X2259881Y-14941167D01*
X2307500Y-14941167D01*
X2326548Y-14950690D01*
X2336071Y-14960214D01*
X2345595Y-14979262D01*
X2345595Y-15026881D01*
X2336071Y-15045928D01*
X2326548Y-15055452D01*
X2307500Y-15064976D01*
X2259881Y-15064976D01*
X2240833Y-15055452D01*
X2231310Y-15045928D01*
X2469405Y-14864976D02*
X2488452Y-14864976D01*
X2507500Y-14874500D01*
X2517024Y-14884024D01*
X2526548Y-14903071D01*
X2536071Y-14941167D01*
X2536071Y-14988786D01*
X2526548Y-15026881D01*
X2517024Y-15045928D01*
X2507500Y-15055452D01*
X2488452Y-15064976D01*
X2469405Y-15064976D01*
X2450357Y-15055452D01*
X2440833Y-15045928D01*
X2431310Y-15026881D01*
X2421786Y-14988786D01*
X2421786Y-14941167D01*
X2431310Y-14903071D01*
X2440833Y-14884024D01*
X2450357Y-14874500D01*
X2469405Y-14864976D01*
X2659881Y-14864976D02*
X2678929Y-14864976D01*
X2697976Y-14874500D01*
X2707500Y-14884024D01*
X2717024Y-14903071D01*
X2726548Y-14941167D01*
X2726548Y-14988786D01*
X2717024Y-15026881D01*
X2707500Y-15045928D01*
X2697976Y-15055452D01*
X2678929Y-15064976D01*
X2659881Y-15064976D01*
X2640833Y-15055452D01*
X2631310Y-15045928D01*
X2621786Y-15026881D01*
X2612262Y-14988786D01*
X2612262Y-14941167D01*
X2621786Y-14903071D01*
X2631310Y-14884024D01*
X2640833Y-14874500D01*
X2659881Y-14864976D01*
X2812262Y-15064976D02*
X2812262Y-14931643D01*
X2812262Y-14950690D02*
X2821786Y-14941167D01*
X2840833Y-14931643D01*
X2869405Y-14931643D01*
X2888452Y-14941167D01*
X2897976Y-14960214D01*
X2897976Y-15064976D01*
X2897976Y-14960214D02*
X2907500Y-14941167D01*
X2926548Y-14931643D01*
X2955119Y-14931643D01*
X2974167Y-14941167D01*
X2983690Y-14960214D01*
X2983690Y-15064976D01*
X3078928Y-15064976D02*
X3078928Y-14931643D01*
X3078928Y-14950690D02*
X3088452Y-14941167D01*
X3107500Y-14931643D01*
X3136071Y-14931643D01*
X3155119Y-14941167D01*
X3164643Y-14960214D01*
X3164643Y-15064976D01*
X3164643Y-14960214D02*
X3174167Y-14941167D01*
X3193214Y-14931643D01*
X3221786Y-14931643D01*
X3240833Y-14941167D01*
X3250357Y-14960214D01*
X3250357Y-15064976D01*
X3640833Y-14855452D02*
X3469405Y-15112595D01*
X3897976Y-14864976D02*
X3917024Y-14864976D01*
X3936071Y-14874500D01*
X3945595Y-14884024D01*
X3955119Y-14903071D01*
X3964643Y-14941167D01*
X3964643Y-14988786D01*
X3955119Y-15026881D01*
X3945595Y-15045928D01*
X3936071Y-15055452D01*
X3917024Y-15064976D01*
X3897976Y-15064976D01*
X3878928Y-15055452D01*
X3869405Y-15045928D01*
X3859881Y-15026881D01*
X3850357Y-14988786D01*
X3850357Y-14941167D01*
X3859881Y-14903071D01*
X3869405Y-14884024D01*
X3878928Y-14874500D01*
X3897976Y-14864976D01*
X4050357Y-15045928D02*
X4059881Y-15055452D01*
X4050357Y-15064976D01*
X4040833Y-15055452D01*
X4050357Y-15045928D01*
X4050357Y-15064976D01*
X4183690Y-14864976D02*
X4202738Y-14864976D01*
X4221786Y-14874500D01*
X4231310Y-14884024D01*
X4240833Y-14903071D01*
X4250357Y-14941167D01*
X4250357Y-14988786D01*
X4240833Y-15026881D01*
X4231310Y-15045928D01*
X4221786Y-15055452D01*
X4202738Y-15064976D01*
X4183690Y-15064976D01*
X4164643Y-15055452D01*
X4155119Y-15045928D01*
X4145595Y-15026881D01*
X4136071Y-14988786D01*
X4136071Y-14941167D01*
X4145595Y-14903071D01*
X4155119Y-14884024D01*
X4164643Y-14874500D01*
X4183690Y-14864976D01*
X4431310Y-14864976D02*
X4336071Y-14864976D01*
X4326548Y-14960214D01*
X4336071Y-14950690D01*
X4355119Y-14941167D01*
X4402738Y-14941167D01*
X4421786Y-14950690D01*
X4431310Y-14960214D01*
X4440833Y-14979262D01*
X4440833Y-15026881D01*
X4431310Y-15045928D01*
X4421786Y-15055452D01*
X4402738Y-15064976D01*
X4355119Y-15064976D01*
X4336071Y-15055452D01*
X4326548Y-15045928D01*
X4536071Y-15064976D02*
X4574167Y-15064976D01*
X4593214Y-15055452D01*
X4602738Y-15045928D01*
X4621786Y-15017357D01*
X4631310Y-14979262D01*
X4631310Y-14903071D01*
X4621786Y-14884024D01*
X4612262Y-14874500D01*
X4593214Y-14864976D01*
X4555119Y-14864976D01*
X4536071Y-14874500D01*
X4526548Y-14884024D01*
X4517024Y-14903071D01*
X4517024Y-14950690D01*
X4526548Y-14969738D01*
X4536071Y-14979262D01*
X4555119Y-14988786D01*
X4593214Y-14988786D01*
X4612262Y-14979262D01*
X4621786Y-14969738D01*
X4631310Y-14950690D01*
X4821786Y-15064976D02*
X4707500Y-15064976D01*
X4764643Y-15064976D02*
X4764643Y-14864976D01*
X4745595Y-14893548D01*
X4726548Y-14912595D01*
X4707500Y-14922119D01*
X4897976Y-14864976D02*
X4897976Y-14903071D01*
X4974167Y-14864976D02*
X4974167Y-14903071D01*
X5269405Y-15141167D02*
X5259881Y-15131643D01*
X5240833Y-15103071D01*
X5231310Y-15084024D01*
X5221786Y-15055452D01*
X5212262Y-15007833D01*
X5212262Y-14969738D01*
X5221786Y-14922119D01*
X5231310Y-14893548D01*
X5240833Y-14874500D01*
X5259881Y-14845928D01*
X5269405Y-14836405D01*
X5383690Y-14864976D02*
X5402738Y-14864976D01*
X5421786Y-14874500D01*
X5431310Y-14884024D01*
X5440833Y-14903071D01*
X5450357Y-14941167D01*
X5450357Y-14988786D01*
X5440833Y-15026881D01*
X5431310Y-15045928D01*
X5421786Y-15055452D01*
X5402738Y-15064976D01*
X5383690Y-15064976D01*
X5364643Y-15055452D01*
X5355119Y-15045928D01*
X5345595Y-15026881D01*
X5336071Y-14988786D01*
X5336071Y-14941167D01*
X5345595Y-14903071D01*
X5355119Y-14884024D01*
X5364643Y-14874500D01*
X5383690Y-14864976D01*
X5688452Y-15064976D02*
X5688452Y-14864976D01*
X5774167Y-15064976D02*
X5774167Y-14960214D01*
X5764643Y-14941167D01*
X5745595Y-14931643D01*
X5717024Y-14931643D01*
X5697976Y-14941167D01*
X5688452Y-14950690D01*
X5897976Y-15064976D02*
X5878928Y-15055452D01*
X5869405Y-15045928D01*
X5859881Y-15026881D01*
X5859881Y-14969738D01*
X5869405Y-14950690D01*
X5878928Y-14941167D01*
X5897976Y-14931643D01*
X5926548Y-14931643D01*
X5945595Y-14941167D01*
X5955119Y-14950690D01*
X5964643Y-14969738D01*
X5964643Y-15026881D01*
X5955119Y-15045928D01*
X5945595Y-15055452D01*
X5926548Y-15064976D01*
X5897976Y-15064976D01*
X6078928Y-15064976D02*
X6059881Y-15055452D01*
X6050357Y-15036405D01*
X6050357Y-14864976D01*
X6231309Y-15055452D02*
X6212262Y-15064976D01*
X6174167Y-15064976D01*
X6155119Y-15055452D01*
X6145595Y-15036405D01*
X6145595Y-14960214D01*
X6155119Y-14941167D01*
X6174167Y-14931643D01*
X6212262Y-14931643D01*
X6231309Y-14941167D01*
X6240833Y-14960214D01*
X6240833Y-14979262D01*
X6145595Y-14998309D01*
X6317024Y-15055452D02*
X6336071Y-15064976D01*
X6374167Y-15064976D01*
X6393214Y-15055452D01*
X6402738Y-15036405D01*
X6402738Y-15026881D01*
X6393214Y-15007833D01*
X6374167Y-14998309D01*
X6345595Y-14998309D01*
X6326548Y-14988786D01*
X6317024Y-14969738D01*
X6317024Y-14960214D01*
X6326548Y-14941167D01*
X6345595Y-14931643D01*
X6374167Y-14931643D01*
X6393214Y-14941167D01*
X6640833Y-14988786D02*
X6793214Y-14988786D01*
X6717024Y-15064976D02*
X6717024Y-14912595D01*
X7031309Y-14884024D02*
X7040833Y-14874500D01*
X7059881Y-14864976D01*
X7107500Y-14864976D01*
X7126548Y-14874500D01*
X7136071Y-14884024D01*
X7145595Y-14903071D01*
X7145595Y-14922119D01*
X7136071Y-14950690D01*
X7021786Y-15064976D01*
X7145595Y-15064976D01*
X7374167Y-15055452D02*
X7393214Y-15064976D01*
X7431309Y-15064976D01*
X7450357Y-15055452D01*
X7459881Y-15036405D01*
X7459881Y-15026881D01*
X7450357Y-15007833D01*
X7431309Y-14998309D01*
X7402738Y-14998309D01*
X7383690Y-14988786D01*
X7374167Y-14969738D01*
X7374167Y-14960214D01*
X7383690Y-14941167D01*
X7402738Y-14931643D01*
X7431309Y-14931643D01*
X7450357Y-14941167D01*
X7574167Y-15064976D02*
X7555119Y-15055452D01*
X7545595Y-15036405D01*
X7545595Y-14864976D01*
X7678928Y-15064976D02*
X7659881Y-15055452D01*
X7650357Y-15045928D01*
X7640833Y-15026881D01*
X7640833Y-14969738D01*
X7650357Y-14950690D01*
X7659881Y-14941167D01*
X7678928Y-14931643D01*
X7707500Y-14931643D01*
X7726548Y-14941167D01*
X7736071Y-14950690D01*
X7745595Y-14969738D01*
X7745595Y-15026881D01*
X7736071Y-15045928D01*
X7726548Y-15055452D01*
X7707500Y-15064976D01*
X7678928Y-15064976D01*
X7802738Y-14931643D02*
X7878928Y-14931643D01*
X7831309Y-14864976D02*
X7831309Y-15036405D01*
X7840833Y-15055452D01*
X7859881Y-15064976D01*
X7878928Y-15064976D01*
X7936071Y-15055452D02*
X7955119Y-15064976D01*
X7993214Y-15064976D01*
X8012262Y-15055452D01*
X8021786Y-15036405D01*
X8021786Y-15026881D01*
X8012262Y-15007833D01*
X7993214Y-14998309D01*
X7964643Y-14998309D01*
X7945595Y-14988786D01*
X7936071Y-14969738D01*
X7936071Y-14960214D01*
X7945595Y-14941167D01*
X7964643Y-14931643D01*
X7993214Y-14931643D01*
X8012262Y-14941167D01*
X8088452Y-15141167D02*
X8097976Y-15131643D01*
X8117024Y-15103071D01*
X8126548Y-15084024D01*
X8136071Y-15055452D01*
X8145595Y-15007833D01*
X8145595Y-14969738D01*
X8136071Y-14922119D01*
X8126548Y-14893548D01*
X8117024Y-14874500D01*
X8097976Y-14845928D01*
X8088452Y-14836405D01*
D26*
X1607500Y-15334500D02*
X1697500Y-15244500D01*
X1607500Y-15154500D01*
X1517500Y-15244500D01*
X1607500Y-15334500D01*
X1671140Y-15308140D02*
X1671140Y-15180860D01*
X1543860Y-15180860D01*
X1543860Y-15308140D01*
X1671140Y-15308140D01*
D11*
X2059881Y-15334976D02*
X1945595Y-15334976D01*
X2002738Y-15334976D02*
X2002738Y-15134976D01*
X1983690Y-15163548D01*
X1964643Y-15182595D01*
X1945595Y-15192119D01*
X2145595Y-15315928D02*
X2155119Y-15325452D01*
X2145595Y-15334976D01*
X2136071Y-15325452D01*
X2145595Y-15315928D01*
X2145595Y-15334976D01*
X2269405Y-15220690D02*
X2250357Y-15211167D01*
X2240833Y-15201643D01*
X2231310Y-15182595D01*
X2231310Y-15173071D01*
X2240833Y-15154024D01*
X2250357Y-15144500D01*
X2269405Y-15134976D01*
X2307500Y-15134976D01*
X2326548Y-15144500D01*
X2336071Y-15154024D01*
X2345595Y-15173071D01*
X2345595Y-15182595D01*
X2336071Y-15201643D01*
X2326548Y-15211167D01*
X2307500Y-15220690D01*
X2269405Y-15220690D01*
X2250357Y-15230214D01*
X2240833Y-15239738D01*
X2231310Y-15258786D01*
X2231310Y-15296881D01*
X2240833Y-15315928D01*
X2250357Y-15325452D01*
X2269405Y-15334976D01*
X2307500Y-15334976D01*
X2326548Y-15325452D01*
X2336071Y-15315928D01*
X2345595Y-15296881D01*
X2345595Y-15258786D01*
X2336071Y-15239738D01*
X2326548Y-15230214D01*
X2307500Y-15220690D01*
X2469405Y-15134976D02*
X2488452Y-15134976D01*
X2507500Y-15144500D01*
X2517024Y-15154024D01*
X2526548Y-15173071D01*
X2536071Y-15211167D01*
X2536071Y-15258786D01*
X2526548Y-15296881D01*
X2517024Y-15315928D01*
X2507500Y-15325452D01*
X2488452Y-15334976D01*
X2469405Y-15334976D01*
X2450357Y-15325452D01*
X2440833Y-15315928D01*
X2431310Y-15296881D01*
X2421786Y-15258786D01*
X2421786Y-15211167D01*
X2431310Y-15173071D01*
X2440833Y-15154024D01*
X2450357Y-15144500D01*
X2469405Y-15134976D01*
X2659881Y-15134976D02*
X2678929Y-15134976D01*
X2697976Y-15144500D01*
X2707500Y-15154024D01*
X2717024Y-15173071D01*
X2726548Y-15211167D01*
X2726548Y-15258786D01*
X2717024Y-15296881D01*
X2707500Y-15315928D01*
X2697976Y-15325452D01*
X2678929Y-15334976D01*
X2659881Y-15334976D01*
X2640833Y-15325452D01*
X2631310Y-15315928D01*
X2621786Y-15296881D01*
X2612262Y-15258786D01*
X2612262Y-15211167D01*
X2621786Y-15173071D01*
X2631310Y-15154024D01*
X2640833Y-15144500D01*
X2659881Y-15134976D01*
X2812262Y-15334976D02*
X2812262Y-15201643D01*
X2812262Y-15220690D02*
X2821786Y-15211167D01*
X2840833Y-15201643D01*
X2869405Y-15201643D01*
X2888452Y-15211167D01*
X2897976Y-15230214D01*
X2897976Y-15334976D01*
X2897976Y-15230214D02*
X2907500Y-15211167D01*
X2926548Y-15201643D01*
X2955119Y-15201643D01*
X2974167Y-15211167D01*
X2983690Y-15230214D01*
X2983690Y-15334976D01*
X3078928Y-15334976D02*
X3078928Y-15201643D01*
X3078928Y-15220690D02*
X3088452Y-15211167D01*
X3107500Y-15201643D01*
X3136071Y-15201643D01*
X3155119Y-15211167D01*
X3164643Y-15230214D01*
X3164643Y-15334976D01*
X3164643Y-15230214D02*
X3174167Y-15211167D01*
X3193214Y-15201643D01*
X3221786Y-15201643D01*
X3240833Y-15211167D01*
X3250357Y-15230214D01*
X3250357Y-15334976D01*
X3640833Y-15125452D02*
X3469405Y-15382595D01*
X3897976Y-15134976D02*
X3917024Y-15134976D01*
X3936071Y-15144500D01*
X3945595Y-15154024D01*
X3955119Y-15173071D01*
X3964643Y-15211167D01*
X3964643Y-15258786D01*
X3955119Y-15296881D01*
X3945595Y-15315928D01*
X3936071Y-15325452D01*
X3917024Y-15334976D01*
X3897976Y-15334976D01*
X3878928Y-15325452D01*
X3869405Y-15315928D01*
X3859881Y-15296881D01*
X3850357Y-15258786D01*
X3850357Y-15211167D01*
X3859881Y-15173071D01*
X3869405Y-15154024D01*
X3878928Y-15144500D01*
X3897976Y-15134976D01*
X4050357Y-15315928D02*
X4059881Y-15325452D01*
X4050357Y-15334976D01*
X4040833Y-15325452D01*
X4050357Y-15315928D01*
X4050357Y-15334976D01*
X4183690Y-15134976D02*
X4202738Y-15134976D01*
X4221786Y-15144500D01*
X4231310Y-15154024D01*
X4240833Y-15173071D01*
X4250357Y-15211167D01*
X4250357Y-15258786D01*
X4240833Y-15296881D01*
X4231310Y-15315928D01*
X4221786Y-15325452D01*
X4202738Y-15334976D01*
X4183690Y-15334976D01*
X4164643Y-15325452D01*
X4155119Y-15315928D01*
X4145595Y-15296881D01*
X4136071Y-15258786D01*
X4136071Y-15211167D01*
X4145595Y-15173071D01*
X4155119Y-15154024D01*
X4164643Y-15144500D01*
X4183690Y-15134976D01*
X4317024Y-15134976D02*
X4450357Y-15134976D01*
X4364643Y-15334976D01*
X4564643Y-15134976D02*
X4583690Y-15134976D01*
X4602738Y-15144500D01*
X4612262Y-15154024D01*
X4621786Y-15173071D01*
X4631310Y-15211167D01*
X4631310Y-15258786D01*
X4621786Y-15296881D01*
X4612262Y-15315928D01*
X4602738Y-15325452D01*
X4583690Y-15334976D01*
X4564643Y-15334976D01*
X4545595Y-15325452D01*
X4536071Y-15315928D01*
X4526548Y-15296881D01*
X4517024Y-15258786D01*
X4517024Y-15211167D01*
X4526548Y-15173071D01*
X4536071Y-15154024D01*
X4545595Y-15144500D01*
X4564643Y-15134976D01*
X4726548Y-15334976D02*
X4764643Y-15334976D01*
X4783690Y-15325452D01*
X4793214Y-15315928D01*
X4812262Y-15287357D01*
X4821786Y-15249262D01*
X4821786Y-15173071D01*
X4812262Y-15154024D01*
X4802738Y-15144500D01*
X4783690Y-15134976D01*
X4745595Y-15134976D01*
X4726548Y-15144500D01*
X4717024Y-15154024D01*
X4707500Y-15173071D01*
X4707500Y-15220690D01*
X4717024Y-15239738D01*
X4726548Y-15249262D01*
X4745595Y-15258786D01*
X4783690Y-15258786D01*
X4802738Y-15249262D01*
X4812262Y-15239738D01*
X4821786Y-15220690D01*
X4897976Y-15134976D02*
X4897976Y-15173071D01*
X4974167Y-15134976D02*
X4974167Y-15173071D01*
X5269405Y-15411167D02*
X5259881Y-15401643D01*
X5240833Y-15373071D01*
X5231310Y-15354024D01*
X5221786Y-15325452D01*
X5212262Y-15277833D01*
X5212262Y-15239738D01*
X5221786Y-15192119D01*
X5231310Y-15163548D01*
X5240833Y-15144500D01*
X5259881Y-15115928D01*
X5269405Y-15106405D01*
X5355119Y-15334976D02*
X5393214Y-15334976D01*
X5412262Y-15325452D01*
X5421786Y-15315928D01*
X5440833Y-15287357D01*
X5450357Y-15249262D01*
X5450357Y-15173071D01*
X5440833Y-15154024D01*
X5431310Y-15144500D01*
X5412262Y-15134976D01*
X5374167Y-15134976D01*
X5355119Y-15144500D01*
X5345595Y-15154024D01*
X5336071Y-15173071D01*
X5336071Y-15220690D01*
X5345595Y-15239738D01*
X5355119Y-15249262D01*
X5374167Y-15258786D01*
X5412262Y-15258786D01*
X5431310Y-15249262D01*
X5440833Y-15239738D01*
X5450357Y-15220690D01*
X5688452Y-15334976D02*
X5688452Y-15134976D01*
X5774167Y-15334976D02*
X5774167Y-15230214D01*
X5764643Y-15211167D01*
X5745595Y-15201643D01*
X5717024Y-15201643D01*
X5697976Y-15211167D01*
X5688452Y-15220690D01*
X5897976Y-15334976D02*
X5878928Y-15325452D01*
X5869405Y-15315928D01*
X5859881Y-15296881D01*
X5859881Y-15239738D01*
X5869405Y-15220690D01*
X5878928Y-15211167D01*
X5897976Y-15201643D01*
X5926548Y-15201643D01*
X5945595Y-15211167D01*
X5955119Y-15220690D01*
X5964643Y-15239738D01*
X5964643Y-15296881D01*
X5955119Y-15315928D01*
X5945595Y-15325452D01*
X5926548Y-15334976D01*
X5897976Y-15334976D01*
X6078928Y-15334976D02*
X6059881Y-15325452D01*
X6050357Y-15306405D01*
X6050357Y-15134976D01*
X6231309Y-15325452D02*
X6212262Y-15334976D01*
X6174167Y-15334976D01*
X6155119Y-15325452D01*
X6145595Y-15306405D01*
X6145595Y-15230214D01*
X6155119Y-15211167D01*
X6174167Y-15201643D01*
X6212262Y-15201643D01*
X6231309Y-15211167D01*
X6240833Y-15230214D01*
X6240833Y-15249262D01*
X6145595Y-15268309D01*
X6317024Y-15325452D02*
X6336071Y-15334976D01*
X6374167Y-15334976D01*
X6393214Y-15325452D01*
X6402738Y-15306405D01*
X6402738Y-15296881D01*
X6393214Y-15277833D01*
X6374167Y-15268309D01*
X6345595Y-15268309D01*
X6326548Y-15258786D01*
X6317024Y-15239738D01*
X6317024Y-15230214D01*
X6326548Y-15211167D01*
X6345595Y-15201643D01*
X6374167Y-15201643D01*
X6393214Y-15211167D01*
X6469405Y-15411167D02*
X6478928Y-15401643D01*
X6497976Y-15373071D01*
X6507500Y-15354024D01*
X6517024Y-15325452D01*
X6526548Y-15277833D01*
X6526548Y-15239738D01*
X6517024Y-15192119D01*
X6507500Y-15163548D01*
X6497976Y-15144500D01*
X6478928Y-15115928D01*
X6469405Y-15106405D01*
X1497500Y-15444500D02*
X1697500Y-15644500D01*
X1697500Y-15444500D02*
X1497500Y-15644500D01*
X1597500Y-15444500D02*
X1597500Y-15644500D01*
X1497500Y-15544500D02*
X1697500Y-15544500D01*
X1697500Y-15544500D02*
G75*
G03*
X1697500Y-15544500I-100000J0D01*
G01*
X1945595Y-15454024D02*
X1955119Y-15444500D01*
X1974167Y-15434976D01*
X2021786Y-15434976D01*
X2040833Y-15444500D01*
X2050357Y-15454024D01*
X2059881Y-15473071D01*
X2059881Y-15492119D01*
X2050357Y-15520690D01*
X1936071Y-15634976D01*
X2059881Y-15634976D01*
X2145595Y-15615928D02*
X2155119Y-15625452D01*
X2145595Y-15634976D01*
X2136071Y-15625452D01*
X2145595Y-15615928D01*
X2145595Y-15634976D01*
X2278929Y-15434976D02*
X2297976Y-15434976D01*
X2317024Y-15444500D01*
X2326548Y-15454024D01*
X2336071Y-15473071D01*
X2345595Y-15511167D01*
X2345595Y-15558786D01*
X2336071Y-15596881D01*
X2326548Y-15615928D01*
X2317024Y-15625452D01*
X2297976Y-15634976D01*
X2278929Y-15634976D01*
X2259881Y-15625452D01*
X2250357Y-15615928D01*
X2240833Y-15596881D01*
X2231310Y-15558786D01*
X2231310Y-15511167D01*
X2240833Y-15473071D01*
X2250357Y-15454024D01*
X2259881Y-15444500D01*
X2278929Y-15434976D01*
X2469405Y-15434976D02*
X2488452Y-15434976D01*
X2507500Y-15444500D01*
X2517024Y-15454024D01*
X2526548Y-15473071D01*
X2536071Y-15511167D01*
X2536071Y-15558786D01*
X2526548Y-15596881D01*
X2517024Y-15615928D01*
X2507500Y-15625452D01*
X2488452Y-15634976D01*
X2469405Y-15634976D01*
X2450357Y-15625452D01*
X2440833Y-15615928D01*
X2431310Y-15596881D01*
X2421786Y-15558786D01*
X2421786Y-15511167D01*
X2431310Y-15473071D01*
X2440833Y-15454024D01*
X2450357Y-15444500D01*
X2469405Y-15434976D01*
X2659881Y-15434976D02*
X2678929Y-15434976D01*
X2697976Y-15444500D01*
X2707500Y-15454024D01*
X2717024Y-15473071D01*
X2726548Y-15511167D01*
X2726548Y-15558786D01*
X2717024Y-15596881D01*
X2707500Y-15615928D01*
X2697976Y-15625452D01*
X2678929Y-15634976D01*
X2659881Y-15634976D01*
X2640833Y-15625452D01*
X2631310Y-15615928D01*
X2621786Y-15596881D01*
X2612262Y-15558786D01*
X2612262Y-15511167D01*
X2621786Y-15473071D01*
X2631310Y-15454024D01*
X2640833Y-15444500D01*
X2659881Y-15434976D01*
X2812262Y-15634976D02*
X2812262Y-15501643D01*
X2812262Y-15520690D02*
X2821786Y-15511167D01*
X2840833Y-15501643D01*
X2869405Y-15501643D01*
X2888452Y-15511167D01*
X2897976Y-15530214D01*
X2897976Y-15634976D01*
X2897976Y-15530214D02*
X2907500Y-15511167D01*
X2926548Y-15501643D01*
X2955119Y-15501643D01*
X2974167Y-15511167D01*
X2983690Y-15530214D01*
X2983690Y-15634976D01*
X3078928Y-15634976D02*
X3078928Y-15501643D01*
X3078928Y-15520690D02*
X3088452Y-15511167D01*
X3107500Y-15501643D01*
X3136071Y-15501643D01*
X3155119Y-15511167D01*
X3164643Y-15530214D01*
X3164643Y-15634976D01*
X3164643Y-15530214D02*
X3174167Y-15511167D01*
X3193214Y-15501643D01*
X3221786Y-15501643D01*
X3240833Y-15511167D01*
X3250357Y-15530214D01*
X3250357Y-15634976D01*
X3640833Y-15425452D02*
X3469405Y-15682595D01*
X3897976Y-15434976D02*
X3917024Y-15434976D01*
X3936071Y-15444500D01*
X3945595Y-15454024D01*
X3955119Y-15473071D01*
X3964643Y-15511167D01*
X3964643Y-15558786D01*
X3955119Y-15596881D01*
X3945595Y-15615928D01*
X3936071Y-15625452D01*
X3917024Y-15634976D01*
X3897976Y-15634976D01*
X3878928Y-15625452D01*
X3869405Y-15615928D01*
X3859881Y-15596881D01*
X3850357Y-15558786D01*
X3850357Y-15511167D01*
X3859881Y-15473071D01*
X3869405Y-15454024D01*
X3878928Y-15444500D01*
X3897976Y-15434976D01*
X4050357Y-15615928D02*
X4059881Y-15625452D01*
X4050357Y-15634976D01*
X4040833Y-15625452D01*
X4050357Y-15615928D01*
X4050357Y-15634976D01*
X4183690Y-15434976D02*
X4202738Y-15434976D01*
X4221786Y-15444500D01*
X4231310Y-15454024D01*
X4240833Y-15473071D01*
X4250357Y-15511167D01*
X4250357Y-15558786D01*
X4240833Y-15596881D01*
X4231310Y-15615928D01*
X4221786Y-15625452D01*
X4202738Y-15634976D01*
X4183690Y-15634976D01*
X4164643Y-15625452D01*
X4155119Y-15615928D01*
X4145595Y-15596881D01*
X4136071Y-15558786D01*
X4136071Y-15511167D01*
X4145595Y-15473071D01*
X4155119Y-15454024D01*
X4164643Y-15444500D01*
X4183690Y-15434976D01*
X4317024Y-15434976D02*
X4450357Y-15434976D01*
X4364643Y-15634976D01*
X4555119Y-15520690D02*
X4536071Y-15511167D01*
X4526548Y-15501643D01*
X4517024Y-15482595D01*
X4517024Y-15473071D01*
X4526548Y-15454024D01*
X4536071Y-15444500D01*
X4555119Y-15434976D01*
X4593214Y-15434976D01*
X4612262Y-15444500D01*
X4621786Y-15454024D01*
X4631310Y-15473071D01*
X4631310Y-15482595D01*
X4621786Y-15501643D01*
X4612262Y-15511167D01*
X4593214Y-15520690D01*
X4555119Y-15520690D01*
X4536071Y-15530214D01*
X4526548Y-15539738D01*
X4517024Y-15558786D01*
X4517024Y-15596881D01*
X4526548Y-15615928D01*
X4536071Y-15625452D01*
X4555119Y-15634976D01*
X4593214Y-15634976D01*
X4612262Y-15625452D01*
X4621786Y-15615928D01*
X4631310Y-15596881D01*
X4631310Y-15558786D01*
X4621786Y-15539738D01*
X4612262Y-15530214D01*
X4593214Y-15520690D01*
X4697976Y-15434976D02*
X4831310Y-15434976D01*
X4745595Y-15634976D01*
X4897976Y-15434976D02*
X4897976Y-15473071D01*
X4974167Y-15434976D02*
X4974167Y-15473071D01*
X5269405Y-15711167D02*
X5259881Y-15701643D01*
X5240833Y-15673071D01*
X5231310Y-15654024D01*
X5221786Y-15625452D01*
X5212262Y-15577833D01*
X5212262Y-15539738D01*
X5221786Y-15492119D01*
X5231310Y-15463548D01*
X5240833Y-15444500D01*
X5259881Y-15415928D01*
X5269405Y-15406405D01*
X5336071Y-15454024D02*
X5345595Y-15444500D01*
X5364643Y-15434976D01*
X5412262Y-15434976D01*
X5431310Y-15444500D01*
X5440833Y-15454024D01*
X5450357Y-15473071D01*
X5450357Y-15492119D01*
X5440833Y-15520690D01*
X5326548Y-15634976D01*
X5450357Y-15634976D01*
X5688452Y-15634976D02*
X5688452Y-15434976D01*
X5774167Y-15634976D02*
X5774167Y-15530214D01*
X5764643Y-15511167D01*
X5745595Y-15501643D01*
X5717024Y-15501643D01*
X5697976Y-15511167D01*
X5688452Y-15520690D01*
X5897976Y-15634976D02*
X5878928Y-15625452D01*
X5869405Y-15615928D01*
X5859881Y-15596881D01*
X5859881Y-15539738D01*
X5869405Y-15520690D01*
X5878928Y-15511167D01*
X5897976Y-15501643D01*
X5926548Y-15501643D01*
X5945595Y-15511167D01*
X5955119Y-15520690D01*
X5964643Y-15539738D01*
X5964643Y-15596881D01*
X5955119Y-15615928D01*
X5945595Y-15625452D01*
X5926548Y-15634976D01*
X5897976Y-15634976D01*
X6078928Y-15634976D02*
X6059881Y-15625452D01*
X6050357Y-15606405D01*
X6050357Y-15434976D01*
X6231309Y-15625452D02*
X6212262Y-15634976D01*
X6174167Y-15634976D01*
X6155119Y-15625452D01*
X6145595Y-15606405D01*
X6145595Y-15530214D01*
X6155119Y-15511167D01*
X6174167Y-15501643D01*
X6212262Y-15501643D01*
X6231309Y-15511167D01*
X6240833Y-15530214D01*
X6240833Y-15549262D01*
X6145595Y-15568309D01*
X6317024Y-15625452D02*
X6336071Y-15634976D01*
X6374167Y-15634976D01*
X6393214Y-15625452D01*
X6402738Y-15606405D01*
X6402738Y-15596881D01*
X6393214Y-15577833D01*
X6374167Y-15568309D01*
X6345595Y-15568309D01*
X6326548Y-15558786D01*
X6317024Y-15539738D01*
X6317024Y-15530214D01*
X6326548Y-15511167D01*
X6345595Y-15501643D01*
X6374167Y-15501643D01*
X6393214Y-15511167D01*
X6469405Y-15711167D02*
X6478928Y-15701643D01*
X6497976Y-15673071D01*
X6507500Y-15654024D01*
X6517024Y-15625452D01*
X6526548Y-15577833D01*
X6526548Y-15539738D01*
X6517024Y-15492119D01*
X6507500Y-15463548D01*
X6497976Y-15444500D01*
X6478928Y-15415928D01*
X6469405Y-15406405D01*
X1497500Y-15764500D02*
X1697500Y-15964500D01*
X1697500Y-15764500D02*
X1497500Y-15964500D01*
X1668211Y-15935211D02*
X1668211Y-15793789D01*
X1526789Y-15793789D01*
X1526789Y-15935211D01*
X1668211Y-15935211D01*
X1697500Y-15864500D02*
G75*
G03*
X1697500Y-15864500I-100000J0D01*
G01*
X1936071Y-15754976D02*
X2059881Y-15754976D01*
X1993214Y-15831167D01*
X2021786Y-15831167D01*
X2040833Y-15840690D01*
X2050357Y-15850214D01*
X2059881Y-15869262D01*
X2059881Y-15916881D01*
X2050357Y-15935928D01*
X2040833Y-15945452D01*
X2021786Y-15954976D01*
X1964643Y-15954976D01*
X1945595Y-15945452D01*
X1936071Y-15935928D01*
X2145595Y-15935928D02*
X2155119Y-15945452D01*
X2145595Y-15954976D01*
X2136071Y-15945452D01*
X2145595Y-15935928D01*
X2145595Y-15954976D01*
X2221786Y-15754976D02*
X2345595Y-15754976D01*
X2278929Y-15831167D01*
X2307500Y-15831167D01*
X2326548Y-15840690D01*
X2336071Y-15850214D01*
X2345595Y-15869262D01*
X2345595Y-15916881D01*
X2336071Y-15935928D01*
X2326548Y-15945452D01*
X2307500Y-15954976D01*
X2250357Y-15954976D01*
X2231310Y-15945452D01*
X2221786Y-15935928D01*
X2469405Y-15754976D02*
X2488452Y-15754976D01*
X2507500Y-15764500D01*
X2517024Y-15774024D01*
X2526548Y-15793071D01*
X2536071Y-15831167D01*
X2536071Y-15878786D01*
X2526548Y-15916881D01*
X2517024Y-15935928D01*
X2507500Y-15945452D01*
X2488452Y-15954976D01*
X2469405Y-15954976D01*
X2450357Y-15945452D01*
X2440833Y-15935928D01*
X2431310Y-15916881D01*
X2421786Y-15878786D01*
X2421786Y-15831167D01*
X2431310Y-15793071D01*
X2440833Y-15774024D01*
X2450357Y-15764500D01*
X2469405Y-15754976D01*
X2659881Y-15754976D02*
X2678929Y-15754976D01*
X2697976Y-15764500D01*
X2707500Y-15774024D01*
X2717024Y-15793071D01*
X2726548Y-15831167D01*
X2726548Y-15878786D01*
X2717024Y-15916881D01*
X2707500Y-15935928D01*
X2697976Y-15945452D01*
X2678929Y-15954976D01*
X2659881Y-15954976D01*
X2640833Y-15945452D01*
X2631310Y-15935928D01*
X2621786Y-15916881D01*
X2612262Y-15878786D01*
X2612262Y-15831167D01*
X2621786Y-15793071D01*
X2631310Y-15774024D01*
X2640833Y-15764500D01*
X2659881Y-15754976D01*
X2812262Y-15954976D02*
X2812262Y-15821643D01*
X2812262Y-15840690D02*
X2821786Y-15831167D01*
X2840833Y-15821643D01*
X2869405Y-15821643D01*
X2888452Y-15831167D01*
X2897976Y-15850214D01*
X2897976Y-15954976D01*
X2897976Y-15850214D02*
X2907500Y-15831167D01*
X2926548Y-15821643D01*
X2955119Y-15821643D01*
X2974167Y-15831167D01*
X2983690Y-15850214D01*
X2983690Y-15954976D01*
X3078928Y-15954976D02*
X3078928Y-15821643D01*
X3078928Y-15840690D02*
X3088452Y-15831167D01*
X3107500Y-15821643D01*
X3136071Y-15821643D01*
X3155119Y-15831167D01*
X3164643Y-15850214D01*
X3164643Y-15954976D01*
X3164643Y-15850214D02*
X3174167Y-15831167D01*
X3193214Y-15821643D01*
X3221786Y-15821643D01*
X3240833Y-15831167D01*
X3250357Y-15850214D01*
X3250357Y-15954976D01*
X3640833Y-15745452D02*
X3469405Y-16002595D01*
X3897976Y-15754976D02*
X3917024Y-15754976D01*
X3936071Y-15764500D01*
X3945595Y-15774024D01*
X3955119Y-15793071D01*
X3964643Y-15831167D01*
X3964643Y-15878786D01*
X3955119Y-15916881D01*
X3945595Y-15935928D01*
X3936071Y-15945452D01*
X3917024Y-15954976D01*
X3897976Y-15954976D01*
X3878928Y-15945452D01*
X3869405Y-15935928D01*
X3859881Y-15916881D01*
X3850357Y-15878786D01*
X3850357Y-15831167D01*
X3859881Y-15793071D01*
X3869405Y-15774024D01*
X3878928Y-15764500D01*
X3897976Y-15754976D01*
X4050357Y-15935928D02*
X4059881Y-15945452D01*
X4050357Y-15954976D01*
X4040833Y-15945452D01*
X4050357Y-15935928D01*
X4050357Y-15954976D01*
X4250357Y-15954976D02*
X4136071Y-15954976D01*
X4193214Y-15954976D02*
X4193214Y-15754976D01*
X4174167Y-15783548D01*
X4155119Y-15802595D01*
X4136071Y-15812119D01*
X4326548Y-15774024D02*
X4336071Y-15764500D01*
X4355119Y-15754976D01*
X4402738Y-15754976D01*
X4421786Y-15764500D01*
X4431310Y-15774024D01*
X4440833Y-15793071D01*
X4440833Y-15812119D01*
X4431310Y-15840690D01*
X4317024Y-15954976D01*
X4440833Y-15954976D01*
X4536071Y-15954976D02*
X4574167Y-15954976D01*
X4593214Y-15945452D01*
X4602738Y-15935928D01*
X4621786Y-15907357D01*
X4631310Y-15869262D01*
X4631310Y-15793071D01*
X4621786Y-15774024D01*
X4612262Y-15764500D01*
X4593214Y-15754976D01*
X4555119Y-15754976D01*
X4536071Y-15764500D01*
X4526548Y-15774024D01*
X4517024Y-15793071D01*
X4517024Y-15840690D01*
X4526548Y-15859738D01*
X4536071Y-15869262D01*
X4555119Y-15878786D01*
X4593214Y-15878786D01*
X4612262Y-15869262D01*
X4621786Y-15859738D01*
X4631310Y-15840690D01*
X4726548Y-15954976D02*
X4764643Y-15954976D01*
X4783690Y-15945452D01*
X4793214Y-15935928D01*
X4812262Y-15907357D01*
X4821786Y-15869262D01*
X4821786Y-15793071D01*
X4812262Y-15774024D01*
X4802738Y-15764500D01*
X4783690Y-15754976D01*
X4745595Y-15754976D01*
X4726548Y-15764500D01*
X4717024Y-15774024D01*
X4707500Y-15793071D01*
X4707500Y-15840690D01*
X4717024Y-15859738D01*
X4726548Y-15869262D01*
X4745595Y-15878786D01*
X4783690Y-15878786D01*
X4802738Y-15869262D01*
X4812262Y-15859738D01*
X4821786Y-15840690D01*
X4897976Y-15754976D02*
X4897976Y-15793071D01*
X4974167Y-15754976D02*
X4974167Y-15793071D01*
X5269405Y-16031167D02*
X5259881Y-16021643D01*
X5240833Y-15993071D01*
X5231310Y-15974024D01*
X5221786Y-15945452D01*
X5212262Y-15897833D01*
X5212262Y-15859738D01*
X5221786Y-15812119D01*
X5231310Y-15783548D01*
X5240833Y-15764500D01*
X5259881Y-15735928D01*
X5269405Y-15726405D01*
X5431310Y-15821643D02*
X5431310Y-15954976D01*
X5383690Y-15745452D02*
X5336071Y-15888309D01*
X5459881Y-15888309D01*
X5688452Y-15954976D02*
X5688452Y-15754976D01*
X5774167Y-15954976D02*
X5774167Y-15850214D01*
X5764643Y-15831167D01*
X5745595Y-15821643D01*
X5717024Y-15821643D01*
X5697976Y-15831167D01*
X5688452Y-15840690D01*
X5897976Y-15954976D02*
X5878928Y-15945452D01*
X5869405Y-15935928D01*
X5859881Y-15916881D01*
X5859881Y-15859738D01*
X5869405Y-15840690D01*
X5878928Y-15831167D01*
X5897976Y-15821643D01*
X5926548Y-15821643D01*
X5945595Y-15831167D01*
X5955119Y-15840690D01*
X5964643Y-15859738D01*
X5964643Y-15916881D01*
X5955119Y-15935928D01*
X5945595Y-15945452D01*
X5926548Y-15954976D01*
X5897976Y-15954976D01*
X6078928Y-15954976D02*
X6059881Y-15945452D01*
X6050357Y-15926405D01*
X6050357Y-15754976D01*
X6231309Y-15945452D02*
X6212262Y-15954976D01*
X6174167Y-15954976D01*
X6155119Y-15945452D01*
X6145595Y-15926405D01*
X6145595Y-15850214D01*
X6155119Y-15831167D01*
X6174167Y-15821643D01*
X6212262Y-15821643D01*
X6231309Y-15831167D01*
X6240833Y-15850214D01*
X6240833Y-15869262D01*
X6145595Y-15888309D01*
X6317024Y-15945452D02*
X6336071Y-15954976D01*
X6374167Y-15954976D01*
X6393214Y-15945452D01*
X6402738Y-15926405D01*
X6402738Y-15916881D01*
X6393214Y-15897833D01*
X6374167Y-15888309D01*
X6345595Y-15888309D01*
X6326548Y-15878786D01*
X6317024Y-15859738D01*
X6317024Y-15850214D01*
X6326548Y-15831167D01*
X6345595Y-15821643D01*
X6374167Y-15821643D01*
X6393214Y-15831167D01*
X6469405Y-16031167D02*
X6478928Y-16021643D01*
X6497976Y-15993071D01*
X6507500Y-15974024D01*
X6517024Y-15945452D01*
X6526548Y-15897833D01*
X6526548Y-15859738D01*
X6517024Y-15812119D01*
X6507500Y-15783548D01*
X6497976Y-15764500D01*
X6478928Y-15735928D01*
X6469405Y-15726405D01*
M02*
