M48
; DRILL file {KiCad (6.0.1)} date Mon Feb 14 21:09:09 2022
; FORMAT={-:-/ absolute / metric / decimal}
; #@! TF.CreationDate,2022-02-14T21:09:09+01:00
; #@! TF.GenerationSoftware,Kicad,Pcbnew,(6.0.1)
; #@! TF.FileFunction,Plated,1,2,PTH
FMAT,2
METRIC
; #@! TA.AperFunction,Plated,PTH,ViaDrill
T1C0.400
; #@! TA.AperFunction,Plated,PTH,ViaDrill
T2C0.500
; #@! TA.AperFunction,Plated,PTH,ViaDrill
T3C0.600
; #@! TA.AperFunction,Plated,PTH,ComponentDrill
T4C0.700
; #@! TA.AperFunction,Plated,PTH,ComponentDrill
T5C0.750
; #@! TA.AperFunction,Plated,PTH,ComponentDrill
T6C0.800
; #@! TA.AperFunction,Plated,PTH,ComponentDrill
T7C0.900
; #@! TA.AperFunction,Plated,PTH,ComponentDrill
T8C1.000
; #@! TA.AperFunction,Plated,PTH,ComponentDrill
T9C1.010
; #@! TA.AperFunction,Plated,PTH,ComponentDrill
T10C1.050
; #@! TA.AperFunction,Plated,PTH,ComponentDrill
T11C1.100
; #@! TA.AperFunction,Plated,PTH,ComponentDrill
T12C1.200
; #@! TA.AperFunction,Plated,PTH,ComponentDrill
T13C1.300
; #@! TA.AperFunction,Plated,PTH,ComponentDrill
T14C1.500
; #@! TA.AperFunction,Plated,PTH,ComponentDrill
T15C1.800
; #@! TA.AperFunction,Plated,PTH,ComponentDrill
T16C2.000
; #@! TA.AperFunction,Plated,PTH,ViaDrill
T17C3.300
%
G90
G05
T1
X64.008Y-81.788
X66.929Y-75.946
X67.437Y-78.486
X69.977Y-76.327
X74.041Y-62.357
X74.422Y-77.47
X75.057Y-76.327
X75.438Y-84.328
X75.565Y-74.93
X76.2Y-69.342
X76.581Y-77.851
X76.708Y-84.582
X76.708Y-90.338
X76.962Y-93.624
X77.597Y-74.93
X77.978Y-92.075
X79.502Y-82.423
X79.756Y-74.295
X79.883Y-76.2
X80.137Y-88.519
X80.264Y-87.376
X80.264Y-99.314
X80.277Y-81.534
X80.645Y-78.486
X81.28Y-77.724
X81.788Y-72.263
X82.169Y-47.498
X82.55Y-89.789
X82.931Y-79.502
X83.058Y-65.151
X83.185Y-73.025
X83.566Y-93.853
X83.906Y-88.773
X84.836Y-53.975
X84.836Y-87.503
X85.344Y-89.281
X85.471Y-85.725
X85.598Y-79.883
X85.979Y-93.853
X86.766Y-82.55
X86.919Y-81.128
X87.503Y-93.345
X88.748Y-86.995
X89.027Y-84.922
X89.408Y-86.233
X89.662Y-66.04
X89.662Y-71.247
X89.662Y-76.073
X90.805Y-23.368
X90.805Y-26.67
X90.994Y-62.803
X91.694Y-65.151
X91.694Y-78.994
X92.202Y-93.345
X94.361Y-70.104
X94.488Y-42.672
X94.488Y-62.738
X95.123Y-78.994
X96.139Y-64.008
X96.647Y-54.61
X97.155Y-98.679
X97.536Y-97.79
X97.79Y-50.8
X98.425Y-97.028
X99.06Y-100.838
X99.568Y-96.647
X100.076Y-70.104
X101.854Y-38.608
X104.394Y-99.822
X105.156Y-67.691
T2
X33.909Y-92.202
X59.055Y-89.535
X73.914Y-74.676
X75.057Y-70.358
X75.946Y-54.61
X76.581Y-71.882
X83.439Y-61.468
X85.471Y-74.803
X88.011Y-76.073
X88.773Y-29.845
X90.805Y-33.655
X96.647Y-60.198
X99.06Y-88.011
X102.87Y-74.041
T3
X64.175Y-44.918
T4
X65.262Y-31.115
X67.162Y-31.115
T5
X48.705Y-104.225
X50.705Y-104.225
X52.705Y-104.225
X54.705Y-104.225
X56.705Y-104.225
X61.722Y-104.267
X63.722Y-104.267
X65.722Y-104.267
X67.722Y-104.267
X69.722Y-104.267
X71.722Y-104.267
T6
X25.225Y-82.294
X25.225Y-89.914
X27.765Y-82.294
X27.765Y-89.914
X30.305Y-82.294
X30.305Y-89.914
X30.861Y-64.897
X30.861Y-75.057
X35.413Y-65.659
X37.262Y-69.952
X37.262Y-80.112
X39.263Y-60.706
X39.39Y-56.896
X40.691Y-69.901
X40.691Y-80.061
X44.069Y-69.901
X44.069Y-80.061
X45.573Y-65.659
X49.423Y-60.706
X49.55Y-56.896
X63.38Y-68.377
X65.38Y-68.377
X70.231Y-67.391
X70.231Y-69.391
T7
X78.754Y-47.693
X78.754Y-50.233
X78.754Y-52.773
X78.754Y-55.313
X78.754Y-57.853
X78.754Y-61.282
X78.754Y-63.822
X78.754Y-66.362
X88.456Y-50.103
X88.456Y-52.643
X88.456Y-55.183
X88.456Y-57.723
X88.456Y-60.263
X88.456Y-62.803
T8
X48.946Y-69.197
X48.946Y-79.197
X64.175Y-37.719
X64.175Y-48.768
X69.175Y-37.719
X69.175Y-48.768
X75.362Y-21.031
X75.362Y-23.571
X75.362Y-32.461
X75.362Y-35.001
X85.638Y-40.369
X88.138Y-40.369
X90.638Y-40.369
X94.412Y-21.031
X94.412Y-23.571
X94.412Y-32.461
X94.412Y-35.001
T9
X64.496Y-27.743
X69.596Y-26.543
T10
X76.474Y-40.369
X78.974Y-40.369
T11
X61.849Y-72.949
X63.146Y-21.742
X65.686Y-21.742
X68.226Y-21.742
X70.766Y-21.742
X72.009Y-72.949
X102.235Y-84.328
X102.235Y-86.868
X102.235Y-89.408
X102.235Y-91.948
X102.235Y-94.488
X102.235Y-97.028
T12
X19.798Y-60.757
X34.798Y-60.757
X78.95Y-102.367
X78.95Y-104.907
X81.489Y-102.367
X81.489Y-104.907
X84.029Y-102.367
X84.029Y-104.907
X86.569Y-102.367
X86.569Y-104.907
X89.109Y-102.367
X89.109Y-104.907
X91.649Y-102.367
X91.649Y-104.907
X94.189Y-102.367
X94.189Y-104.907
T13
X21.004Y-66.827
X21.004Y-71.907
X26.492Y-69.367
X100.909Y-44.958
X100.909Y-47.498
X100.909Y-50.038
X101.092Y-29.616
X101.092Y-32.156
X101.092Y-34.696
X101.475Y-61.671
X101.475Y-64.211
X101.475Y-66.751
T15
X24.536Y-32.18
X24.536Y-54.18
X29.957Y-23.463
X34.957Y-23.463
X39.957Y-23.463
X45.22Y-23.473
X48.26Y-47.729
X48.26Y-51.689
X50.22Y-23.473
T16
X48.133Y-33.228
X48.133Y-41.148
T17
X22.0Y-22.5
X22.0Y-104.0
X102.0Y-22.5
X102.0Y-104.0
T14
X20.403Y-95.687G85X21.903Y-95.687
G05
X32.903Y-95.687G85X34.403Y-95.687
G05
T0
M30
