%FSLAX45Y45*%
G04 Gerber Fmt 4.5, Leading zero omitted, Abs format (unit mm)*
G04 Created by KiCad (PCBNEW (6.0.1)) date 2022-02-14 21:09:22*
%MOMM*%
%LPD*%
G01*
G04 APERTURE LIST*
%TA.AperFunction,Profile*%
%ADD10C,0.050000*%
%TD*%
%ADD11C,0.200000*%
%ADD12C,0.180000*%
G04 APERTURE END LIST*
D10*
X1700000Y-10900000D02*
X1700000Y-9000000D01*
X10700000Y-10900000D02*
X1700000Y-10900000D01*
X1700000Y-9000000D02*
X1700000Y-1800000D01*
X1700000Y-1800000D02*
X10700000Y-1800000D01*
X10700000Y-1800000D02*
X10700000Y-10900000D01*
D11*
D12*
X4723300Y-3628800D02*
X4903300Y-3808800D01*
X4903300Y-3628800D02*
X4723300Y-3808800D01*
D11*
X1955119Y-11212976D02*
X1955119Y-11012976D01*
X2002738Y-11012976D01*
X2031309Y-11022500D01*
X2050357Y-11041548D01*
X2059881Y-11060595D01*
X2069405Y-11098690D01*
X2069405Y-11127262D01*
X2059881Y-11165357D01*
X2050357Y-11184405D01*
X2031309Y-11203452D01*
X2002738Y-11212976D01*
X1955119Y-11212976D01*
X2155119Y-11212976D02*
X2155119Y-11079643D01*
X2155119Y-11117738D02*
X2164643Y-11098690D01*
X2174167Y-11089167D01*
X2193214Y-11079643D01*
X2212262Y-11079643D01*
X2278929Y-11212976D02*
X2278929Y-11079643D01*
X2278929Y-11012976D02*
X2269405Y-11022500D01*
X2278929Y-11032024D01*
X2288452Y-11022500D01*
X2278929Y-11012976D01*
X2278929Y-11032024D01*
X2402738Y-11212976D02*
X2383690Y-11203452D01*
X2374167Y-11184405D01*
X2374167Y-11012976D01*
X2507500Y-11212976D02*
X2488452Y-11203452D01*
X2478929Y-11184405D01*
X2478929Y-11012976D01*
X2736071Y-11212976D02*
X2736071Y-11012976D01*
X2802738Y-11155833D01*
X2869405Y-11012976D01*
X2869405Y-11212976D01*
X3050357Y-11212976D02*
X3050357Y-11108214D01*
X3040833Y-11089167D01*
X3021786Y-11079643D01*
X2983690Y-11079643D01*
X2964643Y-11089167D01*
X3050357Y-11203452D02*
X3031309Y-11212976D01*
X2983690Y-11212976D01*
X2964643Y-11203452D01*
X2955119Y-11184405D01*
X2955119Y-11165357D01*
X2964643Y-11146310D01*
X2983690Y-11136786D01*
X3031309Y-11136786D01*
X3050357Y-11127262D01*
X3145595Y-11079643D02*
X3145595Y-11279643D01*
X3145595Y-11089167D02*
X3164643Y-11079643D01*
X3202738Y-11079643D01*
X3221786Y-11089167D01*
X3231309Y-11098690D01*
X3240833Y-11117738D01*
X3240833Y-11174881D01*
X3231309Y-11193928D01*
X3221786Y-11203452D01*
X3202738Y-11212976D01*
X3164643Y-11212976D01*
X3145595Y-11203452D01*
X3326548Y-11193928D02*
X3336071Y-11203452D01*
X3326548Y-11212976D01*
X3317024Y-11203452D01*
X3326548Y-11193928D01*
X3326548Y-11212976D01*
X3326548Y-11089167D02*
X3336071Y-11098690D01*
X3326548Y-11108214D01*
X3317024Y-11098690D01*
X3326548Y-11089167D01*
X3326548Y-11108214D01*
D12*
X1517500Y-11452500D02*
X1697500Y-11632500D01*
X1697500Y-11452500D02*
X1517500Y-11632500D01*
D11*
X2059881Y-11632976D02*
X1945595Y-11632976D01*
X2002738Y-11632976D02*
X2002738Y-11432976D01*
X1983690Y-11461548D01*
X1964643Y-11480595D01*
X1945595Y-11490119D01*
X2145595Y-11613928D02*
X2155119Y-11623452D01*
X2145595Y-11632976D01*
X2136071Y-11623452D01*
X2145595Y-11613928D01*
X2145595Y-11632976D01*
X2269405Y-11518690D02*
X2250357Y-11509167D01*
X2240833Y-11499643D01*
X2231310Y-11480595D01*
X2231310Y-11471071D01*
X2240833Y-11452024D01*
X2250357Y-11442500D01*
X2269405Y-11432976D01*
X2307500Y-11432976D01*
X2326548Y-11442500D01*
X2336071Y-11452024D01*
X2345595Y-11471071D01*
X2345595Y-11480595D01*
X2336071Y-11499643D01*
X2326548Y-11509167D01*
X2307500Y-11518690D01*
X2269405Y-11518690D01*
X2250357Y-11528214D01*
X2240833Y-11537738D01*
X2231310Y-11556786D01*
X2231310Y-11594881D01*
X2240833Y-11613928D01*
X2250357Y-11623452D01*
X2269405Y-11632976D01*
X2307500Y-11632976D01*
X2326548Y-11623452D01*
X2336071Y-11613928D01*
X2345595Y-11594881D01*
X2345595Y-11556786D01*
X2336071Y-11537738D01*
X2326548Y-11528214D01*
X2307500Y-11518690D01*
X2469405Y-11432976D02*
X2488452Y-11432976D01*
X2507500Y-11442500D01*
X2517024Y-11452024D01*
X2526548Y-11471071D01*
X2536071Y-11509167D01*
X2536071Y-11556786D01*
X2526548Y-11594881D01*
X2517024Y-11613928D01*
X2507500Y-11623452D01*
X2488452Y-11632976D01*
X2469405Y-11632976D01*
X2450357Y-11623452D01*
X2440833Y-11613928D01*
X2431310Y-11594881D01*
X2421786Y-11556786D01*
X2421786Y-11509167D01*
X2431310Y-11471071D01*
X2440833Y-11452024D01*
X2450357Y-11442500D01*
X2469405Y-11432976D01*
X2659881Y-11432976D02*
X2678929Y-11432976D01*
X2697976Y-11442500D01*
X2707500Y-11452024D01*
X2717024Y-11471071D01*
X2726548Y-11509167D01*
X2726548Y-11556786D01*
X2717024Y-11594881D01*
X2707500Y-11613928D01*
X2697976Y-11623452D01*
X2678929Y-11632976D01*
X2659881Y-11632976D01*
X2640833Y-11623452D01*
X2631310Y-11613928D01*
X2621786Y-11594881D01*
X2612262Y-11556786D01*
X2612262Y-11509167D01*
X2621786Y-11471071D01*
X2631310Y-11452024D01*
X2640833Y-11442500D01*
X2659881Y-11432976D01*
X2812262Y-11632976D02*
X2812262Y-11499643D01*
X2812262Y-11518690D02*
X2821786Y-11509167D01*
X2840833Y-11499643D01*
X2869405Y-11499643D01*
X2888452Y-11509167D01*
X2897976Y-11528214D01*
X2897976Y-11632976D01*
X2897976Y-11528214D02*
X2907500Y-11509167D01*
X2926548Y-11499643D01*
X2955119Y-11499643D01*
X2974167Y-11509167D01*
X2983690Y-11528214D01*
X2983690Y-11632976D01*
X3078928Y-11632976D02*
X3078928Y-11499643D01*
X3078928Y-11518690D02*
X3088452Y-11509167D01*
X3107500Y-11499643D01*
X3136071Y-11499643D01*
X3155119Y-11509167D01*
X3164643Y-11528214D01*
X3164643Y-11632976D01*
X3164643Y-11528214D02*
X3174167Y-11509167D01*
X3193214Y-11499643D01*
X3221786Y-11499643D01*
X3240833Y-11509167D01*
X3250357Y-11528214D01*
X3250357Y-11632976D01*
X3640833Y-11423452D02*
X3469405Y-11680595D01*
X3897976Y-11432976D02*
X3917024Y-11432976D01*
X3936071Y-11442500D01*
X3945595Y-11452024D01*
X3955119Y-11471071D01*
X3964643Y-11509167D01*
X3964643Y-11556786D01*
X3955119Y-11594881D01*
X3945595Y-11613928D01*
X3936071Y-11623452D01*
X3917024Y-11632976D01*
X3897976Y-11632976D01*
X3878928Y-11623452D01*
X3869405Y-11613928D01*
X3859881Y-11594881D01*
X3850357Y-11556786D01*
X3850357Y-11509167D01*
X3859881Y-11471071D01*
X3869405Y-11452024D01*
X3878928Y-11442500D01*
X3897976Y-11432976D01*
X4050357Y-11613928D02*
X4059881Y-11623452D01*
X4050357Y-11632976D01*
X4040833Y-11623452D01*
X4050357Y-11613928D01*
X4050357Y-11632976D01*
X4183690Y-11432976D02*
X4202738Y-11432976D01*
X4221786Y-11442500D01*
X4231310Y-11452024D01*
X4240833Y-11471071D01*
X4250357Y-11509167D01*
X4250357Y-11556786D01*
X4240833Y-11594881D01*
X4231310Y-11613928D01*
X4221786Y-11623452D01*
X4202738Y-11632976D01*
X4183690Y-11632976D01*
X4164643Y-11623452D01*
X4155119Y-11613928D01*
X4145595Y-11594881D01*
X4136071Y-11556786D01*
X4136071Y-11509167D01*
X4145595Y-11471071D01*
X4155119Y-11452024D01*
X4164643Y-11442500D01*
X4183690Y-11432976D01*
X4317024Y-11432976D02*
X4450357Y-11432976D01*
X4364643Y-11632976D01*
X4564643Y-11432976D02*
X4583690Y-11432976D01*
X4602738Y-11442500D01*
X4612262Y-11452024D01*
X4621786Y-11471071D01*
X4631310Y-11509167D01*
X4631310Y-11556786D01*
X4621786Y-11594881D01*
X4612262Y-11613928D01*
X4602738Y-11623452D01*
X4583690Y-11632976D01*
X4564643Y-11632976D01*
X4545595Y-11623452D01*
X4536071Y-11613928D01*
X4526548Y-11594881D01*
X4517024Y-11556786D01*
X4517024Y-11509167D01*
X4526548Y-11471071D01*
X4536071Y-11452024D01*
X4545595Y-11442500D01*
X4564643Y-11432976D01*
X4726548Y-11632976D02*
X4764643Y-11632976D01*
X4783690Y-11623452D01*
X4793214Y-11613928D01*
X4812262Y-11585357D01*
X4821786Y-11547262D01*
X4821786Y-11471071D01*
X4812262Y-11452024D01*
X4802738Y-11442500D01*
X4783690Y-11432976D01*
X4745595Y-11432976D01*
X4726548Y-11442500D01*
X4717024Y-11452024D01*
X4707500Y-11471071D01*
X4707500Y-11518690D01*
X4717024Y-11537738D01*
X4726548Y-11547262D01*
X4745595Y-11556786D01*
X4783690Y-11556786D01*
X4802738Y-11547262D01*
X4812262Y-11537738D01*
X4821786Y-11518690D01*
X4897976Y-11432976D02*
X4897976Y-11471071D01*
X4974167Y-11432976D02*
X4974167Y-11471071D01*
X5269405Y-11709167D02*
X5259881Y-11699643D01*
X5240833Y-11671071D01*
X5231310Y-11652024D01*
X5221786Y-11623452D01*
X5212262Y-11575833D01*
X5212262Y-11537738D01*
X5221786Y-11490119D01*
X5231310Y-11461548D01*
X5240833Y-11442500D01*
X5259881Y-11413928D01*
X5269405Y-11404405D01*
X5450357Y-11632976D02*
X5336071Y-11632976D01*
X5393214Y-11632976D02*
X5393214Y-11432976D01*
X5374167Y-11461548D01*
X5355119Y-11480595D01*
X5336071Y-11490119D01*
X5688452Y-11632976D02*
X5688452Y-11432976D01*
X5774167Y-11632976D02*
X5774167Y-11528214D01*
X5764643Y-11509167D01*
X5745595Y-11499643D01*
X5717024Y-11499643D01*
X5697976Y-11509167D01*
X5688452Y-11518690D01*
X5897976Y-11632976D02*
X5878928Y-11623452D01*
X5869405Y-11613928D01*
X5859881Y-11594881D01*
X5859881Y-11537738D01*
X5869405Y-11518690D01*
X5878928Y-11509167D01*
X5897976Y-11499643D01*
X5926548Y-11499643D01*
X5945595Y-11509167D01*
X5955119Y-11518690D01*
X5964643Y-11537738D01*
X5964643Y-11594881D01*
X5955119Y-11613928D01*
X5945595Y-11623452D01*
X5926548Y-11632976D01*
X5897976Y-11632976D01*
X6078928Y-11632976D02*
X6059881Y-11623452D01*
X6050357Y-11604405D01*
X6050357Y-11432976D01*
X6231309Y-11623452D02*
X6212262Y-11632976D01*
X6174167Y-11632976D01*
X6155119Y-11623452D01*
X6145595Y-11604405D01*
X6145595Y-11528214D01*
X6155119Y-11509167D01*
X6174167Y-11499643D01*
X6212262Y-11499643D01*
X6231309Y-11509167D01*
X6240833Y-11528214D01*
X6240833Y-11547262D01*
X6145595Y-11566309D01*
X6307500Y-11709167D02*
X6317024Y-11699643D01*
X6336071Y-11671071D01*
X6345595Y-11652024D01*
X6355119Y-11623452D01*
X6364643Y-11575833D01*
X6364643Y-11537738D01*
X6355119Y-11490119D01*
X6345595Y-11461548D01*
X6336071Y-11442500D01*
X6317024Y-11413928D01*
X6307500Y-11404405D01*
X6669405Y-11709167D02*
X6659881Y-11699643D01*
X6640833Y-11671071D01*
X6631309Y-11652024D01*
X6621786Y-11623452D01*
X6612262Y-11575833D01*
X6612262Y-11537738D01*
X6621786Y-11490119D01*
X6631309Y-11461548D01*
X6640833Y-11442500D01*
X6659881Y-11413928D01*
X6669405Y-11404405D01*
X6745595Y-11499643D02*
X6745595Y-11632976D01*
X6745595Y-11518690D02*
X6755119Y-11509167D01*
X6774167Y-11499643D01*
X6802738Y-11499643D01*
X6821786Y-11509167D01*
X6831309Y-11528214D01*
X6831309Y-11632976D01*
X6955119Y-11632976D02*
X6936071Y-11623452D01*
X6926548Y-11613928D01*
X6917024Y-11594881D01*
X6917024Y-11537738D01*
X6926548Y-11518690D01*
X6936071Y-11509167D01*
X6955119Y-11499643D01*
X6983690Y-11499643D01*
X7002738Y-11509167D01*
X7012262Y-11518690D01*
X7021786Y-11537738D01*
X7021786Y-11594881D01*
X7012262Y-11613928D01*
X7002738Y-11623452D01*
X6983690Y-11632976D01*
X6955119Y-11632976D01*
X7078928Y-11499643D02*
X7155119Y-11499643D01*
X7107500Y-11432976D02*
X7107500Y-11604405D01*
X7117024Y-11623452D01*
X7136071Y-11632976D01*
X7155119Y-11632976D01*
X7374167Y-11499643D02*
X7374167Y-11699643D01*
X7374167Y-11509167D02*
X7393214Y-11499643D01*
X7431309Y-11499643D01*
X7450357Y-11509167D01*
X7459881Y-11518690D01*
X7469405Y-11537738D01*
X7469405Y-11594881D01*
X7459881Y-11613928D01*
X7450357Y-11623452D01*
X7431309Y-11632976D01*
X7393214Y-11632976D01*
X7374167Y-11623452D01*
X7583690Y-11632976D02*
X7564643Y-11623452D01*
X7555119Y-11604405D01*
X7555119Y-11432976D01*
X7745595Y-11632976D02*
X7745595Y-11528214D01*
X7736071Y-11509167D01*
X7717024Y-11499643D01*
X7678928Y-11499643D01*
X7659881Y-11509167D01*
X7745595Y-11623452D02*
X7726548Y-11632976D01*
X7678928Y-11632976D01*
X7659881Y-11623452D01*
X7650357Y-11604405D01*
X7650357Y-11585357D01*
X7659881Y-11566309D01*
X7678928Y-11556786D01*
X7726548Y-11556786D01*
X7745595Y-11547262D01*
X7812262Y-11499643D02*
X7888452Y-11499643D01*
X7840833Y-11432976D02*
X7840833Y-11604405D01*
X7850357Y-11623452D01*
X7869405Y-11632976D01*
X7888452Y-11632976D01*
X8031309Y-11623452D02*
X8012262Y-11632976D01*
X7974167Y-11632976D01*
X7955119Y-11623452D01*
X7945595Y-11604405D01*
X7945595Y-11528214D01*
X7955119Y-11509167D01*
X7974167Y-11499643D01*
X8012262Y-11499643D01*
X8031309Y-11509167D01*
X8040833Y-11528214D01*
X8040833Y-11547262D01*
X7945595Y-11566309D01*
X8212262Y-11632976D02*
X8212262Y-11432976D01*
X8212262Y-11623452D02*
X8193214Y-11632976D01*
X8155119Y-11632976D01*
X8136071Y-11623452D01*
X8126548Y-11613928D01*
X8117024Y-11594881D01*
X8117024Y-11537738D01*
X8126548Y-11518690D01*
X8136071Y-11509167D01*
X8155119Y-11499643D01*
X8193214Y-11499643D01*
X8212262Y-11509167D01*
X8288452Y-11709167D02*
X8297976Y-11699643D01*
X8317024Y-11671071D01*
X8326548Y-11652024D01*
X8336071Y-11623452D01*
X8345595Y-11575833D01*
X8345595Y-11537738D01*
X8336071Y-11490119D01*
X8326548Y-11461548D01*
X8317024Y-11442500D01*
X8297976Y-11413928D01*
X8288452Y-11404405D01*
M02*
